<?xml version="1.0" encoding="UTF-8"?>
<svg width="1200pt" height="1200pt" version="1.1" viewBox="0 0 1200 1200" xmlns="http://www.w3.org/2000/svg">
 <g>
  <rect width="1200" height="1200"/>
  <path d="m608.5 954.24c-5.1953 0-9.4453-4.25-9.4453-9.4453s3.7773-9.4453 9.4453-9.4453c5.1953 0 9.4453 3.7773 9.4453 9.4453 0 4.7227-4.25 9.4453-9.4453 9.4453zm-52.902-2.832c-5.1953-0.47266-8.9727-5.1953-8.0312-10.391 0.47266-5.1953 5.1953-8.9727 10.391-8.0312 5.1953 0.47266 8.9727 5.1953 8.0312 10.391-0.47266 4.7227-4.7227 8.5-9.4453 8.5 0-0.46875-0.47266-0.46875-0.94531-0.46875zm94.465-10.391c-0.94531-5.1953 2.3633-9.918 7.5586-10.863s9.918 2.3633 10.863 7.5586c0.94531 5.1953-2.3633 9.918-7.5586 10.863h-1.8906c-4.25 0.46875-8.0273-2.8359-8.9727-7.5586zm-146.42 0c-5.1953-1.418-8.0312-6.6133-6.6133-11.809 1.418-5.1953 6.6133-8.0312 11.809-6.6133 5.1953 1.418 8.0312 6.6133 6.6133 11.809-1.418 4.25-4.7227 7.0859-8.9727 7.0859-0.94531-0.47266-1.8906-0.47266-2.8359-0.47266zm196.96-10.863c-1.418-4.7227 0.94531-10.391 6.1406-11.809 4.7227-1.8906 10.391 0.94531 11.809 6.1406 1.8906 4.7227-0.94531 10.391-6.1406 11.809-0.94531 0.47266-1.8906 0.47266-2.832 0.47266-4.2539-0.47656-8.0312-2.8359-8.9766-6.6133zm-246.55-7.5586c-4.7227-2.3633-7.0859-7.5586-4.7227-12.281s7.5586-7.0859 12.281-4.7227c4.7227 2.3633 7.0859 7.5586 4.7227 12.281-1.418 3.3047-5.1953 5.668-8.5 5.668-1.4219 0-2.8359 0-3.7812-0.94531zm294.26-11.336c-2.3633-4.7227-0.47266-10.391 4.25-12.754 4.7227-2.3633 10.391-0.47266 12.754 4.25 2.3633 4.7227 0.47266 10.391-4.25 12.754-1.418 0.47266-2.832 0.94531-4.25 0.94531-3.3086 0-6.6172-1.8906-8.5039-5.1953zm-341.02-13.699c-4.25-2.832-5.668-8.5-2.832-13.227 2.832-4.25 8.5-5.668 13.227-2.832 4.25 2.832 5.668 8.5 2.832 13.227-1.8906 2.832-4.7227 4.25-8.0312 4.25-1.4141 0-3.3047-0.47266-5.1953-1.418zm385.89-11.805c-2.832-4.25-1.8906-10.391 2.3633-13.227 4.25-2.832 9.918-1.8906 13.227 2.3633 2.832 4.25 1.8906 10.391-2.3633 13.227-1.8906 1.418-3.7773 1.8906-5.668 1.8906-2.832-0.47656-5.668-1.8945-7.5586-4.2539zm-427.92-20.312c-3.7773-3.3047-4.25-9.4453-0.94531-13.227 3.3047-3.7773 9.4453-4.25 13.227-0.94531 3.7773 3.3047 4.25 9.4453 0.94531 13.227-1.8906 2.3633-4.25 3.3047-7.0859 3.3047-1.8906 0.003906-4.25-0.94141-6.1406-2.3594zm468.54-11.809c-3.7773-3.7773-3.7773-9.918 0-13.227 3.7773-3.7773 9.4453-3.7773 13.227 0 3.7773 3.7773 3.7773 9.918 0 13.227-1.8906 1.8906-4.25 2.832-6.6133 2.832-2.3633 0.003906-5.1953-0.94141-6.6133-2.832zm-505.38-26.449c-3.3047-3.7773-2.832-9.918 1.418-13.227 3.7773-3.3047 9.918-2.832 13.227 1.418 3.3047 3.7773 2.832 9.918-1.418 13.227-1.8906 1.418-3.7773 2.3633-6.1406 2.3633-2.3633 0-5.1992-1.418-7.0859-3.7812zm540.34-11.336c-4.25-3.3047-4.7227-8.9727-1.8906-13.227 3.3047-4.25 8.9727-4.7227 13.227-1.8906 4.25 3.3047 4.7227 8.9727 1.8906 13.227-1.8906 2.3633-4.7227 3.7773-7.5586 3.7773-1.8906 0.47656-3.7812-0.46875-5.668-1.8867zm-571.04-31.645c-2.832-4.7227-1.418-10.391 3.3047-13.227 4.25-2.832 10.391-1.418 13.227 3.3047 2.832 4.25 1.418 10.391-3.3047 12.754-1.418 0.94531-3.3047 1.418-4.7227 1.418-3.7812 0.47266-6.6133-0.94531-8.5039-4.25zm600.32-10.391c-4.7227-2.3633-6.1406-8.0312-3.7773-12.754 2.3633-4.7227 8.5-6.1406 12.754-3.7773 4.7227 2.3633 6.1406 8.0312 3.7773 12.754-1.8906 3.3047-4.7227 4.7227-8.5 4.7227-1.418 0-2.8359-0.47266-4.2539-0.94531zm-624.41-36.371c-1.8906-4.7227 0-10.391 5.1953-12.281 4.7227-1.8906 10.391 0 12.281 5.1953 1.8906 4.7227 0 10.391-5.1953 12.281-1.418 0.47266-2.3633 0.94531-3.7773 0.94531-3.7812-0.47266-7.0898-2.832-8.5039-6.1406zm647.08-9.918c-4.7227-1.8906-7.5586-7.0859-5.668-12.281 1.8906-4.7227 7.0859-7.5586 12.281-5.668 4.7227 1.8906 7.5586 7.0859 5.668 12.281-1.418 3.7773-5.1953 6.1406-8.9727 6.1406-1.418 0-2.3633-0.47266-3.3086-0.47266zm-664.08-40.617c-1.418-4.7227 1.8867-9.9219 6.6133-11.336 5.1953-1.418 10.391 1.8906 11.336 7.0859 1.418 5.1953-1.8906 10.391-6.6133 11.336-0.94531 0-1.418 0.47266-2.3633 0.47266-4.25-0.47656-8.0273-3.3086-8.9727-7.5586zm679.2-8.9766c-5.1953-0.94531-8.5-6.1406-7.5586-11.336v-0.47266c0.94531-5.1953 6.1406-8.5 11.336-7.5586 5.1953 0.94531 8.5 6.1406 7.5586 11.336v0.47266c-0.94531 4.25-4.7227 7.5586-9.4453 7.5586-0.47266 0.47266-0.94531 0.47266-1.8906 0zm-688.17-42.98c-0.47266-5.1953 3.3047-9.918 8.5-10.391 5.1953-0.47266 9.918 3.3047 10.391 8.5 0.47266 5.1953-3.3047 9.918-8.5 10.391h-0.94531c-5.1914 0.003906-8.9727-3.7773-9.4453-8.5zm696.2-8.5c-5.1953-0.47266-8.9727-4.7227-8.9727-9.918 0-5.1953 4.7227-8.9727 9.918-8.9727 5.1953 0.47266 9.4453 4.7227 8.9727 9.918-0.47266 5.1953-4.25 8.9727-9.4453 8.9727h-0.47266zm-688.64-34.48c-5.1953-0.47266-8.9727-4.7227-8.9727-9.918 0.47266-5.1953 4.7227-8.9727 9.918-8.9727 5.1953 0 9.4453 4.7227 8.9727 9.918 0 5.1953-4.25 8.9727-9.4453 8.9727h-0.47266zm678.73-25.504c-0.47266-5.1953 3.3047-9.918 8.5-10.391 5.1953-0.47266 9.918 3.3047 10.391 8.5 0.47266 5.1953-3.3047 9.918-8.5 10.391h-0.94531c-5.1953 0-8.9727-3.3047-9.4453-8.5zm-673.53-25.98c-5.1953-0.94531-8.5-6.1406-7.5586-11.336 0.94531-5.1953 6.1406-8.5 11.336-7.5586 5.1953 0.94531 8.5 6.1406 7.5586 11.336-0.94531 4.7227-4.7227 7.5586-9.4453 7.5586-0.94531 0.47266-1.418 0.47266-1.8906 0zm664.55-23.145c-1.418-5.1953 1.8906-10.391 6.6133-11.336 5.1953-1.418 10.391 1.8906 11.336 6.6133 1.418 5.1953-1.8906 10.391-6.6133 11.336-0.94531 0-1.418 0.47266-2.3633 0.47266-3.7734 0-8.0273-2.832-8.9727-7.0859zm-652.27-26.449c-4.7227-1.8906-7.5586-7.0859-5.668-12.281 1.8906-4.7227 7.0859-7.5586 12.281-5.668 4.7227 1.8906 7.5586 7.0859 5.668 12.281-1.418 3.7812-5.1953 6.1406-8.9766 6.1406-0.94531 0-1.8867 0-3.3047-0.47266zm636.21-21.254c-1.8906-4.7227 0-10.391 5.1953-12.281 4.7227-1.8906 10.391 0 12.281 5.1953 1.8906 4.7227 0 10.391-5.1953 12.281-1.418 0.47266-2.3633 0.94531-3.7773 0.94531-3.3086 0-7.0859-2.3633-8.5039-6.1406zm-615.91-26.449c-4.7227-2.3633-6.1406-8.5-3.7773-12.754 2.3633-4.7227 8.0312-6.1406 12.754-3.7773 4.7227 2.3633 6.1406 8.5 3.7773 12.754-1.8906 3.3047-4.7227 4.7227-8.5 4.7227-1.418 0-2.8359 0-4.2539-0.94531zm593.23-17.949c-2.832-4.25-1.418-10.391 3.3047-12.754 4.25-2.832 10.391-1.418 13.227 3.3047 2.832 4.25 1.418 10.391-3.3047 13.227-1.418 0.94531-3.3047 1.418-4.7227 1.418-3.7773-0.47266-6.6133-2.3594-8.5039-5.1953zm-566.79-25.977c-4.25-3.3047-4.7227-8.9727-1.8906-13.227 3.3047-4.25 8.9727-4.7227 13.227-1.8906 4.25 3.3047 4.7227 8.9727 1.8906 13.227-1.8906 2.3633-4.7227 3.7773-7.5586 3.7773-1.8867 0.003906-3.7773-0.46875-5.668-1.8867zm537.5-14.641c-3.3047-4.25-2.832-9.918 1.418-13.227 3.7773-3.3047 9.918-2.832 13.227 1.418 3.3047 3.7773 2.832 9.918-1.418 13.227-1.8906 1.418-3.7773 2.3633-6.1406 2.3633-2.3633-0.47656-5.1992-1.4219-7.0859-3.7812zm-504.44-25.035c-3.7773-3.7773-3.7773-9.918 0-13.227 3.7773-3.7773 9.918-3.7773 13.227 0 3.7773 3.7773 3.7773 9.918 0 13.227-1.8906 1.8906-4.25 2.832-6.6133 2.832-2.3594 0.003906-4.7227-0.94141-6.6133-2.832zm469.49-10.863c-3.7773-3.3047-4.25-9.4453-0.94531-13.227 3.3047-3.7773 9.4453-4.25 13.227-0.94531 3.7773 3.3047 4.25 9.4453 0.94531 13.227-1.8906 1.8906-4.7227 3.3047-7.0859 3.3047-2.3633 0.003906-4.25-0.94141-6.1406-2.3594zm-430.76-23.145c-2.832-4.25-1.8906-9.918 2.3633-13.227 4.25-2.832 9.918-1.8906 13.227 2.3633 3.3047 4.25 1.8906 9.918-2.3633 13.227-1.418 1.418-3.7773 1.8906-5.668 1.8906-2.8359-0.47266-5.668-1.8906-7.5586-4.2539zm390.61-7.082c-4.25-2.832-5.668-8.5-2.832-13.227 2.832-4.25 8.5-5.668 13.227-2.832 4.25 2.832 5.668 8.5 2.832 13.227-1.8906 2.832-4.7227 4.25-8.0312 4.25-1.4141-0.003907-3.3047-0.47656-5.1953-1.418zm-347.16-21.258c-2.3633-4.7227-0.47266-10.391 4.25-12.754s10.391-0.47266 12.754 4.25c2.3633 4.7227 0.47266 10.391-4.25 12.754-1.418 0.94531-3.3047 0.94531-4.7227 0.94531-3.3047 0-6.6133-1.8867-8.0312-5.1953zm303.23-2.832c-4.7227-2.3633-7.0859-7.5586-4.7227-12.754 2.3633-4.7227 7.5586-6.6133 12.754-4.7227 4.7227 2.3633 7.0859 7.5586 4.7227 12.281-1.418 3.3047-5.1953 5.668-8.5 5.668-1.418 0.47266-2.8359 0-4.2539-0.47266zm-256.47-18.422c-1.8906-4.7227 0.94531-10.391 6.1406-11.809 4.7227-1.418 10.391 0.94531 11.809 6.1406 1.418 4.7227-0.94531 10.391-6.1406 11.809-0.94531 0.47266-1.8906 0.47266-2.832 0.47266-3.7812 0-7.5586-2.3633-8.9766-6.6133zm209.71 1.418c-5.1953-1.418-8.0312-6.6133-6.6133-11.809 1.418-5.1953 6.6133-8.0312 11.809-6.6133 5.1953 1.418 8.0312 6.6133 6.6133 11.809-1.418 4.25-4.7227 7.0859-8.9727 7.0859-1.418-0.47266-2.3633-0.47266-2.8359-0.47266zm-160.12-15.586c-0.94531-5.1953 2.3633-9.918 7.5586-10.863 5.1953-0.94531 9.918 2.3633 10.863 7.5586 0.94531 5.1953-2.3633 9.918-7.5586 10.863h-1.418c-4.7227 0.46875-8.9727-2.8359-9.4453-7.5586zm110.52 5.668c-5.1953-0.47266-8.9727-5.1953-8.0312-10.391 0.47266-5.1953 5.1953-8.9727 10.391-8.0312 5.1953 0.47266 8.9727 5.1953 8.0312 10.391-0.47266 4.7227-4.7227 8.5-9.4453 8.5 0-0.46875-0.47266-0.46875-0.94531-0.46875zm-59.512-11.809c0-5.1953 3.7773-9.4453 9.4453-9.4453 5.1953 0 9.4453 3.7773 9.4453 8.9727 0 5.1953-3.7773 9.4453-9.4453 9.918-5.1953-0.47266-9.4453-4.25-9.4453-9.4453z" fill="#fff"/>
  <path d="m592.92 888.59c0-5.1953 4.25-9.4453 9.4453-9.4453 5.1953 0 9.4453 4.25 9.4453 9.4453 0 5.1953-4.25 9.4453-9.4453 9.4453-5.1953-0.47266-9.4453-4.25-9.4453-9.4453zm-43.453 4.7227c-5.1953-0.94531-8.5-5.668-7.5586-10.863 0.94531-5.1953 5.668-8.5 10.863-7.5586 5.1953 0.94531 8.5 5.668 7.5586 10.863-0.94531 4.7227-4.7227 8.0312-9.4453 8.0312-0.47656 0-0.94531 0-1.418-0.47266zm95.406-8.0273c-0.94531-5.1953 2.3633-9.918 7.5586-10.863 5.1953-0.94531 9.918 2.3633 10.863 7.5586 0.94531 5.1953-2.3633 9.918-7.5586 10.863h-1.8906c-4.25-0.003906-8.5-3.3086-8.9727-7.5586zm-146.89-5.668c-4.7227-1.8906-7.5586-7.0859-5.668-12.281 1.8906-4.7227 7.0859-7.5586 12.281-5.668 4.7227 1.8906 7.5586 7.0859 5.668 12.281-1.418 3.7773-5.1953 6.1406-8.9727 6.1406-1.418 0.47266-2.3633 0-3.3086-0.47266zm196.96-7.0859c-1.8906-4.7227 0.47266-10.391 5.1953-12.281 4.7227-1.8906 10.391 0.47266 12.281 5.1953 1.8906 4.7227-0.47266 10.391-5.668 12.281-0.94531 0.47266-2.3633 0.47266-3.3047 0.47266-3.7812 0.47266-7.0859-1.8906-8.5039-5.668zm-245.13-15.586c-4.7227-2.3633-6.1406-8.5-3.3047-12.754 2.832-4.7227 8.5-6.1406 12.754-3.3047 4.7227 2.832 6.1406 8.5 3.3047 12.754-1.8906 2.832-4.7227 4.7227-8.0312 4.7227-1.8906 0-3.3086-0.47266-4.7227-1.418zm291.89-5.668c-2.832-4.25-1.418-10.391 3.3047-13.227 4.25-2.832 10.391-1.418 13.227 3.3047 2.832 4.25 1.418 10.391-3.3047 13.227-1.418 0.94531-3.3047 1.418-4.7227 1.418-3.3086-0.47266-6.6172-1.8906-8.5039-4.7227zm-335.35-25.035c-3.7773-3.3047-4.25-9.4453-0.94531-13.227 3.3047-3.7773 9.4453-4.25 13.227-0.94531 3.7773 3.3047 4.25 9.4453 0.94531 13.227-1.8906 2.3633-4.7227 3.3047-7.0859 3.3047-2.3633-0.46875-4.7266-0.94141-6.1406-2.3594zm377.86-4.7227c-3.3047-3.7773-3.3047-9.918 0.94531-13.227 3.7773-3.3047 9.918-3.3047 13.227 0.94531 3.3047 3.7773 3.3047 9.918-0.94531 13.227-1.8906 1.418-4.25 2.3633-6.1406 2.3633-2.3633 0-4.7227-0.94531-7.0859-3.3086zm-415.17-33.535c-3.3047-4.25-2.832-9.918 1.418-13.227 4.25-3.3047 9.918-2.832 13.227 1.418 3.3047 4.25 2.832 9.918-1.418 13.227-1.8906 1.418-3.7773 1.8906-6.1406 1.8906-2.832 0-5.1953-1.418-7.0859-3.3086zm452.01-2.832c-4.25-3.3047-4.7227-8.9727-1.418-13.227 3.3047-4.25 8.9727-4.7227 13.227-1.418 4.25 3.3047 4.7227 8.9727 1.418 13.227-1.8906 2.3633-4.7227 3.7773-7.5586 3.7773-1.8867 0-3.7773-0.94141-5.668-2.3594zm-481.77-41.566c-2.3633-4.7227-0.94531-10.391 3.7773-12.754s10.391-0.94531 12.754 3.7773 0.94531 10.391-3.7773 12.754c-1.418 0.94531-2.832 1.418-4.7227 1.418-3.3086-0.46875-6.6172-1.8867-8.0312-5.1953zm511.52-0.94141c-4.7227-2.3633-6.1406-8.0312-3.7773-12.754 2.3633-4.7227 8.0312-6.1406 12.754-3.7773s6.1406 8.0312 3.7773 12.754c-1.8906 3.3047-4.7227 5.1953-8.5 5.1953-1.4219-0.003906-2.8359-0.47656-4.2539-1.418zm-533.25-47.707c-1.8906-5.1953 0.94531-10.391 6.1406-11.809 5.1953-1.8906 10.391 0.94531 11.809 6.1406 1.8906 4.7227-0.94531 10.391-6.1406 11.809-0.94531 0.47266-1.8906 0.47266-2.832 0.47266-3.7812-0.47266-7.5625-2.832-8.9766-6.6133zm554.5 0.94531c-4.7227-1.418-7.5586-7.0859-6.1406-11.809 1.418-5.1953 7.0859-7.5586 11.809-6.1406 5.1953 1.418 7.5586 6.6133 6.1406 11.809-1.418 3.7773-4.7227 6.6133-8.9727 6.6133-0.94531 0-1.8906 0-2.8359-0.47266zm-566.79-52.898c-0.47266-5.1953 2.832-9.918 8.0312-10.863 5.1953-0.94531 9.918 2.832 10.863 8.0312 0.94531 5.1953-2.832 9.918-8.0312 10.863h-1.418c-4.7227-0.003906-8.9727-3.3086-9.4453-8.0312zm579.54 2.832c-5.1953-0.47266-8.9727-5.1953-8.0312-10.391v-0.47266-0.47266c0.47266-5.1953 5.1953-8.9727 10.391-8.0312 5.1953 0.47266 8.9727 5.1953 8.0312 10.391v0.47266 0.47266c-0.47266 4.7227-4.7227 8.0312-9.4453 8.0312h-0.94531zm-573.4-46.285c-5.1953 0-9.4453-4.7227-8.9727-9.918 0-5.1953 4.7227-9.4453 9.918-8.9727 5.1953 0 9.4453 4.7227 8.9727 9.918 0 4.7188-4.25 8.9727-9.918 8.9727 0.47266 0 0 0 0 0zm567.26-15.117c-0.47266-5.1953 3.7773-9.918 8.9727-9.918 5.1953-0.47266 9.918 3.7773 9.918 8.9727 0.47266 5.1953-3.7773 9.918-8.9727 9.918h-0.47266c-5.1953 0.003906-9.4453-3.7773-9.4453-8.9727zm-562.54-36.367c-5.1953-0.94531-8.5-6.1406-7.0859-11.336 0.94531-5.1953 6.1406-8.5 11.336-7.0859 5.1953 0.94531 8.5 6.1406 7.0859 11.336-0.94531 4.25-4.7227 7.5586-8.9727 7.5586-0.94531-0.47266-1.418-0.47266-2.3633-0.47266zm554.98-13.227c-1.418-5.1953 1.8906-9.918 7.0859-11.336 5.1953-1.418 10.391 1.8906 11.336 7.0859 1.418 5.1953-1.8906 9.918-7.0859 11.336-0.94531 0-1.418 0.47266-2.3633 0.47266-3.7773 0-7.5547-3.3086-8.9727-7.5586zm-540.81-36.84c-4.7227-1.8906-7.0859-7.5586-5.1953-12.281 1.8906-4.7227 7.5586-7.0859 12.281-5.1953s7.0859 7.5586 5.1953 12.281c-1.418 3.7773-5.1953 5.668-8.5 5.668-1.418 0.47266-2.8359 0-3.7812-0.47266zm524.75-10.391c-1.8906-4.7227 0-10.391 4.7227-12.281 4.7227-2.3633 10.391 0 12.281 4.7227s0 10.391-4.7227 12.281c-1.418 0.47266-2.3633 0.94531-3.7773 0.94531-3.3086 0-6.6133-2.3633-8.5039-5.668zm-502.55-35.898c-4.25-2.832-5.668-8.5-2.832-13.227 2.832-4.25 8.5-5.668 13.227-2.832 4.25 2.832 5.668 8.5 2.832 13.227-1.8906 2.832-4.7227 4.25-8.0312 4.25-1.8867 0-3.3047-0.47266-5.1953-1.418zm478.46-8.0273c-2.832-4.25-1.8906-10.391 2.3633-13.227 4.25-2.832 10.391-1.8906 13.227 2.3633 2.832 4.25 1.8906 10.391-2.3633 13.227-1.418 0.94531-3.3047 1.8906-5.1953 1.8906-3.3086-0.003907-6.1445-1.4219-8.0312-4.2539zm-447.76-34.008c-3.7773-3.7773-3.7773-9.4453-0.47266-13.227 3.7773-3.7773 9.4453-3.7773 13.227-0.47266 3.7773 3.7773 3.7773 9.4453 0.47266 13.227-1.8906 1.8906-4.25 2.832-7.0859 2.832-1.8906 0.47266-4.2539-0.46875-6.1406-2.3594zm416.11-4.7227c-3.7773-3.7773-3.7773-9.918 0-13.227 3.7773-3.7773 9.918-3.7773 13.227 0 3.7773 3.7773 3.7773 9.918 0 13.227-1.8906 1.8906-4.25 2.832-6.6133 2.832-1.8906 0-4.7227-0.94531-6.6133-2.832zm-378.8-30.703c-3.3047-4.25-2.3633-9.918 1.8906-13.227 4.25-3.3047 9.918-2.3633 13.227 1.8906 3.3047 4.25 2.3633 9.918-1.8906 13.227-1.418 1.418-3.7812 1.8906-5.668 1.8906-2.8359 0-5.668-1.418-7.5586-3.7812zm341.02-1.4141c-4.25-2.832-5.1953-8.9727-2.3633-13.227 2.832-4.25 8.9727-5.1953 13.227-2.3633 4.25 2.832 5.1953 8.9727 2.3633 13.227-1.8906 2.3633-4.7227 3.7773-7.5586 3.7773-1.8906 0-4.25-0.47266-5.668-1.4141zm-297.56-26.922c-2.3633-4.7227-0.47266-10.391 4.25-12.754s10.391-0.47266 12.754 4.25c2.3633 4.7227 0.47266 10.391-4.25 12.754-1.418 0.47266-2.832 0.94531-4.25 0.94531-3.7812 0-7.0859-1.8906-8.5039-5.1953zm254.58 1.4141c-4.7227-2.3633-6.6133-8.0312-4.7227-12.754 2.3633-4.7227 8.0312-6.6133 12.754-4.7227 4.7227 2.3633 6.6133 8.0312 4.7227 12.754-1.418 3.3047-5.1953 5.1953-8.5 5.1953-1.8945 0.47266-3.3086 0-4.2539-0.47266zm-207.35-21.727c-1.418-5.1953 1.418-10.391 6.6133-11.809 5.1953-1.418 10.391 1.418 11.809 6.6133 1.418 5.1953-1.418 10.391-6.6133 11.809-0.94531 0-1.8906 0.47266-2.3633 0.47266-4.25-0.47266-8.0312-3.3047-9.4453-7.0859zm160.11 4.7227c-5.1953-1.418-8.0312-6.6133-6.6133-11.336 1.418-5.1953 6.6133-8.0312 11.336-6.6133 5.1953 1.418 8.0312 6.6133 6.6133 11.336-0.94531 4.25-4.7227 7.0859-8.9727 7.0859-0.47266 0-1.418 0-2.3633-0.47266zm-109.58-16.531c-0.47266-5.1953 3.3047-9.918 8.5-10.391 5.1953-0.47266 9.918 3.3047 10.391 8.5 0.47266 5.1953-3.3047 9.918-8.5 10.391h-0.94531c-4.7188 0.47656-8.9727-3.3047-9.4453-8.5zm60.457 8.0312c-5.1953-0.47266-8.9727-5.1953-8.5-10.391 0.47266-5.1953 4.7227-8.9727 9.918-8.5 5.1953 0.47266 8.9727 4.7227 8.5 10.391-0.47266 4.7227-4.7227 8.5-9.4453 8.5h-0.47266z" fill="#fff"/>
  <path d="m600 660.93c-4.25 0-8.0312-0.47266-12.281-1.418-16.055-2.832-29.754-12.277-38.727-25.977-8.9727-13.699-12.281-29.758-8.9727-45.816 3.3047-16.059 12.754-29.758 25.977-38.73 13.227-8.9727 29.758-12.281 45.816-8.9727 33.062 6.6133 54.316 39.203 47.703 71.793-2.8359 16.531-12.281 30.23-25.98 39.203-9.918 6.6133-21.727 9.918-33.535 9.918zm0-107.69c-8.9727 0-17.949 2.832-25.504 7.5586-10.391 7.0859-17.477 17.477-19.836 29.758-2.3633 12.281 0 24.562 6.6133 35.426 7.0859 10.391 17.477 17.477 29.758 19.836 12.281 2.3633 24.562 0 34.953-6.6133s17.477-17.477 19.836-29.758c5.1953-25.504-11.336-50.066-36.367-55.262-3.3125-0.94531-6.6172-0.94531-9.4531-0.94531z" fill="#fff"/>
  <path d="m740.28 628.34c15.586-77.461-34.48-153.03-111.47-168.62-30.23-6.1406-60.93-2.3633-88.797 10.391 3.3047 3.3047 6.1406 7.5586 7.5586 12.281 16.531-7.5586 34.008-11.336 51.957-11.336 8.5 0 17.477 0.94531 25.977 2.832 69.43 14.168 114.77 82.184 100.61 152.09-14.168 69.43-82.184 114.77-152.09 100.61-69.43-14.168-114.77-82.184-100.61-152.09 3.3047-16.059 9.4453-30.699 17.949-44.398-4.25-2.3633-7.5586-5.668-10.863-9.4453-10.391 15.113-17.477 32.59-21.254 51.012-15.117 76.988 34.949 152.56 112.41 168.62 9.4453 1.8906 19.363 2.832 28.812 2.832 66.121 0 125.64-46.758 139.8-114.77z" fill="#fff"/>
  <path d="m788.46 477.2c-31.645-50.066-80.766-84.547-138.39-97.297-119.02-26.922-237.58 48.176-264.5 167.2-12.75 57.621-2.832 116.66 28.812 166.73 31.645 50.066 80.766 84.547 138.39 97.297 16.059 3.7773 32.59 5.1953 48.648 5.1953 37.312 0 73.211-9.4453 104.86-26.922-3.3047-3.3047-6.1406-7.5586-8.0312-11.809-42.035 22.672-92.574 30.699-142.64 19.363-53.844-12.281-100.13-44.398-129.42-91.156-29.285-46.762-39.203-102.02-26.922-155.87 25.508-110.99 136.5-181.37 247.97-156.34 53.844 12.281 100.13 44.398 129.42 91.156 29.285 46.762 39.203 102.02 26.922 155.87-7.5586 32.59-22.199 61.402-41.562 85.488 2.3633 1.418 4.25 3.3047 6.1406 5.1953 1.418 1.418 2.832 3.3047 3.7773 4.7227 21.727-25.977 37.785-57.152 45.344-92.102 13.223-57.621 2.8281-116.66-28.816-166.73z" fill="#fff"/>
  <path d="m511.68 472c-13.699 0-24.562 10.863-24.562 24.562 0 13.699 10.863 24.562 24.562 24.562s24.562-10.863 24.562-24.562c0-13.699-10.863-24.562-24.562-24.562zm0 35.422c-5.668 0-10.391-4.7227-10.391-10.391 0-5.668 4.7227-10.391 10.391-10.391s10.391 4.7227 10.391 10.391c0.003906 5.668-4.7227 10.391-10.391 10.391z" fill="#fff"/>
  <path d="m757.29 741.23c-5.1953-5.668-12.281-8.5-19.836-8.5-15.586-0.47266-28.34 12.281-28.812 27.867 0 7.5586 2.832 14.641 8.0312 20.309 5.1953 5.668 12.281 8.5 19.836 8.5h0.47266c15.113 0 27.867-12.281 28.34-27.867-0.003906-7.5586-2.3633-14.641-8.0312-20.309zm-20.309 33.535c-3.7773 0-7.0859-1.418-9.918-4.25-2.3633-2.832-3.7773-6.1406-3.7773-9.918 0-7.5586 6.6133-13.699 14.168-13.699h0.47266c3.7773 0 7.0859 1.418 9.918 4.25 2.3633 2.832 3.7773 6.1406 3.7773 9.918-0.47266 8.0312-7.0859 14.172-14.641 13.699z" fill="#fff"/>
 </g>
</svg>
