<?xml version="1.0" encoding="UTF-8"?>
<svg width="1200pt" height="1200pt" version="1.1" viewBox="0 0 1200 1200" xmlns="http://www.w3.org/2000/svg">
 <g>
  <path d="m71.762 684.48 191.28-179.52 15.121-14.883 21.602 12.723 117.12 68.641-41.758 6.957 185.52-202.56 28.801-30.719 23.758 33.84 199.68 286.32-47.039-8.8828 112.56-75.117 20.641-13.922 15.84 12.961 213.36 173.52-248.88-117.12h36.48l-110.88 75.602-27.84 18.719-18.723-26.641-200.64-286.8 52.559 3.8398-185.28 202.56-18 19.922-23.758-14.16-118.08-68.16 36.723-2.1602z"/>
  <path d="m409.92 739.92-120.96-72.242-193.44 98.16 126-32.641 24.719 22.32 37.922-29.52 31.441 32.879 27.84-23.039z"/>
  <path d="m754.32 811.44-162.96-259.92-160.56 187.44 72.238-32.883 21.121 53.762 68.16-40.801 37.68 64.562 58.801-32.641z"/>
  <path d="m1105.2 845.04-183.12-120.72-138.24 87.121h71.52l4.8008 43.438 95.039-52.32 26.879 36.723 35.043-30z"/>
 </g>
</svg>
