<?xml version="1.0" encoding="UTF-8"?>
<svg width="1200pt" height="1200pt" version="1.1" viewBox="0 0 1200 1200" xmlns="http://www.w3.org/2000/svg">
 <g>
  <path d="m264.31 493.86c-5.2461-26.332 5.8281-46.812 21.469-66.996 52.289-67.465 104.79-134.82 154.56-204.13 9.7812-13.547 24.719-22.453 41.289-24.613 63.105-15.582 127.68-24.484 192.64-26.566 0.57422 0.03125 1.1445-0.066406 1.6719-0.28125 31.965-16.859 54.035 5.9023 78.242 19.676 16.355 11.086 33.5 20.969 51.293 29.562 29.629 11.461 45.621 40.301 73.039 53.379 15.094 7.1992 17.645 18.715 20.699 33.012 11.398 43.586 25.246 86.496 41.473 128.52 14.855 44.402 26.168 89.977 39.633 134.86h0.003907c5.5156 21.895 13.004 43.246 22.363 63.797 3.0664 4.0508 4.0625 9.2969 2.6953 14.191-1.3672 4.8906-4.9414 8.8633-9.6641 10.73-27.871 17.23-46.641 44.348-71.918 64.289-54.258 42.805-98.574 96.215-151.49 140.8-36.836 31.039-78.562 58.336-104.96 100.77-4.7656 5.7734-11.637 9.4062-19.09 10.098-66.664 17.699-133.38 35.207-200.14 52.527-8.4375 2.1758-16.773 11.305-25.5 5.082v-0.003907c-11.195-7.6914-20.859-17.395-28.5-28.625-38.66-58.461-72.824-119.65-109.96-178.99-12.613-20.156-24.68-42.043-45.723-55.926-2.7578-1.8203-5.6562-4.2539-3.9102-8.375 11.457-26.996 8.9336-56.387 14.504-84.391 10.523-52.898 6.707-107.16 15.129-160.29 0.625-7.3555 0.67578-14.754 0.16016-22.117zm556.47-23.773c18.066-19.242 15.195-43.762 18.234-68.051-21.34 19.68-22.512 43.152-18.09 68.023-1.1953 18.352-8.207 35.566-10.199 53.949-0.99609 9.207 7.4102 17.301 1.7031 25.355-7.3633 10.387-5.4375 22.598-8.2617 33.82-1.0156 4.0312-2.9062 10.984 5.9922 10.422-17.43 38.129-14.473 79.219-21.004 122.17v0.003906c5.7656-2.5938 10.738-6.6719 14.406-11.82 3.6719-5.1484 5.9102-11.176 6.4844-17.473 1.3984-23.605 4.4961-47.078 9.2656-70.238 1.7578-9.8984 2.6406-19.934 2.6328-29.988-6.75 1.3438-6.918 8.5195-12.441 7.9336h-0.003906c2.1523-6.918 5.1484-13.543 8.9219-19.727 8.9492-10.547 11.84-24.957 7.6523-38.141-5.3008-13.102 2.125-20.863 3.5078-31.098 3.7031-12.922 4.4922-26.504 2.3047-39.766-4.1016 1.7266-7.6836 3.2344-11.105 4.6211zm52.062 174.21c-13.113 7.8555-10.867 22.848-14.816 35.328-6.9492-3.2031-0.14063-15.73-11.434-13.527 24.07-24.629 11.102-57.496 23.574-88.742-23.664 14.906-15.836 37.938-25.754 53.91 4.3633-10.293-5.8672-19.477-0.80078-30.266 9.5039-20.246 9.25-42.789 12.312-64.441 1.7656-12.477-5.0508-5.7305-9.4141-2.7773 23.48-42.344 12.254-90.418 27.402-135.91-12.363 2.2109-10.957 12.336-17.988 14.785 9.3164-33.379 45.094-57.172 31.703-99.637h0.003906c-17.246 22.656-31.617 47.363-42.785 73.551-1.5234 2.9727-1.6328 6.4766-0.28906 9.5352 3.6758 10.918 4.2266 22.645 1.5898 33.855-4.6836 17.871-7.4258 36.195-8.1758 54.652-0.10156 1 1.793 2.207 2.4023 2.9102 5.7539-0.58203 3.9844-8.8125 12.055-8.5156l0.003907 0.003906c-11.754 15.754-18.34 34.762-18.859 54.41-0.32031 6.3867 1.0312 8.75 7.1953 4.9531-19.887 48.512-11.094 101.38-25.391 150.88v0.003906c10.16-3.6992 17.766-12.273 20.23-22.801 3.8633-9.9922 7.4648-3.4141 11.434-0.75391h-0.003906c-2.5977 10.973-9.8047 20.293-19.77 25.574-5.7422 2.1289-10.387 6.4727-12.891 12.062-2.5039 5.5859-2.6602 11.945-0.42969 17.648 1.6914-0.097657 3.3477-0.49609 4.8984-1.1836 18.246-13.359 36.637-26.543 54.5-40.406 7.1797-5.1797 12.402-12.637 14.809-21.16 2.4102-8.5234 1.8672-17.609-1.543-25.781l-14.156 12.262c-2.9844-8.1133 4.9609-10.309 8.3281-14.797 4.3906-5.8555 11.188-10.418 12.52-17.914 5.1562-29.047 9.7227-58.199 14.508-87.312l0.003906-0.003906c-15.102 9.3711-26.203 23.996-31.172 41.059-4.3711 22.699-6.8711 45.75-10.781 68.547-1.1367 6.6484 0.42188 9.6562 6.9844 10zm-79.793-64.109c8.2109-20.898 12.367-43.168 12.238-65.621-11.391 11.531-21.375 53.492-16.449 64.477 0.35156 0.78125 3.1797 0.44922 4.8555 0.63672v-0.003906c-1.6484 2.9219-3.0898 5.9531-4.3164 9.0742-12.918 40.625-9.0625 84.125-21.285 124.86-4.6641 15.539 3.0156 33.359-8.543 48.867-4.4141-14.602 0.80078-28.234-1.8867-42.777-5.1875 3.1016-9.3086 5.1836-9.875 11.406-1.0742 11.793-2.8789 23.52-4.0859 35.305-1.1523 11.281 6.0312 12.297 13.223 8.3398 31.828-17.496 66.887-29.789 93.027-56.645 0.85547-0.87891 0.74219-3.043 3.4688-1.1836 9.6836 6.6133 16.926-1.7695 23.594-5.9297 30.27-18.887 62.434-34.031 94.023-50.367 8.8359-4.5703 21.309-10.223 16.391-25.062-12.258-36.988-25.305-73.723-36.93-110.91-12.273-39.266-23.172-78.957-34.93-118.39-1.7656-5.918-3.6914-16.551-12.547-6.0547-19.336 22.922-35.664 47.438-31.234 80.582 24.012-14.383 16.941-42.793 29.352-63.535 6.3438 8.7812-8.4688 23.395 9.5625 25.988 1.4844 0.21484 0.10547 4.2891-1.7539 5.5742-16.52 11.406-17.863 29.469-19.504 46.742-1.2734 13.41-8.0898 26.262-5.4297 42.66 3.1172-3.6094 4.4883-5.2109 5.875-6.8008h0.003906c9.1094-10.863 17.113-22.613 23.891-35.07 2.0312-3.5508 5.6172-6.2305 9.9492-3.7148 3.2695 1.8984 1.5234 4.7227 0 7.2461-11.52 19.109-10.754 41.223-14.738 62.121v0.003906c-3.9688 11.465-4.7266 23.797-2.1875 35.656 12.016-15.82 28.512-26.574 24.832-48.168-0.30078-1.7656 2.7617-4.9219 4.9688-6.043 1.8047-0.91797 5.6719 1.7031 4.6367 3.2852-6.0117 9.1875 8.332 20.938-4.2656 29.473-3.2227 2.1836-2.2773 8.25-2.8594 12.734-2.6211 20.258-6.0625 40.406-9.2109 60.594-7.4023-19.074 1.8438-37.832-0.16016-57.816-27.77 19.336-33.129 45.059-30.301 73.824 0.50781 5.168-3.5 6.8789-6.3164 9.0586-23.684 18.301-47.59 36.316-71.379 54.48-8.3828 6.3984-16.113 10.293-18.953-4.5117-8.0195 2.7188-5.9102 11.773-12.691 14.785v-0.003907c-4.9844-10.711-6.0508-22.828-3.0234-34.246 2.8281-12.922 4.9961-25.98 6.4883-39.125 3.9453-23.469 2.8828-47.926 7.875-71.602h0.003907c1.5547-5 0.25-10.445-3.4023-14.199zm-105.18-206.82c-2.6367-13.828-5.9297-27.566-7.793-41.496-5.9102-44.23-17.637-87.508-21.445-132.07-0.75391-8.8086-4.6016-10.613-13.586-9.0703-16.918 2.9062-16.566 15.043-15.75 26.801 4.3555 62.629 10.238 125.12 18.891 187.33l0.003906 0.003906c0.71484 9.9453 0.77344 19.93 0.17969 29.887-2.6445-2.1836-4.6328-5.0586-5.7461-8.3047-1.1172-3.2422-1.3125-6.7305-0.57031-10.082-0.60156-18.609-2.1914-37.172-4.7695-55.613-5.4727-51.137-13.02-102.12-13.934-153.63-0.18359-10.273-3.793-12.473-12.922-12.289-10.137 0.20703-19.793 2.9844-30.215 2.7461v0.003906c-26.031-1.3984-52.055 2.8594-76.289 12.473-16.785 7.3477-15.969 30.059-22.594 46.012-20.84 50.18-40.055 101-56.832 152.7-1.8359 5.6641-7.5156 14.695 2.8359 16.977 12.039 2.6523 23.531 12.758 36.887 4.9023v0.003906c1.7539-1.3789 2.8594-3.4219 3.043-5.6445 3.2695-45.898 16.07-89.98 25.551-134.68 5.1562-24.309 10.84-48.508 16.594-72.684 1-4.2031 2.9766-9.707 8.5742-8.5352 4.9609 1.0391 1.9727 5.5586 1.1562 8.4297-18.285 64.223-31.715 129.56-44.941 194.94-4.7578 23.512-4.5078 22.738 19.477 24.891 12.074 1.082 17.395-1.832 18.969-14.164 2.5742-20.188 7.0703-40.129 9.7344-60.309 5.8516-44.305 9.5898-88.922 19.059-132.67 1.6523-7.6445-0.17188-18.656 13.852-21.625h0.003907c-9.7422 36.848-16.812 74.348-21.164 112.21-3.0781 35.973-9.1953 71.688-13.918 107.52-0.85156 6.4531-1.5977 11.992 8.2695 12.695 51.57 3.6641 102.61 11.824 153.7 19.422 12.172 1.8086 16.625-2.5352 14.797-15.008-3.5234-24.039-6.2109-48.199-9.1172-72.16 12.246 16.352 9.8477 36.293 12.363 54.699 4.6641 34.121 3.6914 34.254 36.219 39.559v0.003906c1.6914 0.16016 3.3633 0.51172 4.9766 1.0508 16.133 6.7148 15.512-2.7891 12.816-13.504-22.02-87.547-42.887-175.34-56.418-264.69-0.73047-4.8359-0.97656-8.4805-7.2812-9.1836-18.902-2.1016-28.395 7.6445-25.32 26.414 8.4805 51.793 16.852 103.61 25.117 155.43 0.51953 3.2891 5.7539 8.7305-2.457 10.316zm-283.31 61.938c-11.324-3.6172-20.23 4.6523-26.922 16.105l0.003906 0.003906c-13.496 24.801-25.551 50.355-36.105 76.543-10.5 23.922-13.832 50.812-26.258 73.18-14.707 26.48-22.086 55.609-35.852 82.18h0.003906c-9.0391 18.105-16.75 36.844-23.07 56.07-2.25 4.8594-3.0625 10.262-2.3398 15.566 0.71875 5.3086 2.9414 10.297 6.4062 14.383 9.7266 11.68 18.793 23.906 28.227 35.836 28.84 36.301 54.426 75.078 76.457 115.88 14.977 27.867 31.887 54.699 48.113 81.883 5.8633 9.8242 12.645 16.516 23.898 5.6445 31.039-30.445 64.145-58.711 99.086-84.594 46.562-33.961 89.973-72.59 138.3-103.66 34.266-22.031 59.672-43.293 62.277-87.879 1.6523-28.254 8.3086-56.727 11.285-85.344 4.7891-46.027 5.3398-92.59 16.758-137.81 2.2969-9.0938 0.32031-15.449-9.8125-17.984-25.727-6.4375-51.207-13.941-77.094-19.621h-0.003906c-34.758-6.8711-69.914-11.543-105.26-13.984-55.027-4.9688-109.66-14.367-168.1-22.383zm513.14 268.99c-20.539 12.895-43.488 19.93-63.531 32.555-6.7656 4.2617-4.8398 10.496-6.6523 15.867-4.4688 13.242-7.2812-14.27-15.656-3.2266v0.003906c-1.2227 1.1914-2.6133 2.1914-4.1289 2.9727-5.0039 2.5938-9.6055 5.8945-13.668 9.8047-6.6289 8.5391-9.8711 22.043-25.281 12.957-32.289 16.562-69.727 27.191-78.48 70.352-2.457 6.9414-5.5273 13.648-9.1758 20.047-8.6406 21.254-21.406 41.012-25.23 67.094 86.688-72.363 162.15-152.52 241.8-228.43zm-278.97 219.81c-6.9922 5.7695-15.309 9.707-24.199 11.461-37.824 11.336-76.277 20.582-113.17 34.965-11.461 4.0234-21.125 11.969-27.289 22.434 51.285-14.508 98.5-34.652 149.32-41.277-32.023 16.766-68.715 19.645-102.33 37.293 39.086-5.5781 73.562-20.621 109.66-29.625h0.003906c10.941-2.3203 20.133-9.7031 24.758-19.891 15.949-31.926 29.438-65.027 40.34-99.016 0.98047-2.9258 3.8281-7.1484 0.27344-9.832-20.199 5.9531-30.754 22.461-43.93 36.359 3.9688 4.625 11.34-1.1367 15.164 4.9609-26.789 18.949-64.691 15.008-87.445 42.113 25.016-8.2734 50.746-14.184 76.863-17.66-41.371 21.148-91.488 21.711-128.08 54.391h0.003907c36.137-11.016 72.887-19.926 110.06-26.676zm-349.46-480.42c21.484-7.3164 39.848-5.5547 57.043-10.32 10.973-3.043 24.168-3.1367 30.859-14.965 24.305-41.707 40.793-87.504 48.656-135.13-5.0312-1.6133-10.512 0.42578-13.266 4.9336-24.684 30.637-53.355 57.883-75.305 90.961-6.4102 9.6641-16.453 15.902-0.86719 25.996-1.6289 0.56641-3.3164 0.96094-5.0273 1.1797-20.648-1.3594-20.84-0.86719-14.219 17.809 2.2422 6.3242-3.4609 6.4102-6.957 5.0352-11.242-4.4297-14.883 2.5391-20.918 14.504zm199.09-230.64c-20.52-0.54687-27.027 12.438-31.449 26.594-17.824 57.062-35.227 114.25-52.684 171.43-0.91406 2.9922-2.4375 6.5625 1.5703 8.832 2.9844 0.40625 5.793-1.5195 6.4922-4.4531 25.453-66.863 48.062-134.79 76.07-202.4zm397.65 270.03c-18.758 14.055-32.094 68.477-25.133 92.043 19.289-27.059 14.66-59.566 25.133-92.043zm-9.0234-62.648c11.07-7.5547 12.855-18.477 19.984-24.062 18.59-14.574 7.5898-27.93 0.12891-43.652-18.621 19.473-15.703 42.938-20.113 67.715zm-61.672 26.941c-21.984 15.793-14.898 35.629-16.609 58.277 15.801-19.348 13.836-37.98 16.613-58.277zm-48.168 167.42c16.758-15.723 8.3594-34.18 13.637-49.484-9.8398 11.648-9.8398 11.648-13.637 49.484zm7.4648 10.934c-6.4336 5.293-11.199 12.336-13.719 20.277-2.5234 7.9414-2.6953 16.441-0.49609 24.477 9.6875-12.867 14.703-28.652 14.215-44.754z"/>
  <path d="m575.18 434.73 10.621-231.2 6.0352 0.32422c-3.7383 77.055-7.4805 154.11-11.219 231.17z"/>
 </g>
</svg>
