<?xml version="1.0" encoding="UTF-8"?>
<svg width="1200pt" height="1200pt" version="1.1" viewBox="0 0 1200 1200" xmlns="http://www.w3.org/2000/svg">
 <path d="m596.4 868.8c0-8.3984 6-14.398 14.398-15.602 8.3984 0 14.398 6 15.602 14.398 0 8.3984-6 14.398-14.398 15.602-8.3984 0-14.398-6-15.602-14.398zm267.6-216h2.3984c7.1992 0 13.199-4.8008 14.398-12 1.1992-8.3984-4.8008-15.602-12-16.801-8.3984-1.1992-15.602 4.8008-16.801 12-2.3945 8.3984 3.6055 15.602 12.004 16.801zm-166.8-303.6c2.3984-7.1992-1.1992-15.602-9.6016-18-7.1992-2.3984-15.602 1.1992-18 9.6016-2.3984 7.1992 1.1992 15.602 9.6016 18 1.1992 0 3.6016 1.1992 4.8008 1.1992 4.8008 0 10.801-4.8008 13.199-10.801zm-182.4 520.8c1.1992 0 2.3984 1.1992 4.8008 1.1992 6 0 12-3.6016 14.398-10.801 2.3984-7.1992-2.3984-15.602-9.6016-18-7.1992-2.3984-15.602 2.3984-18 9.6016-3.5977 7.1992 0 15.602 8.4023 18zm320.4-399.6c7.1992-4.8008 8.3984-13.199 4.8008-20.398-4.8008-7.1992-13.199-9.6016-20.398-4.8008-7.1992 4.8008-8.3984 13.199-4.8008 20.398 2.3984 4.8008 7.1992 7.1992 12 7.1992 3.5977 0.003906 6 0.003906 8.3984-2.3984zm-322.8-124.8c-2.3984-7.1992-12-10.801-19.199-8.3984-7.1992 3.6016-10.801 12-8.3984 19.199 2.3984 6 8.3984 9.6016 13.199 9.6016 2.3984 0 3.6016 0 6-1.1992 8.3984-2.4062 12-12.004 8.3984-19.203zm266.4 469.2c3.6016 0 7.1992-1.1992 9.6016-3.6016 6-4.8008 6-14.398 1.1992-20.398-4.8008-6-14.398-7.1992-20.398-1.1992-6 4.8008-6 14.398-1.1992 20.398 2.3945 3.6016 5.9961 4.8008 10.797 4.8008zm-75.602 48c2.3984 0 3.6016 0 6-1.1992 7.1992-3.6016 10.801-12 8.3984-19.199-3.6016-7.1992-12-10.801-19.199-8.3984-7.1992 3.6016-10.801 12-8.3984 19.199 1.1992 5.9961 7.1992 9.5977 13.199 9.5977zm74.402-465.6c4.8008-6 3.6016-15.602-2.3984-20.398-6-4.8008-15.602-3.6016-20.398 2.3984-4.8008 6-3.6016 15.602 2.3984 20.398 2.3984 2.3984 6 3.6016 9.6016 3.6016 3.5938 0 7.1953-1.1992 10.797-6zm-172.8-66c0-8.3984-7.1992-14.398-15.602-14.398-8.3984 0-14.398 7.1992-14.398 15.602 0 8.3984 7.1992 14.398 14.398 14.398 9.6016-1.1992 16.801-7.1992 15.602-15.602zm-231.6 427.2c2.3984 0 4.8008-1.1992 8.3984-2.3984 7.1992-4.8008 8.3984-13.199 4.8008-20.398-4.8008-7.1992-13.199-8.3984-20.398-4.8008-7.1992 4.8008-8.3984 13.199-4.8008 20.398 2.4023 4.8008 7.1992 7.1992 12 7.1992zm-10.801-268.8c4.8008 0 10.801-2.3984 13.199-8.3984 3.6016-7.1992 1.1992-15.602-6-20.398-7.1992-3.6016-15.602-1.1992-20.398 6-3.6016 7.1992-1.1992 15.602 6 20.398 2.4023 1.1953 4.8008 2.3984 7.1992 2.3984zm500.4 69.598h3.6016c8.3984-1.1992 13.199-9.6016 10.801-16.801-1.1992-8.3984-9.6016-13.199-16.801-10.801-8.3984 1.1992-13.199 9.6016-10.801 16.801 0 6 6 10.801 13.199 10.801zm-33.602 181.2c2.3984 1.1992 4.8008 1.1992 7.1992 1.1992 4.8008 0 10.801-2.3984 13.199-7.1992 3.6016-7.1992 1.1992-15.602-6-20.398-7.1992-3.6016-15.602-1.1992-20.398 6-3.5977 7.1992-1.1992 15.602 6 20.398zm-402 84c2.3984 2.3984 6 3.6016 8.3984 3.6016 4.8008 0 8.3984-2.3984 12-6 4.8008-6 3.6016-15.602-2.3984-20.398-6-4.8008-15.602-3.6016-20.398 2.3984-4.8008 6-3.6016 15.602 2.3984 20.398zm3.6016-433.2c-4.8008-6-14.398-6-20.398-1.1992s-6 14.398-1.1992 20.398c2.3984 3.6016 7.1992 4.8008 10.801 4.8008 3.6016 0 7.1992-1.1992 9.6016-3.6016 5.9961-4.7969 7.1953-14.398 1.1953-20.398zm-93.602 280.8h3.6016c8.3984-1.1992 13.199-9.6016 10.801-18-1.1992-8.3984-9.6016-13.199-18-10.801-8.3984 1.1992-13.199 9.6016-10.801 18 2.3984 6 8.3984 10.801 14.398 10.801zm-3.5977-93.602c7.1992 0 13.199-4.8008 14.398-13.199 1.1992-8.3984-4.8008-15.602-12-16.801-8.3984-1.1992-15.602 4.8008-16.801 12-1.1992 8.3984 4.8008 15.602 12 16.801 1.1992 1.1992 2.4023 1.1992 2.4023 1.1992zm628.8-261.6c2.3984-2.3984 4.8008-6 3.6016-10.801l-1.1992-96c0-8.3984-7.1992-14.398-14.398-14.398-8.3984 0-14.398 7.1992-14.398 14.398l1.1992 60-7.1992-7.1992c-90.004-86.402-206.4-133.2-330-133.2h-6c-126 1.1992-243.6 51.602-331.2 141.6-127.2 129.6-168 316.8-105.6 488.4 2.3984 6 7.1992 9.6016 14.398 9.6016 1.1992 0 3.6016 0 4.8008-1.1992 7.1992-2.3984 12-10.801 8.3984-19.199-57.602-160.8-19.199-336 99.602-458.4 82.801-84 193.2-132 310.8-133.2h4.8008c116.4 0 225.6 44.398 308.4 126l7.1992 7.1992-60 1.1992c-8.3984 0-14.398 7.1992-14.398 14.398 0 8.3984 7.1992 14.398 14.398 14.398l96-1.1992c4.8008 1.1953 8.4023-0.003906 10.801-2.4023zm-356.4 753.6c126-1.1992 243.6-51.602 331.2-141.6 127.2-129.6 168-316.8 106.8-488.4-2.3984-7.1992-10.801-12-19.199-8.3984-7.1992 2.3984-12 10.801-8.3984 19.199 57.602 160.8 19.199 336-99.602 458.4-82.801 84-193.2 132-310.8 133.2s-229.2-43.199-313.2-126l-7.1992-7.1992 60-1.1992c8.3984 0 14.398-7.1992 14.398-14.398 0-8.3984-7.1992-14.398-14.398-14.398l-96 1.1992c-3.6016 0-7.1992 1.1992-10.801 4.8008-2.3984 2.3984-4.8008 6-3.6016 10.801l1.1992 96c0 8.3984 7.1992 14.398 14.398 14.398 8.3984 0 14.398-7.1992 14.398-14.398l-1.1992-60 7.1992 7.1992c88.805 84 205.2 130.8 328.8 130.8h6z"/>
</svg>
