<?xml version="1.0" encoding="UTF-8"?>
<svg width="1200pt" height="1200pt" version="1.1" viewBox="0 0 1200 1200" xmlns="http://www.w3.org/2000/svg">
 <g>
  <path d="m1084.8 759.12c-23.039-23.043-45.602-46.562-68.641-68.402-20.16-18.957-40.801-41.52-61.68-57.359-12.719-8.8789-31.441-18.961-45.602-8.8789-7.9219 4.8008-9.8398 12.719-5.5195 20.641-1.4414 1.9219-2.3984 4.3203-2.3984 6-4.8008-6.9609-8.8789-12.238-14.641-17.762-4.082-16.078-9.8398-30.961-21.121-41.758-27.598-29.762-70.32-52.801-91.199-87.121-2.8789-5.2812-10.801-7.1992-15.602-4.3203-34.559 26.879-85.199 54.719-106.32 95.281-8.8789 18-17.039 35.758-24.957 54.719-8.8828-20.16-17.762-39.84-26.641-60.719-91.922-203.52-177.6-270.72-177.6-270.72 0-0.003906-64.32 68.637-92.879 93.355-17.762 15.602-40.801 35.523-46.801 59.523-0.96094 3.5977-0.96094 7.918-0.96094 10.797-17.758 4.082-39.84 18.723-56.879 28.801-18.719 12.961-32.16 42.723-42 63.359-28.32 55.441-56.879 111.12-93.84 161.52-1.9219 3.3594 2.3984 5.0391 4.3203 3.3594 51.602-45.602 90.48-102.48 134.16-155.04 7.9219-8.8789 14.641-18.961 21.602-27.84 6.9609-9.8398 35.52-68.16 47.762-34.801 4.8008 14.879 28.559 7.9219 24-6.7188-15.363-42.48 36.238-105.12 70.078-118.8 42.719-19.199 88.078 48.48 110.16 76.078 8.8789 10.801 12.719 24 15.84 36.48-29.043-26.398-62.641-47.035-97.441-58.078-0.96094-1.1992-1.9219 0.96094-0.96094 2.1602 33.84 41.52 59.52 86.883 97.441 124.8 21.602 21.602 43.68 37.441 60.961 62.398 4.3203 5.7617 7.1992 12.961 8.8789 19.922-1.9219-3.1211-4.8008-5.0391-6.4805-6.9609-42.719-34.801-96-36.48-140.16-64.559-5.5195-3.8398-12.719 5.0391-7.918 8.8789 29.039 23.762 58.559 46.801 88.559 68.402 9.8398 8.1602 19.68 14.879 28.559 22.797-28.559 12.961-40.32 51.84-52.559 80.402-2.6406 6-67.441-59.52-65.52-51.602 5.0391 31.922 40.801 134.88 50.641 137.76 45.121 11.039 176.64-165.36 189.84-188.16 15.359-26.879 22.559-64.801 42.719-89.281 13.441-16.801 31.199-33.602 48.238-49.68 16.801 24 43.68 40.801 64.801 61.441 13.68 12.961 21.602 28.801 29.52 44.879-1.1992 0.71875-1.1992 2.6406-1.1992 3.6016 0.96094 25.68 14.879 55.68 30.961 81.359-28.078-4.8008-49.68-11.762-68.879-37.441-6.4805-9.1211-23.281-3.1211-19.68 8.8789 19.68 63.359 77.281 97.199 142.08 95.039 4.8008 5.0391 10.801 10.078 16.801 15.84 3.8398 8.8828 8.8789 16.801 15.598 25.684 12.961 15.117 28.082 26.16 42.242 37.918 7.4414 9.8398 82.078 26.641 76.801 5.7617-3.8398-20.879-25.199-42.719-38.398-59.52-16.082-19.68-44.645-40.562-50.645-66.48-0.95703-5.5195-9.8398-3.6016-9.8398 0.96094 0 14.879 0.96094 29.039 2.8789 42.961-7.9219-19.922-16.801-38.641-26.641-57.359-11.035-22.082-17.996-44.883-25.918-67.684 1.9219 0.96094 3.6016 1.9219 6 3.1211 24.961 9.8398 45.602 32.641 65.762 49.438 33.84 28.559 61.441 64.559 96 92.16 4.5586 5.2812-14.16-36.48-25.68-49.438z"/>
  <path d="m728.4 762c-11.758 7.9219-20.637 6-33.598 6.9609-12.719 0-23.52 9.8398-31.441 17.762-17.281 20.879-24 44.879-36 67.441-8.1602 15.117 91.199-67.445 106.32-85.203 3.6016-3.8398-0.96094-9.8398-5.2812-6.9609z"/>
  <path d="m314.16 699.6c-14.16-3.1211-27.359-1.9219-40.801 0.95703 18.719-29.762 32.879-63.602 24.961-89.281-1.1992-4.0781-5.2812-5.9961-8.1602-5.0391-40.801 13.922-72.238 72.48-100.32 103.2-17.762 19.684-42.719 28.562-60.48 47.762-17.758 16.801-29.52 45.602-37.438 68.16-3.3633 12 113.04-45.359 127.92-60.238 9.8398-4.082 18.719-9.1211 28.559-14.883 23.039-10.801 46.32-22.078 67.441-35.52 5.2812-4.3203 5.2812-14.16-1.6797-15.117z"/>
 </g>
</svg>
