<?xml version="1.0" encoding="UTF-8"?>
<svg width="1200pt" height="1200pt" version="1.1" viewBox="0 0 1200 1200" xmlns="http://www.w3.org/2000/svg">
 <g fill="#4c25e0">
  <path d="m1087.5 581.25c0-66.938-57.75-122.25-131.25-130.12v-19.875c0-94.484-37.535-185.1-104.34-251.91s-157.42-104.34-251.91-104.34-185.1 37.535-251.91 104.34-104.34 157.42-104.34 251.91v19.875c-74.062 7.875-131.25 63.188-131.25 130.12s57.375 122.06 131.25 130.12v169.88c0.042969 34.945 14.023 68.43 38.84 93.035 24.812 24.602 58.414 38.297 93.359 38.043 34.945-0.25391 68.344-14.43 92.801-39.391v20.812c0 46.891 25.016 90.219 65.625 113.66 40.609 23.449 90.641 23.449 131.25 0 40.609-23.445 65.625-66.773 65.625-113.66v-95.812c24.457 24.961 57.855 39.137 92.801 39.391 34.945 0.25391 68.547-13.441 93.359-38.043 24.816-24.605 38.797-58.09 38.84-93.035v-94.875c73.875-8.0625 131.25-63.375 131.25-130.12zm-937.5 0c0-51.75 50.438-93.75 112.5-93.75s112.5 42 112.5 93.75-50.438 93.75-112.5 93.75-112.5-42-112.5-93.75zm675 318.75c-24.863 0-48.711-9.8789-66.293-27.457-17.578-17.582-27.457-41.43-27.457-66.293 0-6.6992-3.5742-12.887-9.375-16.238-5.8008-3.3477-12.949-3.3477-18.75 0-5.8008 3.3516-9.375 9.5391-9.375 16.238v187.5c0 33.492-17.867 64.441-46.875 81.191-29.008 16.746-64.742 16.746-93.75 0-29.008-16.75-46.875-47.699-46.875-81.191v-112.5c0-6.6992-3.5742-12.887-9.375-16.238-5.8008-3.3477-12.949-3.3477-18.75 0-5.8008 3.3516-9.375 9.5391-9.375 16.238 0 33.492-17.867 64.441-46.875 81.191-29.008 16.746-64.742 16.746-93.75 0-29.008-16.75-46.875-47.699-46.875-81.191v-169.88c73.875-8.0625 131.25-63.375 131.25-130.12s-56.25-121.5-130.12-129.94c0-6.75-1.125-13.312-1.125-20.062 0-84.539 33.582-165.61 93.359-225.39s140.85-93.359 225.39-93.359 165.61 33.582 225.39 93.359 93.359 140.85 93.359 225.39c0 6.75 0 13.312-1.125 20.062-73.875 8.4375-130.12 63.375-130.12 129.94s57.375 122.06 131.25 130.12v94.875c0 24.863-9.8789 48.711-27.457 66.293-17.582 17.578-41.43 27.457-66.293 27.457zm112.5-225c-62.062 0-112.5-42-112.5-93.75s50.438-93.75 112.5-93.75 112.5 42 112.5 93.75-50.438 93.75-112.5 93.75z"/>
  <path d="m562.5 393.75c0-29.836-11.852-58.453-32.949-79.551-21.098-21.098-49.715-32.949-79.551-32.949s-58.453 11.852-79.551 32.949c-21.098 21.098-32.949 49.715-32.949 79.551s11.852 58.453 32.949 79.551c21.098 21.098 49.715 32.949 79.551 32.949s58.453-11.852 79.551-32.949c21.098-21.098 32.949-49.715 32.949-79.551zm-112.5 75c-19.891 0-38.969-7.9023-53.031-21.969-14.066-14.062-21.969-33.141-21.969-53.031s7.9023-38.969 21.969-53.031c14.062-14.066 33.141-21.969 53.031-21.969s38.969 7.9023 53.031 21.969c14.066 14.062 21.969 33.141 21.969 53.031s-7.9023 38.969-21.969 53.031c-14.062 14.066-33.141 21.969-53.031 21.969z"/>
  <path d="m600 487.5c-42 0-75 49.5-75 112.5s33 112.5 75 112.5 75-49.5 75-112.5-33-112.5-75-112.5zm0 187.5c-17.625 0-37.5-32.062-37.5-75s19.875-75 37.5-75 37.5 32.062 37.5 75-19.875 75-37.5 75z"/>
  <path d="m862.5 393.75c0-29.836-11.852-58.453-32.949-79.551-21.098-21.098-49.715-32.949-79.551-32.949s-58.453 11.852-79.551 32.949c-21.098 21.098-32.949 49.715-32.949 79.551s11.852 58.453 32.949 79.551c21.098 21.098 49.715 32.949 79.551 32.949s58.453-11.852 79.551-32.949c21.098-21.098 32.949-49.715 32.949-79.551zm-112.5 75c-19.891 0-38.969-7.9023-53.031-21.969-14.066-14.062-21.969-33.141-21.969-53.031s7.9023-38.969 21.969-53.031c14.062-14.066 33.141-21.969 53.031-21.969s38.969 7.9023 53.031 21.969c14.066 14.062 21.969 33.141 21.969 53.031s-7.9023 38.969-21.969 53.031c-14.062 14.066-33.141 21.969-53.031 21.969z"/>
 </g>
</svg>
