<?xml version="1.0" encoding="UTF-8"?>
<svg width="1200pt" height="1200pt" version="1.1" viewBox="0 0 1200 1200" xmlns="http://www.w3.org/2000/svg">
 <path d="m1175 763.92c-6.9609-9.8438-14.879-18.961-24.719-26.883-29.52-54.48-77.281-102.24-126.96-138.96-40.801-30.719-74.16-38.641-105.12-5.0391-31.918-36.48-44.879-86.16-78.719-122.88-36.48-40.559-57.121-93.121-107.76-120-23.043-11.762-48.723-4.082-62.883 16.801-22.559 37.918-39.359 79.438-66 114-29.52 38.879-55.918 79.438-83.52 118.08-17.762-13.922-35.52-26.398-50.641-45.602-10.797-15.836-25.68-27.836-40.32-39.598-25.68-18.961-61.918-35.762-88.559-9.8398-29.52 29.762-44.641 69.602-62.398 107.04-11.762 24.961-27.602 43.922-38.398 66.238-5.043-5.5156-11.281-11.758-18.242-14.398-1.9219-2.3984-3.8398-2.3984-5.5195-3.3594-21.121-16.801-47.762-24.961-76.32-9.8398-68.641 36.48-92.641 111.12-114.48 181.44-2.8789 8.8789 11.039 13.918 15.84 6 23.039-40.801 56.641-65.281 84.48-100.08 13.199-14.879 24-27.84 31.922-45.602 0.96094-0.96094 0.96094-0.96094 0.96094-2.1602 3.8398 4.0781 7.9219 8.8789 11.762 12.961 0 9.1211 2.8789 18.961 7.9219 25.922 9.8398 15.84 31.922 27.602 32.879 46.32 0 15.84-7.9219 30.719-17.762 44.879-10.086 8.875-18.965 17.758-26.164 31.676 0 1.1992 0 3.1211 1.9219 2.1602 32.879-3.1211 59.52-29.039 88.559-42.719 19.68-10.078 38.398-22.078 59.039-30.719 18.961-6.9609 34.801-7.9219 48.961-23.043 6.9609-6.9609 5.0391-17.762-2.8789-23.039-15.121-8.6406-32.883-8.6406-50.641-3.6016-16.082-6-32.883-10.797-47.281-19.918-3.3594-1.9219-7.1992-3.1211-10.32-5.0391 6-20.879 32.879-42.48 43.68-58.32 16.801-24 27.602-52.801 42.719-78.48 0.96094-2.8789 9.8398-16.801 16.801-25.68 6.9609 19.68 14.16 37.441 16.801 58.559 5.0391 24.48 31.68 37.68 32.641 63.602 0.96094 20.398 8.8789 35.52 24.961 47.52 9.8398 7.918 19.68 8.8789 31.918 14.641 6.4805 2.1602 10.801 5.7617 13.68 11.039-0.96094 25.68-4.8008 52.559-6 76.078 0 3.3594 3.3594 4.3203 5.0391 2.1602 10.801-13.922 17.762-24.961 24.961-41.762 6.9609-17.762 21.602-36.48 26.641-55.199 2.8789-10.078 3.8398-21.121 5.0391-30.961 0.96094-3.8359 2.6406-8.875 2.6406-13.676v-1.9219c6-9.8398 11.762-21.121 20.641-26.641 23.039-15.84 32.879-32.879 45.121-56.641 27.602-54.719 61.441-103.2 97.922-150.72 2.8789 0 6 1.9219 8.8789 2.8789 1.9219 26.879 10.801 50.879 18.719 76.32 10.32 31.684 33.84 56.641 45.121 88.082 0.95703 1.9219 0.95703 4.0781 1.918 6-23.039 0-84.48-17.762-82.559-11.762 3.8398 21.84 21.121 77.039 34.801 94.078 21.121 24.961 36 44.879 49.68 73.441 27.598 55.441 79.199 67.441 133.92 87.121 11.762 5.0391 21.602-14.16 11.762-22.078-22.082-16.562-41.762-31.199-51.602-56.16 4.8008 0 8.8789 0 12.719-1.1992 6 2.1602 12.961 2.1602 15.84-2.6406 4.3203-4.082 6.9609-8.8789 10.32-14.16 3.8398-4.8008 5.5195-9.8398 7.9219-15.84 17.039-39.359 19.68-86.16 48.48-117.12 12.238 11.039 24 21.121 37.441 30.961 8.8789 6.9609 20.16 16.801 31.922 25.68-10.801 0-20.641 1.9219-27.602 5.7617-5.0391 4.0781-6 11.039 0 13.922 25.676 13.918 56.637 10.316 79.918 30.957 23.039 18.719 50.641 36.719 80.641 41.762 5.7578 0.71875 11.758-5.043 7.918-10.801z"/>
</svg>
