<?xml version="1.0" encoding="UTF-8"?>
<svg width="1200pt" height="1200pt" version="1.1" viewBox="0 0 1200 1200" xmlns="http://www.w3.org/2000/svg">
 <g>
  <path d="m1087.1 828.42c0.55859 1.6758 0.65625 3.4766 0.26953 5.2031 0.046875 0.98047-0.046875 1.9609-0.26953 2.9141-1.9805 8.6602-4.9375 17.062-8.8125 25.051-0.48828 0.87109-1.0977 1.668-1.8125 2.3633-0.87109 1.625-2.1367 3.0039-3.6719 4.0234-45.449 29.289-91.66 56.203-144.75 68.699-1.1641 0.23047-2.3555 0.30078-3.5352 0.20703-2.2148 1.2031-4.832 1.4297-7.2188 0.61719-9.8164-4.6055-19.117-10.23-27.75-16.789-3.1484 3.3672-6.5625 6.4766-10.211 9.2969-15.684 10.777-32.594 19.652-50.371 26.438-29.406 13.855-59.648 25.863-90.555 35.945-68.766 19.5-131.07 1.875-196.93-19.688-64.734 54.375-132.74 107.34-200.81 157.03-62.812 45.863-132.6 37.949-202.27 10.754-3.7109-1.3555-6.3398-4.6836-6.7969-8.6055-45.383-86.457-1.6016-177.78 43.125-254.73v-0.003906c0.27344-0.44531 0.58594-0.86328 0.9375-1.2461-0.48047-1.5469-0.62109-3.1836-0.41406-4.7891-1.9414-12.188-4.3047-24.148-5.4102-36.43l0.003906-0.003906c-0.41016-2.9805 0.77344-5.9531 3.1211-7.8359 0.24609-0.43359 0.52344-0.85156 0.82422-1.2461 25.176-32.527 55.648-60.582 90.141-82.988 32.758-20.27 63.836-45.664 97.695-64.117 0-0.28125-0.066406-0.48828-0.066406-0.76953h0.003906c1.0078-44.629 11.164-88.578 29.84-129.13-1.8477-0.97266-3.3125-2.5391-4.1641-4.4453-16.586-34.762-42.188-62.242-63.75-93.75-18.164-26.977-32.371-56.422-42.188-87.43-1-2.582-0.74219-5.4805 0.69531-7.8477-1.3398-1.7734-2.0234-3.9492-1.9414-6.168 0.14062-33.449 5.625-65.023 34.633-85.312 1.3906-0.96094 3.0039-1.5586 4.6875-1.7344 0.14453-0.089844 0.3125-0.14062 0.48438-0.14062 18.75-3.1211 33.938 2.6328 51.074 9.375h0.003906c20.914-8.9375 42.488-16.242 64.527-21.855 14.504-3.543 33.863-11.109 49.199-7.9141 30.664 6.4492 50.625 37.398 68.691 63.215v0.003906c7.4492-24.043 27.152-42.289 51.691-47.879 8.9492-2.5586 18.324-3.2656 27.555-2.082 24.77-58.566 53.492-122.27 104.57-162.66 22.902-15.992 48.906-27.008 76.328-32.332 33.227-8.1758 67.016-19.48 101.36-22.145 2.8047-0.3125 5.5938 0.68359 7.5664 2.6992 2.0352 0.87891 3.7539 2.3555 4.9219 4.2383 36.289 57.188 91.246 124.9 74.738 197.06-9.375 41.25-31.508 75.703-48.02 114.15-17.559 40.801-30.883 83.195-46.352 124.83 4.8711 2.6992 9.1797 6.3008 12.695 10.613 9.4414 12.562 5.4844 29.84 0 42.609-0.21484 0.46094-0.46875 0.90625-0.75781 1.3242 11.934 32.746 39.133 57.449 49.539 91.246 30.188-0.9375 59.746 31.707 84.523 44.129 1.1719 0.62109 2.2266 1.4414 3.1211 2.4258 2.8828 1.7812 4.6172 4.9414 4.5742 8.3242 0.75781 24.91 12.355 47.531 14.062 72.309v0.003907c0.92969 25.355 4.8281 50.512 11.617 74.961zm-20.477 4.1641c-2.2734-7.6836-4.1055-15.492-5.4844-23.383-21.227-16.305-45-36.43-71.672-38.512-0.12891-0.078125-0.27344-0.125-0.42188-0.14062-6.2695 19.02-15.07 37.109-26.156 53.785-0.74609 1.2656-1.7383 2.3711-2.9141 3.25-0.20703 0.34766-0.34766 0.69531-0.55469 1.0391-7.6328 11.934-13.668 24.777-20.953 36.777 8.7383 12.488 20.746 23.523 26.645 37.5v0.003906c33.285-14.145 65.141-31.441 95.129-51.656v-0.14062c2.8164-5.9141 4.957-12.129 6.3828-18.523zm-8.043-40.801c-1.5273-12.555-2.5703-25.258-3.8906-38.297-1.5391-11.477-3.9258-22.82-7.1445-33.938-16.031-13.938-34.598-24.652-54.684-31.566 0 15.121-0.27344 30.113 0.14062 45.309 0.31641 8.3984-0.14453 16.805-1.3867 25.117 25.125 2.7734 46.695 18.035 66.965 33.375zm-15.477-90.938h-0.003907c-0.91016-4.4961-1.582-9.0391-2.0156-13.605-14.148-7.5-26.914-17.344-40.453-25.883-5.6484-3.8906-11.562-7.3867-17.688-10.473 4.3867 7.5234 7.5508 15.699 9.375 24.215 18.602 4.7656 35.934 13.543 50.781 25.719zm-67.238-441.46c12.91-42.742 7.6328-74.867-12.348-114.49-10.547 21.852-18.75 44.617-28.66 66.816-10.453 23.223-23.945 44.805-35.109 67.66-22.414 46.051-48.469 92.465-65.344 140.83 16.312 12.074 42.188 23.438 50.793 41.25 1.2422 2.5117 2.8828 4.8047 4.8555 6.7969 13.398-36.422 25.473-73.273 40.105-109.29 13.652-33.656 35.16-64.773 45.707-99.609zm-30.938 554.42c16.445-27.957 29.008-45.582 27.273-80.484h-0.003906c0.13672-24.547-3.1094-48.992-9.6445-72.656-8.9531 35.457-13.742 72.449-35.184 102.98h-0.003906c-1.6602 2.4219-4.2422 4.0508-7.1406 4.5078-0.8125 0.47266-1.6758 0.84375-2.5703 1.1172-11.586 3.4688-23.383 6.168-34.688 10.406-2.4922 1.0508-5.3281 0.90625-7.7031-0.39062s-4.0234-3.6094-4.4844-6.2734c-0.17969-0.12891-0.36719-0.24609-0.5625-0.34766l-2.5586-2.5586c-1.957-3.043-3.3008-6.4375-3.957-9.9961-0.76953-29.062-17.277-53.082-19.012-81.562-0.14844-1.7656 0.17578-3.5391 0.9375-5.1367 2.6445-27.75 0.21484-55.508 0.69531-83.336 0.074219-0.55469 0.14062-1.1055 0.21484-1.5938-0.035156-0.97656 0.035157-1.9531 0.20313-2.9141 2.8398-15.68 4.168-31.598 3.957-47.531-0.16797-4.2891 2.5586-8.1602 6.6562-9.4414 1.7383-1.5938 3.9688-2.543 6.3203-2.6992 13.32-1.0391 26.297-4.1719 39.617-4.9297 8.0547-21.852-12.91-23.523-25.742-32.887-10.754-7.8477-13.18-21.234-25.191-29.492v-0.003906c-12.883-8.0391-25.176-16.988-36.777-26.785-7.9375-9.2812-17.535-17-28.305-22.762-1.9492 6.3945-3.0938 13.008-3.4023 19.688 0.019531 4.2305-2.6641 8.0039-6.6641 9.375-10.895 11.371-19.977 24.629-33.992 32.605h-0.003906c-4.2578 2.5859-9.7773 1.5742-12.844-2.3516-1.2227-0.85938-2.3008-1.9141-3.1875-3.1211-4.3555-5.8594-9.5195-11.07-15.336-15.48-4.6875 15.75-9.918 31.367-14.289 47.117-7.293 26.578-16.453 52.66-23.738 79.238-3.8828 14.363-4.6875 31.434-22.762 33.59-6.1016 0.75781-21.562 2.3516-26.25-1.1797-14.57-10.621-70.012-186.24-73.273-186.24-12.348 4.9961-20.117 15.477-31.359 21.301-11.727 5.9727-25.258 5.6914-36.367 13.602-11.41 8.2266-21.617 18.008-30.316 29.062-14.488 18.613-27.152 38.57-37.82 59.605-20.812 40.285-32.195 84.77-33.289 130.1 0.8125 0.80078 1.5117 1.7109 2.0781 2.6992 1.0469 0.9375 1.8906 2.0703 2.4961 3.3398 5.8984 12.348 9.5078 25.398 14.711 38.023 6.5625 15.816 14.645 30.938 22.621 46.145 0.40625 0.86328 0.71875 1.7695 0.9375 2.6992 1.6758 0.070312 3.3125 0.51953 4.7891 1.3203 7.5 4.1641 15.055 8.043 22.547 12.188 1.7383 0.9375 3.1602 2.3633 4.0977 4.0977 1.4062 1.0117 2.4883 2.4102 3.1211 4.0234 10.613 24.637 36.008 38.023 52.18 58.566l0.20703 0.41406v-0.003906c20.34 7.7617 39.297 18.754 56.137 32.551 3.5117 2.8242 4.375 7.8164 2.0156 11.652-2.4375 18.523-4.3047 37.059-6.7305 55.586-0.13281 0.80078-0.34375 1.5898-0.62891 2.3516-0.27344 2.0781-1.2695 3.9961-2.8125 5.418 56.25 18.242 114.09 34.762 172.71 15.336l0.003907 0.003906c32.789-11.082 64.965-23.914 96.383-38.438 28.125-12.91 44.82-30.254 66.957-51 0.71875-0.64844 1.5117-1.207 2.3633-1.668 0.66016-1.375 1.6211-2.582 2.8125-3.5352 19.434-15.477 26.992-39.207 40.039-59.465 0.73438-1.168 1.6914-2.1797 2.8125-2.9844 0.19531-0.51562 0.42578-1.0195 0.68359-1.5078zm4.1641-181.38c0-0.074219 0.066406-0.14062 0.14062-0.28125-9.7109-31.781-34.633-55.789-47.531-86.176l-0.003906 0.003906c-2.9883 35.965-7.8516 71.746-14.578 107.2 0.25391 1.625-0.078125 3.2852-0.9375 4.6875 11.645 28.816 20.789 58.578 27.34 88.957 20.914-34.488 22.723-76.742 35.559-114.42zm4.3672 274.92v0.003906c-5.9688-11.27-13.438-21.676-22.203-30.938-4.3164 5.9336-9.375 11.289-15.055 15.938-0.80078 0.63672-1.6914 1.1484-2.6445 1.5273-0.59375 1.3867-1.4648 2.6367-2.5586 3.6758-2.5703 2.3633-4.9961 4.9297-7.3594 7.5664v-0.003906c5.4922 4.625 11.52 8.5742 17.953 11.758 0.28125-0.14062 0.55469-0.20703 0.9375-0.34766 10.477-2.4805 20.809-5.5547 30.938-9.207zm2.8125-775.85c-12.836-23.523-27.188-45.797-41.699-68.438-21.93 29.148-35.391 70.023-48.75 102.63-10.48 25.539-18.254 51.977-30.676 76.68 2.6602 3.8555 5.0898 7.8633 7.2812 12 0.84375 1.6289 1.25 3.4453 1.1836 5.2773 0.25 1.1172 0.32422 2.2656 0.21484 3.4062-3.1953 27.75-14.578 51.066-25.312 76.398-6.5625 15.195-16.445 32.477-24.008 49.961v-0.003906c11.238 5.5117 21.355 13.066 29.84 22.273 18.43-47.598 40.059-93.891 64.734-138.57 24.262-46.434 42.824-95.496 67.145-141.64zm-71.938 625.73c5.832-1.875 11.664-3.4688 17.492-5.1289l0.003906 0.003906c-3.625-15.859-8.2148-31.477-13.746-46.773-4.4453-14.914-9.1602-29.633-14.223-44.344h0.003907c-2.1992 0.015625-4.3945-0.14453-6.5625-0.47656-0.20703 4.8555-0.55469 9.7109-1.0391 14.57l-0.003906-0.003906c-0.15625 1.1484-0.47266 2.2695-0.9375 3.3281 0.003906 0.054687 0.027343 0.10547 0.066406 0.14062 0.9375 14.914 8.5391 27.891 12.91 41.906 3.6055 11.945 5.6328 24.309 6.0352 36.777zm5.0703-213.99c-6.0391 0.83594-12.008 1.8008-18.047 2.5703h0.003906c-0.23047 14.566-1.6445 29.094-4.2305 43.434 0.035157 0.27734 0.035157 0.55469 0 0.83203-0.34766 19.426 0.69531 38.785 0.55469 58.125 0.36719-0.03125 0.73828-0.03125 1.1055 0 1.3086 0.22266 2.6328 0.33984 3.957 0.34766 0.78125-0.79688 1.7461-1.3945 2.8125-1.7344 6.4844-34.25 11.109-68.824 13.848-103.57zm-62.586-312.19c26.504-54.684 38.645-121.51 74.445-171.19h0.003906c-27.84 4.9844-55.363 11.586-82.434 19.773-28.52 7.6406-58.836 16.52-80.211 38.102-39.898 40.312-64.527 91.941-86.523 143.49 18.664 10.312 32.117 30.676 42.535 53.363 5.1289-14.156 9.0859-28.453 14.156-43.023h-0.003907c7.2422-16.52 13.043-33.629 17.344-51.141 0.44531-4.2734 4.0312-7.5312 8.3281-7.5664 0.48828-0.20703 0.9375-0.41406 1.5938-0.61719 18.727-5.6367 37.938-9.5234 57.383-11.617 4.2539-0.71094 8.3516 1.9375 9.4414 6.1133 0.49219 0.50781 0.9375 1.0625 1.3203 1.6602 4.5742 7.7734 14.156 12.188 19.914 19.293 0.91797 1.0586 1.8008 2.25 2.707 3.3633zm-41.98 134.41c12.898-29.352 30.113-60.367 36.355-92.211-12.188 2.3516-24.637 3.5352-36.703 6.9375v-0.003906c-3.5039 1.1094-7.1094 1.875-10.762 2.2891-8.1836 54.816-32.195 106.03-34.762 161.89-0.074219 0.71094-0.23828 1.4102-0.48828 2.082 0.34766 0.41406 0.69531 0.9375 1.1172 1.3867 8.4531-8.0742 16.445-16.625 23.934-25.602 0.074219 0 0.074219-0.074218 0.14062-0.074218 2.4297-20.469 12.91-37.773 21.168-56.691zm37.051-105.05v-0.003906c-4.3398-8.4609-9.9805-16.188-16.727-22.891-5.9141-4.7031-11.457-9.8516-16.582-15.406-14.223 1.875-28.281 4.8438-42.047 8.8789 4.0977 12.008 16.875 42.188 30.535 38.305 14.773-4.1602 29.906-5.5469 44.82-8.8867zm-94.781 175.31c4.5078-53.852 26.852-103.88 34.688-157.24-9.6094-8.0039-17.094-18.254-21.789-29.844-4.3672 12.422-9.6484 24.496-13.125 37.191-5.3906 19.355-12.52 38.18-21.297 56.25 6.8711 19.219 12.188 37.961 17.211 51.836 0.76953 1.9727 0.86328 4.1445 0.27344 6.1758-1.2266 9.4414-3.0078 18.805-5.3438 28.031 3.2422 2.4961 6.3281 5.0078 9.3828 7.5664zm-24.703-36.461c0-0.20703 0.066406-0.34766 0.066406-0.55469-7.7734-22.004-17.211-64.332-35.184-93.328-8.043 16.508-20.879 39.375-35.727 46.555 0.9375 43.305 3.2617 86.598 8.3242 129.68 4.1641 34.977 5.2695 71.129 9.0195 106.31 8.1836-28.801 17.812-57.188 25.742-86.117 9.1562-33.578 23.727-67.93 27.758-102.55zm-76.961-59.062c14.598-12.715 26.066-28.625 33.516-46.492-6.2305-8.7773-15.371-15.066-25.801-17.746-10.426-2.6797-21.465-1.582-31.16 3.1016-9.6758 3.8633-17.934 10.594-23.664 19.297 12.629 15.758 39.414 47.586 47.109 41.848zm10.828 245.16c-2.8125-30.047-3.6758-60.508-7.2852-90.488-5.5508-46.875-8.8359-93.898-9.8516-141.07-7.3867-2.7422-13.82-7.5625-18.523-13.883-9.7227-9.7773-19.293-19.426-28.312-29.691-10.312 26.852-5.2031 63.074-4.3789 89.926 0.074219 1.4453-0.16406 2.8906-0.69531 4.2383 0.09375 0.26172 0.21094 0.51563 0.34766 0.75781 20.129 61.211 45.871 120.12 68.699 180.21zm-88.957-183.87c-0.097656-0.4375-0.16406-0.87891-0.20703-1.3242-1.4766-22.832-1.3633-45.742 0.34766-68.559-15.055-19.977-32.477-55.098-55.367-65.992-26.023-12.348-76.051 8.4375-105.75 21.234 16.098 16.172 22.895 38.652 34.48 58.5 17.906 30.523 41.25 58.125 61.875 86.945 9.4219-5.3828 20.031-8.3633 30.879-8.6719 9.2773-10.016 20.859-17.613 33.742-22.133zm-3.8828 542.48c2.1484-16.875 3.8828-33.75 6.1016-50.625h0.003906c-12.762-9.5273-26.711-17.344-41.496-23.25-76.602 68.766-150 141-228.01 208.24 35.25 5.9727 69.73 9.9922 77.09 10.312v-0.003907c0.66797 0.074219 1.3203 0.23828 1.9414 0.48828 61.48-48.094 124.9-94.648 184.37-145.16zm-46.695-80.523-0.42188-0.83594c-5.8125-6.9453-12.148-13.441-18.949-19.422-44.195 34.688-84.168 75.938-126.98 112.55-41.43 35.391-78.898 74.805-117.76 112.97 9.7891 2.4297 20.82 4.6875 32.129 6.7969 0.35156-0.55859 0.77344-1.0742 1.2461-1.5312 79.109-67.762 153.36-140.83 230.73-210.52zm-28.594-28.727c-7.7773-6.9688-14.699-14.836-20.625-23.438-42.535 43.781-87.188 84.234-131.98 125.62-23.523 21.789-46.695 43.996-68.137 67.867h-0.003906c-16.758 16.379-31.953 34.289-45.383 53.492 5.3477 2.7266 10.949 4.9258 16.727 6.5625 43.715-42.676 85.555-87.188 132.6-126.23 40.121-33.223 76-71.727 116.8-103.85zm-32.887-358.71c10.504-14 22.93-26.449 36.906-36.984-19.492-27.188-41.98-52.941-58.836-81.742-12.422-21.168-19.988-49.613-39.898-65.363v0.003906c-0.93359 0.12109-1.875 0.14453-2.8125 0.066406-1.6797 0.20703-3.3867-0.011718-4.9609-0.62891-11.582-6.1055-24.41-9.4766-37.5-9.8555 32.363 66.828 64.145 133.72 107.1 194.5zm6.0391 323.84c-7.2188-3.957-14.504-7.707-21.723-11.664l-0.003907 0.003906c-1.6641-0.88281-3.0391-2.2305-3.9531-3.8828-33.656 26.016-71.605 47.391-106.24 72.027-35.805 25.398-64.32 59.605-100.88 83.438h-0.003906c-0.46094 0.30469-0.98047 0.51563-1.5273 0.62109-2.2891 34.07-6.8711 67.801-10.406 102.35 25.387-39.684 67.996-75.562 100.88-105.94 48.789-45.152 97.633-89.148 143.85-136.95zm-28.766-290.77c4.2383-6.8711 9.3008-14.57 14.914-22.5-44.41-61.754-76.809-130.17-109.91-198.38-15.121 15.938-16.586 38.926-16.715 60.789l0.003906-0.003906c-0.011718 1.793-0.46484 3.5547-1.3242 5.1289 0.79297 1.0234 1.4023 2.1719 1.8008 3.4023 13.266 39.078 33.277 75.523 59.129 107.69 15.688 19.445 29.578 40.277 41.492 62.242 3.293-6.1797 6.8633-12.367 10.613-18.367zm-6.5625 267.01c-6.6562-12.695-13.18-25.461-19.152-38.512-62.242 42.188-120.32 89.934-179.36 136.43 1.0156 17.027 1.1289 34.098 0.34766 51.141 33.75-23.598 61.125-55.867 95.27-79.527 33.578-23.41 70.422-44.512 102.9-69.562zm-24.141-50.242c-3.6836-9.5703-6.8047-19.285-10.895-28.727-29.773 16.586-56.906 39-85.914 56.898l0.003907 0.003906c-35.77 22.406-67.566 50.602-94.09 83.438 1.0391 9.7109 2.9141 19.293 4.4453 28.93 1.082-1.9375 3.1914-3.0742 5.4102-2.9062 59.605-46.977 118.17-95.137 181.04-137.67zm-128.79 416.79c37.332-2.3516 64.051-20.812 91.875-42.395-25.664-3.0352-51.129-7.5742-76.258-13.605-26.785-5.7578-53.992-8.043-79.52-18.113-13.258 17.277-19.641 38.512-30 57.523v0.003906c29.852 11.844 61.801 17.488 93.902 16.586zm-71.672-84.441c12.641-57.375 17.426-116.2 14.223-174.86-0.62891 0.41406-1.1797 0.9375-1.7344 1.3125-0.27734 1.0391-0.67187 2.043-1.1836 2.9922-39.824 68.691-83.336 153.84-44.062 231.76 11.242-20.258 18.039-42.883 32.758-61.199z"/>
  <path d="m964.88 746.89c0.47656 8.0781-0.53516 16.172-2.9922 23.879-0.72656 2.4609-1.7773 4.8164-3.1211 7.0039-0.61719 1.1797-1.3125 2.3633-2.0078 3.6094h0.003906c-0.69141 0.94531-1.4297 1.8477-2.2227 2.707l-2.2227 2.6992-0.55469 0.62891-0.83594 0.83594-0.42188 0.34766-1.875 1.3867h0.003906c-1.1289 0.96484-2.3945 1.7578-3.75 2.3516-1.25 0.68359-2.5508 1.2656-3.8906 1.7344-4.9883 1.9492-9.9844 3.1328-12.414 4.5195-0.17188 0.11719-0.36328 0.21094-0.5625 0.27344l-0.34766 0.074219c-0.20703 0.066406-0.41406 0.34766-0.55469 0.55469l-1.1797 1.2461-0.13281 0.20703-0.21484 0.34766 0.003907-0.003907c-0.87109 1.582-1.6172 3.2305-2.2227 4.9336-0.34766 0.9375-0.69531 1.875-1.0391 2.8125-0.47656 1.2461-0.9375 2.4297-1.4531 3.6094h-0.003906c-0.75 1.9727-1.8047 3.8203-3.1211 5.4727l-0.83594 1.1797-0.83594 1.1172-0.48828 0.55469c-0.75781 0.61719-1.4531 1.3125-2.2109 1.9414h0.003906c-1.2773 1.2539-2.6484 2.4141-4.0977 3.4688-4.2266 3.0742-8.7344 5.7461-13.461 7.9766-3.3281 1.6016-5.3438 2.1562-5.832 1.5273-1.1797-1.3867 4.9297-7.1445 13.809-15.684 1.0938-1.1094 2.1133-2.293 3.0547-3.5352 0.55469-0.62891 1.1055-1.2461 1.5938-1.875l0.20703-0.14062v-0.066407l0.14062-0.28125 0.69531-1.2461c0.98047-1.4883 1.707-3.1289 2.1562-4.8555 0.47656-1.7344 0.9375-3.543 1.4531-5.4102 1.2305-5.6562 4.5859-10.629 9.375-13.883 4.582-2.2734 9.3438-4.1758 14.23-5.6914 0.98047-0.3125 1.9219-0.73047 2.8125-1.2461 0.84766-0.34766 1.6406-0.8125 2.3516-1.3867l1.0391-0.75781 0.28125-0.14062 0.066406-0.066406 0.34766-0.42188 2.2969-2.5703c0.78125-0.82031 1.5195-1.6758 2.2148-2.5703l1.2578-2.2891-0.003906 0.003906c1.043-1.4688 1.8594-3.0859 2.4297-4.793 2.543-6.5195 4.1758-13.359 4.8555-20.324 1.3867-12.488 2.2227-20.68 3.8828-20.68s3.6445 7.668 4.3398 20.914z"/>
  <path d="m893.44 862.98c0.42188 0.62891-2.1484 3.6094-7.2109 8.6055v0.003907c-7.2969 7.2578-15.133 13.961-23.438 20.051-5.957 4.4453-12.398 8.1953-19.207 11.176-3.7812 1.5508-7.6484 2.875-11.59 3.957-1.6953 0.40234-3.3633 0.90625-4.9961 1.5195-0.34766 0.21484-0.20703 0-0.69531 0.69531l0.003907-0.003906c-0.53906 0.68359-1.0273 1.4062-1.4648 2.1562-0.57422 1.0234-1.1992 2.0195-1.875 2.9805l-2.4922 2.9805v0.003906c-1.668 1.9453-3.5547 3.6914-5.625 5.2031-1.9453 1.625-4.0352 3.0625-6.2461 4.3008-2.168 1.3594-4.4375 2.5469-6.7969 3.543-9.8555 4.7031-20.734 6.8477-31.641 6.2461h-0.074218l-0.27344-0.066406c-1.5273-0.28125-3.4688-0.69531-4.5859-0.9375-0.20703 0.21484-0.34766 0.42188-0.61719 0.69531l-3.6836 4.6875c-1.4531 1.6602-2.8125 3.5352-4.4336 5.1289v-0.003906c-4.457 4.5625-9.6133 8.3789-15.27 11.316-5.4805 2.7734-11.285 4.8477-17.281 6.1797-10.785 2.043-21.785 2.7422-32.746 2.082-9.9375-0.58203-19.781-2.2578-29.352-5-2.2891-0.76953-4.5742-1.6016-6.7969-2.3633-2.2227-0.75781-3.8906-1.8008-5.832-2.7109v0.003906c-2.9844-1.7695-6.1484-3.2109-9.4414-4.3047-5.4766 0.14063-14.062 1.6016-20.117 1.1172-3.1211-0.28125-5.9727-0.55469-8.6719-0.83594-2.5039-0.41406-4.8555-0.83594-6.9375-1.1797-8.4375-1.5273-13.051-2.5703-13.051-3.3945 0-0.82422 4.8555-1.2578 13.398-1.1797l7.0781 0.20703c2.5586 0 5.2695-0.066407 8.1836-0.14063 6.1016-0.20703 11.102-1.9414 20.746-2.9141v-0.003906c4.4062 0.84766 8.6602 2.3477 12.629 4.4453 1.875 0.69531 3.8906 1.7344 5.7578 2.2891 1.8672 0.55469 3.8242 1.1172 5.7656 1.668h-0.003906c8.9062 2.0664 17.996 3.2266 27.133 3.4688 10.105 0.35547 20.215-0.50391 30.113-2.5703 4.8516-1.1992 9.5547-2.9414 14.016-5.2031 4.5312-2.3906 8.6719-5.457 12.281-9.0938 1.3203-1.3125 2.3633-2.8125 3.6094-4.1641l3.8906-4.9219c0.86719-1.1523 1.8672-2.1992 2.9805-3.1211 1.0312-0.83594 2.2422-1.4297 3.5352-1.7344 0.70703-0.16016 1.4297-0.25781 2.1562-0.28125l1.2461 0.066406c2.9805 0.42188 4.3047 0.83594 6.1016 1.1797 8.8242 0.42969 17.621-1.2344 25.68-4.8555 7.5859-2.8086 14.176-7.7891 18.945-14.324 0.75781-1.0391 1.2461-1.875 2.2891-3.1211 1.1328-1.4062 2.582-2.5273 4.2266-3.2617 2.2461-0.85156 4.5703-1.4766 6.9375-1.875 3.7305-0.85156 7.4141-1.8945 11.035-3.125 6.2188-2.4531 12.211-5.4492 17.906-8.9531 10.754-6.5625 19.012-12.836 24.91-16.875 5.8984-4.0391 9.4414-5.9883 9.8906-5.4375z"/>
  <path d="m870.98 826.48c1.0234 4.5977 0.69531 9.3945-0.9375 13.809-2.9062 6.9727-8.832 12.238-16.098 14.297-6.6523 2.0469-13.449 3.5977-20.332 4.6406-1.1133 7.2344-5.0273 13.742-10.895 18.113-5.3242 3.9766-11.543 6.5742-18.113 7.5664-4.2578 0.72656-8.6211 0.60938-12.836-0.34766-2.8125-0.69531-4.2266-1.7344-4.1641-2.4922 0.066406-0.75781 1.7344-1.3203 4.3672-1.9492h0.003907c3.6094-0.79297 7.1602-1.8359 10.621-3.125 8.3242-2.9141 20.539-10.688 19.633-22.34l-0.41406-4.9961 4.9961-1.0391 2.3633-0.48828c8.1172-1.6602 15.676-2.2227 21.508-3.8164 4.832-0.76953 9.1289-3.5078 11.867-7.5664 1.8008-3.1992 3.0898-6.6641 3.8164-10.266 0.61719-2.8125 1.3867-4.4453 2.1484-4.5078 0.75781-0.066406 1.707 1.4531 2.4648 4.5078z"/>
  <path d="m848.5 483.21c1.1797 2.6484 1.5078 5.5977 0.9375 8.4375-0.34766 1.9414-0.9375 2.9062-1.7344 2.9805-0.79688 0.074219-1.668-0.76953-2.5703-2.2227v0.003906c-1.0352-1.7305-2.207-3.375-3.5039-4.9141-1.7656-1.582-3.9648-2.5977-6.3125-2.9141-3.625-0.19531-7.2617 0.058593-10.828 0.75781l-7.7734 1.3867 0.9375-8.1836 0.20703-1.4609h0.003907c1.6367-6.5078 0.625-13.395-2.8125-19.156-0.69531-0.9375-1.3867-1.5195-2.082-2.3516-0.55469-0.9375-1.875-1.3203-2.5703-1.9414-1.5273-1.1797-2.2227-2.1562-2.0078-2.9141 0.21484-0.75781 1.3867-1.2578 3.2539-1.4609v-0.003907c1.1797-0.22266 2.3906-0.17187 3.5469 0.14063 1.8281 0.49609 3.5781 1.2422 5.2031 2.2227 3.9336 2.7148 6.8047 6.7109 8.1172 11.309 0.96484 3.3477 1.4102 6.8242 1.3203 10.312 2.6445-0.035157 5.2773 0.28125 7.8398 0.9375 4.7031 1.3789 8.625 4.6523 10.828 9.0352z"/>
  <path d="m805.31 526.88c2.2812 6.2891 2.8086 13.078 1.5273 19.641-0.81641 4.2812-2.6523 8.3008-5.3438 11.727-1.9414 2.3516-3.3281 3.3281-4.0234 2.9141-0.69531-0.41406-0.62891-2.1562-0.14062-4.8672l0.003907 0.003907c0.83203-3.5234 1.25-7.1328 1.2461-10.754 0.042969-2.3555-0.21484-4.707-0.76172-7-0.52734-2.6602-1.3672-5.2461-2.5-7.707-2.8125-5.6875-6.6055-10.836-11.203-15.207l-0.42188-0.48828-3.75-3.8828 3.1211-4.0234v0.003906c3.4453-4.7383 5.4219-10.383 5.6914-16.238 0.35547-5.0234-0.37891-10.07-2.1562-14.785-1.2773-3.2109-2.9297-6.2656-4.9219-9.0938-1.6016-2.1484-2.6445-3.6016-2.1562-4.2266 0.48828-0.62891 2.082-0.62891 4.8555 0.62891 3.9219 2.0625 7.207 5.1523 9.5039 8.9414 3.5703 5.5586 5.5156 12 5.625 18.602 0.21875 6.6367-1.3672 13.203-4.582 19.012 4.4961 4.8906 8.0195 10.594 10.387 16.801z"/>
  <path d="m726.31 702.7h-0.20703l-0.62891 0.34766c-0.20703 0.69531-0.41406 1.3867-0.55469 1.9414-1.5938 5.8984-2.2891 12.977-3.3281 19.426l-0.42188 2.6445c-0.20703 0.9375-0.41406 2.2109-0.61719 2.8125l0.003907-0.003907c-0.5 1.6562-1.1055 3.2773-1.8125 4.8555-0.61719 1.4609-1.1719 2.9805-1.8008 4.4453-0.62891 1.4609-1.4531 2.6992-2.2227 4.0977l0.003906-0.003907c-2.707 4.9336-6.1445 9.4258-10.199 13.324-5.7539 5.3516-12.223 9.8828-19.219 13.461-4.8555 2.3516-7.707 3.3945-8.1172 2.6992-0.41406-0.69531 1.5938-2.8125 5.6914-6.3828h-0.003906c5.6133-4.6758 10.875-9.7539 15.75-15.195 3.0859-3.7461 5.6758-7.875 7.707-12.281 0.55469-1.1797 1.1055-2.3516 1.6602-3.6094 0.55469-1.2578 0.83594-2.6328 1.3203-3.957 1-2.5508 1.5859-5.2422 1.7344-7.9805 0.55859-6.8984 1.5312-13.758 2.9141-20.539 0.49609-2.3125 1.3633-4.5273 2.5703-6.5625 0.45703-0.76562 1.0156-1.4648 1.6602-2.082l0.34766-0.34766c0.32031-0.21484 0.63672-0.44531 0.9375-0.69141 0.125-0.089843 0.26563-0.16016 0.41016-0.21484l0.55469-0.34766c1.4844-0.67578 3.0664-1.1172 4.6875-1.3125 2.3633-0.28125 4.0312-0.28125 5.7656-0.34766 15.75-0.69531 27.133-22.828 33.648-34.836 1.5273-2.9805 3.0547-5.832 4.5078-8.6719 1.0391-2.2891 2.7109-5.6914 3.543-8.1172v-0.003906c1.8672-4.9023 3.2812-9.9609 4.2266-15.121 3.4023-19.367 2.5039-32.344 4.4453-32.41 0.76953 0 1.875 3.0547 2.8125 8.7461 1.3516 8.207 1.668 16.551 0.9375 24.836-0.46875 5.9102-1.582 11.754-3.3281 17.418-0.9375 3.2617-2.0156 5.5508-3.3359 9.1602-1.3867 2.9141-2.6992 5.9727-4.2266 9.0938h-0.003906c-6.0742 14.535-15.859 27.219-28.379 36.777-2.2227 1.1055-4.4453 2.2109-6.5625 3.3281-2.4297 0.96094-5.0156 1.4531-7.6289 1.4531-1.875 0-3.75 0-4.9219 0.14062-0.66797 0.21484-0.46094 0.14062-0.32031 0.011718z"/>
  <path d="m766.76 883.38c0.94922 2.5273 1.1641 5.2656 0.62891 7.9102-0.92578 4.2578-3.3047 8.0625-6.7305 10.754-4.0117 2.9492-8.7227 4.7891-13.668 5.3438-8.2969 0.99219-16.68-0.83984-23.805-5.2031-5.7578-3.6758-7.0039-7.3594-6.1016-8.5312 1.0391-1.3203 4.6875 0.13281 9.375 0.9375 6.2812 1.3906 12.742 1.8086 19.152 1.2461 3.0898-0.35547 6.0938-1.25 8.8789-2.6328 2.0508-1.1445 3.8086-2.75 5.1367-4.6875 2.2891-3.75 3.0547-7.5 4.8555-7.5664 0.82422-0.066407 1.5859 0.69531 2.2773 2.4297z"/>
  <path d="m654.63 919.12c0.5625 0.48828 0.28125 1.668-0.82422 3.5352v-0.003906c-1.7305 2.7031-4.2188 4.8281-7.1562 6.1133-4.6055 2.1133-9.8008 2.5742-14.707 1.3125-3.7812-1.1523-7.2305-3.1992-10.059-5.9609-0.074218 0-0.074218 0.066407-0.14062 0.066407-3.0742 2.582-6.8906 4.1211-10.898 4.3828s-7.9922-0.76172-11.379-2.9219c-5.2383-3.4844-8.3477-9.3945-8.2578-15.684 0.023438-2.168 0.375-4.3203 1.0391-6.3867 0.56641-1.4922 1.3125-2.9102 2.2227-4.2266 1.5273-1.7344 2.8125-2.5703 3.4688-2.2227s0.9375 1.7344 0.69531 4.0859c-0.066406 1.1797 0.14063 2.2969 0.074219 3.543v0.003906c0.10547 1.4727 0.33594 2.9336 0.69141 4.3672 0.75 3.1406 2.8281 5.8008 5.6914 7.2852 3.2031 1.5078 7 0.90234 9.5742-1.5273 1.1016-0.87891 2.125-1.8516 3.0547-2.9062l6.0391-5.418 3.6094 6.3203v-0.003906c1.5508 3.0312 4.0312 5.4844 7.0781 7.0039 3.0469 1.5195 6.5 2.0195 9.8516 1.4336 5.5508-0.80469 9.0859-3.375 10.332-2.1914z"/>
  <path d="m604.88 857.81c0.074219 1.5273-7.9766 3.4688-21.301 2.5703-8.0703-0.48828-15.98-2.4883-23.316-5.8984-5.0547-2.3281-9.3359-6.0508-12.344-10.734-0.64453-1.0273-1.2227-2.0977-1.7344-3.1953-0.84375-1.7422-1.3633-3.625-1.5312-5.5508l-0.14063-3.6758v-0.066406c-0.19531-0.089844-0.40234-0.16406-0.61719-0.21484-0.76953-0.20703-1.8086-0.47656-2.8125-0.69531l-3.4023-0.69531c-1.0391-0.20703-3.2539-0.69531-4.0234-0.9375-2.9805-1.1797-4.5742-2.082-6.8711-3.1211-2.0078-1.0391-4.0234-2.2227-5.8984-3.3359-6.7461-4.0703-12.867-9.0938-18.176-14.914-8.8789-10.312-11.102-18.18-9.918-18.938 1.4531-0.9375 6.4492 5.4766 15.676 13.039h-0.003906c5.4922 4.3789 11.395 8.2148 17.625 11.449 1.8086 0.83594 3.6094 1.8086 5.5508 2.6445 1.9414 0.83594 3.6094 1.5195 5.4844 2.2891v-0.003906c0.89453 0.23438 1.7969 0.41797 2.7109 0.55469l3.5352 0.62891v-0.003907c1.3633 0.21094 2.7109 0.52344 4.0312 0.9375 2.3359 0.54688 4.4492 1.8086 6.0352 3.6094l0.066406 0.066406 0.28125 0.34766c1.4805 1.8828 2.3516 4.1719 2.4922 6.5625 0.066406 1.9414 0 2.8125 0 3.5352 0.019531 0.42969 0.11328 0.85156 0.28125 1.2461 0.47656 0.9375 1.0391 2.2969 1.4531 2.9922 0.48828 0.47656 0.75781 1.0391 1.2461 1.5938l1.8086 1.875h0.003906c1.3789 1.168 2.8633 2.2148 4.4336 3.1211 6.1055 3.3086 12.648 5.7422 19.434 7.2188 11.965 2.8867 19.941 3.9922 19.941 5.6992z"/>
  <path d="m548.81 461.63c0.14062 0.55469-1.1055 1.3867-3.3281 2.3516v0.003906c-2.9922 1.3203-5.8555 2.9219-8.5391 4.7891-0.82422 0.76953-1.8008 1.2461-2.8125 2.1562v-0.5625h-0.9375v1.2578l0.14063 0.61719-0.42188 1.5938c-1.3203 2.2969-2.5703 4.9961-4.4453 8.0547-1.1602 1.8398-2.6094 3.4805-4.293 4.8555-0.34766 0.20703-0.5625 0.34766-0.9375 0.62891-0.53906 0.26953-1.0977 0.5-1.668 0.69141-0.69531 0.20703-0.83594 0.20703-1.0391 0.27344l-0.34766 0.074219-0.83594 0.066406h-0.34766c-0.98047-0.11719-1.9531-0.30078-2.9062-0.55469-0.69531-0.34766-1.3867-0.69531-2.0898-1.1055-2.2109-1.5273-3.4688-2.2227-4.4336-2.8125-0.9375-0.48828-0.9375 0.28125-1.3203 0.28125l-0.34766-0.48828h-0.003906c-1.3164 0.37109-2.5 1.1172-3.4023 2.1484-1.543 1.5547-2.9375 3.2539-4.1602 5.0703l-0.20703 0.27344c-1.2969 2.1836-1.9688 4.6797-1.9414 7.2188-0.27344 2.2344-0.78516 4.4375-1.5273 6.5625-0.6875 1.4883-1.5234 2.9062-2.4961 4.2266-1.1328 1.1719-2.4453 2.1562-3.8906 2.918-3.4922 1.5781-7.2656 2.4297-11.098 2.5039-2.6641 0.19922-5.293 0.71094-7.8398 1.5156-4.8516 1.1289-9.5039 2.9766-13.809 5.4844-7.2578 4.9453-13.406 11.352-18.047 18.809-8.3242 13.18-12.695 22.621-14.363 21.852-1.3125-0.55469 0.074218-10.547 7.2188-25.949 4.3359-9.3672 10.941-17.5 19.219-23.664 5.1719-3.4883 10.895-6.0664 16.934-7.6289 5.625-2.2227 14.363-2.0156 16.238-3.1875 0.41406-0.14062 0.28125-0.34766 0.62891-0.42188 0-0.20703 0.27344-0.48828 0.27344-0.48828h-0.003906c0.51953-1.2891 0.86719-2.6406 1.0391-4.0234 0.26953-4.5195 1.8125-8.875 4.4453-12.562 1.6641-2.4922 3.5977-4.7969 5.7656-6.8711 2.5508-2.5586 5.8203-4.2734 9.375-4.9219 5.6914-0.9375 9.7109 4.6875 15.684 2.3516 3.3281-1.3867 5.2031-6.8711 8.043-9.3008 1.1797-0.69531 2.2227-1.3125 3.1953-1.875l0.003906 0.003906c3.5586-1.8086 7.457-2.8477 11.445-3.0586 2.6641 0.011719 4.0508 0.29297 4.1914 0.84375z"/>
  <path d="m467.91 550.17c5.832 1.4609 8.043 4.5078 7.5 5.7578-0.69531 1.668-3.8828 1.668-7.7734 2.5039v-0.003906c-4.6758 0.99609-8.9531 3.3594-12.281 6.7969-2.8477 2.8633-3.7227 7.1445-2.2188 10.895 0.39453 0.73047 0.71094 1.5 0.9375 2.2969 0.34766 0.75781 0.9375 1.5195 1.2461 2.2109 0.69531 1.3867 0.83594 2.4297 0.34766 3.0547-0.48828 0.62891-1.5273 0.83594-3.0469 0.62891v0.003906c-0.89844-0.10156-1.7656-0.35938-2.5703-0.76953-1.25-0.70703-2.4336-1.5195-3.543-2.4297-2.8555-2.7344-4.5664-6.4531-4.7812-10.406-0.16797-4.8438 1.5469-9.5664 4.7812-13.18 5.332-6.0625 13.469-8.8594 21.402-7.3594z"/>
  <path d="m447.09 745.71c1.8086 2.0078 2.6445 3.3945 2.2969 3.9453-0.34766 0.55469-1.9492 0.28125-4.5078-0.82422-1.2578-0.5625-2.8125-1.2578-4.5859-2.2227-1.7734-0.96484-3.6094-2.3633-5.6914-3.8164v0.003906c-4.9219-3.6953-9.2695-8.0898-12.91-13.051l-0.75781-0.9375-0.41406-0.48828c-0.074219-0.074219-0.48828-0.76953-0.48828-0.76953l-0.20703-0.41406-1.2578-2.4297c-0.9375-1.5938-1.6602-3.4688-2.4922-5.3438v0.003906c-0.79687-2.0508-1.4219-4.1641-1.875-6.3164-0.33984-2.3203-0.5-4.6602-0.48437-7.0039 0.41406-3.7031 1.1094-7.3711 2.0781-10.969l0.14063-0.9375c0-0.20703 0-0.20703 0.074218-0.28125 0.074219-0.074219 0.066406-0.066406 0.066406-0.20703l-0.066406-0.75781-0.074218-0.42188c-0.20703 0-0.14063 0.074219-0.14063 0.14063 0 0.066406-1.7344-0.69531-1.7344-0.69531-5.0352-3.7891-8.7695-9.0508-10.688-15.055-0.41406-1.4609-0.82422-2.8125-1.2461-4.2383-0.27344-1.1719-0.48828-2.3516-0.69531-3.5352l-0.20703-0.83594-0.066406-0.48828-0.14062-0.75781v-0.28125l-0.074219-1.8008c-0.066406-1.2461-0.13281-2.5039-0.20703-3.6758l0.003906 0.003906c-0.22266-8.457 0.66016-16.902 2.6328-25.125 0.73047-3.1719 1.7031-6.2812 2.918-9.3008 0.95703-2.3047 2.0469-4.5547 3.2617-6.7305 2.2227-3.2539 3.8164-4.8555 4.5078-4.5078 0.69531 0.34766 0.5625 2.5703-0.34766 6.3828-0.34766 1.8086-0.69531 4.0312-1.1797 6.5625-0.27344 2.7109-0.82422 5.625-1.0391 8.9531-0.55469 11.793-3.2539 37.68 9.6484 45l0.76953 0.41406c0.47656 0.34766 1.2461 0.9375 1.875 1.4609h-0.003906c1.3125 1.1992 2.3516 2.6641 3.0469 4.3008l0.28125 0.61719c0 0.14062 0.27344 1.1172 0.27344 1.1172 0.027344 0.31641 0.074219 0.62891 0.14062 0.9375l0.074219 0.69531v1.1797c0.027344 0.8125-0.019531 1.625-0.14062 2.4297l-0.28125 1.6602c-0.9375 4.0312-2.1484 7.5664-2.2891 9.0273v0.41406c0.14063 1.5273-0.066406 2.9805 0.14063 4.5078 0.24609 1.5508 0.59375 3.082 1.043 4.582 0.55469 1.5938 0.9375 3.0469 1.6602 4.6875l0.9375 2.2969 0.14063 0.27344c0.066406 0.14062 0.75781 1.2578 0.75781 1.2578 2.7891 4.7461 6.0703 9.1836 9.7891 13.246 1.5938 1.7344 3.0547 3.3281 4.3047 4.6875 1.2422 1.3594 2.5273 2.457 3.4297 3.4297z"/>
 </g>
</svg>
