<?xml version="1.0" encoding="UTF-8"?>
<svg width="1200pt" height="1200pt" version="1.1" viewBox="0 0 1200 1200" xmlns="http://www.w3.org/2000/svg">
 <path d="m984.19 370.32 1.0352 0.44922 0.94141-0.18359 128.93-25.09-128.92 18.309-84.676-42.086 53.309-51.918 0.56641-0.55078 0.27344-0.60547 39.945-89.043 119.51-49.012-121.92 45.32-0.77734 0.28906-0.39453 0.80859-42.906 87.703-9.3828 8.5508-33.73-42-2.5195-43.586-2.5742 44.551-0.039063 0.67188 0.51563 0.82031 29.77 47.355-76.527 69.723-162.95-49.715-95.098 34.828-33.352-91.645 54.438-113.17 0.21094-0.44141-0.14844-0.41797-17.77-50.234 15.5 50.469-59.723 111.87-0.71484 1.3398 0.50781 1.5977 28.914 91.191-134.92-17.195-106.38 70.918-77.395-77.055-0.89453-0.89062-1.0977-0.19531-25.016-4.4297c0.58984-2.9492 1.4883-7.4492 2.6523-13.277 0.96484-5.0781 2.0703-11 3.0859-17.438 0.58984-3.4492 0.98047-6.9297 1.1758-10.422-0.24609-3.9844-0.83984-6.9258-1.2461-10.469-3.6133-27.211-7.2227-54.422-7.2227-54.422l1.2266 54.68c0.03125 3.2773 0.25391 7.1523 0.12891 9.8828-0.54297 3.0508-1.2422 6.0742-2.0898 9.0586-1.6641 6.1016-3.3906 11.812-4.8867 16.691-1.9883 6.2812-3.4727 10.969-4.332 13.68l-62.227-11.02-69.051-62.344 66.977 65.371 0.34766 0.33984 0.54688 0.11719 97.242 21.148 75.074 80.793-7.8086 75.473-71.543 54.707 9.625 122.34-119.12 35.734-63.871-7.7148 63.742 11.723 0.35156 0.070313 0.46875-0.10938 122.8-28.723 102.85 108.26 30.195 59.137-132.59 62.066-2.8633 1.3398 0.78516 2.957 39.199 147.33-100.11 69.418 103.07-67.246 1.0078-0.65234-0.28906-1.2109-34.938-146.38 136.39-58.938 148.44-12.242 92.422 71.293-25.57 92-0.27734 0.99609 0.30469 0.79688 32.402 84.918-26.691-85.809 31.371-90.387 240.97-77.605 73.867 45.355-30.48 92.84-0.25781 0.78906 0.19531 0.73828 18.277 68.598 0.23828 0.90234 0.8125 0.35547 135.84 59.539-133.43-62.59-16.379-67.312 33.934-94.316 1.0586-2.9414-2.7109-1.8242-72.668-48.867 59.484-136.18 83.273-22.258 47.438 17.211-46.508-21.504-0.53906-0.25-0.76562 0.13672-84.102 14.969-38.449-67.91 30.773-107.68-101.63-133.21 28.395-27.652z" fill="#676767"/>
</svg>
