<?xml version="1.0" encoding="UTF-8"?>
<svg width="1200pt" height="1200pt" version="1.1" viewBox="0 0 1200 1200" xmlns="http://www.w3.org/2000/svg">
 <path d="m869.88 332.54c-23.746-10.984-40.848-31.082-62.492-45.148-37.902-24.633-71.438-55.48-110.6-78.602-27.148-16.031-48.664-40.16-76.738-55.207-18.75-10.047-29.488-7.7539-40.195 9.7344-13.453 21.973-28.199 43.293-43.523 63.773-31.832 42.551-58.766 88.23-88.723 131.94-24.352 35.531-46.523 72.551-70.82 108.12-17.535 25.672-32.125 53.004-48.09 79.559v0.003906c-1.9102 4.5742-3.2109 9.3828-3.8711 14.297 2.3203 5.9609 4.4727 12.445 7.3242 18.609 5.7383 12.406 11.988 24.574 17.797 36.953 28.609 60.977 54.461 123.24 85.137 183.25 35.98 70.387 72.414 140.54 108.51 210.86h-0.003906c4.8789 9.2695 9.1758 18.832 12.863 28.637 1.6484 4.5195-1.5508 11.203 5.8789 12.805 6.1797 1.332 10-2.9961 12.988-7.3242 20.062-29.051 46.672-52.902 65.547-82.902 7.8086-10.645 16.656-20.484 26.406-29.379 15.977-14.23 29.953-30.559 41.551-48.535 15.457-29.586 23.883-62.566 37.496-93.363 12.5-28.277 28.688-54.477 41.863-82.309 13.254-28 33.41-52.453 34.633-86.07 1.9023-52.324 15.5-103.04 25.941-154.13 8.1055-39.648 16.762-79.184 24.688-118.87 1.0977-5.4883 4.6914-12.887-3.5703-16.707zm-113.07-57.121c27.656 16.863 54.973 34.277 81.949 52.242 5.957 3.957 17.316 7.6875 9.168 18.949h-0.003907c-2.832 5.1953-7.7188 8.9648-13.465 10.387-5.7461 1.4219-11.828 0.36719-16.758-2.9102-37.832-29.652-72.133-63.555-102.22-101.04 14.949 5.0508 28.93 12.617 41.332 22.371zm-79.941-50.062c30.27 25.027 51.66 58.398 79.902 85.324 15.602 14.875 32.031 28.879 47.691 43.695 3.8789 3.668 13.605 7.1211 5.9922 14.48-6.1953 5.9883-13.66 11.102-23.477 2.7461h-0.003907c-11.629-12.133-22.168-25.27-31.488-39.254-24.492-29.473-48.449-59.395-72.652-89.109-1.5664-1.9219-3.1562-4.0391-6.1055-3.3867-1.4141-6.5391-4.4805-12.605-8.9062-17.621 5.2617-3.9375 6.793 1.2656 9.0469 3.125zm-0.36328 14.867v0.003906c11.18 20.73 25.121 39.848 41.438 56.836 19.91 24.438 39.723 48.938 58.359 74.328 2.8516 3.8828 14.352 10.012 3.1484 16.098-8.6484 4.6953-17.5 16.316-29.387 5.1211-9.207-9.3438-16.926-20.043-22.898-31.719-27.637-49.02-55.941-97.664-83.957-146.47-1.1055-2.0469-2.0977-4.1523-2.9688-6.3125 11.27 9.9805 23.762 21.047 36.266 32.121zm56.387 178.94c-5.707 1.8516-7.3164-2.4688-9.1445-6.2227-10.309-21.152-21.883-41.809-30.516-63.625-12.375-31.281-27.129-61.457-40.25-92.371h-0.003906c-2.0742-3.5977-2.0391-8.0352 0.089843-11.598 15.641 22.898 29.605 46.898 41.785 71.809 13.246 26.168 28.582 51.219 45.863 74.91 3.7344 4.3047 5.0352 10.207 3.4531 15.68-1.5781 5.4727-5.8242 9.7734-11.277 11.422zm-99.426-196.26c23.887 53.734 46.891 107.86 70.172 161.87 4.9648 11.516 9.3438 23.301 14.762 34.594 2.9023 6.0547 2.2422 10.453-3.5859 13.02-5.9844 2.6289-8.2617-2.0078-10.199-6.7031-24.992-60.613-54.781-119.23-73.676-182.41-5.8125-19.434-14.305-38.102-19.504-61.609 9.5625 12.441 17.004 26.375 22.031 41.238zm-64.711 782.46c-1.0938 3.0859-0.85547 8.3516-6.0078 7.7734-3.4219-0.38672-3.8672-4.5-5.2695-7.3125-39.508-79.203-76.816-159.46-114.93-239.33-13.547-28.395-32.746-53.879-45.484-82.895-17.145-39.047-34.641-77.941-52.484-116.68-3.5234-7.6094-1.0742-10.594 5.1758-13.246 4.375-1.8555 8.6328-4.0703 13.133-5.5312 81.043-26.316 160.18-58.68 243.62-77.367 26.02-4.2109 51.504-11.25 76-20.992 6.7695-3.1602 11.191-1.4102 10.742 7.3789-0.40234 7.9023-0.085937 15.844-0.085937 21.762-3.1602 50.992-3.2812 100.2-2.8594 149.08 0.28125 32.566-11.879 58.121-23.391 85.82h0.003906c-26.023 66.035-48.43 133.43-67.121 201.91-8.8828 30.309-20.488 59.828-31.047 89.637zm12.836 13.871c-2.3789-8.5742-0.76953-17.766 4.3789-25.023 33.699-42.891 70.25-83.465 109.4-121.44 0.92188-0.875 2.6836-0.86719 7.2109-2.207-41.211 50.641-80.352 98.734-120.99 148.67zm128.32-176.78c-37.883 37.844-73.988 77.348-110.17 117.55 0.25-17.453 5.7461-34.426 15.773-48.711 27.449-33.348 64.668-55.973 97.234-84.473l0.003906 0.003906c2.9688 5.2109 1.7734 11.801-2.8398 15.633zm19.801-42.883h0.003906c-31.977 28.785-65.43 55.883-100.22 81.191-1.9922-4.207-1.7305-9.1406 0.69922-13.117 9.5859-17.934 16.387-37.074 36.754-47.863 22.664-12.008 44.5-25.645 69.16-37.211h-0.003906c0.61328 6.3477-1.7461 12.625-6.3867 17zm-0.76562-25.98c-25.227 13.816-49.434 29.496-74.828 44.863-1.5664-3.3398-2.0312-3.8438-1.9297-4.1797 6.1914-20.836 13.547-38.648 37.328-48.199 23.641-7.3789 46.621-16.73 68.699-27.957-3.7539 15.711-14.555 28.805-29.266 35.477zm25.34-43.09c-25.852 9.6797-51.062 21.07-78.09 32.426 2.4062-10.895 4.4102-20.434 6.6484-29.918l0.007813 0.003907c1.1055-4.7969 4.9258-8.5 9.7578-9.4531 26.523-5.3789 53.152-10.25 80.168-15.371-0.24219 5.2227-2.1758 10.223-5.5078 14.25-3.3359 4.0273-7.8906 6.8594-12.98 8.0664zm15.617-31.945c-23.793 5.9648-47.848 10.883-71.816 16.137-2.8516 0.625-6.8477 2.1953-6.7891-3.0117 0.09375-8.1875 1.6328-16.25 11.434-17.941 7.6641-1.3203 15.547-1.0547 23.355-1.9023h0.003906c20.723-3.1133 41.211-7.6367 61.32-13.539-0.0625 4.8984-1.8516 9.6172-5.0547 13.32-3.2031 3.707-7.6133 6.1641-12.453 6.9375zm3.1562-25.531c-19.852 4.1211-39.535 9.6367-59.594 13.055-3.6836 0.62891-10.305 4.0117-12.004-2.9141l0.003906-0.003906c-1.582-5.3242 1.2422-10.957 6.4531-12.879 4.3047-1.8945 8.1719-4.8164 12.516-6.582 25.734-10.453 53.242-14.133 81.172-22.93 0.32031 8.0195-2.4688 15.852-7.7891 21.863-5.3203 6.0117-12.758 9.7344-20.758 10.387zm81.277-303.57c-6.5195 51.117-15.605 101.75-26.391 152.16-6.5664 30.691-11.148 61.832-15.785 92.898v-0.003906c-0.13672 4.7305-2.0469 9.2305-5.3555 12.613-3.3047 3.3828-7.7617 5.3984-12.484 5.6445-6.6641 1.0195-12.969 4.3242-19.629 5.4414-2.2188 0.37109-7.2734 4.3359-9.0977 2.1133-1.5391 0.48438-3.1172 0.84766-4.7109 1.0781-1.4062 0.50391-2.8477 0.89453-4.3125 1.1758-0.8125 1.7148-4.3906 1.5156-6.3359 2.043-10.656 2.9023-21.746 4.4805-32.094 8.1758-10.844 3.875-13.645-1.543-13.871-10.109-0.42188-15.816-0.12109-31.652-0.12109-50.797v0.003906c-0.19922-43.027 1.793-86.039 5.9648-128.87 1.5117-7.7773 5.1445-14.988 10.5-20.832 5.3516-5.8477 12.219-10.094 19.836-12.281 3.1055-3.2812 6.5391-6.2422 10.242-8.832 4.3789-2.9648 9.0781-5.4258 14.004-7.3438 2.168-2.8164 6.2188-4.1445 9.3047-6.6055 21.91-17.465 49.348-25.957 70.891-43.977 2.3594-1.9727 5.2266-4.4297 8.4688-2.2812 3.3086 2.1875 1.3672 5.5273 0.97656 8.582z"/>
</svg>
