<?xml version="1.0" encoding="UTF-8"?>
<svg width="1200pt" height="1200pt" version="1.1" viewBox="0 0 1200 1200" xmlns="http://www.w3.org/2000/svg">
 <g>
  <path d="m219.5 742.5h-192.5l221.25 256.25 174.5-103.25z"/>
  <path d="m264 700.5 218 164.25 137.5-50.25 54-434.25-342.5 65.5z"/>
  <path d="m1200 878-102.75-434.5-362.75-65.5-53.75 433 519.25 78c0.61719-3.6406 0.61719-7.3594 0-11z"/>
  <path d="m489.75 925-167 100 577.25 95.25h5c6.5977-0.054688 13.004-2.2461 18.25-6.25l222.5-172.5-495.75-74z"/>
  <path d="m272 432.25-204.75-144.25-67.25 394.25h206.25z"/>
  <path d="m1060.5 375-130-212.5c-4.4141-7.4805-11.926-12.609-20.5-14l-368.75-63.75 183.75 230.25z"/>
  <path d="m653.75 322.5-194-243.25-359 158.5 212.75 150z"/>
 </g>
</svg>
