<?xml version="1.0" encoding="UTF-8"?>
<svg width="1200pt" height="1200pt" version="1.1" viewBox="0 0 1200 1200" xmlns="http://www.w3.org/2000/svg">
 <path d="m853.34 237.71c-3.5039 42.016 15.977 79.398 25.996 118.43 19.078 74.32 40.316 148.07 63.715 221.25 16.289 50.613 41.125 98.551 56.305 149.43 12.965 43.457 32.668 84.371 43.98 128.09 6.2734 21.277 14.176 42.043 23.641 62.109 6.5508 15.246 4.4883 24.766-15.492 20.219-17.141-2.75-34.688-1.2969-51.141 4.2344-71.758 18.879-145.86 24.598-218.2 40.148-17.656 3.7969-35.496-7.8711-51.176-15.387h0.003906c-27.117-11.883-55.086-21.73-83.668-29.453-104.55-32.258-209.2-64.266-313.43-97.527-57.957-18.492-115.2-39.234-172.72-59.09h0.003906c-6.3047-1.9805-12.387-4.6055-18.152-7.8359-15.301-9.1836-19.176-18.469-2.1914-31.426 56.266-42.926 110.29-88.969 168.16-129.56 52.93-37.129 98.059-82.992 148.46-122.67 106.69-83.969 214.48-166.59 329.1-239.68 13.945-8.8945 23.602-23.242 39.73-29.051 17.629-6.3477 28.98 0.67969 27.07 17.77zm-71.348 718.37c-29.316-74.383-50.938-151.57-64.52-230.36-8.543-45.016-39.984-84.98-12.715-139.65 34.902-69.973 53.617-148.02 84.062-220.91h-0.003906c16.219-37.992 28.234-77.645 35.836-118.25-10.762 5.3242-21.23 11.215-31.371 17.648-56.68 40.973-113.65 81.578-169.41 123.77-91.977 69.586-184.29 138.82-274.17 211.05-56.375 45.309-118.89 83.355-166.89 139.11-11.91 13.832-14.164 19.863 3.9961 26.969 39.898 15.609 78.93 33.727 119.48 47.328 100.65 33.762 201.91 65.73 303.03 98.098 56.652 18.34 114.3 33.43 172.68 45.195zm104.05-478.59c-7.2266 2.6641-6.3984 9.7148-9.3633 14.387-20.508 32.344-23.684 71.371-41.586 105.29-15.551 29.461-23.004 63.164-34.484 94.828v0.003907c-2.6797 5.3086-2.7422 11.562-0.16016 16.922 2.5781 5.3594 7.5039 9.2109 13.324 10.43 14.637 4.7891 9.4102-9.8711 11.938-15.816 20.594-48.461 37.633-98.699 61.727-145.31 13.707-25.293 13.18-55.918-1.3945-80.727zm-40.086-139.92c-2.4297 2.4453-4.6016 5.1289-6.4766 8.0195-40.328 93.621-66.926 192.23-104.04 287.04-2.2578 5.7695-5.5781 14.375 1.918 17.828 10.484 4.832 11.586-6.3867 14.438-12.168 24.543-53.656 43.941-109.52 57.934-166.84 9.3906-35.578 22.195-70.168 38.234-103.29 3.418-4.4766 5.0977-10.043 4.7305-15.664-0.37109-5.625-2.7617-10.922-6.7344-14.918zm93.254 306.78c-18.93 44.711-43.211 81.137-52.023 124.43-1.9492 9.5742 14.789 37.004 23.973 36.797 13.203-0.29688 13.27-13.82 15.082-21.871v-0.003906c4.3633-20.055 11.48-39.41 21.152-57.512 14.93-27.414 7.6719-51.203-8.1836-81.844zm-68.637-223.03c-3.0938 4.8398-5.8789 9.8789-8.3281 15.074-27.008 71.453-53.891 142.96-80.637 214.51h-0.003906c-2.9648 8.5156-5.3242 17.234-7.0625 26.086-1.1875 5.1016 1.5195 10.305 6.375 12.262 7.0195 2.7422 7.2734-4.2812 9.0977-8.3945 5.9844-13.5 12.172-26.922 17.711-40.605 19.68-48.602 34.84-98.863 55.074-147.33 8.7461-20.934 20.941-43.391 7.7734-71.602zm-39.035-132.47c-8.2031 29.914-18.496 59.215-30.801 87.684-12.047 27.516-17.789 57.723-28.215 86.039-10.203 27.707-23.18 54.383-34.332 81.758-21.27 52.199-24.547 67.527-17.719 88.609 11.715-30.387 21.758-57.617 32.66-84.492 29.914-73.738 44.426-153.18 82.773-223.74 6.2305-11.48 5.5039-21.23-4.3672-35.855zm87.051 297.33c-12.793 23.41-14.664 50.402-26.152 74.086-12.512 25.785-20.977 53.539-31.07 80.484-2.5547 6.8203-6.8984 14.914 3.9102 18.301 8.5742 2.6875 10.707-4.6172 13.508-10.812 14.219-31.469 27.691-63.34 43.453-94.027h-0.003907c6.6328-10.277 9.8516-22.391 9.1992-34.605-0.65625-12.219-5.1484-23.914-12.844-33.426zm-14.184-41.312c-24.664 61.418-47.527 117.57-69.496 174.08-2.5703 6.6133-6.8711 17.645 3.9141 21.691 13.613 5.1094 10.664-9.4883 13.484-15.039 22.77-44.82 35.578-93.719 55.891-139.47h0.003906c3.4766-6.4922 4.9688-13.863 4.2969-21.199-0.67578-7.3359-3.4922-14.309-8.0938-20.059zm-45.242-168.51c-22.059 37.672-60.902 163.94-57.258 183.7 23.492-41.305 62.898-163.73 57.258-183.7zm106.02 343.21c-18.52 29.395-23.371 61.41-34.496 91.039v-0.003907c-1.543 2.9688-1.5859 6.4922-0.12109 9.5 1.4688 3.0078 4.2734 5.1406 7.5625 5.75 8.8945 3.1211 7.1328-5.9219 9.5898-10.246 4.0312-7.0938 9.0938-13.656 12.625-20.973 11.211-23.215 25.258-46.387 4.8398-75.066zm19.883 55.148c-6.6211 21.297-24.82 35.727-28.137 57.855-1.9727 13.176 6.2383 17.309 14.344 22.781 12.199 8.2422 13.375-5.0312 17.82-9.8711 22.062-24.027 3.0664-46.832-4.0273-70.766zm-246.76-16.691c7.3281 27.074 13.578 52.137 21.098 76.812 2.4336 7.9844 9.582 15.387 18.711 11.098 8.4883-3.9883 0.66797-11.602-0.41016-17.266-2.2812-11.984-6.8984-23.566-8.707-35.59h0.003907c-0.94922-8.2695-4.3984-16.051-9.8789-22.316-5.4844-6.2617-12.746-10.703-20.816-12.738zm100.96 43.488c-9.5625-32.023-19.738-60.422-49.738-76.211 12.414 26.969 4.8125 66.016 49.738 76.211zm-48.641-7.7539c-6.0078-1.3906-7.1992 2.4922-7.0703 6.9258h-0.003906c2.0625 18.012 8.1875 35.32 17.918 50.617 3.6133 4.9062 10.258 6.4531 15.668 3.6445 5.6797-3.2695 1.8984-8.9531 0.24219-13.227-4.7422-12.238-10.016-24.27-14.992-36.418-1.668-5.6211-6.1133-9.9844-11.762-11.543zm29.426 20.574c4.7852 13.637 9.4375 26.422 13.738 39.324 2.9648 8.8867 10.547 9.7461 17.832 10.172 4.7266 0.27734 6.2773-3.1211 6.2539-8.2461-0.082032-22.445-11.805-36.035-37.824-41.25zm-73.125-74.516c-2.8711-26.035-8.4297-50.816-27.43-70.223 8.543 23.758 2.5781 52.867 27.43 70.223zm11.59-71.832c11.309-29.73 30.863-56.508 32.754-89.617-16.188 27.676-27.281 58.027-32.754 89.617zm75.383 233.82c-4.043-12.184 1.0469-30.055-19.484-31.996-5.1914-0.49219-11.117 1.6758-8.5039 8.1523 4.8789 12.086 1.1562 29.602 18.957 34.043 7.4023 1.8477 10.398-2.8516 9.0312-10.199zm-50.555-134.17c-2.2695-25.316-11.59-49.488-26.902-69.777 3.75 25.281 7.125 50.652 26.902 69.777zm57.543 108.31c7.4922 13.996-2.0664 33.512 20.332 35.801 5.3906 0.55078 12.707-0.023437 11.73-8.4219-1.8906-16.297-10.141-26.855-32.062-27.375zm24.535-37.512c6.4531 16.086 3.1328 32.797 23.484 35.707 4.2734 0.60937 8.7578 0.73437 8.9297-4.8984 0.5625-18.059-10.797-25.746-32.414-30.809zm144.1 10.328c-20.984 23.371-18.684 29.402 16.633 42.617-6.0273-15.441-11.082-28.395-16.633-42.617zm-235.69 27.793c2.6133 11.758 0.86328 26.562 16.094 32.098 5.5898 2.0312 9.4453-2.4258 7.1133-8.5703-4.7188-12.426-1.8594-29.668-16.555-35.762-8.8164-3.6562-5.4492 6.832-6.6523 12.234zm75.852-97.137c3.168 31.324 10.48 41.297 31.816 43.398-6.6211-24.961-6.6211-24.961-31.816-43.398zm41.238 108.64c-5.6758-0.046874-8.6133 2.4844-6.6523 7.4648 3.1875 8.0938 4.7656 18.582 16.906 17.914 5.5-0.30078 12.277-1.1133 11.418-9.4805-1.375-13.473-14.488-11.02-21.672-15.898zm-87.973 37.438c-5.2383-0.21875-10.629 1.7852-9.0859 5.918h0.003906c2.3086 10.43 9.125 19.297 18.613 24.203 3.293 1.2773 7.2969-2.1719 6.0703-5.2812-3.6797-9.3086-3.9336-21.254-15.602-24.84z"/>
</svg>
