<?xml version="1.0" encoding="UTF-8"?>
<svg width="1200pt" height="1200pt" version="1.1" viewBox="0 0 1200 1200" xmlns="http://www.w3.org/2000/svg">
 <g>
  <rect width="1200" height="1200"/>
  <path d="m961.18 534.35c3.1133 14.426-2.2148 27.164-7.2969 39.742-6.3867 15.812-7.1797 32.66-10.355 49.07h0.003906c-0.36719 3.1719-1.6953 6.1562-3.8086 8.5469-2.1172 2.3945-4.9102 4.082-8.0156 4.8359-9.6328 2.2695-17.719 8.793-21.973 17.734-6.3516 13.816-3.7266 26.035 9.8594 32.859h0.003906c5.9453 1.6016 9.707 7.4453 8.7109 13.52-1.2578 8.8242-2.25 17.688-3.2422 26.547-1.6797 14.973-13.055 23.398-23.953 29.773-16.609 9.7148-30.867 22.781-47.801 31.703-17.184 9.0508-34.609 17.043-55.293 14.152-18.988-2.6523-28.652 5.4648-26.812 24.133 2.5469 25.816-12.078 40.223-30.352 53.355v0.003906c-4.2891 3.1953-10.344 2.3828-13.637-1.8281-16.984-14.352-20.492-13.617-31.918 5.7031-1.6406 3.6016-5.2852 5.8633-9.2383 5.7344-13.352-0.54297-26.305-0.078125-37.07-11.375-11.371-11.934-29.289-7.668-39.375 7.2188-4.5078 6.6562-3.0234 16.512-13.035 20.43h0.003906c-14.246 4.4531-29.328 5.5664-44.074 3.2539-10.168-2.0352-20.637-2.0664-30.816-0.089844-7.6367 2.4805-13.438-1.6328-19.422-4.1367-22.301-9.3281-43.809-18.535-49.418-47.176-2.0273-10.348-12.832-19.855-21.453-27.754-8.0742-6.0977-16.785-11.312-25.98-15.551-4.375-3.0312-10.176-3.0195-14.535 0.035157-6.4062 4.6562-10.066 1.1797-13.684-3.6484-13.902-18.543-34.977-22.559-52.273-7.832-9.7617 8.3086-17.25 6.3984-26.086 0.79297-2.6172-2.168-5.7305-3.6602-9.0625-4.3359-10.414-1-20.059-5.9297-26.969-13.785-32.316-33.742-33.91-71.367-2.0586-105.09 6.918-7.3281 11.914-13.133 8.8008-25.359-5-19.637-2.6992-40.387-2.7852-60.703 0.25391-3.1992 1.4062-6.2656 3.3242-8.8398 1.918-2.5781 4.5195-4.5625 7.5117-5.7266 16.113-10.18 27.434-21.008 27-43.465h0.003907c-0.27344-18.215 8.0859-35.484 22.543-46.57 4.4805-2.6992 7.4648-7.3242 8.0703-12.523-0.49219-11.414 5.4492-15.879 15.238-17.914 8.3945-1.7461 14.594-9.7109 25.062-6.6016 8.6055 2.5547 18.254 2.6055 22.777-8.8516 1.3711-3.1953 3.8711-5.7695 7.0273-7.2266 4.5625-1.3594 8.4922-4.2969 11.082-8.2891 2.5898-3.9922 3.6719-8.7773 3.0547-13.496-0.36328-21.199 12.449-40.953 12.383-61.059-0.097656-29.699 23.664-30.281 39.73-39.93 8.4141-5.0547 18.355-7.125 26.391-14.207 14.82-13.062 62.207-14.051 78.246-2.6562l-0.003907-0.007812c7.582 5.6758 12.039 14.602 12.016 24.074 0.33594 6.8945 2.0117 10.402 9.5195 9.9727 12.797-1.4375 25.73 0.93359 37.184 6.8203 5.7227 3.1953 12.414-0.86328 17.449-5.2188 10.938-9.4648 23.934-9.1055 36.871-7.1367v-0.003906c3.2383 0.375 6.2617 1.8164 8.5938 4.0977 2.332 2.2812 3.8359 5.2734 4.2852 8.5039 0.86328 5.0312 3.1836 9.7031 6.6719 13.43 3.4883 3.7266 7.9922 6.3516 12.957 7.5469 16.395 5.6953 27.652 15.137 29.48 34.145 0.84375 8.7812 6.0664 13.633 17.793 13.051 21.242-1.3125 42.336-4.457 63.039-9.3984 4.3633-1.1133 8.9883-0.54297 12.949 1.5977 3.9648 2.1445 6.9727 5.7031 8.4258 9.9688 2.3867 5.082 4.0273 7.3008 8.9922 3.125 1.0391-0.79297 2.3828-1.0742 3.6523-0.75781 20.484 8.8164 44.93 5.5352 63.402 19.996v-0.003906c17.508 13.43 27.445 34.496 26.668 56.547-0.17969 16.035 9.3516 30.57 5.0195 46.531zm-449.02 362.26c17.773-1.625 35.469 0.87891 52.883-0.10156 14.961-0.84375 32.742-1.5586 37.816-21.984h0.003906c1.4492-2.6484 3.6016-4.8477 6.2227-6.3516 7.4492-6.1211 16.93-9.2188 26.555-8.6758 9.6289 0.54688 18.699 4.6914 25.41 11.613 8.2422 7.4258 19.77 8.4609 24.602 2.043 15.578-20.699 20.426-21.891 42.965-8.9766 4.25 3.0195 10.031 2.6602 13.879-0.86328 14.297-10.242 16.742-24.336 15.84-40.727h-0.003907c-0.48047-9.2578 3.1523-18.262 9.9297-24.59 6.7812-6.3281 16.008-9.3398 25.215-8.2305 18.664 1.5703 37.363-2.5586 53.633-11.848 13.34-7.0586 23.016-19.102 36.598-25.5 18.035-8.4961 30.969-19.602 29.75-42.324 0.58594-5.0742-1.3164-10.121-5.1094-13.547-24.078-21.844-20.637-42.168 3.2188-62.055 12.781-10.656 21.938-19.918 24.117-36.145 3.1367-23.367 17.012-44.566 13.289-69.449-3.0039-20.086-6.4531-40.102-8.5898-60.355-1.4297-13.566-24.496-34.895-36.023-35.238-9.7227 0.125-19.328-2.1133-27.996-6.5234-10.055-5.5156-15.121-0.21484-19.773 8.3828-1.7812 3.2891 1.8711 9.1055-2.1133 8.793-4.8164-1.5195-8.1289-5.9375-8.2461-10.984-0.60547-3.3438 0.15234-6.9727-0.67188-10.23-2.2578-8.9531-5.6289-16.625-17.555-11.863-3.2773 0.86328-6.625 1.418-10.008 1.6523-20.34 3.8008-42.262 12.094-61.02 3.5273-15.938-7.2773-25.93-1.5195-38.211 3.668-4.4688 1.3633-8.7891 3.1602-12.906 5.3672-10.125 6.9648-27.051 5.4258-29.078 24.805 2.0117-18.789-9.375-4.1172-14.195-8.707 15.637-2.4023 12.941-17.766 19.258-27.758 3.8047 6.4375-0.35156 11.23 0.25391 17.328v-0.003907c18.562-7.0625 36.684-15.246 54.262-24.5 3.4023-2.0625 5.0117-6.1367 3.9375-9.9688-0.32422-13.137-9.3086-22.57-25.82-26.227-5.957-0.69141-11.504-3.3828-15.73-7.6367-4.2266-4.2578-6.8828-9.8203-7.5312-15.785-0.48438-4.8398-4.5117-8.5547-9.3789-8.6484-4.3594-1.043-8.9141-0.90625-13.207 0.39062-4.2891 1.2969-8.1562 3.707-11.207 6.9922-2.4688 3.625-6.7148 5.625-11.086 5.2188-9.543-1.7422-19.379-0.69922-28.773-4.7812h0.003906c-8.5352-3.0547-17.84-3.2266-26.48-0.48828-18.117 4.5469-17.762 5.0703-14.09-14.234 1.1055-4.3711 0.78125-8.9844-0.92969-13.156-1.7109-4.1719-4.7148-7.6836-8.5703-10.023-13.754-7.5742-48.367-10.754-64.234 4.1133-6.6797 5.8242-14.695 9.9062-23.332 11.883-9.8008 2.9648-19.074 7.4414-27.496 13.258-4.0508 1.6992-6.9609 5.3398-7.7305 9.6641 0.70312 12.531-4.8945 24.289-4.4844 35.062 6.7305 3.3477 13.266-3.2969 20.188 2.6094-28.664 4.1641-28.973 4.5117-28.973 31.57-0.55859 4.25-0.46484 8.5625 0.27344 12.789 2.1758 6.5508-0.88281 8.0742-5.9375 10.902-11.781 6.5898-27.344 11.863-18.098 31.086 0.52734 1.1992 0.53125 2.5664 0.011719 3.7695-0.51953 1.1992-1.5195 2.1328-2.7539 2.5664-2.2461 1.4492-5.1875 1.1992-7.1523-0.61328-2.2695-1.9492-4.1641-4.332-6.4375-6.2773-14.242-12.184-40.457-2.9375-45.438 14.82-1.4023 5.0039 1.6211 14.086-5.3516 15.086-11.418 1.6328-14.723 10.523-19.035 18.012l-0.003906-0.003907c-5.4023 7.5273-7.2305 17.051-4.9961 26.043 6.2852-2.7812 9.9062-9.5547 18.363-8.4609-11.074 8.375-10.355 8.7578-20.242 27.27-4.0781 7.6367-6.3125 17.027-17.945 20.441h-0.003906c-5.1641 1.25-9.7656 4.1836-13.074 8.3398-3.3125 4.1562-5.1445 9.2969-5.2109 14.609-0.82812 10.406 2.7227 20.031 1.0664 30.059-2.6875 16.246-0.28125 23.055 11.645 35.082h-0.003906c0.90625 0.62891 1.3711 1.7188 1.207 2.8086-0.16797 1.0898-0.94141 1.9922-1.9922 2.3242-5.9492 1.9727-7.8828 10.879-16.902 8.3242-4.5117-1.2773-6.2461 5.5195-8.7617 9.0859 0.042969 0.73047 0.28516 1.4336 0.69531 2.043 3.3125 2.8281 6.8945-4.5039 10.531 0.98438-5.9688 2.9023-11.727 6.2109-17.242 9.8984-3.207 2.1172-5.7617 5.0859-7.3711 8.5742-1.6133 3.4883-2.2188 7.3555-1.7461 11.172 1.1484 5.4766 7.8906-0.51563 12.055 0.93359 1.8672 0.64844 4.5117-0.19922 4.7461 2.8984v-0.003907c0.058594 1.0781-0.34375 2.1289-1.1055 2.8906-0.76562 0.76172-1.8164 1.1641-2.8945 1.1016-2.5195 0.42969-5.1133 0.42188-7.625 0.87891-3 0.54688-7.4961-1.7891-8.3125 3.3828-1.0469 3.8125-0.10547 7.8984 2.5039 10.871 3.1094 3.0391 5.5703 0.0625 7.6328-1.6016 1.3242-1.1055 3.043-1.6172 4.7539-1.4219 1.7148 0.19531 3.2734 1.082 4.3125 2.457 2.8008 2.7578 0.33984 5.1211-2.0977 7.3477-2.3516 2.6523-2.4414 6.6172-0.20703 9.3672 4.1367 7.5625 9.8906 14.117 16.852 19.195-1.2617-12.949 6.0312-8.4023 11.738-7.6797 0.64844 5.2344-3.4492 6.0742-5.7969 8.3555 6.1797 4.75 14.184 4.5938 20.98 8.5078 8.4492 4.8633 14.066-5.1641 20.852-8.6211 12.691-6.4727 48.375-0.52734 55.445 11.395h-0.003906c2.3672 3.9648 6.8594 6.1445 11.438 5.5586 13.707 0.71094 27.242 5.707 41.152 1.3555l-12.305 5.0586v-0.003906c0.14453 1.0391 0.5 2.0352 1.0391 2.9297 1.6562 1.2891 3.5391 2.2812 5.2852 3.457 17.109 10.672 30.121 26.801 36.926 45.777 8.1562 23.965 22.824 31.938 47.844 26.074v0.003906c3.8984-1.9336 8.3867-2.2969 12.543-1.0078-3.7773 6.5977-11.285 4.5273-15.113 10.348z" fill="#fff"/>
  <path d="m786.46 549.91c9.2656-0.75 13.656 9.8047 23.219 6.4336 3.4766-1.2266 1.4844 2.1328 1.4336 3.9766-0.20703 7.5742 1.5469 11.367 10.098 6.1406 3.8359-2.3438 7.6602-7.0195 13.762-5.043-1.207 5.2656-5.9961 5.4492-9.3047 7.5469h-0.003906c-5.2188 2.043-8.5664 7.1719-8.3359 12.77 0.71094 11.582-14.316 12.859-15.324 23.742l21.867-9.2617c-12.523 12.191-29.645 14.41-43.926 22.594-2.0859 0.59375-4.3281 0.11328-5.9844-1.2812-9.6523-10.109-23.414-8.7617-35.156-12.902-13.082-4.6094-18.523-12.848-15.508-26.418l0.003907-0.003906c2.4258-9.0781 2.2461-18.66-0.51563-27.645-1.9922-3.4258-1.9102-7.6758 0.21484-11.02 2.125-3.3477 5.9375-5.2266 9.8828-4.8789 10.191-1.1523 19.203-6.8555 28.902-9.1953 9.6406-2.3242 20.078-2.0625 33.527-5.3047-9.6211 7.8711-10.984 16.551-17.965 24.496 13.734-1.7578 22.336-12.695 37.418-11.316-9.8516 6.9688-20.551 7.1406-28.305 16.57zm-15.707-14.828c-8.8711-0.55859-17.762 0.68359-26.141 3.6562-8.3008 2.2969-14.32 6.2344-10.504 17.586 1.9141 7.4688 2.0117 15.285 0.28516 22.797-1.8125 10.266 2.9961 14.254 11.473 17.52 8.3516 3.2188 17.645 1.1758 25.684 5.9219 11.457 6.7617 22.309 1.8984 33.652-16.336 5.4492-8.7578 5.3555-17.059-8.9609-16.137-0.64844-15.227-16.727-12.066-23.695-19.84-3.9883-4.4492-9.8828-8.0938-1.793-15.168z" fill="#fff"/>
  <path d="m644.07 765.09c-5.1055 1.9648-10.145 4.1289-15.332 5.8438-6.7695 2.2383-11.277 4.6328-7.2617 13.426v0.003907c1.4336 2.3008 1.3672 5.2344-0.16797 7.4727-1.5352 2.2383-4.25 3.3516-6.9141 2.8438-6.8008-0.058594-13.098 2.8438-20.094 2.7734-24.102-0.23828-25.957-3.6562-26.43-28.988-0.54688-4.8555 2.0039-9.5352 6.3828-11.703 18.84-7.9883 36.344-19.418 59.156-24.07-6.2422 8.6602-17.273 6.5195-21.246 15.785 13.848-2.0859 25.754-9.082 39.297-9.3359-10.547 3.8281-18.098 13.051-29.773 14.996h0.003906c-2.457 0.73438-4.4609 2.5273-5.4609 4.8906s-0.88672 5.0508 0.30078 7.3242c1.7969 5.1484 6.2188 1.6328 9.6602 0.17578 4.6445-1.9648 9.375-3.7617 14.18-5.2969 3.3672-1.0781 4.7539 0.37891 3.582 3.8633zm-42.652 7.5547c0.57812 3.1484-0.37891 6.3828-2.5742 8.7109-1.7617 1.3672-5.3828 2.1797-4.0938 5.2266 1.5703 3.707 4.7734 1.3711 7.625 1.3086 12.543-0.27344 11.082-7.0508 6.5078-14.211-2.5938-4.0625 0.62891-13.711-7.4609-11.887-9.4766 2.1367 4.543 7.4492-0.003906 10.852z" fill="#fff"/>
  <path d="m470.07 612.91c3.168 10.383-0.60547 16.828-14.352 19.559-10.141 3.0938-19.793 7.6016-28.676 13.395-5.4258 2.875-8.1406 1.9297-8.3906-4.2148-0.61328-9.4961-5.6328-18.156-13.566-23.41-3.1406-2.0391-5.1055-5.4688-5.2773-9.2109-0.16797-3.7383 1.4766-7.332 4.4219-9.6484 9.3047-9.3555 19.812-17.438 31.242-24.031 5.6133-3.4375 12.598-5.5117 12.664 5.5312 0.015626 2.457 1.3555 2.1953 2.9883 2.668 18.875 5.4727 18.863 5.5078 18.945 29.363zm-28.543 5.7266h-0.003907c0.125 0.85938-0.14453 1.7266-0.73828 2.3594-0.58984 0.63672-1.4375 0.96484-2.3008 0.89844-4.7812 0.59375-12.629 1.1719-10.992 6.5156 2.6133 8.5312 8.043 0.16797 12.082-0.85937 4.8125-1.2266 9.2031-4.0547 13.996-5.4414l-0.003906-0.003906c1.2578-0.050781 2.4375-0.625 3.2539-1.582 0.81641-0.95703 1.1992-2.207 1.0547-3.457 0.39453-6.7695-0.24219-13.562-1.8867-20.141-2.5703-6.2695-10.043-1.4219-15.176-2.6719-1.6914 0.019532-3.3594-0.37891-4.8594-1.1562-4.2578-5.8359-6.8945-3.6875-10.473 0.92578-2.8906 3.0195-6.1992 5.6055-9.8281 7.6836-2.4688 1.7383-5.5234 3.2969-4.1992 6.8828 1.7969 3.043 5.4766 4.4102 8.8242 3.2812 5.1445 0.085938 10.168-3.6797 15.852-1.1602-2.2617 3.3672-5.4961 1.1992-7.4492 2.6016-2.3594 1.6953-8.5781-0.86719-6.9805 4.7344 1.3438 4.6992 5.5859 3.2773 9.6289 2.1484 3.1836-0.88672 6.2969-5.3906 10.195-1.5586z" fill="#fff"/>
  <path d="m630.75 373.63c2 18.82-11.805 28.617-22.598 39.801-4.5195 4.6836-9.1992 1.6406-9.1016-4.332v0.003906c0.69531-2.4883-0.054688-5.1562-1.9492-6.9141s-4.6094-2.3086-7.0391-1.4258c-7.1172 0.54297-18.051 0.03125-18.621-5.8828-0.85156-8.8281 8.9414-16.691 16.496-18.809 10.66-2.9844 20.098-8.4531 30.344-12.047 12.234-4.2852 11.422 3.1875 12.469 9.6055z" fill="#fff"/>
  <path d="m322.89 710.63c-1.7734 8.8281-6.3008 16.133 6.5391 12.586 1.9453 0.16797 3.7461 1.0977 5.0039 2.5938 1.2578 1.4922 1.8711 3.4258 1.7031 5.3711-0.33203 2.543-0.097657 5.125 0.69141 7.5625 8.4336 13.535-0.84766 17.895-10.805 22.852h-0.003907c-2.2773 1.5742-5.1016 2.1484-7.8164 1.5859-2.7109-0.5625-5.0742-2.2109-6.543-4.5586-5.8242-7.8203-13.473-14.094-22.281-18.281-7.0508-3.0469-6.4102-8.293 0-12.469 9.5273-4.7422 18.52-10.488 26.824-17.145 1.875-1.8789 6.7109-3.3359 6.6875-0.097657zm-22.875 21.559h0.003906c6.9883 4.7656 13.379 10.355 19.035 16.648 2.6406 3.8477 5.7656 1.9961 6.8906-2.5859 2.3047-9.375-4.2852-14.562-10.043-19.125-6.2227-4.9258-9.6484 2.6875-15.883 5.0625z" fill="#fff"/>
  <path d="m885.24 581.93c-0.44141-3.0625 2.1562-7.5273-3.4609-8.2617-8.0508-1.0508-16.992-3.5781-16.105-12.652h0.003906c0.76562-4.8555 2.9414-9.3789 6.25-13.016 3.3086-3.6328 7.6133-6.2188 12.375-7.4336 11.102-3.4375 22.992-4.2969 33.957-10.742-6.832 6.1797-2.2617 13.203-2.625 19.453-1.3945 24.16-1.0586 24.176-23.41 30.16-2.4453 0.65625-4.8633 1.4102-7.293 2.1172zm9.2773-16.363c7.2812 1.2461 13.305 0.32812 12.617-6.2227-0.86328-6.6914-6.5234-11.73-13.273-11.812-7.9219-0.45703-16.734 3.6875-15.961 10.891 0.88672 8.1992 11.688 5.6367 16.617 7.1445z" fill="#fff"/>
  <path d="m589.29 641.34c-1.9883 5.2812-12.848 3.2305-10.301 9.3281 3.3359 7.9805 10.391-5.4922 16.637 0.99609-3.2656 4.6641-11.113 5.75-12.359 13.055 8.3203 3.5352 14.168-5.5234 22.215-3.4648-0.82031 5.5977-6.4688 5.7852-9.4141 8.7227-2.168 2.1602-8.7227 1.1484-5.4219 7.4766l0.003906 0.003906c1.0781 4.6328 5.5234 7.6758 10.234 7.0078 15.82-1.4336 30.086-8.418 45.43-11.32 2.0586-0.39062 3.9844-1.5625 6.0469-1.8594 0.98047-0.44922 2.1055-0.45312 3.0859-0.011718 0.98047 0.44531 1.7227 1.2891 2.0391 2.3164 0.40234 1.2539 0.15234 2.6289-0.66406 3.6602-0.8125 1.0352-2.0898 1.5977-3.4023 1.5-18.852 2.6562-37.449 6.8594-55.613 12.559-4.2812 1.0234-8.6797-1.1641-10.449-5.1914-8.9141-13.859-16.727-28.395-23.371-43.473-0.92188-1.4727-1.2188-3.25-0.83203-4.9414 0.39062-1.6914 1.4336-3.1602 2.9062-4.082 3.4062-2.4844 5.8828 0.078125 6.7148 3.1211 3.0156 10.984 11.227 0.72266 16.516 4.5977z" fill="#fff"/>
  <path d="m344.42 624.58c-4.7383-6.3438-9.9219-12.238-14.578-18.477h-0.003906c-3.3633-4.5156-4.7617-10.195-3.875-15.758 0.89062-5.5586 3.9883-10.523 8.5938-13.762 6.0625-5.3242 12.887-9.7734 19.277-14.738 11.453-8.8945 13.672-18.492 6.7773-28.855 11.672-5.168 7.3359 8.4375 12.781 11.312 3.0586 1.6172-2.8008 3.8555-3.8242 5.9414-6.1133 12.449-17.809 18.762-27.977 26.805-4.293 3.582-7.6211 8.1797-9.6836 13.379-1.6602 5.4961 0.24609 11.445 4.7891 14.957 3.2773 4.1055 7.6992 1.2383 11.445-0.92187 3.1406-1.8125 6.3672-3.4766 11.801-6.4219-12.398 14.621-15.609 20.629-15.523 26.539z" fill="#fff"/>
  <path d="m573.61 552.96c-4.6758-2.6133-7.0039-8.043-5.668-13.23-0.76953-22.18-6.332-28.922-28.336-33.715-13.23-2.8828-14.082-4.832-6.8633-16.844 3.6367 2.9102-4.0234 7.9102 2.0234 10.191v-0.003906c3.6484 2.3984 8.4531 2.0312 11.695-0.89062 3.6875-3.5078 4.6836-3.3477 6.6758 2.75 3.5156 10.762 11.961 0.36328 19.023 1.6328 0.42969 5.0312-8.7617 9.7031-2.1875 13.852 6.0742 3.832 10.207-5.8516 18.109-4.2852-6.5039 7.0078-19.336 9.7422-14.859 22.598 1.8125 5.2109 6.1094 0.51172 10.066 3.0781-7.0703 2.2578-12.184 5.8555-9.6797 14.867z" fill="#fff"/>
  <path d="m641.27 825.8c36.703-16.23 71.926-36.734 113.14-39.898z" fill="#fff"/>
  <path d="m629.59 534.66c3.1914-11.543 7.6133-15.879 16.867-7.6523 9.1172 8.1055 20.898 8.1875 32.074 10.043 11.625 1.9297 12.906 5.0938 6.3047 18.965-0.41016-10.668-4.1172-14.211-13.934-11.484-8.1016 1.4609-16.438-0.72266-22.785-5.9609-5.3164-3.5625-10.344-9.1445-18.527-3.9102z" fill="#fff"/>
  <path d="m758.09 758.3c31.984-12.625 63.707-26.855 98.102-32.172-31.441 14.637-65.867 19.543-98.102 32.172z" fill="#fff"/>
  <path d="m882.07 697.34c-35.453 9.8516-69.84 23.273-105.83 31.359 35.828-8.707 67.301-31.441 105.83-31.359z" fill="#fff"/>
  <path d="m440.97 761.09c-16-10.715-29.676-24.543-40.211-40.656-3.7305-6.0039-4.3555-9.9883 2.6562-12.867 1.5859-0.65234 4.4922-1.2109 4.7344 2.1094 1.25 17.188 12.949 27.066 25.301 36.578l-0.003907-0.003906c2.5781 1.457 4.6641 3.6406 6.0039 6.2812 1.3398 2.6406 1.8672 5.6172 1.5195 8.5586z" fill="#fff"/>
  <path d="m809.63 688c16.09-18.883 44.652-8.3477 54.945-34.176 3.3008 19.008 13.309 0.042969 20.25 6.75-6.0156 8.6211-28.055 3.0859-22.359 17.66 1.5039-8.7188-5.9961-7.5508-14.168-3.6758-9.7852 4.6406-21.766 4.0273-29.828 12.824-3.0078 3.2773-4.3672-3.3594-8.8398 0.61719z" fill="#fff"/>
  <path d="m832.66 470.71c-19.402-6.2656-37.477-17.188-58.875-16.902 10.914-1.3164 21.855-4.3906 32.422 1.0312 5.9258 2.293 12.617 1.3555 17.684-2.4844 4.9688-2.9883 10.641-4.6133 16.441-4.7109l-19.77 11.277c1.8477 6.3594 9.6797 6.082 12.758 11.062z" fill="#fff"/>
  <path d="m661.52 650.68c5.6719-18.938 13.129-22.559 26.348-15.848 1.8359 0.93359 4.207 0.78125 6.0859 1.6562 2.5312 1.1797 8.3086-5.6836 7.6641 2.6914-0.48047 6.25-5.9414 3.0938-9.1289 3.3867-10.105 0.9375-21.059-3.8281-30.969 8.1133z" fill="#fff"/>
  <path d="m697.36 367.97c14.672 12.879 15.109 17.445 3.5977 27.621-6.9375 6.1328 4.7266 8.4609 1.5664 14.309-6.0039-10.973-14.367-8.6875-23.645-3.0625 3.0742-7.0273 4.5-11.613 13.328-12.25 13.418-0.96094 14.578-7.3867 5.1523-26.617z" fill="#fff"/>
  <path d="m541.13 327.2c-0.14844-1.2578 0.011719-2.5312 0.46484-3.7109 2.9023-3.3867-5.4258-9.3477 1.625-10.531 5.1016-0.85547 7.3711 5.8867 8.5781 9.5586 2.1133 6.4297 0.4375 13.887 6.1172 19.574 1.5 1.5039-2.7969 4.1875-12.488 6.3516 3.082-3.082 4.4141-7.5039 3.5391-11.777-0.875-4.2695-3.832-7.8164-7.8789-9.4375z" fill="#fff"/>
  <path d="m536.12 648.31c-1.6641 4.457-5.918 7.4102-10.672 7.4062-3.1133-0.054688-5.8047 2.1484-6.3633 5.2109-1.4297 6.9102 3.9102 1.2891 5.4297 2.8555 4.0586 4.1836 0.33984 6.4219-2.6211 6.9727l0.003906-0.003906c-6.7031 2.4219-13.246 5.2617-19.59 8.5039 10.16-20.441 17.473-27.336 33.812-30.945z" fill="#fff"/>
  <path d="m685.96 834.58 53.387-19.336c-14.531 16.062-34.633 16.066-53.387 19.336z" fill="#fff"/>
  <path d="m862.61 476.8c-0.49219-0.70703-0.67578-1.582-0.50391-2.4258 0.17188-0.84375 0.68359-1.5781 1.4102-2.0352 14.23-9.8672 30.645-16.121 47.832-18.223l-48.734 22.613z" fill="#fff"/>
  <path d="m503.26 568.63c-4.8398-13.828-14.41-25.711-13.281-41.137 10.238 24.41 10.238 24.41 25.809 20.66-2.4062 5.1562-8.1211 4.5664-11.074 7.668-3.5938 3.7695 5.625 8.2812-1.4531 12.809z" fill="#fff"/>
  <path d="m491.34 508.19c-4.375 12.746-29.547 18.199-59.129 14.852 19.812-1.6523 39.699-2.9766 59.129-14.852z" fill="#fff"/>
  <path d="m473.3 867.54c11.43-9.1758 25.043-3.0234 37.207-7.0859h0.003906c-11.312 6.3203-24.367 8.8086-37.211 7.0859z" fill="#fff"/>
  <path d="m786.47 441.95c12.891-9.0508 28.125-14.18 43.863-14.77z" fill="#fff"/>
  <path d="m855.21 623.16c16.422-4.6133 30.59-14.66 47.754-15.395-15.84 5.9023-30.82 14.324-47.754 15.395z" fill="#fff"/>
  <path d="m368.73 573.55c-7.7305 9.8086-17.191 14.449-21.871 23.441-0.37109 1.0391-1.3281 1.7578-2.4297 1.8242-1.1016 0.066406-2.1406-0.53125-2.6328-1.5195-1.2539-2.4492-3.1055-6.6641 0.55469-7.8047 9.293-2.8984 14.164-12.789 26.379-15.941z" fill="#fff"/>
  <path d="m463.97 841.66c9.8047-6.0234 21.312-8.6719 32.762-7.5391-9.7383 6.1797-21.297 8.8398-32.762 7.5391z" fill="#fff"/>
  <path d="m450.34 456.49c-9.8672 3.6016-20.547 4.3398-30.816 2.125 9.3242-5.6445 20.805-6.4375 30.816-2.125z" fill="#fff"/>
  <path d="m439.41 422.01c1.7656-9.5 17.375-19.711 22.504-17.379h0.003906c1.1055 0.60547 1.9414 1.6055 2.3477 2.8008 0.95703 2.9648-1.4922 3.332-3.457 4.082v-0.003907c-7.9844 1.4023-15.402 5.043-21.398 10.5z" fill="#fff"/>
  <path d="m884.54 501.41c-8.375-7.8945 3.1328-15.055-1.5664-22.199l-0.003906 0.003907c1.3789-0.003907 2.75 0.22656 4.0469 0.68359 2.9883 0.375 4.8164 0.42188 4.7344 5.0039-0.11328 6.668-5.8711 9.5234-7.2109 16.508z" fill="#fff"/>
  <path d="m483.47 816.39c-8.9766 6.0078-19.484 9.3203-30.281 9.5508 8.8398-6.2891 19.434-9.6328 30.281-9.5508z" fill="#fff"/>
  <path d="m884.93 581.55c-9.8555 6.6992-20.957 11.352-32.641 13.688 10.66-5.1758 19.199-15.469 32.922-13.34 0.023437 0.03125-0.28125-0.34766-0.28125-0.34766z" fill="#fff"/>
  <path d="m862.61 476.73c-9.5312 9.5469-13.492 10.98-29.953-6.0156l0.66016-0.72656c8.6836 5.5781 19.031 7.9844 29.285 6.8125z" fill="#fff"/>
  <path d="m547.31 471.19c6.3828-7.1172 12.77-14.23 19.152-21.348-0.50781 12.016-11.102 15.605-16.172 23.781z" fill="#fff"/>
  <path d="m634.39 666.39c-8.832 6.668-16.672 7.125-25.504 11.227 5.582-10.055 9.5312-11.695 25.504-11.227z" fill="#fff"/>
  <path d="m643.96 765.1c4.5508 12.355-7.8633 12.629-13.02 18.031h0.003906c-1.1094 0.22656-2.2578-0.10547-3.0781-0.88672-1.0078-1.8945-0.54688-4.2383 1.0977-5.6172 4.3516-4.7734 12.023-5.1445 15.102-11.531z" fill="#fff"/>
  <path d="m541.09 327.23c-5.6523 1.8008-10.785 4.9375-14.973 9.1406-4.7852 5.7344-8.7695-2.1406-13.379-8.6055 11 4.375 19.297-2.3867 28.391-0.5625z" fill="#fff"/>
 </g>
</svg>
