<?xml version="1.0" encoding="UTF-8"?>
<svg width="1200pt" height="1200pt" version="1.1" viewBox="0 0 1200 1200" xmlns="http://www.w3.org/2000/svg">
 <g>
  <path d="m57.359 812.4c0 0.96094 0.96094 1.9219 1.9219 0.96094s0.96094-1.9219 1.9219-3.3594c-0.96094 0-1.9219 0-2.8789 1.4414-0.003907 0-0.96484 0-0.96484 0.95703z"/>
  <path d="m58.32 811.44c0.96094-1.4414 1.9219-1.4414 2.8789-1.4414 25.68-40.32 47.762-82.32 70.32-124.8-5.7617 0.96094-12 1.9219-17.762 3.1211-19.68 40.559-37.68 81.359-55.438 123.12z"/>
  <path d="m152.4 789.36c34.801-7.918 70.562-14.879 106.08-21.84 60.719-11.039 126.96-5.7578 184.56-32.641 2.8789-1.9219 0.96094-7.9219-3.1211-7.9219-30.477 5.043-62.398-4.7969-92.156-11.035-32.641-6-64.32-6.9609-98.16-3.8438-4.0781 0-7.9219 0-12.961 1.1992 54.48-11.281 108-22.078 162.72-35.762 2.8789 0 1.9219-6-0.96094-6-70.32 6.7227-140.88 3.6055-211.2 8.8828-18.961 0.96094-36.719 2.8828-55.68 4.8008-22.801 42.48-44.641 84.48-70.32 124.8 30.723-3.8398 60.48-13.68 91.199-20.641z"/>
  <path d="m1067.8 717.84c-8.8789-8.8789-16.801-16.801-24-23.762-16.801-15.84-29.762-35.52-41.523-55.68-15.117-24.477-30-49.438-48.719-71.277-8.8789-11.039-18.719-20.879-31.199-28.801-40.801-27.602-95.52-38.641-139.2-8.8789-23.52 15.84-43.68 37.68-66.242 56.637-11.039 9.8398-24 17.762-37.922 23.762-2.8789 0.96094-5.7578 1.9219-8.8789 4.082h-0.95703c-19.922-19.922-39.84-39.602-55.68-62.398-6.7227-8.8828-12.723-18.723-18.723-28.805-5.7617-12-11.762-24.961-18-37.68-13.68-29.039-27.598-59.758-47.277-84.48-20.883-26.637-47.762-45.598-84.48-49.438-17.762-2.1602-36.48 6.7188-51.602 14.641-24 13.199-48.719 19.922-67.441 38.641-36.477 35.758-76.316 68.637-110.88 105.36-3.1172 4.0781-6.9609 6.957-10.078 10.797-13.922 15.84-26.641 32.883-37.68 51.602-0.96094 2.1602-2.8828 5.0391-4.8008 6.9609-12.961 23.762-19.922 50.398-31.68 74.398-6 12-12 23.039-16.801 35.039 5.7617-1.1992 12-2.1602 17.762-3.1211 0.96094-1.1992 0.96094-2.1602 1.9219-4.0781 24-42.961 56.641-76.32 86.398-114.24 5.7578-7.6797 12.719-14.641 19.68-21.84 34.797-16.801 72.238-30.48 108.96-42.48 4.082-1.9219 2.1602-7.9219-1.918-6.9609-19.922 5.0391-40.562 6-61.441 6.9609 12.961-12 26.641-23.762 40.562-36.961 15.84-15.602 37.68-32.641 47.52-53.52 13.922-26.641 36.719-47.52 68.398-42.48 24.961 2.8789 44.641 15.602 60.48 34.559-21.602 3.1211-43.68 8.8789-62.398 14.879-3.8398 0-3.8398 5.7617 0 5.7617 22.801 5.7617 44.641 12 67.441 16.801 1.9219 0 2.8789 0 3.8398 1.1992-12.484 3.1211-25.684 6-37.441 9.3594-2.8789 0-2.8789 4.8008 0 5.5195 24 5.0391 47.52 10.078 70.32 15.84 11.762 26.879 22.801 53.762 32.641 74.398-43.203-0.95703-86.164 11.285-129.84 10.082-5.0391-0.95703-6 6-0.95703 6.7227 40.559 10.078 80.398 21.121 123.12 28.801h2.8789c-30.961 3.1211-61.441 14.16-93.121 12-4.0781 0-5.0391 6.9609-1.1992 7.9219 25.68 5.0391 50.641 13.922 75.359 21.84 26.879 8.8789 53.762 14.879 80.398 24 10.082 4.0781 18.961 8.875 27.84 14.875-30-1.9219-59.762 0-85.441 0.96094-4.8008 0-4.8008 6-0.96094 6.9609 30.719 10.801 58.559 27.602 88.32 40.801 22.805 10.801 43.684 24.719 66.484 34.559 5.0391 9.8398 9.8398 19.68 15.84 29.762 10.801 19.68 37.441 4.8008 33.84-14.879-0.96094-5.7617-1.9219-12-4.3203-16.801-8.8828-29.043-23.281-52.562-41.039-75.363 32.398-5.0391 66-6.9609 98.879-12 0.96094 0 0.96094-3.1211 0-3.1211-31.922-3.8359-61.441-14.637-92.16-21.598 21.84-6 42.48-14.879 61.199-25.68 4.3203-1.9219 3.3594-6.9609-0.96094-7.9219-19.68-5.0391-40.32-4.0781-62.398-2.8789 13.199-8.8789 24.961-19.922 35.52-29.762 15.84-14.16 31.922-26.641 49.68-37.922 25.68-14.641 58.559 2.3984 80.641 16.801 4.8008 3.3594 9.8398 6.9609 14.641 11.039-20.641 0.96484-40.32 3.8438-61.441 8.6445-2.6406 1.1992-2.6406 5.0391-0.96094 7.1992 32.883 19.68 67.68 28.562 102.96 40.801 0.96094 1.6797 1.9219 2.6406 2.8789 3.6016 14.883 26.879 31.922 51.598 51.602 75.598 3.1211 1.9219 5.0391 4.8008 7.9219 6.7227-47.281-3.8438-96.961-0.96094-142.32 13.199-4.3203 1.9219-4.3203 6.9609 0 8.8789 46.32 14.879 95.039 22.801 141.36 34.801 17.758 3.8398 35.52 8.6406 52.559 15.598-9.8398 0-18.719 0.96094-29.52 0.96094-9.1211 1.1992-18.961 3.1211-28.32 4.082-4.8008 0.96094-11.762 5.7617-17.762 4.8008-3.5977-0.96094-5.9961 6.957-0.95703 6.957 8.8789 1.9219 22.078 10.801 30.961 14.879 17.758 7.2031 37.918 12.961 56.879 18 13.438 3.8438 27.598 7.9219 40.32 12.961h0.96094c2.3984 4.0781 7.9219 5.0391 12.238 4.0781 1.6797-1.1953 3.6016-3.3555 3.6016-5.9961 6.957-48.48-37.441-91.441-74.16-125.28z"/>
 </g>
</svg>
