<?xml version="1.0" encoding="UTF-8"?>
<svg width="1200pt" height="1200pt" version="1.1" viewBox="0 0 1200 1200" xmlns="http://www.w3.org/2000/svg">
 <path d="m984.16 628.43c-70.309-24.715-143.49-31.672-207.32-72.465-3.5977-1.918-0.95703-8.8789 3.3594-6.957 41.273 18.957 85.664 18.957 130.77 20.875-14.879-12.957-27.594-28.793-38.871-43.672-30.473-39.832-220.75-184.76-218.84-146.85 0 11.996 39.352 180.68 36.473 178.52 7.918 18.957 22.074 35.031 47.75 45.59 5.7578 3.1211 3.8398 12.961-3.1172 12.961-114.94 0-176.12-380.8-179.48-377.93-35.754 34.793-170.61 207.32-153.33 222.2-5.0391 24.953-2.3984 51.828 12.719 82.543 27.594 59.508 107.74 180.45 112.06 187.4 4.8008 5.0391 23.996 37.672 29.516 47.512 15.836 15.117 30.711 30.473 43.91 49.672 3.8398 5.5195-177.57-81.582-189.32-89.023-38.875-23.277-73.668-34.793-119.02-30.234-4.3203 0-5.0391-4.8008-2.3984-5.5195 26.633-14.156 59.508-23.996 92.383-25.914-7.9219-11.277-14.16-23.754-19.68-35.754-13.195-26.633-22.074-53.75-29.031-81.344-1.918 0.96094-2.8789 2.8789-4.8008 4.0781-46.789 43.672-109.18 66.465-155.97 110.86-63.348 60.707-154.29 178.77-141.57 169.89-6 65.508 130.77 97.898 173.48 103.9 45.832 6.957 90.461 8.8789 136.77 9.8398 55.668 0.96094 110.14 6 166.77-0.96094 143.97-15.836 278.34-78.223 420.39-104.14 42.711-7.918 85.184-14.156 128.86-15.836 29.516-1.918 95.262-7.918 113.98 23.035 5.0391 7.918-56.148-116.14-111.1-192.68-23.996-15.836-48.711-29.754-75.344-39.594z"/>
</svg>
