<?xml version="1.0" encoding="UTF-8"?>
<svg width="1200pt" height="1200pt" version="1.1" viewBox="0 0 1200 1200" xmlns="http://www.w3.org/2000/svg">
 <path d="m963.12 439.92c-20.879-29.762-66.238 13.922-76.559 12-18-11.039-82.801-218.4-123.12-237.12-43.922-20.879-204.96 369.84-248.16 361.92-35.762-6.957-65.762-4.7969-97.203 16.801-30.238 21.121-49.68 56.641-72.238 86.398-28.32 38.641-270 270.72-305.28 299.52-1.918 1.918-1.918 4.0781-1.918 6.7188-0.96094 4.0781 537.36-266.64 545.04-271.44 27.84 7.9219 127.44 126.96 158.4 128.88 10.32 0 5.2812-331.44 36.238-337.92 30.961-6 292.32 231.84 383.52 277.44 0.003906 0.003906-117.36-225.36-198.71-343.2z"/>
</svg>
