<?xml version="1.0" encoding="UTF-8"?>
<svg width="1200pt" height="1200pt" version="1.1" viewBox="0 0 1200 1200" xmlns="http://www.w3.org/2000/svg">
 <path d="m1030.6 652.56c-34.797-20.637-58.559-53.52-83.52-84.238-25.68-30.961-52.559-57.602-85.199-82.559-32.879-24.719-74.16-39.602-104.16-67.199-23.281-20.883-43.441-45.602-68.398-67.441-14.16-12-28.559-21.84-47.762-26.641-22.559-6.2422-38.398 8.8789-56.398 18.719-59.52 30.723-104.88 96-141.84 147.6-19.68 29.762-38.398 60.719-62.398 88.32-28.559 34.801-70.32 55.441-103.2 86.16-57.125 55.918-106.8 117.12-162.72 173.76-5.0391 5.0391 0.96094 12.961 7.1992 9.8398 60.48-29.762 132.72-54.48 182.4-97.199 21.121-16.801 40.801-34.801 55.68-55.199 12.723 29.281 14.16 59.039 17.762 93.84 6.9609 48.719 32.879 67.441 79.199 86.398 6.9609 2.8789 11.762-6 6.9609-11.039-33.602-38.641-4.082-83.281-6.9609-126.72-0.96094-14.883-4.0781-28.082-12.961-39.84 2.3984-18.719-4.8008-38.641-5.5195-60.719-1.1992-16.562-5.2773-32.641-7.1992-49.441-2.8789-19.68 10.801-41.762 16.801-60.48v-0.96094c27.602-41.758 56.641-83.039 88.078-121.92 15.84-19.922 35.039-35.52 56.641-49.68 12.719-6.9609 21.602-1.9219 34.801 0 3.8398 0 6.9609 0.96094 9.8398 2.8789 0 3.3594 0 6.9609 3.8398 9.8398 6 6.2383-5.7578 50.879-13.68 65.758-16.801 28.801-40.801 64.559-67.441 84.48-6.4766 4.8008 0.96094 13.922 7.9219 10.562 17.762-7.9219 38.398-9.8398 56.16-17.762 13.199-5.7617 24.961-18.719 34.801-28.801 3.3594-3.8398 6.957-7.918 10.32-12.719 0 7.9219 0 14.879 0.96094 21.84 0.95703 15.602 6.957 35.52 3.8359 51.602-2.8789 16.801-13.68 37.441-20.641 54.719-12.238 25.68-25.918 51.359-29.996 79.918-3.8398 31.684 9.8398 48.48 22.797 76.562 2.8789 5.0391 11.762 3.1211 10.801-3.1211-0.96094-35.52 44.16-65.281 65.52-91.199 6.2422-6 11.52-12.961 15.121-19.68 2.8789-2.3984 5.0391-3.3594 7.9219-4.3203 0 0.96094 0 1.9219 0.96094 3.3594 3.8398 13.68 8.8789 27.602 14.16 40.559 0.96094 2.8789 1.9219 5.0391 2.8789 6.7188-0.96094 12.961 6.957 22.805 17.758 27.844 9.8398 9.8398 22.559 16.801 40.32 17.762 6.9609 0.96094 14.16-5.0391 14.16-11.762-1.9219-28.078-1.9219-39.84 24-56.641 17.762-12.961 23.039-26.879 26.641-45.602 0-1.9219 0.96094-3.8398 0.96094-5.7617 11.281 3.1211 23.039-2.1602 29.039-10.078 0.96094 2.1602 2.8789 4.3203 4.8008 5.0391 7.9219 9.8398 17.762 19.68 27.602 27.602 10.078 38.879 19.918 77.762 20.875 116.16 0.96094 35.762-8.8789 74.398-15.84 109.2-0.95703 7.9219 10.801 7.9219 12.48 1.9219 16.801-38.641 63.84-58.32 79.68-97.199 0 5.0391 0.96094 10.078 2.8789 14.16 5.2812 6.7188 11.281 11.52 13.203 19.438 0.96094 5.0391 8.8789 5.0391 8.8789 0 0-10.801 9.8398-16.801 14.16-25.68 4.5586-9.8398 1.6797-85.199-54.961-120.96z"/>
</svg>
