<?xml version="1.0" encoding="UTF-8"?>
<svg width="1200pt" height="1200pt" version="1.1" viewBox="0 0 1200 1200" xmlns="http://www.w3.org/2000/svg">
 <g>
  <path d="m348.66 1134.9h-82.145v-1098c0-15.543-12.582-28.125-28.125-28.125s-28.125 12.582-28.125 28.125v1098h-82.145c-15.543 0-28.125 12.602-28.125 28.125s12.582 28.125 28.125 28.125h220.55c15.543 0 28.125-12.602 28.125-28.125 0.003906-15.523-12.598-28.145-28.141-28.145z"/>
  <path d="m1071.9 8.832h-752.47c-15.543 0-28.125 12.582-28.125 28.125v516.34c0 15.543 12.582 28.125 28.125 28.125h752.48c15.523 0 28.125-12.582 28.125-28.125l-0.003906-516.34c0-15.543-12.598-28.125-28.125-28.125zm-28.125 56.25v460.09h-696.22v-460.09z"/>
 </g>
</svg>
