<?xml version="1.0" encoding="UTF-8"?>
<svg width="1200pt" height="1200pt" version="1.1" viewBox="0 0 1200 1200" xmlns="http://www.w3.org/2000/svg">
 <path d="m933.36 452.64c-14.16 14.641-39.84 43.438-70.801 79.438-54.48-76.797-145.44-199.44-156.72-188.4-30.961 30.719-113.04 125.76-189.36 216-45.84-59.52-90.48-114.24-96.961-107.04-64.801 64.559-348.24 404.88-348.24 404.88s285.36-225.12 365.04-291.84c8.8789 5.0391 26.641 16.801 46.32 32.879 9.8398 6.9609 20.641 15.84 31.922 24 39.84 30.719 82.078 64.559 99.84 77.039 3.3594 3.3594-29.52-45.359-68.879-101.04 71.277-56.637 143.52-114.24 177.36-143.28 20.16 11.039 78.238 56.398 125.04 93.359-107.28 123.12-262.8 308.64-262.8 308.64s285.36-225.12 366-291.84c29.52 16.801 144.96 110.16 177.12 133.92 8.8789 5.9961-179.52-262.8-194.88-246.72z"/>
</svg>
