<?xml version="1.0" encoding="UTF-8"?>
<svg width="1200pt" height="1200pt" version="1.1" viewBox="0 0 1200 1200" xmlns="http://www.w3.org/2000/svg">
 <g>
  <path d="m345.13 1134.9h-82.145v-1098c0-15.523-12.582-28.125-28.125-28.125s-28.125 12.602-28.125 28.125v1098h-82.145c-15.543 0-28.125 12.602-28.125 28.125s12.582 28.125 28.125 28.125h220.55c15.543 0 28.125-12.602 28.125-28.125s-12.598-28.145-28.141-28.145z"/>
  <path d="m1099 310.37c0.46875-0.73047 0.97656-1.4258 1.3516-2.1758 0.42969-0.84375 0.78906-1.7266 1.1445-2.6055 0.33594-0.84375 0.69531-1.668 0.9375-2.5117 0.26172-0.86328 0.39453-1.7266 0.5625-2.5859 0.1875-0.91797 0.375-1.8203 0.44922-2.7383 0.09375-0.88281 0.054688-1.7617 0.054688-2.6445 0-0.91797 0.039062-1.8203-0.054688-2.7383-0.09375-0.89844-0.30078-1.7617-0.44922-2.6641-0.16797-0.88281-0.33594-1.7617-0.58203-2.6445-0.26172-0.86328-0.60156-1.668-0.95703-2.5117-0.35547-0.86328-0.67578-1.7422-1.125-2.5703-0.39453-0.78906-0.91797-1.5195-1.4062-2.2695-0.52344-0.80469-1.0703-1.6133-1.6875-2.3828-0.1875-0.22656-0.30078-0.46875-0.46875-0.67578l-223.73-258.12c-0.22656-0.26172-0.48828-0.42969-0.73047-0.67578-0.65625-0.71094-1.3516-1.332-2.082-1.9688-0.67578-0.60156-1.3516-1.1992-2.082-1.7266-0.71094-0.50781-1.4805-0.95703-2.2305-1.3867-0.82422-0.46875-1.6328-0.97656-2.4922-1.3516-0.78906-0.35547-1.5938-0.61719-2.418-0.89844-0.89844-0.33594-1.8008-0.63672-2.7383-0.86328-0.80469-0.1875-1.6484-0.30078-2.4922-0.41406-1.0117-0.14844-2.0078-0.28125-3.0195-0.30078-0.33594-0.019531-0.61719-0.11328-0.95703-0.11328l-535.93 0.007812c-0.91797 0-1.7812 0.1875-2.6797 0.28125-0.88281-0.09375-1.7617-0.28125-2.6797-0.28125-15.543 0-28.125 12.602-28.125 28.125v516.34c0 14.418 10.875 26.156 24.844 27.789 2.7383 0.89844 5.6055 1.5 8.6445 1.5h535.93c1.9883 0 3.918-0.22656 5.793-0.61719 0.33594-0.054688 0.63672-0.20703 0.95703-0.30078 1.5547-0.39453 3.0742-0.82422 4.5-1.4609 0.5625-0.24219 1.1055-0.60156 1.6484-0.89844 1.1641-0.58203 2.2891-1.1797 3.3359-1.9492 0.58203-0.41406 1.125-0.91797 1.6875-1.3867 0.95703-0.78906 1.875-1.5938 2.7188-2.5117 0.20703-0.24219 0.46875-0.39453 0.67578-0.63672l223.69-259.32c0.1875-0.20703 0.28125-0.41406 0.42969-0.63672 0.67969-0.78906 1.2227-1.6523 1.7656-2.4961zm-260.1 215.96h-500.27v-461.25h500.3l199.39 230.08z"/>
 </g>
</svg>
