<?xml version="1.0" encoding="UTF-8"?>
<svg width="1200pt" height="1200pt" version="1.1" viewBox="0 0 1200 1200" xmlns="http://www.w3.org/2000/svg">
 <g>
  <path d="m405.12 685.68c-4.8008 0-10.801-0.96094-15.84-0.96094-6.4805-0.95703-13.68-1.918-19.68-2.8789-1.9219-1.1992-2.8789-2.1602-4.8008-2.1602-2.3984-11.762-12.238-18.719-25.68-16.801-24.723 5.043-54.723 8.8828-76.32 22.801-24.961 14.879-47.762 32.641-72.723 46.801-54.477 29.52-111.12 55.441-163.68 88.32-4.8008 2.8789-0.96094 9.8398 4.3203 7.6797 102.24-46.559 218.88-60.48 314.16-119.04 20.16 5.2773 49.68-4.082 63.121-13.922 4.3203-2.8789 3.3594-9.8398-2.8789-9.8398z"/>
  <path d="m1042.3 636c-17.762-10.801-34.801-21.602-47.762-38.641-9.8398-12.719-26.879-91.199-43.68-98.16-16.801-6.9609-33.84 25.922-63.359 32.879-1.4414 0-1.4414-1.1992-2.3984-2.1602-1.6797-2.8789-3.6016-6.7188-7.9219-8.8789-1.9219-0.96094-2.8789-1.9219-4.8008-2.8789-4.0781-3.8398-6.957-9.1211-9.5977-12.961-4.3203-19.918-49.68-119.28-56.879-138.96-3.8398-12-148.56 99.121-185.52 122.16-28.562 16.801-52.562 42.48-73.203 68.16-26.641 30.961-62.398 56.641-95.039 80.398-9.8398 7.2031-1.9219 19.922 8.8789 15.121 32.879-16.801 71.281-24 106.8-36.719 1.9219-0.96094 4.3203-1.918 7.1992-3.1211-8.1602 6-17.039 12.242-27.84 17.762-95.039 54.961-161.76 143.04-260.64 191.76-6.9609 2.8789-2.3984 14.879 5.5195 12.719 55.922-18 111.36-32.641 167.04-51.602 52.559-17.762 90.961-62.641 131.76-97.922 16.801-15.84 31.922-30 45.359-48.719 8.8789-10.801 8.8789-24 22.078-32.641 9.8398-7.9219 22.078-11.039 30.961-19.922 16.32-17.277 22.559-38.637 37.438-56.637 16.801-20.879 31.441-45.602 47.281-67.441 2.3984-3.1211 3.3594-5.7617 3.3594-8.8789 1.9219-2.1602 3.8398-5.0391 5.5195-6.9609-3.8398 12-2.8789 24.961-9.8398 37.68-6.9609 14.883-11.52 29.762-14.879 45.602-4.8008 19.68-11.762 40.801-16.801 60.48h-0.96094c-17.762 24.719-41.281 50.398-50.16 80.398-13.199 39.602-23.039 66.48-55.68 96.242-6.2383 4.8008 1.6797 13.68 7.9219 9.8398 27.598-19.922 54.238-48.719 85.199-63.602 25.922-12.719 64.32-45.598 78.242-71.52 6.2383-9.8398 8.1562-19.68 9.8398-28.559 1.4414-1.9219 3.3594-4.0781 4.3203-5.7617 11.762-8.8789 24-16.801 33.84-26.641 0 1.9219 0.96094 2.8789 1.9219 4.8008-5.2852 7.6797-10.082 15.602-11.766 22.562-4.3164 15.84-5.2773 32.641-9.8398 48.719-5.0391 14.879-13.199 28.801-15.84 44.879-2.3984 14.879 17.762 24.961 25.68 9.8398 15.363-32.879 33.121-59.52 67.922-74.398 8.8789-4.3203 17.762-7.9219 24.961-13.199 5.0391 6.957 8.6406 13.918 13.918 20.16-9.8398 36.48-16.801 74.398-22.078 111.84-0.96094 2.1602 0 3.1211 1.9219 4.3203-12.723 22.559-25.441 45.359-29.523 71.039 0 3.1211 94.32-100.32 107.28-119.04v6c-1.9219 6-4.082 12.719-2.8789 20.637 0 0.96094-12.238 28.801-14.16 43.922v4.0781c-4.082 12.723-6.7227 26.402-8.6406 41.281v0.96094 4.3203c-0.96094 6.7188 105.84-47.762 117.6-43.922 7.918 2.1602 56.637 31.68 74.637 31.68 10.082 0-96.238-160.32-132.72-182.4z"/>
 </g>
</svg>
