<?xml version="1.0" encoding="UTF-8"?>
<svg width="1200pt" height="1200pt" version="1.1" viewBox="0 0 1200 1200" xmlns="http://www.w3.org/2000/svg">
 <g>
  <path d="m177.8 1100h1c20.801-0.19922 40.398-8.6016 54.801-23.602l563.6-582c89.398 92.801 182.4 201.4 266.2 323.2 3.8008 5.6016 10 8.8008 16.602 8.8008 2 0 4.1992-0.39844 6.3984-1.1992 8.3984-2.8008 14-10.801 13.602-19.801-0.60156-10-13.602-247.8-236-469.4-214.2-214.8-458.61-235.2-468.8-235.8-9-0.80078-17.398 4.8008-20.398 13.398-3 8.6016 0.19922 18 7.8008 23 2.3984 1.6016 146.4 98.801 322.8 266.8l-581.8 563c-15.203 14.801-23.602 34.602-23.602 55.801s8.1992 41 23.398 55.801c14.602 14.199 34 22 54.402 22z"/>
  <path d="m845.8 264.2c15.602 13.602 31.199 28 46.602 43.398 15.398 15.398 30 31 43.602 46.398 7.8008-10.801 12.199-23.801 12.398-38-0.19922-17.398-7-33.398-19-45.602-22.801-22.594-58.402-24.395-83.602-6.1953z"/>
 </g>
</svg>
