<?xml version="1.0" encoding="UTF-8"?>
<svg width="1200pt" height="1200pt" version="1.1" viewBox="0 0 1200 1200" xmlns="http://www.w3.org/2000/svg">
 <g fill="#4c25e0">
  <path d="m989.75 519.8c0-257.99-149.35-418.25-389.75-418.25-240.38 0-389.72 160.25-389.72 418.25l-0.023438 585.06c0 5.6055 3.8984 10.645 9.8398 12.742 5.9531 2.0625 12.77 0.85156 17.258-3.168l79.055-125.8 79.117 129c2.9297 2.7461 7.0078 4.3086 11.293 4.3789 4.2969-0.011719 8.4258-1.4141 11.449-4.0547l77.219-122.76 94.367 123.62c2.9414 2.1484 6.5391 3.2031 10.129 3.2031 4.1523 0 8.2812-1.4297 11.375-4.2227l78.863-126.52 73.055 122.96c2.9297 2.7461 7.0547 4.3203 11.363 4.3555 4.1289 0.14453 8.4609-1.4766 11.461-4.1875l77.387-124.52 100.52 125.66c4.7148 3.3125 11.207 3.9727 16.715 1.7031 5.4844-2.2812 8.9766-7.1172 8.9766-12.406zm-31.594 542.55-86.039-115.49c-6.3477-4.4531-15.562-3.9961-21.238 1.1289l-75.863 123.19-73.105-123.01c-2.9531-2.7461-7.0781-4.3203-11.387-4.3438h-0.12109c-4.2852 0-8.3867 1.5117-11.363 4.2109l-80.234 127.72-94.199-123.5c-6.2773-4.5469-15.539-4.1875-21.301 0.86328l-75.852 121.56-79.234-129.11c-2.9414-2.7461-7.043-4.332-11.363-4.3789-4.3672 0.14453-8.4727 1.4648-11.496 4.1641l-63.516 111.91 0.023437-537.48c0-244.67 133.88-376.99 358.15-376.99s358.16 132.31 358.16 376.99z"/>
  <path d="m568.55 457.62c-3.9102-10.176-138.66-95.016-148.11-89.184-9.4336 5.8086 17.605 85.668 63.121 104.48 35.844 14.816 90.781-0.42188 84.984-15.301z"/>
  <path d="m631.46 457.62c3.9102-10.176 138.65-95.016 148.09-89.184 9.4336 5.8086-17.605 85.668-63.109 104.48-35.832 14.816-90.77-0.42188-84.984-15.301z"/>
 </g>
</svg>
