<?xml version="1.0" encoding="UTF-8"?>
<svg width="1200pt" height="1200pt" version="1.1" viewBox="0 0 1200 1200" xmlns="http://www.w3.org/2000/svg">
 <g>
  <rect width="1200" height="1200"/>
  <path d="m894.16 538.35c-18.52 0-36.277-7.3555-49.367-20.445-13.094-13.094-20.449-30.852-20.449-49.367s7.3555-36.273 20.449-49.367c13.09-13.094 30.848-20.449 49.367-20.449 18.516 0 36.273 7.3555 49.363 20.449 13.094 13.094 20.449 30.852 20.449 49.367-0.019531 18.508-7.3789 36.254-20.469 49.344s-30.836 20.449-49.344 20.469zm0-124.86c-14.605 0-28.609 5.8008-38.934 16.129-10.324 10.324-16.125 24.332-16.121 38.934 0 14.602 5.8008 28.605 16.129 38.93s24.332 16.121 38.934 16.121c14.602-0.003907 28.605-5.8086 38.93-16.137s16.121-24.332 16.117-38.934c-0.015626-14.598-5.8242-28.59-16.145-38.91-10.32-10.316-24.316-16.121-38.91-16.133z" fill="#d2d2d2"/>
  <path d="m518.59 864.1h-3.5703-0.003906c-12.5-0.12891-24.867-2.5469-36.5-7.1289-3.4844-1.4766-6.8047-3.1133-9.9922-4.7383-6.0078-3.0391-11.676-5.9023-17.711-6.8945l-0.45703-0.074219c-16.234-2.6719-34.348-6.0664-44.633-12.605-28.812-18.258-36.898-42.391-40.633-75.41-3.6602-32.473 8.2812-63.012 31.957-81.668l-0.007813 0.003907c9.6406-7.6016 20.672-13.25 32.473-16.633 2.3906-0.67969 4.8281-1.2383 7.2344-1.6992v0.003906c7.2852-1.1914 14.668-1.7344 22.051-1.625 7.3789-0.089843 14.508-0.17578 21.238-1.7109 7.1211-1.8203 14.105-4.1328 20.902-6.9258 6.0234-2.3008 12.266-4.6953 18.762-6.4805l-0.003906 0.003906c12.277-3.3945 25.113-4.293 37.742-2.6445 39.23 5.1211 70.348 35.172 81.18 78.434 3.8516 15.336 1.8438 35.426-0.51562 49.551-2.6055 15.566-8.5508 30.379-17.434 43.426-22.742 34.168-61.035 54.73-102.08 54.816zm26.566-212.32v0.003906c-7.2578 0.011719-14.48 1.0039-21.477 2.9492-5.8008 1.5938-11.438 3.75-17.402 6.0234-7.4375 3.0391-15.082 5.5391-22.875 7.4844-8.25 1.8906-16.43 1.9922-24.324 2.0977v-0.003907c-6.5234-0.11328-13.043 0.34375-19.484 1.3594-2.0078 0.38281-4.0156 0.85547-5.9922 1.4766-9.9531 2.8008-19.262 7.5312-27.395 13.918-19.633 15.469-29.52 41.047-26.422 68.414 3.3945 30.125 9.8008 49.344 33.859 64.605 8.6211 5.4609 29.238 8.8555 39.145 10.496l0.44141 0.074219c8.25 1.3594 15.219 4.8867 21.949 8.2969 3.1016 1.5664 6.0234 3.0391 9.0039 4.2812v-0.007812c9.9727 3.875 20.562 5.9102 31.262 6.0078 37.004 1.1055 71.809-16.973 92.988-48.281 7.7148-11.289 12.898-24.113 15.188-37.594 1.7422-10.449 4.1484-29.992 0.75391-43.527-9.5039-37.816-35.23-63.012-68.812-67.395-3.4688-0.45312-6.9648-0.67969-10.465-0.67578z" fill="#d2d2d2"/>
  <path d="m320.3 673.15c-26.23 0-45.504-5.6523-57.387-16.84-8.5742-8.0898-13.105-18.773-13.461-31.75-0.35547-12.973 4.1641-23.91 13.047-32.031 10.715-9.8008 27.41-14.434 44.633-12.414 9.4609 1.1211 16.781-0.66406 22.406-5.4453h0.003906c1.6562-1.4219 3.3906-2.7539 5.1953-3.9844 7.7383-5.3945 17.219-7.6914 26.566-6.4336 12.664 1.4766 24.043 8.8555 32.031 21.031 6.8242 10.578 10.66 22.801 11.098 35.379 0.89844 30.316-29.711 50.906-77.992 52.441-2.0781 0.015625-4.1328 0.046875-6.1406 0.046875zm-21.223-78.746c-10.613 0-20.266 3.2188-26.566 9.0195-5.7109 5.2109-8.4883 12.191-8.25 20.664 0.23438 9.0469 3.1289 16.043 8.8555 21.418 9.5469 9.1953 27.91 13.535 52.852 12.797 39.352-1.2383 64.355-15.867 63.703-37.238-0.79688-26.832-18.008-40.797-29.977-42.141h0.003906c-5.8789-0.86719-11.867 0.57031-16.711 4.0117-1.3477 0.91016-2.6445 1.8984-3.8828 2.9531-8.7812 7.4844-20.133 10.48-33.684 8.8555h0.003906c-2.1094-0.23438-4.2266-0.34766-6.3477-0.33984z" fill="#d2d2d2"/>
  <path d="m479.8 610.2c-2.2305-0.007813-4.4492-0.25-6.6289-0.72266-7.6602-1.6094-15.172-7.1445-20.102-14.762-4.6484-7.2188-6.4219-15.438-4.8555-22.539 3.5-15.836 21.711-24.93 35.691-22.496 14.422 2.5234 23.984 14.496 23.793 29.785-0.13281 10.051-4.4297 19.41-11.469 25.094l-0.003906 0.003906c-4.6602 3.7188-10.465 5.7109-16.426 5.6367zm-0.60547-46.184c-6.6992 0-15.113 4.707-16.562 11.305-0.72266 3.2461 0.33984 7.5 2.8477 11.367 2.7891 4.3398 6.9062 7.543 10.746 8.3555 3.7266 1.0234 7.7148 0.25391 10.789-2.082 3.5703-2.8633 5.9023-8.1172 5.9023-13.711 0-6.2891-2.9531-13.551-11.57-15.055-0.71094-0.12109-1.4297-0.17969-2.1523-0.17969z" fill="#d2d2d2"/>
  <path d="m715.39 714.86c-6.9883 0.17578-13.816-2.1367-19.262-6.5234-12.266-10.582-11.645-30.996-2.8789-42.082 9.0625-11.512 24.133-14.258 37.52-6.8203 8.7812 4.8711 14.98 13.094 16.605 21.965 1.0312 5.6094 0.72266 14.082-6.5234 22.656-5.0625 5.9766-13.492 9.9766-22.566 10.688-0.96094 0.074218-1.9336 0.11719-2.8945 0.11719zm0-44.781c-4.1484-0.015625-8.0547 1.9531-10.508 5.3008-4.3398 5.5195-4.7812 16.871 0.91406 21.77 2.5078 2.168 6.7617 3.2461 11.367 2.8789 5.1523-0.39844 9.918-2.5078 12.441-5.5039v-0.003906c2.6641-2.793 3.8789-6.6641 3.293-10.477-0.82812-4.5-4.4297-8.9883-9.2695-11.703v-0.003906c-2.5195-1.4375-5.3633-2.2148-8.2656-2.2578z" fill="#d2d2d2"/>
  <path d="m352.3 880.18c-6.9883 0.17578-13.816-2.1367-19.262-6.5234-12.266-10.582-11.645-30.996-2.8789-42.082 9.0625-11.512 24.133-14.258 37.52-6.8203 8.8555 4.8711 14.98 13.094 16.605 21.965 1.0312 5.6094 0.72266 14.082-6.5234 22.656-5.0625 5.9766-13.492 9.9766-22.566 10.688-0.96094 0.074218-1.9336 0.11719-2.8945 0.11719zm0-44.781c-4.1797-0.042969-8.125 1.9297-10.598 5.3008-4.3398 5.5195-4.7812 16.871 0.91406 21.77 2.5078 2.168 6.7617 3.2461 11.367 2.8789 5.1523-0.39844 9.918-2.5078 12.441-5.5039l0.003906-0.003906c2.6602-2.793 3.8789-6.6641 3.2891-10.477-0.82812-4.5-4.4297-8.9883-9.2695-11.703v-0.003906c-2.4922-1.4258-5.3047-2.1992-8.1758-2.2578z" fill="#d2d2d2"/>
  <path d="m596.61 945.65c-10.332 0-19.867-3.1602-26.566-8.9297-16.664-14.363-15.75-43.086-3.8359-58.215 12.473-15.836 33.254-19.586 51.734-9.3125 12.266 6.8047 20.914 18.199 23.16 30.48 2.0078 10.965-1.1055 21.695-9.0195 30.996-6.9805 8.25-18.715 13.77-31.41 14.762-1.3438 0.17578-2.7188 0.21875-4.0625 0.21875zm0.13281-67.426c-7.418 0.011719-14.406 3.5-18.875 9.418-7.6602 9.7266-8.2969 29.137 1.875 37.902 4.5898 3.957 11.809 5.9023 19.836 5.2266 8.707-0.67969 16.871-4.4297 21.297-9.5938 5.0195-5.9023 6.9648-12.281 5.7578-18.863-1.4766-7.8516-7.4844-15.602-15.809-20.223-4.2852-2.4727-9.1328-3.8047-14.082-3.8672z" fill="#d2d2d2"/>
  <path d="m610.6 463.95c-6.9883 0.17188-13.816-2.1367-19.262-6.5273-12.266-10.582-11.645-30.996-2.8789-42.082 9.0625-11.512 24.133-14.258 37.52-6.8203 8.7812 4.8711 14.98 13.094 16.605 21.965 1.0312 5.6094 0.72266 14.082-6.5234 22.656-5.0625 5.9766-13.492 9.9766-22.566 10.688-0.96094 0.074219-1.9336 0.12109-2.8945 0.12109zm0-44.781v-0.003906c-4.1484-0.015625-8.0547 1.957-10.508 5.3008-4.3398 5.5195-4.7812 16.871 0.91406 21.77 2.5078 2.168 6.7617 3.2461 11.367 2.9531 5.1523-0.39844 9.918-2.5078 12.441-5.5039 2.6641-2.7969 3.8789-6.668 3.293-10.48-0.82812-4.5-4.4297-8.9883-9.2695-11.703v-0.003906c-2.5117-1.4648-5.3594-2.2656-8.2656-2.332z" fill="#d2d2d2"/>
  <path d="m663.79 331.78c-6.332 0.16797-12.516-1.9258-17.445-5.9023-11.113-9.5781-10.555-28.043-2.6406-38.051 8.207-10.434 21.859-12.93 33.949-6.1992h-0.003906c7.6797 4.082 13.164 11.34 15 19.836 1.2578 7.3984-0.91406 14.969-5.9062 20.574-4.5742 5.418-12.191 9.0312-20.355 9.668-0.86719 0.046875-1.7383 0.074219-2.5977 0.074219zm0-39.129c-3.3438-0.011719-6.4961 1.582-8.4688 4.2812-3.5117 4.4297-3.8242 13.859 0.67969 17.711h-0.003906c2.6758 1.9141 5.9805 2.7305 9.2422 2.2891 3.8477-0.13281 7.5078-1.7148 10.242-4.4297 2.168-2.2188 3.1602-5.332 2.6719-8.3984-1.0469-4.1445-3.8242-7.6406-7.6328-9.5938-2.0586-1.1719-4.375-1.8086-6.7422-1.8594z" fill="#d2d2d2"/>
  <path d="m441.14 535.94c-1.0938 0-2.2422 0-3.4531-0.16406-11.809-1.0938-25.094-7.0273-37.285-16.723-20.117-15.941-20.457-42.141-0.87109-68.355 23.277-31.188 46.184-26.422 61.312-16.93v0.003907c11.543 7.0703 19.285 18.965 21.078 32.383 1.6172 11.066-1.8242 22.273-9.375 30.523-2.7734 2.6367-4.8906 5.8906-6.1836 9.4922-0.53125 1.832-0.98828 3.75-1.4766 5.625s-0.91406 3.8984-1.4766 5.8008c-2.2422 8.043-7.0547 18.344-22.27 18.344zm-2.9531-94.465c-11.426 0-20.09 9.1055-26.773 18.066-20.898 28.043-8.207 42.805-1.7695 47.957 10.008 7.9414 20.473 12.766 29.52 13.594 6.8945 0.63281 8.3672-1.0312 10.23-7.5117 0.45703-1.5781 0.87109-3.3047 1.3008-5.1367 0.42969-1.832 0.97266-4.1172 1.5938-6.2734 1.4766-5.2109 4.6641-10.332 9.6992-15.602h-0.007812c4.5156-5.0508 6.5234-11.859 5.4766-18.555-1.2695-9.0273-6.5312-17.008-14.332-21.727-4.4336-3.0117-9.6367-4.6875-14.996-4.8242z" fill="#d2d2d2"/>
  <path d="m827.62 957.29c-13.871 0.25391-27.059-6.0078-35.633-16.918-16.031-20.34-34.156-19.57-53.359-18.746-13.285 0.57422-27.055 1.168-39.098-6.0664-14.508-8.707-18.332-19.617-18.965-27.246-1.2695-14.98 8.4414-29.031 17.965-37.195 8.6484-7.3789 7.3789-16.855 3.9688-35.777-0.67969-3.8242-1.4023-7.7773-2.0352-12.016-4.5625-30.023 8.1484-53.328 36.707-67.395 25.578-12.574 48.191 0 57.211 8.8555 23.203 15.277 77.711 57.121 99.012 124.55h-0.003906c5.1328 15.941 3.6172 33.281-4.207 48.09-7.1602 13.621-18.281 24.75-31.895 31.926-9.0977 5.0195-19.281 7.7422-29.668 7.9414zm-78.141-50.73c17.535 0 37.211 3.2344 54.109 24.664 8.0312 10.199 24.547 16.887 46.789 5.1055 20.09-10.629 37.711-34.73 28.93-62.508-20.059-63.559-72.191-103.05-93.668-117.08h0.003906c-0.46875-0.30078-0.89844-0.65234-1.2852-1.0469-0.75391-0.78125-17.816-17.711-40.664-6.5078s-32.234 28.234-28.648 51.926c0.62109 4.0312 1.3125 7.8828 1.9766 11.602 3.3789 18.699 6.5664 36.355-8.8555 49.609-6.4219 5.5195-13.652 15.305-12.855 24.754 0.51562 6.0977 4.4297 11.41 11.809 15.824 8.25 4.9609 18.746 4.5 30.895 3.9844 3.6875-0.16797 7.5078-0.32812 11.465-0.32812z" fill="#d2d2d2"/>
  <path d="m836.7 825.52c-10.762 0-22.316-3.6328-30.613-15.027-15.676-21.562-4.2344-40.148 4.0156-46.965 3.1367-2.4883 7.6914-2.0195 10.254 1.0586 2.5664 3.0781 2.207 7.6406-0.80859 10.277-2.3594 2.207-4.1914 4.918-5.3594 7.9258-2.3008 6.0977-1.0312 12.309 3.8359 19.027 11.957 16.43 35.055 5.2695 35.277 5.1523 3.6719-1.8086 8.1094-0.29688 9.9141 3.3711 1.8047 3.668 0.29297 8.1055-3.375 9.9102-7.2344 3.4336-15.133 5.2305-23.141 5.2695z" fill="#d2d2d2"/>
  <path d="m929.43 770.58c-8.5352 0-16.723-3.3906-22.762-9.4258-6.0352-6.0391-9.4297-14.227-9.4297-22.766 0-8.5352 3.3945-16.723 9.4297-22.762 6.0391-6.0352 14.227-9.4297 22.762-9.4297 8.5391 0 16.727 3.3945 22.766 9.4297 6.0352 6.0391 9.4258 14.227 9.4258 22.762-0.007813 8.5352-3.3984 16.719-9.4375 22.754-6.0352 6.0352-14.219 9.4297-22.754 9.4375zm0-49.625v0.003907c-4.6211 0-9.0547 1.8359-12.324 5.1055-3.2695 3.2695-5.1055 7.7031-5.1055 12.324 0 4.625 1.8359 9.0586 5.1055 12.328s7.7031 5.1055 12.324 5.1055c4.625 0 9.0586-1.8359 12.328-5.1055 3.2695-3.2695 5.1055-7.7031 5.1055-12.328-0.027343-4.6055-1.875-9.0156-5.1406-12.27-3.2656-3.25-7.6836-5.0781-12.293-5.0859z" fill="#d2d2d2"/>
  <path d="m918.89 690.04c-0.43359-0.003906-0.86719-0.042968-1.2969-0.12109l-4.4297-0.82812v0.003906c-1.9648-0.32031-3.7148-1.4219-4.8594-3.0547-1.1406-1.6289-1.5742-3.6523-1.2031-5.6094 0.375-1.957 1.5195-3.6797 3.1836-4.7773 1.6602-1.0977 3.6953-1.4766 5.6406-1.0547 1.4766 0.29688 2.9531 0.54688 4.2969 0.78125v0.003906c3.793 0.64063 6.4609 4.0898 6.1211 7.9258-0.33984 3.8359-3.5703 6.7656-7.4219 6.7305zm-33.254-7.3789v-0.003906c-0.625 0-1.25-0.078125-1.8594-0.23438l-4.3555-1.168h0.003906c-3.8359-1.1406-6.0625-5.1328-5.0156-8.9961 1.043-3.8633 4.9766-6.1914 8.8672-5.2461l4.2227 1.1211h-0.003906c3.5977 0.93359 5.9414 4.3945 5.4688 8.082s-3.6094 6.4453-7.3281 6.4414zm-32.574-9.7695v-0.003906c-0.8125-0.003907-1.6211-0.13672-2.3906-0.39844l-4.25-1.4766c-3.7539-1.418-5.6836-5.5703-4.3516-9.3516 1.332-3.7852 5.4375-5.8125 9.25-4.5664l4.1328 1.4766c3.4141 1.168 5.4805 4.6328 4.8867 8.1914-0.58984 3.5586-3.668 6.168-7.2773 6.168zm-31.66-12.211c-1.0156 0.003906-2.0195-0.20313-2.9531-0.60547l-4.1328-1.832v0.003906c-1.8477-0.76172-3.3047-2.2383-4.0469-4.0938-0.73828-1.8555-0.69531-3.9297 0.12109-5.7539 0.82031-1.8203 2.3398-3.2344 4.2188-3.9141 1.875-0.68359 3.9492-0.57422 5.7461 0.30078l3.9844 1.7578v-0.003907c3.1992 1.4023 4.9766 4.8516 4.2617 8.2695-0.71094 3.418-3.7227 5.8672-7.2148 5.8711zm-30.523-14.922c-1.2539 0-2.4883-0.32031-3.5859-0.92969l-3.9414-2.2305c-3.5352-2.0352-4.7461-6.5547-2.7109-10.086 2.0391-3.5352 6.5547-4.7461 10.09-2.7109l3.7656 2.125c2.9375 1.6367 4.3984 5.0508 3.5547 8.3047-0.84375 3.2539-3.7812 5.5273-7.1445 5.5273zm-28.695-18.156c-1.5469 0-3.0508-0.48437-4.3086-1.3867-1.2383-0.89844-2.4648-1.7852-3.6758-2.6992-3.2617-2.4453-3.9219-7.0742-1.4766-10.332 2.4453-3.2617 7.0742-3.9219 10.332-1.4766 1.1367 0.85547 2.3008 1.7109 3.4531 2.5547 2.5273 1.8906 3.5703 5.1797 2.5938 8.1797-0.97266 3.0039-3.7461 5.0508-6.9023 5.1016zm-26.051-21.727c-1.918 0.011719-3.7656-0.73438-5.1367-2.0781-1.1016-1.0625-2.1953-2.1406-3.2773-3.2344-1.5273-1.3555-2.4219-3.2852-2.4766-5.3281-0.050782-2.043 0.74609-4.0156 2.2031-5.4492 1.4531-1.4336 3.4375-2.1992 5.4805-2.1133 2.043 0.082031 3.957 1.0117 5.2891 2.5586 1.0195 1.0195 2.0234 2.0234 3.0547 2.9531 2.1602 2.0898 2.832 5.2812 1.7031 8.0703-1.1289 2.7852-3.832 4.6055-6.8398 4.6094zm-22.242-25.652c-2.375 0-4.6055-1.1406-5.9922-3.0703-0.90625-1.2383-1.7891-2.4961-2.6562-3.7656v0.003906c-2.2422-3.3633-1.3672-7.9023 1.9688-10.184 3.332-2.2852 7.8828-1.4609 10.207 1.8438 0.79688 1.168 1.6094 2.3164 2.4336 3.4688 1.6172 2.2344 1.8516 5.1836 0.60938 7.6484-1.2422 2.4609-3.7539 4.0273-6.5117 4.0547zm-17.031-29.254h-0.003906c-2.8945 0.003906-5.5273-1.6875-6.7305-4.3242-0.63281-1.4023-1.2539-2.8203-1.8438-4.25-0.83984-1.8164-0.90625-3.8984-0.18359-5.7656 0.72266-1.8672 2.1719-3.3594 4.0156-4.1367 1.8438-0.77734 3.9258-0.77344 5.7656 0.015624 1.8438 0.78516 3.2852 2.2891 3.9961 4.1602 0.54688 1.3008 1.1211 2.582 1.6992 3.8672 1.0391 2.2812 0.84375 4.9375-0.51172 7.0469-1.3594 2.1094-3.6953 3.3867-6.207 3.3867zm-10.734-32.148c-3.4492-0.003906-6.4336-2.4023-7.1875-5.7695-0.33984-1.4766-0.64844-2.9531-0.96094-4.5156h0.003907c-0.37891-1.9219 0.027343-3.918 1.1211-5.543 1.0898-1.6211 2.7852-2.7461 4.707-3.1211 4.0039-0.78516 7.8828 1.8242 8.6641 5.8281 0.26562 1.3867 0.5625 2.7617 0.87109 4.1328 0.44141 1.918 0.097656 3.9297-0.95312 5.5938-1.0508 1.6602-2.7188 2.8359-4.6406 3.2617-0.53516 0.10938-1.0781 0.15625-1.625 0.13281zm-4.3398-33.609c-3.957 0.003906-7.2109-3.1133-7.3789-7.0664 0-1.4766-0.11719-3.0703-0.14844-4.5898v-0.003907c-0.074218-4.0742 3.1641-7.4414 7.2422-7.5195 4.0742-0.078125 7.4414 3.1641 7.5195 7.2422 0 1.3984 0.042969 2.8125 0.13281 4.25 0.17578 4.0703-2.9844 7.5156-7.0547 7.6875zm1.832-33.785c-0.39063-0.003906-0.78125-0.039062-1.1641-0.10156-4.0234-0.64453-6.7656-4.4219-6.1289-8.4414 0.23438-1.4766 0.5-3.0547 0.78125-4.5625h0.003906c0.75-4.0078 4.6055-6.6484 8.6094-5.8984 4.0078 0.75 6.6484 4.6094 5.8984 8.6133-0.25 1.3711-0.48828 2.7617-0.72266 4.1641-0.53906 3.6055-3.6328 6.2773-7.2773 6.2852zm9.0312-32.605h0.003906c-0.95703 0.003907-1.9062-0.18359-2.793-0.54297-1.8125-0.74219-3.2539-2.1719-4.0156-3.9766-0.75781-1.8047-0.76562-3.8359-0.027344-5.6484 0.58984-1.4766 1.1953-2.8633 1.8164-4.2812 0.79297-1.7891 2.2656-3.1875 4.0938-3.8906 1.8281-0.70312 3.8594-0.65234 5.6484 0.14062 3.7227 1.6562 5.4023 6.0195 3.7461 9.7422-0.5625 1.2852-1.1055 2.5664-1.6367 3.8672-1.1133 2.8008-3.8203 4.6406-6.832 4.6523zm16.367-29.609 0.003906 0.003906c-2.7656-0.003906-5.293-1.5508-6.5586-4.0117-1.2617-2.457-1.043-5.418 0.56641-7.6641 0.91406-1.2539 1.832-2.5078 2.7617-3.7344h-0.003906c2.4727-3.2617 7.1172-3.9023 10.379-1.4336 3.2617 2.4727 3.9023 7.1172 1.4297 10.379-0.85547 1.1055-1.6836 2.2422-2.5078 3.3945-1.3906 1.9688-3.6562 3.1406-6.0664 3.1289zm22.582-25.27 0.003906 0.003906c-3.043-0.003906-5.7734-1.875-6.875-4.7109-1.1016-2.8398-0.34375-6.0625 1.9023-8.1172 1.1367-1.0469 2.2891-2.0664 3.4375-3.0703 3.0781-2.6719 7.7383-2.3477 10.414 0.73047 2.6719 3.0781 2.3477 7.7422-0.73047 10.414-1.0625 0.92969-2.125 1.8594-3.1719 2.8203-1.3516 1.2617-3.125 1.9727-4.9766 1.9922zm27.012-20.531 0.003906 0.003906c-3.2266-0.0625-6.0391-2.2109-6.9453-5.3086-0.90625-3.0977 0.30469-6.4219 2.9883-8.2109 1.3008-0.82812 2.5977-1.6367 3.8984-2.4219 3.4727-1.9883 7.8984-0.83984 9.9727 2.582 2.0742 3.4258 1.043 7.875-2.3281 10.039-1.1953 0.73828-2.4219 1.4766-3.6328 2.2578h0.003906c-1.1875 0.73828-2.5586 1.1289-3.957 1.1211zm29.961-16 0.003907 0.003906c-3.4766-0.019531-6.4688-2.4648-7.1797-5.8711-0.71094-3.4062 1.0508-6.8438 4.2305-8.2539l4.1914-1.832c3.7539-1.5898 8.0859 0.16406 9.6758 3.918 1.5898 3.7539-0.16797 8.0859-3.9219 9.6758l-3.9414 1.7109 0.003906 0.003906c-0.95703 0.45703-2 0.69531-3.0586 0.70703zm31.969-11.602 0.007813 0.003906c-3.6914-0.007812-6.8086-2.7383-7.3008-6.3984-0.49219-3.6562 1.793-7.1172 5.3516-8.0977 2.9531-0.8125 4.6328-1.1797 4.6953-1.1953 1.9258-0.46484 3.957-0.13672 5.6367 0.91016 1.6797 1.0508 2.8711 2.7305 3.3008 4.6641 0.42969 1.9336 0.0625 3.957-1.0156 5.6172-1.0781 1.6641-2.7773 2.8203-4.7188 3.2148 0 0-1.4766 0.32422-3.9844 1.0195h-0.003907c-0.63672 0.19141-1.2969 0.30078-1.9609 0.32422z" fill="#d2d2d2"/>
  <path d="m570.35 549.57c-4.0742 0-7.3789-3.3047-7.3789-7.3789v-16.738c0-4.0781 3.3047-7.3789 7.3789-7.3789 4.0781 0 7.3828 3.3008 7.3828 7.3789v16.738c0 1.957-0.77734 3.832-2.1641 5.2188-1.3828 1.3828-3.2617 2.1602-5.2188 2.1602z" fill="#d2d2d2"/>
  <path d="m570.32 606.66c-4.0781 0-7.3828-3.3047-7.3828-7.3828v-16.738c0-4.0742 3.3047-7.3789 7.3828-7.3789 4.0742 0 7.3789 3.3047 7.3789 7.3789v16.738c0 1.957-0.77734 3.8359-2.1602 5.2188-1.3867 1.3867-3.2617 2.1641-5.2188 2.1641z" fill="#d2d2d2"/>
  <path d="m607.25 569.76h-16.738c-4.0781 0-7.3789-3.3047-7.3789-7.3789 0-4.0781 3.3008-7.3789 7.3789-7.3789h16.738c4.0742 0 7.3789 3.3008 7.3789 7.3789 0 4.0742-3.3047 7.3789-7.3789 7.3789z" fill="#d2d2d2"/>
  <path d="m550.16 569.73h-16.738c-4.0742 0-7.3789-3.3047-7.3789-7.3828 0-4.0742 3.3047-7.3789 7.3789-7.3789h16.738c4.0781 0 7.3789 3.3047 7.3789 7.3789 0 4.0781-3.3008 7.3828-7.3789 7.3828z" fill="#d2d2d2"/>
  <path d="m570.32 587.96c-6.9219 0-13.562-2.75-18.457-7.6445-4.8906-4.8945-7.6406-11.535-7.6406-18.457 0.003906-6.9219 2.7539-13.559 7.6484-18.453 4.8984-4.8906 11.535-7.6406 18.457-7.6367s13.559 2.7539 18.453 7.6523c4.8906 4.8984 7.6367 11.535 7.6328 18.457-0.007812 6.918-2.7578 13.551-7.6523 18.441-4.8906 4.8867-11.523 7.6367-18.441 7.6406zm0-37.418c-4.5859 0-8.7188 2.7617-10.473 7-1.7539 4.2344-0.78516 9.1094 2.457 12.352 3.2422 3.2422 8.1172 4.2148 12.352 2.457 4.2383-1.7539 7-5.8867 7-10.473-0.007812-6.2539-5.0781-11.324-11.336-11.336z" fill="#d2d2d2"/>
  <path d="m316.61 725.46c-4.0781 0-7.3789-3.3047-7.3789-7.3789v-1.4766c0-4.0742 3.3008-7.3789 7.3789-7.3789 4.0742 0 7.3789 3.3047 7.3789 7.3789v1.4766c0 1.957-0.77734 3.8359-2.1602 5.2188-1.3867 1.3828-3.2617 2.1602-5.2188 2.1602z" fill="#d2d2d2"/>
  <path d="m515.87 495.21c-4.0781 0-7.3828-3.3047-7.3828-7.3828v-1.4766c0-4.0742 3.3047-7.3789 7.3828-7.3789 4.0742 0 7.3789 3.3047 7.3789 7.3789v1.4766c0 1.957-0.77734 3.8359-2.1641 5.2188-1.3828 1.3867-3.2578 2.1641-5.2148 2.1641z" fill="#d2d2d2"/>
  <path d="m589.67 390.41c-4.0742 0-7.3789-3.3047-7.3789-7.3828v-1.4766 0.003907c0-4.0781 3.3047-7.3828 7.3789-7.3828 4.0781 0 7.3828 3.3047 7.3828 7.3828v1.4766-0.003906c0 1.957-0.77734 3.8359-2.1641 5.2188-1.3828 1.3867-3.2617 2.1641-5.2188 2.1641z" fill="#d2d2d2"/>
  <path d="m648.71 371.22c-4.0781 0-7.3828-3.3047-7.3828-7.3828v-1.4766c0-4.0742 3.3047-7.3789 7.3828-7.3789 4.0742 0 7.3789 3.3047 7.3789 7.3789v1.4766c0 1.957-0.77734 3.8359-2.1602 5.2188-1.3867 1.3867-3.2617 2.1641-5.2188 2.1641z" fill="#d2d2d2"/>
  <path d="m600 300.37c-4.0742 0-7.3789-3.3008-7.3789-7.3789v-1.4766c0-4.0742 3.3047-7.3789 7.3789-7.3789 4.0781 0 7.3828 3.3047 7.3828 7.3789v1.4766c0 1.957-0.77734 3.8359-2.1641 5.2188-1.3828 1.3828-3.2617 2.1602-5.2188 2.1602z" fill="#d2d2d2"/>
  <path d="m347.61 533.58c-4.0781 0-7.3789-3.3047-7.3789-7.3789v-1.4766c0-4.0781 3.3008-7.3828 7.3789-7.3828 4.0742 0 7.3789 3.3047 7.3789 7.3828v1.4766c0 1.957-0.77734 3.832-2.1602 5.2148-1.3867 1.3867-3.2617 2.1641-5.2188 2.1641z" fill="#d2d2d2"/>
  <path d="m625.09 518.82c-4.0742 0-7.3789-3.3047-7.3789-7.3789v-1.4766c0-4.0742 3.3047-7.3789 7.3789-7.3789s7.3789 3.3047 7.3789 7.3789v1.4766c0 1.957-0.77734 3.8359-2.1602 5.2188-1.3828 1.3828-3.2617 2.1602-5.2188 2.1602z" fill="#d2d2d2"/>
  <path d="m653.14 635.43c-4.0742 0-7.3789-3.3047-7.3789-7.3789v-1.4766c0-4.0781 3.3047-7.3789 7.3789-7.3789 4.0781 0 7.3828 3.3008 7.3828 7.3789v1.4766c0 1.957-0.77734 3.832-2.1641 5.2188-1.3828 1.3828-3.2617 2.1602-5.2188 2.1602z" fill="#d2d2d2"/>
  <path d="m529.15 617.71c-4.0742 0-7.3789-3.3047-7.3789-7.3828v-1.4766 0.003906c0-4.0781 3.3047-7.3828 7.3789-7.3828 4.0781 0 7.3828 3.3047 7.3828 7.3828v1.4766-0.003907c0 1.957-0.77734 3.8359-2.1641 5.2188-1.3828 1.3867-3.2617 2.1641-5.2188 2.1641z" fill="#d2d2d2"/>
  <path d="m839.11 726.94c-4.0742 0-7.3789-3.3047-7.3789-7.3789v-1.4766c0-4.0742 3.3047-7.3789 7.3789-7.3789 4.0781 0 7.3828 3.3047 7.3828 7.3789v1.4766c0 1.957-0.77734 3.832-2.1641 5.2188-1.3828 1.3828-3.2617 2.1602-5.2188 2.1602z" fill="#d2d2d2"/>
  <path d="m670.85 816.97c-4.0781 0-7.3828-3.3008-7.3828-7.3789v-1.4766c0-4.0742 3.3047-7.3789 7.3828-7.3789 4.0742 0 7.3789 3.3047 7.3789 7.3789v1.4766c0 1.957-0.77734 3.8359-2.1641 5.2188-1.3828 1.3828-3.2578 2.1602-5.2148 2.1602z" fill="#d2d2d2"/>
  <path d="m681.18 772.7c-4.0781 0-7.3828-3.3047-7.3828-7.3828v-1.4766 0.003906c0-4.0781 3.3047-7.3828 7.3828-7.3828 4.0742 0 7.3789 3.3047 7.3789 7.3828v1.4766-0.003906c0 1.957-0.77734 3.8359-2.1641 5.2188-1.3828 1.3867-3.2578 2.1641-5.2148 2.1641z" fill="#d2d2d2"/>
  <path d="m552.77 445.02c-4.0742 0-7.3789-3.3008-7.3789-7.3789v-1.4766c0-4.0742 3.3047-7.3789 7.3789-7.3789s7.3789 3.3047 7.3789 7.3789v1.4766c0 1.957-0.77734 3.8359-2.1602 5.2188-1.3828 1.3828-3.2617 2.1602-5.2188 2.1602z" fill="#d2d2d2"/>
  <path d="m659.04 409.6c-4.0781 0-7.3828-3.3047-7.3828-7.3789v-1.4766c0-4.0781 3.3047-7.3828 7.3828-7.3828 4.0742 0 7.3789 3.3047 7.3789 7.3828v1.4766c0 1.957-0.77734 3.832-2.1602 5.2148-1.3867 1.3867-3.2617 2.1641-5.2188 2.1641z" fill="#d2d2d2"/>
  <path d="m380.08 414.02c-4.0781 0-7.3828-3.3008-7.3828-7.3789v-1.4766c0-4.0742 3.3047-7.3789 7.3828-7.3789 4.0742 0 7.3789 3.3047 7.3789 7.3789v1.4766c0 1.957-0.77734 3.8359-2.1602 5.2188-1.3867 1.3828-3.2617 2.1602-5.2188 2.1602z" fill="#d2d2d2"/>
  <path d="m486.35 390.41c-4.0742 0-7.3789-3.3047-7.3789-7.3828v-1.4766 0.003907c0-4.0781 3.3047-7.3828 7.3789-7.3828 4.0781 0 7.3828 3.3047 7.3828 7.3828v1.4766-0.003906c0 1.957-0.77734 3.8359-2.1641 5.2188-1.3828 1.3867-3.2617 2.1641-5.2188 2.1641z" fill="#d2d2d2"/>
  <path d="m743.18 307.75c-4.0781 0-7.3828-3.3047-7.3828-7.3828v-1.4727c0-4.0781 3.3047-7.3828 7.3828-7.3828 4.0742 0 7.3789 3.3047 7.3789 7.3828v1.4766-0.003906c0 1.957-0.77734 3.8359-2.1641 5.2188-1.3828 1.3867-3.2578 2.1641-5.2148 2.1641z" fill="#d2d2d2"/>
  <path d="m492.25 904.06c-4.0781 0-7.3789-3.3047-7.3789-7.3789v-1.4766c0-4.0781 3.3008-7.3789 7.3789-7.3789 4.0742 0 7.3789 3.3008 7.3789 7.3789v1.4766c0 1.957-0.77734 3.832-2.1602 5.2188-1.3867 1.3828-3.2617 2.1602-5.2188 2.1602z" fill="#d2d2d2"/>
  <path d="m529.68 363.22c-8.668-0.003906-16.84-4.0391-22.117-10.918-5.2734-6.875-7.0508-15.816-4.8047-24.188 2.2461-8.375 8.2578-15.227 16.27-18.539 8.0078-3.3164 17.102-2.7188 24.609 1.6172 7.5039 4.3359 12.566 11.918 13.695 20.512 1.1289 8.5938-1.8008 17.223-7.9336 23.352-5.2188 5.2422-12.32 8.1797-19.719 8.1641zm14.496-13.371m-14.496-27.617v-0.003906c-6.2578 0.007812-11.645 4.4336-12.859 10.574-1.2148 6.1406 2.0742 12.285 7.8594 14.676s12.453 0.36328 15.926-4.8438c3.4766-5.207 2.7891-12.145-1.6406-16.566-2.4609-2.4648-5.8008-3.8477-9.2852-3.8398z" fill="#d2d2d2"/>
  <path d="m894.76 504.61c-6.793 0.14844-13.492-1.6289-19.32-5.125-3.375-2.2852-4.2539-6.875-1.9688-10.25s6.875-4.2578 10.25-1.9688c0.45703 0.29688 7.7656 4.707 19.633 1.3125 7.0742-1.957 12.918-6.9609 15.938-13.652 1.3906-3.832 5.6172-5.8125 9.4492-4.4297 1.8477 0.66797 3.3555 2.043 4.1875 3.8242s0.91797 3.8203 0.23828 5.668c-4.6719 11.09-14.133 19.453-25.711 22.73-4.1211 1.2188-8.3945 1.8555-12.695 1.8906z" fill="#d2d2d2"/>
  <path d="m473.33 816.53c-5.8359 0.10547-11.598-1.3203-16.711-4.1328-6.7031-3.7969-11.68-10.035-13.887-17.418-0.87891-3.8711 1.4648-7.7461 5.3047-8.7617 3.8398-1.0195 7.7969 1.1836 8.9531 4.9844 1.2422 3.5859 3.7578 6.5898 7.0703 8.4414 4.9883 2.7305 11.809 2.832 20.473 0.32422 2.6562-0.97266 14.199-5.9023 10.332-17.371-1.2344-3.8438 0.85156-7.9688 4.6797-9.25 3.8281-1.2852 7.9766 0.74609 9.3125 4.5586 6.4492 19.188-8.2227 32.102-19.66 36.059l-0.30859 0.10156h-0.003906c-5.0391 1.5625-10.277 2.3906-15.555 2.4648z" fill="#d2d2d2"/>
  <path d="m573.62 790.01c-3.4648-0.003906-6.4609-2.418-7.2031-5.8008-0.73828-3.3828 0.97266-6.8281 4.1172-8.2812 6.5391-2.9531 10.715-7.0273 12.414-11.91 2.6289-7.6328-1.2109-15.484-1.2383-15.559-1.8672-3.6211-0.44531-8.0742 3.1797-9.9414 3.625-1.8633 8.0742-0.44141 9.9414 3.1836 0.28125 0.54688 6.7734 13.461 2.0664 27.113-3.0547 8.8555-9.8438 15.719-20.191 20.488-0.96484 0.45312-2.0195 0.69531-3.0859 0.70703z" fill="#d2d2d2"/>
  <path d="m412.9 721.38c0-0.79688-1.3438-19.633 21.344-30.449 19.691-9.4023 33.227-0.25 37.637 5.9023l-12.016 8.5898 0.089843 0.11719c-0.60547-0.78125-6.3906-7.4844-19.352-1.3008-12.961 6.1836-13.02 15.086-12.973 16.09v-0.16406z" fill="#d2d2d2"/>
  <path d="m299 645.52c-4.2773-0.023438-8.4688-1.2188-12.117-3.457-5.125-2.9609-8.7539-7.9531-9.9922-13.738-2.0078-10.566 5.9023-17.371 10.332-19.484l6.3477 13.285h0.11719c-0.45703 0.23438-2.6875 1.4766-2.3164 3.4375h-0.003906c0.45312 1.6875 1.5703 3.1172 3.1016 3.957 1.7461 1.1289 3.8672 1.5273 5.9023 1.1055 3.9062-1.1758 8.0234 1.0391 9.1953 4.9453 1.1758 3.9023-1.0391 8.0195-4.9414 9.1953-1.832 0.51562-3.7227 0.76953-5.625 0.75391z" fill="#d2d2d2"/>
  <path d="m735.79 807.66c-3.957 0.003906-7.2109-3.1133-7.3789-7.0703 0-1.2266-0.33984-12.207 7.8359-19.645 5.625-5.1211 13.43-7.0117 23.203-5.625 4.0234 0.58984 6.8086 4.3203 6.2344 8.3438-0.57031 4.0234-4.2891 6.8242-8.3125 6.2695-5.1641-0.73828-8.8555-0.10156-11.145 1.8906-3.1133 2.7734-3.0703 8.1016-3.0703 8.1484 0.17578 4.0586-2.9648 7.4961-7.0273 7.6875z" fill="#d2d2d2"/>
  <path d="m805.39 902.58c-13.285 0-23.617-3.7031-30.746-10.996-5.875-6.0742-9.2109-14.16-9.3281-22.613 0.03125-1.957 0.83984-3.8203 2.2461-5.1836 1.4062-1.3594 3.2969-2.1094 5.2539-2.0781 4.0742 0.066406 7.3281 3.4219 7.2617 7.5 0 3.1445 1.2695 18.613 25.312 18.613 11.07 0 18.629-3.9102 23.129-11.969v-0.003907c2.0859-3.8203 3.3555-8.0312 3.7188-12.367 0.12891-4.0781 3.5352-7.2773 7.6094-7.1523 4.0781 0.125 7.2773 3.5312 7.1523 7.6094-0.42969 13.371-9.668 38.641-41.609 38.641z" fill="#d2d2d2"/>
  <path d="m436.16 498.16c-4.0742 0-7.3789-3.3047-7.3789-7.3789v-1.4766c0-4.0742 3.3047-7.3789 7.3789-7.3789 4.0781 0 7.3828 3.3047 7.3828 7.3789v1.4766c0 1.957-0.77734 3.8359-2.1641 5.2188-1.3828 1.3828-3.2617 2.1602-5.2188 2.1602z" fill="#d2d2d2"/>
 </g>
</svg>
