<?xml version="1.0" encoding="UTF-8"?>
<svg width="1200pt" height="1200pt" version="1.1" viewBox="0 0 1200 1200" xmlns="http://www.w3.org/2000/svg">
 <path d="m927.12 361.11c14.328-37.367 15.125-35.863-13.109-66.719v0.003906c-56.418-61.562-116.05-120.11-178.64-175.38-7.5625-6.6914-14.391-13.227-24.918-11.273h0.003907c-7.5273-0.77734-15.043 1.5508-20.809 6.4453-28.152 20.969-60.527 34.348-91 51.164-24.035 13.262-50.688 22.957-72.238 38.965-41.656 30.945-75.277 71.289-110.03 109.65-55.516 61.277-107.29 125.96-163.35 186.71-17.484 18.941-17.312 31.988-5.9414 52.055 62.297 109.95 122.51 221.1 186.05 330.32 26.516 45.582 43.863 95.895 74.691 139 5.5625 7.7773 9.6992 16.617 20.992 18.621 40.574 7.2031 81.324 13.746 121.48 22.859 43.738 9.9258 89.984 7.9141 131.65 27.926l-0.003906 0.003906c3.0742 1.1562 6.4375 1.2812 9.5898 0.35938 3.1484-0.92578 5.9141-2.8516 7.8711-5.4844 39.938-41.098 80.219-81.859 120.39-122.73 3.3516-3.5898 5.4805-8.1484 6.0938-13.023 0.61328-4.875-0.32422-9.8164-2.6836-14.125-32.551-82.844-64.066-166.1-91.062-250.9-8.9258-28.039-28.605-54.965-13-87.918 37.098-78.32 76.859-155.4 107.97-236.53zm-25.859-51.25c4.3516 10.895-8.9766 10.328-15.543 12.859-43.684 16.852-87.512 33.324-131.35 49.766-4.0938 1.4062-8.2695 2.5586-12.508 3.4492-9.0391 0.92969-14.285 0.46094-15.984-5.1055-1.7773-5.8203 2.9766-8.6172 7.4453-10.613 44.137-19.734 88.309-39.395 132.51-58.988 3.7461-1.5195 7.6172-2.7227 11.566-3.5977 4.7812-1.0977 9.7969-0.47266 14.16 1.7656 4.3672 2.2383 7.8047 5.9453 9.707 10.465zm11.762 16.117c-34.488 34.18-80.574 43.121-122.48 60.887-10.414 4.4141-21.246 7.8711-31.957 11.57-4.7812 1.6523-10.301 2.2188-12.863-2.9141-3.043-6.0977 2.7148-8.9805 6.8711-10.527 53.406-19.848 106.93-39.395 160.42-59.016zm-49.195-49.812c11.02 16.07-8.1875 15.598-15.516 19.062-40.805 19.297-82.141 37.469-123.29 56.031-4.3477 1.9609-8.6836 3.9492-10.824 4.9219-3.543 1.0273-7.3398 0.76562-10.707-0.73828-3.3711-1.5078-6.0938-4.1641-7.6875-7.4922-3.6289-7.1328 2.3906-10.117 7.0508-13.121 41.398-26.707 82.363-54.141 124.5-79.633 21.254-12.859 28.574 9.4453 36.477 20.969zm-40.117-43.211c6.5586 13.145-9.7617 15.406-17.199 20.402-32.164 21.602-65.344 41.699-97.387 63.473-28.723 19.516-28.281 20.168-53.109-7.3633h0.003906c42.93-31.453 87.605-60.449 133.81-86.848 5.5938-4.2227 12.871-5.5117 19.574-3.4648 6.7031 2.0469 12.023 7.1758 14.305 13.805zm-44.43-44.176c2.5039 5.5391 8.6172 9.4492 14.434 15.531-34.59 22.34-68.434 44.223-102.3 66.066-12.891 8.3125-25.977 16.332-38.734 24.844-22.398 14.953-28.398-7.8516-37.23-18.051-10.75-12.422 5.2305-15.445 12.23-20.059 37.832-24.949 76.387-48.824 113.8-74.379 15.926-10.875 27.871-15.938 37.805 6.0469zm-30.953-33c5.8594 10.379-5.625 11.973-10.379 15.137-40.383 26.875-81.227 53.062-121.96 79.41-4.7148 3.0508-9.6016 5.8281-14.059 8.5234-7.6875-3.5391-14.039-9.4492-18.125-16.859-5.0742-8.0859 2.5898-12.289 7.7031-15.109 45.367-25.012 87.262-56.312 136.29-74.773 8.6836-3.2734 15.727-4.832 20.527 3.6758zm-178.85 46.129c30.781-19.375 66.484-29.742 95.777-51.746v0.007812c12.285-7.7305 25.215-14.379 38.648-19.871 3.8008-2.9141 8.7891-3.7773 13.348-2.3047 4.5586 1.4688 8.1055 5.0859 9.4844 9.6719-50.77 20.406-93.344 51.516-139.18 76.73-2.8242 1.5547-5.2461 3.9336-8.1758 5.1758-6.5039 2.7578-13.625 7.5547-18.969-1.6484-5.8828-10.133 3.3672-12.426 9.0625-16.012zm134.17 803.2c-48.203 0-94.613-6.4141-138.11 2.082-33.262 6.4961-42.148-4.1875-57.734-28.434-36.152-56.246-59.273-118.59-90.359-177.08-44.066-82.914-82.828-168.73-135.49-246.93-11.609-17.242-17.254-31.441 1.2266-50.785 77.773-81.422 142.63-174.18 221.42-254.88 16.344-16.742 28.211-17.715 47.078-2.2734 38.516 31.527 70.152 69.512 105.25 104.2 21.391 21.137 40.746 45.336 70.59 56.301 9.6445 3.543 11.023 9.668 8.9492 21.012l-0.003906 0.003906c-14.234 74.648-33.664 148.21-58.148 220.16-5.6445 15.406-4.5352 32.48 3.0586 47.027 13.227 28.684 24.461 58.242 33.625 88.469 14.785 41.84 30.262 83.516 47.562 124.36 10.738 25.355 8.6094 44.734-14.383 61.461v0.003906c-11.461 9.0117-22.359 18.719-32.633 29.062-4.3867 4.1016-8.4844 7.668-11.902 6.2344zm25.391 11.309v0.003906c-1.5703-1.3789-2.4102-3.4062-2.2812-5.4883s1.2148-3.9883 2.9375-5.1641c2.6055-2.1445 6.4336-1.8828 8.7188 0.59766 21.086 16.473 37.332 38.254 60.402 52.867-30.496-3.5391-47.57-27.234-69.777-42.812zm96.031 17.566c-3.0078 9.1328-11.043 10.156-19.965 6.25-23.461-10.277-37.07-31.785-55.328-48.379 17.938-3.3711 24.328 13.461 37.285 18.648 8.9219 3.5703 17.113 8.957 25.691 13.414 4.9297 2.5664 15.715-0.25391 12.312 10.066zm-2.9766-22.473h-0.003906c-17.266-6.5547-33.562-15.426-48.441-26.367-3.7891-3.1523-10.348-6.9727-4.7617-13.676 4.293-5.1484 7.6523-1.168 12.066 1.1875v0.003907c22.43 11.965 46.473 20.625 71.383 25.703-7.6719 15.52-16.277 19.461-30.246 13.148zm22.465-54.602c14.105 1.4141 28.465 0.30859 42.711 0.30859-9.3398 11.555-14.598 28.109-27.625 27.855h-0.007813c-23.266-2.2656-45.883-8.9453-66.652-19.676-2.4297-1.0273-5.793-5.4961-5.207-7 2.2773-5.8438 7.3672-6.8672 13.75-6.9609h0.003906c14.434 0.98438 28.801 2.8125 43.023 5.4727zm-43.094-370.18c-16.008 40.27-54.406 44.438-87.406 57.504-7.832 3.1016-9.6875-2.875-8.3438-9.6719 5.0117-25.336 10.059-50.66 15.145-75.98 0.77344-2.3008 1.7266-4.5352 2.8516-6.6836 0.33594-1.1875 1.1602-2.1797 2.2734-2.7266-0.046875-0.65234-0.10547-1.3086-0.10547-1.957v-1.0234c0.003906-4.0938 0.85156-8.1484 2.4961-11.902 0.28125-2.3516 0.80859-4.668 1.5742-6.9141 0.070313-0.69531 0.20313-1.3867 0.39453-2.0586 9.4727-33.379 14.457-68.91 29.48-99.535 10.18-20.762 37.324-26.863 61.562-29.832 0.58203-0.16406 1.1562-0.33594 1.7656-0.46875 22.766-19.613 52.961-21.406 77.738-36.199l3.8672 4.6758c-7.6992 16.305-14.941 32.844-23.184 48.867-29.223 56.816-56.52 114.55-80.109 173.91z"/>
</svg>
