<?xml version="1.0" encoding="UTF-8"?>
<svg width="1200pt" height="1200pt" version="1.1" viewBox="0 0 1200 1200" xmlns="http://www.w3.org/2000/svg">
 <path d="m592.36 399.14-104.96 263.21c-0.53906 1.3477-1.4727 2.5352-2.6562 3.3711-1.1836 0.83594-2.6133 1.3242-4.0625 1.3789-1.4492 0.074219-2.9141-0.31641-4.1602-1.0547-1.2461-0.74219-2.2734-1.8516-2.9141-3.1523l-49.984-101.37-109.55 239.33 101.75-125.85c0.80859-1 1.8789-1.7891 3.0781-2.2695 1.1953-0.47656 2.5156-0.64063 3.793-0.46875 1.2773 0.16797 2.5078 0.67187 3.5391 1.4453s1.8594 1.8125 2.3789 2.9922l50.523 114.38 116-283.12c0.51953-1.2656 1.3906-2.3867 2.4922-3.2031 1.1016-0.81641 2.4258-1.3242 3.7891-1.4531s2.7617 0.12109 3.9961 0.71875c1.2344 0.59375 2.3008 1.5312 3.0469 2.6797l122.55 188.11 71.141-116.67c0.58594-0.95703 1.3867-1.7852 2.3281-2.3984 0.94141-0.61328 2.0195-1.0117 3.1328-1.1602 1.1133-0.14844 2.2578-0.046875 3.3281 0.30469 1.0664 0.34766 2.0586 0.9375 2.8711 1.7109l72.133 68.555-79.328-141.4-66.516 104.79c-0.67578 1.0625-1.625 1.9531-2.7305 2.5625-1.1055 0.61328-2.3633 0.9375-3.625 0.9375-1.2617 0.003906-2.5234-0.31641-3.6328-0.91406-1.1094-0.60547-2.0625-1.4844-2.7461-2.5469z" fill-rule="evenodd"/>
</svg>
