<?xml version="1.0" encoding="UTF-8"?>
<svg width="1200pt" height="1200pt" version="1.1" viewBox="0 0 1200 1200" xmlns="http://www.w3.org/2000/svg">
 <path d="m1019.2 601.5-108.94-413.25c-1.6875-6.1875-6.5625-11.25-12.75-13.125-6.375-1.875-13.125-0.375-18 3.9375-109.5 97.688-225.75 82.875-261.75 75.188l-21.938-83.25c-1.875-6.75-7.3125-12-14.25-13.5-142.69-30.75-240.94 27-283.69 60.75l-3.75-14.25c-6.5625-25.5-29.625-43.312-56.062-43.312-5.25 0-10.125 0.75-14.625 1.875-15 3.9375-27.375 13.312-35.25 26.625-7.875 13.5-10.125 29.062-6.1875 44.25l204.19 774.56c6.9375 25.875 30.562 43.125 56.25 43.125 4.6875 0 9.5625-0.5625 14.438-1.875h0.1875c15-4.125 27.75-13.688 35.438-27.188s9.75-28.875 5.8125-43.5l-81-307.5c17.625-15.75 67.5-54.188 142.5-67.125l24.75 78.375c2.0625 6.5625 7.5 11.438 14.062 12.75 5.0625 0.9375 60.75 12.375 133.69 12.375 88.125 0 201.56-16.5 281.06-87.188 5.25-4.6875 7.5-12 5.8125-18.75zm-557.25 386.62c1.5 5.0625 0.75 10.5-1.875 15.188-2.8125 4.6875-7.3125 8.25-12.75 9.5625-10.688 2.8125-21.938-3.75-24.75-14.438l-204.19-774.56c-1.5-5.4375-0.75-10.875 2.0625-15.562s7.125-8.0625 12.562-9.5625c1.5-0.375 3.1875-0.5625 5.0625-0.5625 9.375 0 17.438 6.1875 19.688 15.375z"/>
</svg>
