<?xml version="1.0" encoding="UTF-8"?>
<svg width="1200pt" height="1200pt" version="1.1" viewBox="0 0 1200 1200" xmlns="http://www.w3.org/2000/svg">
 <g>
  <path d="m221 1074.2c4 3.8008 9 5.8008 14.199 5.8008 5 0 10.199-2 14.199-5.8008l206.2-206.2c7.8008-7.8008 7.8008-20.602 0-28.398l-1.8008-1.8008 292.4-292.2-91.801-91.801-292.2 292.4-1.8008-1.8008c-7.6016-7.3984-20.801-7.3984-28.398 0l-206.2 206.2c-3.6016 3.7969-5.8008 9-5.8008 14.199 0 5.3984 2.1992 10.398 5.8008 14.199z"/>
  <path d="m963.2 328.6c7.8008-7.8008 7.8008-20.398 0-28.199l-63.602-63.602c-7.8008-7.8008-20.398-7.8008-28.199 0l-5.1992 5.1992 91.801 91.801z"/>
  <path d="m321.6 158c126.2 61.199 241.2 136 342.4 223-3 3.6016-4.6016 8-4.6016 12.801 0 5.3984 2 10.398 5.8008 14.199l126.8 126.8c4 4 9 5.8008 14.199 5.8008 4.6016 0 9-1.3984 12.602-4.6016 87.199 101.2 162.2 216.2 223.2 342.4 3.3984 7 10.398 11.199 18 11.199 1.8008 0 3.3984-0.19922 5.1992-0.60156 9.1992-2.3984 15.398-11.199 14.801-20.801-12.801-183.4-60.398-335.2-141.6-451.4l8.8008-8.8008c7.8008-7.8008 7.8008-20.602 0-28.398l-126.8-126.8c-7.8008-7.8008-20.602-7.8008-28.398 0l-8.8008 8.8008c-116.2-81.199-268-128.8-451.4-141.6-9.3984-0.60156-18.398 5.6016-20.801 14.801-2.3984 9.3984 2 19 10.602 23.199z"/>
 </g>
</svg>
