<?xml version="1.0" encoding="UTF-8"?>
<svg width="1200pt" height="1200pt" version="1.1" viewBox="0 0 1200 1200" xmlns="http://www.w3.org/2000/svg">
 <g>
  <path d="m958.8 686.88c-40.801-46.559-89.52-82.078-135.84-121.2-62.879-50.398-143.04 41.762-182.88 89.281-101.28 123.12-234.96 201.6-384.96 222.24-12.719 2.1602-12.719 24 1.4414 24 131.76-1.1992 258.48-33.84 377.04-100.32 55.199-31.68 95.52-87.121 148.56-123.84 13.918-10.801 59.52-39.84 72.238-39.84 38.398 0 72.719 29.039 100.32 53.762 2.6406 3.1172 6.9609-1.1992 4.082-4.082z"/>
  <path d="m692.64 623.52c-10.801-26.879-32.402-52.559-47.52-76.559-16.801-27.602-39.84-52.801-64.801-71.52-24.719-17.762-50.398-27.602-79.922-30.48-37.441-3.8398-69.359 16.801-100.32 39.602-115.68 86.398-209.04 204.48-349.2 247.2-10.801 3.8398-8.8789 21.602 2.3984 20.641 120-5.0391 238.08-57.359 343.2-117.84 27.602-16.801 55.199-35.039 83.039-52.801 19.199-11.762 37.922-24.961 60.48-21.602 28.078 4.8008 53.039 19.68 76.801 33.602 23.281 12.719 43.441 32.637 66.965 43.438 7.918 3.1211 11.52-7.918 8.8789-13.68z"/>
  <path d="m473.76 534.96c30.48-52.559 81.121-96 121.92-137.52 42.477-43.68 90.715-95.281 152.64-98.16 79.199-5.0391 131.76 86.879 179.52 142.8 26.879 31.68 58.559 58.316 90.961 80.398 34.801 23.52 89.52 51.359 131.28 51.359 6.9609 0 8.8789 13.199 0.96094 14.16-14.16 1.6797-26.641 8.6406-41.758 10.559-21.121 1.9219-39.84 3.1211-60.48 0.96094-38.879-2.8789-76.32-14.641-112.08-32.641-69.359-33.598-107.28-102-165.36-151.68-18.238-14.879-37.918-36.719-61.918-38.879-29.52-1.9219-62.398 14.16-87.121 29.039-56.641 34.559-91.441 94.078-141.6 135.6-4.3203 4.0781-11.277-0.72266-6.957-6z"/>
 </g>
</svg>
