<?xml version="1.0" encoding="UTF-8"?>
<svg width="1200pt" height="1200pt" version="1.1" viewBox="0 0 1200 1200" xmlns="http://www.w3.org/2000/svg">
 <path d="m768.38 100.81c16.234-0.11719 31.914 5.8906 43.914 16.828 57.195 58.32 126.42 104.12 175.71 170.77 17.27 23.355 27.59 41.594 13.98 73.734-13.426 37.07-21.465 75.875-23.871 115.23-5.832 53.395-23.09 104.64-28.277 157.7-8.4414 86.336-38.488 168.64-44.809 255.09h-0.003906c-2.7578 16.172-10.199 31.176-21.406 43.16-32.664 44.383-51.094 96.098-78.395 143.11-13.723 23.629-23.207 28.766-47.598 15.809-43.5-23.105-84.539-51.309-129.23-71.594-65.203-29.594-116.18-81.531-181.22-110.42v-0.003907c-22.906-11.75-41.316-30.703-52.395-53.945-43.262-76.656-88.973-151.97-128.7-230.66-16.652-32.984-38.902-63.074-54.727-96.699v-0.003906c-0.69922-1.5-1.6289-2.8867-2.75-4.1055-22.102-23.617-22.742-31.328-0.33203-57.148 63.34-72.969 127.29-145.4 190.78-218.24 16.238-18.629 31.934-37.754 47.379-57.051l0.003907-0.003906c7.3906-8.8594 17.449-15.082 28.672-17.742 65.398-19.344 132.76-30.164 198.77-46.75 31.766-7.9844 63.023-17.996 94.512-27.086zm30.805 670.1c-1.4922 1.9688-3.0312 3.9062-4.4688 5.9141-6.0508 8.4375-12.172 19.016-2.7734 26.582 10.477 8.4336 14.879-5.5938 20.93-10.789 26.895-23.09 52.16-48.254 80.336-69.602 9.5898-6.2188 17.117-15.145 21.633-25.645 4.5195-10.496 5.8203-22.102 3.7461-33.34-45.148 32.082-77.473 75.879-120.16 107.66-2.3008-7.6562 2.6562-12.508 7.0352-17.328v0.003907c27.039-31.051 56.25-60.141 87.406-87.055 12.512-10.613 23.824-22.559 33.746-35.625 3.8789-5 7.457-15.211 1.3945-20.793-8.1289-7.4844-13.207 3.1602-17.746 7.2422-38.547 34.691-76.406 70.145-114.76 105.06-16.875 15.363-15.898 31.809 3.6836 47.711zm-345.38-115.84c18.887-8.293 40.105-2.7812 60.41-7.5 56.227-13.059 113.09-23.441 169.18-37.008 31.016-7.5 66.617-5.1484 87.906-37.559 23.641-35.996 57.766-63.047 84.34-96.949 37.906-48.355 80.191-93.285 120.88-139.44 6.5703-7.4531 6.6406-11.906 0.5-20.891-15.316-22.398-37.758-36.562-56.734-54.68-37.648-35.938-74.367-72.852-111.38-109.45v0.003906c-7.7227-8.9219-17.941-15.324-29.336-18.383-11.395-3.0625-23.445-2.6406-34.598 1.2109-61.773 17.305-125.45 27.867-187.12 45.473-51.066 14.574-100.64 31.941-137.51 76.664-61.738 74.898-127.98 146.07-192.08 219.04-8.1836 9.3164-12.973 17.145-0.60937 30.477 29.277 31.57 69.434 46.957 101.84 73.812 32.871 27.246 75.121 41.141 107.59 69.781l0.003906 0.003906c4.5234 4.1484 10.633 6.1172 16.727 5.3906zm319.24 218.79c-1.1406-35.43-5.0703-70.551-7.8945-105.77-3.2969-41.137-16.059-81.031-14.98-122.38 0.57812-22.25-8.6367-28.609-28.535-23.109-43.562 12.039-89.625 13.727-131.56 32.676-26.805 12.113-61.926 0.12891-83.34 28.395-43.086-9.8984-15.836 14.418-12.301 26.094l-0.003906-0.003906c4.2461 9.8789 10.383 18.836 18.062 26.367 34.707 42.758 70.16 84.996 103.07 129.12 44.625 59.828 86.828 121.45 131.02 181.61 6.0898 8.2891 11.547 24.715 24.328 19.93 8.9961-3.3672 0.5-17.738 1.5977-27.168 1.4961-7.3125 1.6484-14.836 0.45703-22.203-8.1328-30.492 16.77-66.055-14.199-92.996-0.38281-1.4531-0.0625-3.0039 0.87109-4.1875 24.773-9.8398 8.6094-30.992 13.41-46.367zm13.656-157.28c46.574-44.359 91.828-87.43 137.04-130.55 13.289-12.676 23.168-26.68 17.902-47.074h0.003906c-7.2695 2.6055-13.77 6.9922-18.906 12.758-44.48 38.258-82.793 82.875-126.24 122.11-13.395 12.094-19.301 23.461-9.7891 42.758zm119.16 14.391h0.003906c-7.9102 4.7695-15.523 10.016-22.801 15.703-25.957 22.918-50.434 47.66-77.57 69.047-16.602 13.082-13.953 24.633-5.582 40.871 29.766-26.902 57.16-54.367 87.523-78.023h0.003906c7.9375-4.7461 14.059-12.008 17.398-20.629 3.3398-8.625 3.6992-18.117 1.0273-26.969zm45.758-246.84c-58.172 56.68-111.83 108.87-165.32 161.22-5.8242 5.7031-13.578 13.594-5.2578 20.848 7.8438 6.8359 12.57-3.6719 17.414-8.4414 38.055-37.461 74.277-76.707 112.96-113.63 15.324-14.621 39.652-25.703 40.207-59.992zm-151.95 425.49c8.8086-4.125 16.379-10.496 21.949-18.469 17.254-20.871 35.859-40.586 55.695-59.016 13.551-11.078 20.848-20.398 17.379-37.762v-0.003906c-9.2305 1.582-17.621 6.3398-23.715 13.449-17.609 18.441-36.352 35.766-56.117 51.875-8.2383 4.9922-14.344 12.848-17.145 22.059-2.8047 9.2148-2.1094 19.137 1.9531 27.867zm82.73-23.891c-32.855 25.434-53.797 60.113-76.91 92.695-4.3555 6.9883-6.2695 15.227-5.4492 23.418 0.82031 8.1953 4.332 15.887 9.9883 21.871 23.391-47.875 55.516-88.875 72.367-137.98zm-79.473 71.215c27.84-30.598 45.039-68.34 83.176-85.406 2.9453-1.3203 4.5195-6.8281 5.6953-10.703 1.6094-5.2969 6.4414-12.023 1.2617-16.152-6.293-5.0195-12.34 0.65234-16.758 5.3672-24.273 25.914-48.41 51.957-72.414 78.121-7.0586 7.6562-6.957 16.227-0.96484 28.777zm159.09-516.83c-56.863 47.641-104.46 103.88-153.31 158.96 52.508-51.711 111.79-96.906 153.31-158.96z"/>
</svg>
