<?xml version="1.0" encoding="UTF-8"?>
<svg width="1200pt" height="1200pt" version="1.1" viewBox="0 0 1200 1200" xmlns="http://www.w3.org/2000/svg">
 <path d="m1e3 571.8c-40.793-47.512-93.34-97.18-153.81-97.18-52.309-58.547-201.08-197.24-225.8-191.48-29.031 6.957-54.949 34.793-77.262 54.707-27.836 23.516-48.711 55.43-68.387 86.145-20.156 31.672-37.914 64.547-64.785 92.383-27.594 27.836-69.348-2.1602-95.98-19.918-22.078-15.117-53.512-2.8789-66.711 18.957-57.109 93.34-192.92 278.82-191.24 280.5 0.96094 66.227 244.99 120.94 544.93 120.94 239.47 0 441.51-35.031 515.9-81.344 13.676-10.078 22.555-18.957 26.633-28.793 2.1641-3.6016-92.859-176.37-143.49-234.92zm-710.98 114.46c-1.918-18.957-22.074-32.152-38.391-26.875 11.758-19.918 22.555-39.832 36.473-57.59 1.918-0.96094 3.8398-3.1211 6-4.0781 22.555 11.996 45.352 17.758 68.387 18.957-19.441 29.516-43.438 56.148-72.469 69.586zm588.12-27.832c-6.957-6.957-18.715 0-15.836 9.8398 3.3594 6.7148 5.0391 14.633 7.918 22.551-3.8398-0.95703-7.918-0.95703-11.758-1.6797-20.156-1.918-40.793-4.0781-61.906-6h-2.8789c-13.918-2.3984-29.758-3.3555-44.395-4.0781 4.8008 24.234 9.8398 47.512 11.758 69.586-6-6-11.758-11.039-16.797-16.797-17.758-16.797-33.832-35.512-48.23-54.469-14.156-16.797-25.676-34.793-37.914-52.789-47.027-67.426-88.301-161.01-49.906-237.31 51.59 68.387 121.41 120.21 179.48 182.84 2.8789 2.6406 7.1992 5.7617 10.797 7.6797 29.992 31.914 72.707 55.668 95.742 94.062-5.2812-3.6016-10.801-8.8789-16.078-13.438z"/>
</svg>
