<?xml version="1.0" encoding="UTF-8"?>
<svg width="1200pt" height="1200pt" version="1.1" viewBox="0 0 1200 1200" xmlns="http://www.w3.org/2000/svg">
 <path d="m567.6 130.8c-200.4 4.8008-357.6 152.4-357.6 326.4v597.6c0 7.1992 8.3984 10.801 15.602 7.1992 16.801-8.3984 44.398-14.398 76.801-14.398 38.398 0 70.801 8.3984 85.199 19.199 3.6016 3.6016 9.6016 3.6016 14.398 0 13.199-12 46.801-19.199 85.199-19.199 38.398 0 70.801 8.3984 85.199 19.199 3.6016 3.6016 9.6016 3.6016 14.398 0 13.199-12 46.801-19.199 85.199-19.199 38.398 0 70.801 8.3984 85.199 19.199 3.6016 3.6016 9.6016 3.6016 14.398 0 13.199-12 46.801-19.199 85.199-19.199 32.398 0 60 6 76.801 14.398 7.1992 3.6016 15.602-1.1992 15.602-7.1992l0.003907-604.8c-3.5977-178.8-174-324-381.6-319.2zm-164.4 404.4c-32.398-22.801-40.801-68.398-18-100.8l118.8 84c-22.801 31.203-67.199 39.602-100.8 16.801zm349.2 0c-32.398 22.801-78 15.602-100.8-18l118.8-84c22.801 33.602 14.402 79.199-18 102z" fill="#4c25e0"/>
</svg>
