<?xml version="1.0" encoding="UTF-8"?>
<svg width="1200pt" height="1200pt" version="1.1" viewBox="0 0 1200 1200" xmlns="http://www.w3.org/2000/svg">
 <path d="m1130.9 827.76c-18.48-16.801-37.68-31.68-56.398-47.52-19.199-17.762-30.238-45.602-50.398-64.559-18.719-18.719-40.559-24-58.801-45.359-12-15.125-17.52-35.043-31.203-48.723-11.52-11.043-24.957-12.961-38.156-6.7227-23.281 12.48-32.641 2.6406-49.922-19.199-31.441-39.602-64.078-81.121-83.281-130.8-2.6406-8.1602-8.6406-11.758-15.84-6.957-19.441 12-30.961 28.801-37.922 50.641-23.277-50.641-19.676-129.84-74.398-149.04-27.84-8.8789-55.199-0.96094-77.758 15.84-35.52 26.16-41.039 79.68-68.402 112.32-14.879 18.719-32.398 18.719-47.758 34.559-18.719 18-38.879 35.762-56.879 54.723-22.562 23.758-33.84 49.438-67.922 47.758-19.68 0-38.16-6-57.602-5.0391-37.199 1.9219-67.438 57.359-87.598 88.082-31.199 50.637-54.48 99.117-103.92 129.84-0.96094 0 0 3.1211 2.1602 2.1602 33.602-15.84 60.48-39.84 85.199-70.32 12-14.883 23.523-29.762 36.723-44.641 20.879-24.961 37.922-35.52 68.16-35.52 17.039 0 32.879 2.8789 49.922 4.8008 20.879 3.3594 38.398-11.762 54-24.719-3.6016 8.6367-7.9219 17.758-11.281 25.676-11.281 27.84-6.9609 63.359-24.242 88.082-2.3984 4.0781 1.6797 8.8789 4.5625 6 13.441-16.801 34.32-22.801 48.961-38.641 14.879-16.801 26.879-33.84 38.16-55.199 19.922-37.922 51.121-78.48 61.199-121.2 3.1211-2.1602 5.2812-4.0781 9.1211-5.0391 8.3984-4.8047 17.035-9.8438 25.676-16.805 1.9219 8.8789 13.199 12 18.238 1.9219 27.359-46.32 46.559-99.121 79.441-141.84 5.2812 10.801 9.3594 23.039 15.359 34.801-0.47656 21.84 4.082 43.68 4.082 65.277 0 31.922-5.2812 61.68-4.5586 93.602 2.3984 66.238 22.559 119.76-10.32 182.4-2.6406 4.8008 3.3594 9.6016 7.1992 6 37.918-50.879 69.121-99.359 74.16-166.08 1.6797-1.9219 2.6406-2.8789 4.3203-4.8008 7.6797-8.8789 13.922-20.16 19.199-31.922 10.32-21.84 23.281-40.559 36-59.281 3.6016 10.082 7.6797 18.965 11.281 27.844-2.3984 5.7617-3.6016 13.922-2.3984 20.879 5.0391 24.961 0 52.559-1.1992 77.281-0.96094 28.801-0.96094 53.52-12.719 80.16-3.1211 6 2.3984 12 7.6797 8.8789 21.602-11.762 43.441-44.641 55.441-71.281 2.6406 0 5.0391-1.1992 6.9609-1.1992 13.441-3.8398 27.359-4.8008 39.602-12.719 12 3.8398 23.52 5.0391 33.602 0 18.469-8.8789 28.309 20.879 38.629 33.84 7.6797 10.801 25.199 19.68 30.238 33.602 4.3242 13.918 11.281 23.039 19.684 31.918 41.762 43.68 85.441 60.48 137.76 82.32 8.1562 2.6406 14.156-9.8398 8.1562-16.078z"/>
</svg>
