<?xml version="1.0" encoding="UTF-8"?>
<svg width="1200pt" height="1200pt" version="1.1" viewBox="0 0 1200 1200" xmlns="http://www.w3.org/2000/svg">
 <g>
  <rect width="1200" height="1200"/>
  <path d="m543.32 496.09c0 17.477-14.168 31.648-31.648 31.648-17.477 0-31.645-14.172-31.645-31.648 0-17.477 14.168-31.645 31.645-31.645 17.48 0 31.648 14.168 31.648 31.645" fill="#fff"/>
  <path d="m762.95 736.03c-6.6133-6.6133-15.113-10.863-24.562-10.863-19.363-0.47266-35.426 15.113-35.895 34.48 0 9.4453 3.3047 18.422 9.918 25.031 6.6133 6.6133 15.113 10.863 24.562 10.863h0.94531c19.363 0 34.953-15.586 35.426-34.48-0.47656-9.4453-4.2539-18.418-10.395-25.031z" fill="#fff"/>
  <path d="m600.47 667.54c-4.7227 0-8.9727-0.47266-13.699-1.418-17.949-3.7773-33.062-14.168-42.98-29.285-9.918-15.113-13.699-33.535-9.918-51.012 3.7773-17.949 14.168-33.062 29.285-42.98 15.113-9.918 33.535-13.699 51.012-9.918 36.84 7.5586 60.457 43.453 52.898 80.293-3.7773 17.949-14.168 33.062-29.285 42.98-11.332 7.5625-24.086 11.34-37.312 11.34zm-0.47266-107.69c-7.5586 0-15.113 2.3633-21.727 6.6133-8.9727 5.668-15.113 14.641-17.004 25.031s0 20.781 5.668 29.758c5.668 8.9727 14.641 15.113 25.031 17.004s20.781 0 29.758-5.668c8.9727-5.668 15.113-14.641 17.004-25.031 4.25-21.254-9.4453-42.508-31.172-46.762-2.3633-0.94531-4.7227-0.94531-7.5586-0.94531z" fill="#fff"/>
  <path d="m588.66 888.12c0-8.0312 6.1406-14.168 14.168-14.168 8.0312 0 14.168 6.1406 14.168 14.168 0 7.5586-6.1406 14.168-14.168 14.168-8.0273-0.46875-14.168-6.6094-14.168-14.168zm-39.672 9.4453c-7.5586-1.418-12.754-8.5-11.809-16.531 1.418-7.5586 8.5-12.754 16.531-11.809 7.5586 1.418 12.754 8.5 11.809 16.531-1.418 7.0859-7.0859 11.809-14.168 11.809-0.94922 0.47266-1.8906 0.47266-2.3633 0zm91.156-12.277c-1.418-7.5586 3.7773-15.113 11.336-16.531 7.5586-1.418 15.113 3.7773 16.531 11.336s-3.7773 15.113-11.336 16.531c-0.94531 0-1.8906 0.47266-2.832 0.47266-6.6133 0-12.281-4.7266-13.699-11.809zm-143.59-1.418c-7.0859-2.832-11.336-10.863-8.5-17.949 2.832-7.5586 10.863-11.336 17.949-8.5 7.5586 2.832 11.336 10.863 8.5 17.949-2.3633 5.668-7.5586 9.4453-13.227 9.4453-1.8867 0-3.3047-0.47266-4.7227-0.94531zm194.12-10.391c-2.832-7.0859 0.94531-15.586 8.0312-18.422 7.0859-2.832 15.586 0.94531 18.422 8.0312 2.832 7.5586-0.94531 15.586-8.0312 18.422-1.8906 0.47266-3.3047 0.94531-5.1953 0.94531-5.668 0.46875-11.336-3.3086-13.227-8.9766zm-243.25-12.754c-6.6133-3.7773-8.9727-12.754-5.1953-19.363 3.7773-6.6133 12.754-8.9727 19.363-5.1953 6.6133 3.7773 8.9727 12.754 5.1953 19.363-2.832 4.7227-7.5586 7.0859-12.281 7.0859-2.3594 0-5.1914-0.47266-7.082-1.8906zm290.48-7.5586c-4.25-6.6133-1.8906-15.586 4.7227-19.363 6.6133-4.25 15.586-1.8906 19.363 4.7227 4.25 6.6133 1.8906 15.586-4.7227 19.363-2.3633 1.418-4.7227 1.8906-7.5586 1.8906-4.2461 0-8.9688-2.3594-11.805-6.6133zm-334.88-24.086c-6.1406-5.1953-6.6133-14.168-1.418-19.836 5.1953-6.1406 14.168-6.6133 19.836-1.418 6.1406 5.1953 6.6133 14.168 1.418 19.836-2.832 3.3047-6.6133 4.7227-10.863 4.7227-2.832 0.47266-6.1367-0.94531-8.9727-3.3047zm377.86-4.7227c-5.1953-5.668-4.7227-14.641 1.418-19.836 5.668-5.1953 14.641-4.7227 19.836 1.418 5.1953 5.668 4.7227 14.641-1.418 19.836-2.832 2.3633-6.1406 3.7773-9.4453 3.7773-3.7812-0.47266-7.5586-1.8906-10.391-5.1953zm-415.64-34.008c-4.7227-6.1406-4.25-15.113 1.8906-19.836 6.1406-4.7227 15.113-3.7773 19.836 1.8906 5.1953 6.1406 4.25 15.113-1.8906 19.836-2.832 2.3633-5.668 3.3047-8.9727 3.3047-3.7773 0-8.0273-1.8906-10.863-5.1953zm452.96-1.8906c-6.1406-4.7227-7.0859-13.699-2.3633-19.836 4.7227-6.1406 13.699-7.0859 19.836-2.3633 6.1406 4.7227 7.0859 13.699 2.3633 19.836-2.832 3.7773-7.0859 5.668-11.336 5.668-2.832 0.003906-5.668-1.4141-8.5-3.3047zm-483.18-42.98c-3.7773-7.0859-1.418-15.586 5.668-19.363 7.0859-3.7773 15.586-1.418 19.363 5.668s1.418 15.586-5.668 19.363c-2.3633 1.418-4.7227 1.8906-7.0859 1.8906-4.7227-0.47266-9.4453-2.8359-12.277-7.5586zm513.41 0.94531c-7.0859-3.7773-9.4453-12.281-6.1406-19.363 3.7773-7.0859 12.281-9.4453 18.895-6.1406 7.0859 3.7773 9.4453 12.281 6.1406 18.895-2.3633 4.7227-7.5586 7.5586-12.754 7.5586-1.418 0.94141-3.7773 0.46875-6.1406-0.94922zm-535.14-50.539c-2.3633-7.5586 1.418-15.586 8.9727-17.949 7.5586-2.3633 15.586 1.418 17.949 8.9727 2.3633 7.5586-1.418 15.586-8.9727 17.949-1.418 0.47266-2.832 0.47266-4.25 0.47266-6.1406 0-11.809-3.7773-13.699-9.4453zm557.34 3.7773c-7.5586-2.3633-11.809-10.391-9.4453-17.949 2.3633-7.5586 10.391-11.809 17.949-9.4453 7.5586 2.3633 11.809 10.391 9.4453 17.949-1.8906 6.1406-7.5586 9.918-13.699 9.918-1.4141 0.47266-2.832 0-4.25-0.47266zm-570.09-56.676c-0.94531-7.5586 4.25-15.113 12.281-16.059 7.5586-0.94531 15.113 4.25 16.059 11.809s-4.25 15.113-11.809 16.059h-1.8906c-7.5586 0.46875-13.695-4.7266-14.641-11.809zm583.79 7.082c-7.5586-0.94531-13.227-8.0312-12.281-16.059v-0.47266-0.47266c0.94531-7.5586 8.0312-13.227 15.586-12.281 7.5586 0.94531 13.227 8.0312 12.281 15.586v0.47266 0.47266c-0.94531 7.0859-7.0859 12.281-14.168 12.281 0 0.47266-0.94531 0.47266-1.418 0.47266zm-572.93-46.285c-7.5586-0.47266-14.168-7.0859-13.699-14.641 0.47266-8.0312 7.0859-13.699 14.641-13.699 8.0312 0.47266 14.168 6.6133 13.699 14.641-0.47266 7.5586-6.6133 13.699-14.168 13.699h-0.47266zm562.54-19.84c-0.47266-7.5586 5.668-14.641 13.227-15.113 8.0312-0.47266 14.641 5.668 15.113 13.227 0.47266 7.5586-5.668 14.641-13.227 14.641h-0.94531c-7.5547 0.94531-13.695-4.7227-14.168-12.754zm-558.76-32.117c-7.5586-1.8906-12.281-8.9727-10.863-17.004 1.8906-7.5586 9.4453-12.281 17.004-10.863 7.5586 1.418 12.281 8.9727 10.863 17.004-1.418 6.6133-7.5586 11.336-13.699 11.336-0.94141 0-1.8867 0-3.3047-0.47266zm551.67-16.059c-1.8906-7.5586 2.832-15.113 10.391-17.004s15.113 2.832 17.004 10.391c1.8906 7.5586-2.832 15.113-10.391 17.004-0.94531 0.47266-2.3633 0.47266-3.3047 0.47266-6.6133 0-12.281-4.7227-13.699-10.863zm-538.45-34.008c-7.0859-2.832-10.863-11.336-7.5586-18.422 2.832-7.0859 11.336-10.863 18.422-7.5586 7.0859 2.832 10.863 11.336 7.5586 18.422-2.3633 5.1953-7.5586 8.9727-13.227 8.9727-1.418 0.003906-3.3086-0.46875-5.1953-1.4141zm522.86-12.75c-3.3047-7.0859 0-15.586 7.0859-18.895 7.0859-3.3047 15.586 0 18.895 7.0859 3.3047 7.0859 0 15.586-7.0859 18.895-1.8906 0.94531-3.7773 1.418-5.668 1.418-6.1406-0.003907-11.34-3.3086-13.227-8.5039zm-501.13-34.008c-6.6133-4.25-8.5-13.227-4.25-19.363 4.25-6.6133 13.227-8.5 19.363-4.25 6.6133 4.25 8.5 13.227 4.25 19.363-2.832 4.25-7.0859 6.6133-11.809 6.6133-2.3594-0.003906-5.1953-0.94922-7.5547-2.3633zm477.04-8.9766c-4.25-6.6133-2.832-15.113 3.7773-19.836 6.6133-4.25 15.113-2.832 19.836 3.7773 4.25 6.6133 2.832 15.113-3.7773 19.836-2.3633 1.8906-5.1953 2.3633-8.0312 2.3633-4.7188 0-8.9688-1.8867-11.805-6.1406zm-447.29-33.062c-5.668-5.1953-6.1406-14.168-0.47266-19.836 5.1953-5.668 14.168-6.1406 19.836-0.47266 5.668 5.1953 6.1406 14.168 0.47266 19.836-2.832 2.832-6.6133 4.25-10.391 4.25-3.3047 0.003907-6.6094-1.4141-9.4453-3.7773zm416.12-5.1953c-5.668-5.668-5.1953-14.641 0-19.836 5.668-5.668 14.641-5.1953 20.309 0 5.668 5.668 5.1953 14.641-0.47266 19.836-2.832 2.832-6.1406 4.25-9.918 4.25-3.3047 0.003906-7.0859-1.4141-9.918-4.25zm-379.27-31.172c-4.7227-6.1406-3.3047-15.113 2.832-19.836 6.1406-4.7227 15.113-3.3047 19.836 2.832 4.7227 6.1406 3.3047 15.113-2.832 19.836-2.3633 1.8906-5.668 2.832-8.5 2.832-4.2539 0.003907-8.5039-1.8867-11.336-5.6641zm341.96-0.47266c-6.1406-4.7227-8.0312-13.227-3.3047-19.836 4.7227-6.6133 13.227-8.0312 19.836-3.3047 6.1406 4.7227 8.0312 13.227 3.3047 19.836-2.832 3.7773-7.0859 6.1406-11.336 6.1406-2.832-0.47266-5.668-0.94531-8.5-2.8359zm-298.98-28.812c-3.3047-7.0859-0.47266-15.586 6.6133-18.895 7.0859-3.3047 15.586-0.47266 18.895 6.6133 3.3047 7.0859 0.47266 15.586-6.6133 18.895-1.8906 0.94531-4.25 1.418-6.1406 1.418-5.1953 0-10.395-2.8359-12.754-8.0312zm256.94 3.7812c-7.0859-3.3047-10.391-11.809-7.0859-18.895 3.3047-7.0859 11.809-9.918 18.895-6.6133 7.0859 3.3047 9.918 11.809 6.6133 18.895-2.3633 5.1953-7.5586 8.0312-12.754 8.0312-1.8867-0.003906-3.7773-0.47656-5.668-1.418zm-209.71-25.035c-2.3633-7.5586 2.3633-15.586 9.4453-17.477 7.5586-2.3633 15.586 2.3633 17.477 9.918 2.3633 7.5586-2.3633 15.586-9.918 17.477-1.418 0.47266-2.832 0.47266-3.7773 0.47266-5.668 0-11.336-3.7773-13.227-10.391zm163.43 8.5039c-7.5586-1.8906-12.281-9.918-9.918-17.477 1.8906-7.5586 9.918-12.281 17.477-9.918 7.5586 1.8906 12.281 9.918 9.918 17.477-1.8906 6.6133-7.5586 10.391-13.699 10.391-1.418 0-2.8359 0-3.7773-0.47266zm-113.36-20.312c-0.94531-7.5586 4.7227-14.641 12.754-15.586 8.0312-0.94531 14.641 4.7227 15.586 12.754s-4.7227 14.641-12.754 15.586h-1.418c-7.082 0-13.223-5.668-14.168-12.754zm64.707 11.809c-8.0312-0.47266-13.699-7.5586-13.227-15.113 0.47266-7.5586 7.5586-13.699 15.113-13.227 8.0312 0.47266 13.699 7.5586 13.227 15.113-0.47266 7.5586-6.6133 13.227-14.168 13.227h-0.94531z" fill="#fff"/>
  <path d="m747.37 629.76c16.531-81.238-35.895-160.59-117.14-177.12-30.23-6.1406-60.93-2.832-88.797 8.9727 7.5586 6.1406 12.754 14.641 15.113 24.562 13.699-5.1953 28.34-8.0312 43.453-8.0312 8.0312 0 16.531 0.94531 24.562 2.3633 65.652 13.227 108.16 77.934 94.938 143.59-13.699 65.652-77.934 108.16-143.59 94.938-65.652-13.699-108.63-77.934-94.938-143.59 2.832-13.227 7.5586-25.031 13.699-36.367-8.9727-3.7773-17.004-10.391-21.727-18.422-9.4453 15.113-16.059 31.645-19.836 49.594-16.531 81.238 35.895 160.59 117.14 177.12 9.918 1.8906 20.309 2.832 30.23 2.832 69.426-0.47266 132.24-49.594 146.89-120.44z" fill="#fff"/>
  <path d="m794.6 473.42c-32.59-51.484-83.129-87.379-142.64-100.61-122.8-27.863-245.14 49.598-273 172.4-13.227 59.512-2.832 120.44 29.758 171.93s83.129 87.379 142.64 100.61c17.004 3.7773 33.535 5.668 50.066 5.668 36.84 0 72.266-8.9727 103.91-25.031-1.418-0.94531-2.3633-2.3633-3.7773-3.3047-5.668-5.668-9.4453-12.754-11.809-20.309-39.676 19.363-85.961 26.449-132.25 16.059-51.957-11.809-96.355-42.98-125.16-88.324-28.34-44.871-37.785-98.715-25.977-150.67 24.562-107.69 131.78-175.23 239-151.14 51.957 11.809 96.355 42.98 125.16 88.324 28.34 44.871 37.785 98.715 25.977 150.67-6.6133 29.285-19.363 55.262-36.367 77.461 4.7227 2.3633 8.9727 5.668 12.754 9.4453 2.832 3.3047 5.668 6.6133 7.5586 10.391 20.781-25.977 35.895-56.68 43.926-91.156 13.215-59.988 2.8242-120.92-29.766-172.4z" fill="#fff"/>
 </g>
</svg>
