<?xml version="1.0" encoding="UTF-8"?>
<svg width="1200pt" height="1200pt" version="1.1" viewBox="0 0 1200 1200" xmlns="http://www.w3.org/2000/svg">
 <path d="m1119.8 802.8c-38.398-22.082-66.48-58.801-93.602-95.52-25.438-32.641-49.918-65.281-75.117-97.203-28.082-35.52-53.762-72.477-77.281-112.08-4.0781-5.7617-7.6797-12-12-16.801-10.32-16.078-21.121-30.719-33.121-44.641-11.52 13.922-21.84 28.559-33.602 44.641-3.8398 5.0391-7.6797 11.039-11.52 16.801-15.598 27.121-32.879 52.801-51.117 77.281-31.441-41.281-61.199-85.203-89.281-130.56-5.5195-8.1602-9.8398-15.117-14.879-22.078-13.441-19.68-28.082-37.68-42.242-56.641-14.879 18.961-28.559 36.961-41.52 56.641-5.5195 6.9609-9.5977 13.918-15.117 22.078-20.16 32.402-41.281 64.32-63.121 94.801-17.52-23.758-34.801-49.441-50.641-75.121-3.3594-6.2383-7.6797-11.758-11.281-18-10.32-15.84-21.602-29.762-33.121-44.879-11.52 14.879-22.801 28.801-33.602 44.879-4.0742 6.2422-7.6758 11.762-11.277 18-24.238 38.641-49.918 76.32-76.797 110.88-25.922 32.879-50.641 64.801-74.879 98.16-27.359 35.52-56.16 72.48-93.602 94.32-2.8828 0.95703-0.96094 5.0391 0.95703 4.0781 75.359-22.801 146.64-80.398 201.6-144 32.16-37.441 60.48-79.441 87.602-122.88 18.48 30 36.719 58.559 56.641 85.438-30.238 39.359-60 78.238-90.961 117.84-34.078 46.559-69.84 92.16-117.84 120-2.6406 2.1602-0.96094 6 1.6797 6 96.238-29.52 185.52-102.96 254.64-182.4 0.96094-0.96094 1.6797-1.9219 2.6406-2.8789 12.48-14.16 24.48-30 36.719-45.84 24.961-33.602 48.719-70.078 71.52-105.84 30.48 48.48 62.398 96.961 99.121 140.64 3.3594 5.0391 7.9219 10.078 11.281 14.16 8.3984 9.5977 17.996 19.438 27.117 29.52 64.559 67.441 143.52 125.76 227.28 152.64 2.6406 0 5.0391-3.8398 1.6797-5.7617-47.52-27.84-84-73.441-118.08-120-20.645-27.84-41.762-55.68-63.844-83.52 20.641-26.641 39.359-56.398 57.84-85.441 26.883 42.961 55.203 85.441 88.082 123.12 54.238 62.641 125.04 120 201.12 144 1.918 0.71875 3.5977-2.8789 1.918-3.8398z"/>
</svg>
