<?xml version="1.0" encoding="UTF-8"?>
<svg width="1200pt" height="1200pt" version="1.1" viewBox="0 0 1200 1200" xmlns="http://www.w3.org/2000/svg">
 <path d="m852.15 254.72c-36.34-15.637-62.941-45.219-96.16-65.379v0.003906c-31.863-19.84-62.453-41.652-91.59-65.312-4.207-4.6992-10.066-7.5938-16.355-8.082-6.2891-0.49219-12.523 1.4648-17.406 5.4609-45.41 30.613-97.035 49.781-145.64 74.594-35.098 17.918-71.672 33.184-108.4 47.555-8.7617 3.4297-17.676 11.125-27.781 11.199l-0.003907-0.003906c-3.7617 8.1133-8.6562 15.652-14.531 22.395 3.5469 14.262 5.7656 28.82 6.625 43.488 2.0078 51.605 3.0195 103.36 1.5391 154.96h0.003906c-1.7383 89.297 1.2852 178.62 9.0469 267.59 3.9531 50.762 7.1328 101.59 10.602 151.49 1.9062 9.6445-4.1914 20.773 8.3281 26v0.003906c17.547 8.9727 33.91 20.102 48.703 33.125 46.41 34.738 91.59 71.105 137.79 106.12v0.003906c12.051 8.75 24.566 16.844 37.492 24.242 4.4375-3.8203 9.1953-7.2539 14.215-10.266-1-3.4844 2.7695-6.2461 5.7344-9.8906 30.152-37.051 59.332-74.906 90.027-111.49 13.004-15.5 28.395-32.246 50.879-29.23 24.164 3.2422 48.977-0.88672 72.297 5.668 18.363 5.1602 23.82-4.2617 27.754-17.82 1.3281-5.5859 1.707-11.352 1.1211-17.062-2.2461-36.766 2.918-72.879-4.4336-110.7-10.375-53.383-3.6523-109.38-2.8867-164.25 0.74609-53.473 2.5156-106.94 4.3242-160.39 1.4375-42.578 9.207-84.816 6.8711-127.62v0.003907c-1.1445-16.594 0.33594-33.262 4.3867-49.395 1.8281-5.2539 1.5352-11.012-0.80859-16.059-2.3438-5.0469-6.5547-8.9805-11.75-10.977zm-270.61 207.05c-3.4688 3.3008-5.875 10.441-11.578 7.8711-6.3164-2.8438-3.6523-10.164-3.5273-15.672 0.24219-10.934 9.3242-16.23 15.773-22.938l-0.003906-0.003906c16.277-15.078 30.457-32.273 42.164-51.121-16.848 10.852-26.785 28.723-41.953 41.258-4.0352 3.332-7.6133 11.52-13.559 6.7383h0.003907c-2.4648-2.5977-3.9023-6-4.0391-9.5781-0.13281-3.5742 1.0352-7.0781 3.2969-9.8555 7.1602-10.469 15.031-20.434 23.562-29.82 35.516-40.047 76.387-74.699 114.11-112.53 2.6289-2.6367 5.5781-6.543 9.5117-3.6367v-0.003906c1.918 2.3945 2.8516 5.4297 2.6055 8.4883 0.80859 4.9062 0.097656 9.9453-2.0391 14.441-2.1367 4.4922-5.5938 8.2227-9.9141 10.695-15.609 9.8555-29.086 22.738-39.633 37.891-10.902 16.055-28.25 25.828-37.234 43.012 15.148-6.7227 27.871-17.93 36.449-32.109 9.9844-14.84 22.539-27.773 37.082-38.184 7.8828-5.9766 12.43-5.5781 12.555 5.8945 1.418 12.145-2.9844 24.25-11.875 32.645-16.703 14.703-32.668 30.25-48.77 45.629-6.6484 5.6523-11.633 13.008-14.41 21.281 15.574-14.625 30.891-29.543 46.844-43.742 7.2852-6.4844 15.91-22.297 24.23-13.242 7.3359 7.9844 4.582 24.328-8.8789 34.621-15.266 12.461-29.285 26.375-41.859 41.543 12.664-6.0547 24.141-14.332 33.879-24.441 4.9102-3.9961 9.5898-10.766 16.023-8.6094 8.3281 2.7891 2.1133 11.012 3.207 16.707 1.0039 9.5078-2.8008 18.895-10.145 25.02-22.676 26.719-54.59 44.113-73.887 74.066 22.594-11.152 37.273-31.898 56.781-46.766 7.3398-5.5977 12.914-19.559 21.215-16.074 8.5977 3.6133 1.7969 17.199 3.1641 26.25 2.0469 13.582-5.1016 20.492-14.875 29.297-39.066 35.195-80.535 67.973-114.75 108.32-2.7852 3.2852-4.6328 9.1875-9.5898 7.7617-6.4453-1.8555-3.6875-8.5352-3.9766-13.203-1.2539-16.031 5.3906-31.664 17.801-41.887 16.844-14.406 31.066-31.613 42.043-50.867-17.887 6.2969-25.527 23.969-39.035 35.105-5.9648 4.918-12.453 17.863-18.59 11.719-3.6289-4.4766-5.5234-10.113-5.3281-15.871 0.19141-5.7617 2.457-11.258 6.3789-15.48 5.4375-6.1484 11.266-11.934 17.453-17.324 13.258-12.094 24.285-26.426 32.578-42.34-12.684 12.324-25.18 24.844-38.152 36.852-3.9531 3.6602-6.7148 11.121-13.25 9.2734-5.5273-1.5625-6.2344-18.582-6.3438-31.434 20.457-18.672 39.785-40.648 60.383-58.91-19.375 5.1328-29.031 21.027-41.895 33.266zm0.96094 337.18c-0.29297-4.2695-2.4336-8.5977 1.7656-12.453 32.719-30.008 60.871-64.906 97.48-90.746 3.6406-2.5703 7.0742-5.4375 10.594-8.1797 5.5586-4.332 11.191-15.652 17.402-9.8711v0.003906c3.3789 3.8984 5.207 8.9023 5.1367 14.059-0.070313 5.1562-2.0352 10.109-5.5195 13.914-6.4766 7.8516-13.719 15.039-21.625 21.457-30.285 25.051-59.773 50.93-87.586 78.742-3.9883 3.9883-8 12.59-15.027 9.1445-5.3984-2.6484-2.0547-10.523-2.625-16.066zm-4.3867-44.453c-2.582-21.973 15.246-32.277 27.73-44.844 10.43-9.0352 19.707-19.32 27.625-30.621 20.703-11.398 33.883-31.754 53.16-44.879 6.5195-4.4375 15.012-15.598 20.379-7.9258v-0.003906c3.6836 4.4375 5.7539 9.9961 5.8711 15.766 0.11719 5.7656-1.7227 11.402-5.2266 15.988-11.312 12.066-23.23 23.551-35.711 34.406-25.914 22.609-52.027 44.965-75.879 69.816-3.793 3.9492-7.5703 10.777-13.922 7.9609-6.0859-2.6992-3.3984-10.297-4.0273-15.664zm135.52-225.14c3.1133 12.246-2.9023 19.441-11.715 27.34-35.398 31.727-69.875 64.48-104.73 96.809-2.0781 2.4219-4.6484 4.375-7.5352 5.7305-6.5742 2-11.406 15.762-18.344 6.9492v-0.003907c-3.0664-4.1172-4.6953-9.125-4.6367-14.258 0.054688-5.1328 1.7969-10.105 4.9531-14.152 38.184-45.023 80.75-86.141 127.07-122.74 3.375-2.7109 8.3516-6.418 11.953-3.3359 5.1133 4.3711 1.8164 11.816 2.9883 17.664zm-135.22 155.59c19.012-18.738 37.844-37.668 57.289-55.949 16.156-15.188 33.461-29.156 49.5-44.461 7.3477-7.0117 13.43-16.391 24.922-12.18 5.1328 1.8828-0.29297 32.82-6.8828 36.277-23.168 12.148-36.75 35.113-57.527 49.949l-0.003906-0.003907c-6.5039 4.918-10.945 12.082-12.465 20.094-17.156 1.3438-24.027 16.523-35.148 26.102-6.168 5.3125-12.855 18.484-20.539 11.254h-0.003906c-4.0938-4.1914-6.3164-9.8633-6.1562-15.723 0.16406-5.8594 2.6914-11.402 7.0156-15.359zm-21.055 349.87c-34.051-24.68-68.125-49.289-103.29-72.414-24.434-16.062-47.465-34.246-71.305-51.23h-0.003907c-4.3555-3.6484-7.0117-8.9336-7.3477-14.605-10.188-45.832-7.2617-92.496-9.5586-138.83-1.8906-38.098-4.6484-76.152-6.3281-114.25-0.55078-12.48 1.9688-25.086 1.5664-37.59-2.457-76.355-3.6797-152.82-9.0273-228.98-1.7969-25.555 5.0508-50.629-0.17188-75.793v0.003907c-0.65234-1.9805-0.29688-4.1523 0.95312-5.8242 0.64453-2.4844 2.3828-4.543 4.7266-5.5938s5.0352-0.98047 7.3203 0.19531c35.629 18.547 66.828 47.152 100.88 68.652 19.016 12.004 37.777 22.812 57.664 33.105 4.7148 2.2305 9.0938 5.1016 13.012 8.5391 29.266 7.1953 22.27 36.023 24.336 59.156v0.003906c0.56641 5.9141 0.82031 11.855 0.76172 17.797-9.0898 26.145-5.3945 169.07-0.29688 297.9 3.6484 92.25 14.254 183.71 20.812 276.03-11.516-0.51562-16.777-10.523-24.703-16.27zm32.16-205.39c33.82-36.879 71.137-70.395 111.43-100.07 3.6406-2.5117 6.8242-6.9961 11.512-5.0352 3.9688 1.6602 2.4609 6.6328 2.8672 9.707 0.52344 5.8789-1.6055 11.684-5.8047 15.828-34.496 32.832-68.539 66.133-102.89 99.113-5.6133 5.3906-13.441 14.305-20.023 6.3945v-0.003907c-2.7969-3.9219-4.043-8.7383-3.5078-13.523 0.53906-4.7891 2.8281-9.207 6.4258-12.41zm-1.2695 68.762c-3.668-15.844 4.2578-24.516 16.031-34.844 31.055-27.238 59.703-57.215 89.559-85.844 5.7266-5.4922 9.9102-16.746 18.785-13.922 10.004 3.1836 1.7734 14.984 3.5547 17.723 2.5078 6.4453 2.6172 13.578 0.3125 20.098-2.3047 6.5195-6.8711 11.996-12.871 15.438-34.328 27.414-66.055 58.074-99.035 87.199-3.9375 3.4766-6.8086 11.242-13.539 8.1797-5.4766-2.4883-1.6953-9.2852-2.7969-14.031zm1.5156 42.133c-1.6094-5.5781 3.2812-10.203 7.5898-14.812l0.003906-0.003906c22.215-23.609 46.117-45.574 71.52-65.711 10.977-8.7617 21.422-17.922 31.828-27.266 4.543-4.0781 10.102-13.938 16.555-6.1055 2.9492 3.4844 4.4805 7.9531 4.2969 12.512-0.1875 4.5625-2.0781 8.8906-5.2969 12.125-39.426 34.93-70.891 77.789-111.57 111.4-5.4219 4.4805-10.133 6.2227-11.684-3.2852-0.92578-5.6602-1.9375-11.305-3.2344-18.859zm115.66-7.1094v-0.003906c-23.07 25.426-44.719 52.109-64.836 79.934-6.2812 9.6328-14.027 18.234-22.953 25.488-4.0508 3.2812-7.5625 12.066-13.254 6.5469-3.0664-2.918-4.8477-6.9336-4.9531-11.16-0.10938-4.2305 1.4648-8.3281 4.375-11.402 12.238-14.641 24.09-29.629 36.859-43.793 20.789-23.051 37.797-49.223 62.945-71.824-11.66-3.5-14.039 2.7305-17.738 6.6172-25.465 26.758-47.008 57.055-74.152 82.273-4.0586 3.7695-6.3594 14.918-13.492 8.7461v0.007812c-2.8828-3.0859-4.4453-7.1797-4.3516-11.402 0.09375-4.2188 1.8359-8.2383 4.8555-11.191 34.734-36.02 72.641-68.922 105.2-107.11 2.6992-3.1641 7.2734-7.3438 10.461-6.9453 6.9609 0.875 3.6445 8.1094 4.9414 12.59 5.9062 20.398 0.5625 35.129-13.91 52.621zm147.14-639.17c-1.8711 21.562-3.1016 43.18-4.5195 64.781-6.332 96.621-15.332 193.14-15.012 290.06 0.12109 36.902 5.8242 73.82 5.3164 110.68-0.53516 39.02 8.9492 77.465 5.5664 116.29-3.5898 41.258-9.0508 43.652-43.23 37.586-15.012-3.0742-30.348-4.2773-45.656-3.5859-15.254 1.1289-19.316-4.375-18.281-18.039 0.10156-6.3867-0.21875-12.777-0.95703-19.121-6.5156-121.41-6.6719-242.93-6.8086-364.47-0.085937-74.266-4.25-148.51-2.1602-222.8 0.26172-9.2969-8.1758-21.648 0.33594-26.961h-0.003906c11.336-4.4961 23.926-4.7031 35.406-0.58203 24.855 5.1719 49.988 8.7031 74.656 15.246 13.047 3.4609 16.387 8.9258 15.348 20.906z"/>
</svg>
