<?xml version="1.0" encoding="UTF-8"?>
<svg width="1200pt" height="1200pt" version="1.1" viewBox="0 0 1200 1200" xmlns="http://www.w3.org/2000/svg">
 <path d="m914.64 573.84c-31.68-44.641-61.199-98.879-102.24-129.12-31.918-23.758-67.438-40.078-103.44-54.238-0.71875 0 0-0.96094 0.96094-2.3984 30.477-4.082 62.398-2.1602 94.559 6.7188l-87.359-144.48s-188.64 147.6-265.92 247.92c-40.32 51.117-80.398 100.56-120.72 150.72 10.559-24 18.719-48.961 22.078-76.32 3.8398-32.16-43.441-107.28-43.441-107.28l-253.68 277.92s146.16-66.961 214.32-109.44c-8.8828 17.281-75.84 135.6-114.96 206.16 59.52-30.48 123.12-53.281 181.92-76.801 55.441-22.078 111.84-35.039 167.04-54.48 50.879-18.719 99.84-46.801 149.76-69.359 2.8789-1.1992 6.2383 2.8789 3.8398 6-41.285 41.52-86.645 76.562-130.56 113.04l0.71875 23.039h12c60.719 4.5586 116.64 10.801 177.6-6.2383 23.281-6.7188 46.32-9.6016 69.602-16.559 7.9219-1.9219 9.6016 12.238 3.3594 15.121-34.801 17.52-67.441 32.637-103.44 45.84-39.121 13.918-64.801 34.797-100.08 58.32-15.121 11.281-31.199 19.68-48 27.121 40.078 1.4414 81.121 5.2812 118.56 3.3594 71.281-4.3203 144-48.961 214.56-42.48 72 7.6797 138.24 47.762 208.8 67.441 21.602 5.0391 42.719 10.801 64.078 15.84l-228.24-372c-0.95703-1.2031-1.6758-2.1641-1.6758-3.3633z"/>
</svg>
