<?xml version="1.0" encoding="UTF-8"?>
<svg width="1200pt" height="1200pt" version="1.1" viewBox="0 0 1200 1200" xmlns="http://www.w3.org/2000/svg">
 <g>
  <path d="m210.99 590.77c-3.957 18.461-7.9102 36.922-11.867 50.109 35.605-1.3203 80.441-5.2734 122.64-9.2305 58.023-5.2734 100.22-9.2305 130.55-9.2305-38.242-29.012-98.902-77.801-201.76-160.88-19.781 38.242-30.332 88.352-39.562 129.23z"/>
  <path d="m493.19 313.85c-9.2305-14.504-17.145-27.691-25.055-39.559-46.152 34.285-158.24 120-197.8 159.56 80.441 65.934 188.57 151.65 226.81 180.66 35.605-63.297 69.891-142.42 69.891-172.75v-1.3203c-2.6406-15.824-47.477-84.398-73.848-126.59z"/>
  <path d="m739.78 476.04 29.012 9.2305-69.891-245.27c-44.836 5.2734-143.73 15.824-199.12 23.734 6.5938 10.551 13.188 21.098 21.098 32.969 47.473 72.527 71.207 110.77 77.801 131.87 21.102 9.2305 94.945 32.969 141.1 47.473z"/>
  <path d="m965.27 490.55c-9.2305-35.605-40.879-60.66-68.57-83.078l-11.867-9.2305c-15.824-13.188-40.879-42.199-64.617-71.207-40.879-48.793-68.57-79.121-87.031-88.352l72.527 254.5c43.516 6.5938 102.86 2.6367 159.56-2.6367z"/>
  <path d="m362.64 884.84c18.461 7.9102 251.87 58.023 301.98 58.023h3.957c-39.559-118.68-138.46-254.5-180.66-284.84-14.504-6.5938-100.22 1.3203-163.52 7.9102-46.152 3.957-93.625 7.9102-131.87 9.2305 1.3203 2.6367 2.6367 3.957 3.957 6.5938 9.2305 9.2305 32.969 42.199 55.383 73.848 67.254 89.668 93.629 121.32 110.77 129.23z"/>
  <path d="m729.23 507.69c-68.57-22.418-108.13-35.605-130.55-44.836-10.551 52.746-54.066 137.14-76.484 175.38v3.957c51.43 47.473 141.1 175.38 179.34 291.43 47.473-15.824 121.32-50.109 158.24-67.254 5.2734-2.6367 9.2305-6.5938 10.551-11.867l51.43-125.27c0-1.3203 0-1.3203 1.3203-2.6367 14.504-52.746 26.375-106.81 38.242-159.56l6.5938-32.969c1.3203-3.957 1.3203-7.9102 1.3203-11.867-39.559 2.6367-80.441 6.5938-116.04 6.5938-22.422 1.3164-123.96-21.102-123.96-21.102z"/>
 </g>
</svg>
