<?xml version="1.0" encoding="UTF-8"?>
<svg width="1200pt" height="1200pt" version="1.1" viewBox="0 0 1200 1200" xmlns="http://www.w3.org/2000/svg">
 <path d="m1093.2 779.52c-61.438-44.641-112.08-97.199-166.56-149.76-22.801-21.84-46.801-44.641-69.359-68.402 1.9219-4.0781 21.602-4.0781 26.641-0.96094 21.602 12.961 46.32 6.7188 69.359 19.922 44.641 26.641 75.359 79.199 125.52 95.039 6.9609 2.3984 13.199-7.6797 6.9609-12.719-30.242-25.922-60.961-49.441-91.922-76.562-28.801-25.68-117.84-124.8-117.84-124.8s-72.48 30.719-75.359 31.68l-114-127.92s-96.48 97.199-125.04 143.04c-15.121 8.6406-29.523 15.844-44.641 22.562-13.922-18.961-59.52-73.441-59.52-73.441s-75.359 79.199-101.28 107.04c-14.398 16.082-68.398 19.922-82.32 36.723-9.8398-2.8828-63.359 85.438-90.961 104.16-30.957 21.84-53.52 45.84-80.641 72.48-7.1992 7.1992 84.242-18.723 92.402-19.922 8.8789-1.1992 96.961 66.48 114 76.32 21.121 11.762 1.4414-84.48 0-118.08 7.6797 3.1172 18 4.0781 26.16 2.1562 31.199 23.762 70.32 41.762 91.68 64.32 19.68 20.16-27.602-84.238-33.84-100.08-4.8008-14.879 73.68-112.08 77.281-134.88 4.5586-21.84 4.5586-6.9609 12.477 6 7.9219 16.801 11.762 34.078 23.039 48.48 44.641 61.68 266.16 242.16 325.68 233.28 13.199-1.9219-140.64-131.76-157.44-144 0-1.9219-0.96094-2.8789-0.96094-3.8398 40.801 12.719 80.16 28.559 122.88 34.801 20.16 2.8789 33.84-24 14.16-33.84-26.641-14.879-56.641-28.801-86.16-38.641-17.273-11.043-34.074-20.883-49.914-31.922-16.801-11.762-29.52-26.641-42.719-42.719 0.96094-1.9219 1.9219-3.8398 2.8789-5.7617 15.84-19.922 25.68-40.801 30.961-66.48v-1.9219c7.9219-17.762 14.879-35.52 22.078-53.762v-1.9219c14.879 13.922 66 99.121 66 101.28-2.8789 77.523 292.08 232.08 329.52 252.72 12.48 6.9609 21.602-10.801 10.801-19.68z"/>
</svg>
