<?xml version="1.0" encoding="UTF-8"?>
<svg width="1200pt" height="1200pt" version="1.1" viewBox="0 0 1200 1200" xmlns="http://www.w3.org/2000/svg">
 <path d="m1073.3 631.92c-70.082-65.762-132.24-132.96-188.88-218.4-6-8.8789-93.84-99.121-96-95.281 0 1.1992-74.16 114-108.96 150.96-20.879 21.84-42.719 42.48-65.277 62.16-14.879 13.199-32.641 19.199-48.719 29.039-6.9609-17.762-57.602-146.88-72.48-119.28-96 184.56-375.36 416.64-367.68 415.68 101.76-14.879 204.96-58.559 308.16-48.719 6.7188 1.1992-80.883-46.32-125.28-47.281 74.16-48.719 139.44-118.08 191.52-209.28 14.879 32.641 31.199 65.281 48.238 96.961 55.441 103.2 142.8 170.64 224.16 233.04 4.8008 3.3594 7.6797-4.8008 4.0781-7.9219-75.117-67.438-133.2-151.44-181.92-249.6 39.84-16.078 79.922-67.68 103.68-98.398 31.199-40.801 140.4-86.398 160.56-57.602 17.039 24.961 33.359 53.52 53.281 72.48 49.199 44.641 107.04 61.441 158.4 99.121 3.8398 3.1172 6.4805-4.8008 3.1211-7.6797z"/>
</svg>
