<?xml version="1.0" encoding="UTF-8"?>
<svg width="1200pt" height="1200pt" version="1.1" viewBox="0 0 1200 1200" xmlns="http://www.w3.org/2000/svg">
 <path d="m1081.7 853.2c-11.762-11.762-25.68-22.559-38.398-33.84-15.121-27.598-35.762-53.281-54.48-78-13.199-16.801-25.199-32.879-38.879-48.719-14.883-18-22.082-65.52-38.883-81.359-3.8398-5.043-37.438 13.68-43.68 12.957-26.641-25.918-53.281-89.277-64.078-106.32-32.883-58.32-135.12-196.32-152.88-186.48-60.48 34.078-120 144.96-174.48 186.48-27.117 19.918-54.719 37.68-80.637 59.758-13.922 11.762-25.68 25.68-39.359 38.398-13.922 15.121-27.602 13.922-44.402 21.844-64.801 26.879-101.76 97.199-152.88 140.88-51.602 42.719-59.52 76.32-11.281 38.641 32.879-24.961 71.281-22.801 110.16-30.719 34.801-6.9609 85.199-30.961 110.16-55.441 3.8398-4.082 7.1992-8.8828 9.8398-12.961 34.801-18.961 65.52-48.48 97.441-74.398 34.801 0.96094 66.961-6.9609 100.8-16.801 11.762-4.0781 24-8.8789 35.52-13.922-2.6406 3.8398-6.7227 9.1211-9.6016 12.961-18.719 24.961-34.801 50.641-49.68 77.52-6.7188 10.801-10.801 22.559-14.641 34.32-5.0391 7.9219-37.438 79.441-43.438 88.32-1.9219 4.3203 138.72-93.84 188.4-87.121 14.641 3.1211 33.84 3.1211 46.32-5.7617 1.9219-0.96094 6-5.0391 11.762-10.078 22.078 14.641 49.676 27.84 77.758 37.68 3.8398 0.96094 7.9219 2.8789 12.719 3.8398 18.723 6 238.08 103.2 242.88 104.16 8.8789 2.1602 14.879-8.8789 7.918-15.84z"/>
</svg>
