<?xml version="1.0" encoding="UTF-8"?>
<svg width="1200pt" height="1200pt" version="1.1" viewBox="0 0 1200 1200" xmlns="http://www.w3.org/2000/svg">
 <g>
  <path d="m1147 687.6c-58.562-51.84-106.32-108.24-149.04-173.52-33.602-50.637-57.121-87.359-115.68-108.24-34.797-12.719-54-84.238-87.359-61.199-49.68 31.438-202.32 162.48-210.24 163.44h-3.8398c-34.801-8.8789-66.723-23.039-103.44-6.957-22.559 10.801-42.48 26.641-60.238 44.398-30.961 28.082-70.562 41.762-112.08 41.762-53.52 1.1992-95.281 45.602-128.16 82.559-23.762 27.602-49.68 53.52-75.359 79.199-29.52 28.801-34.559 47.52-51.598 84.48 0 1.9219 1.9219 2.8789 3.1211 1.9219 18.957-17.043 45.598-26.883 65.516-43.922 3.1211-2.8789 6.9609-5.5195 9.8398-8.8789 30-6.4805 58.559-15.602 87.359-28.559 31.68-14.879 50.398-50.398 83.281-60.719 35.762-10.805 62.402-6.7227 93.121-28.562h1.9219c11.762 0.96094 10.801 45.359 9.8398 46.559-2.8828 19.922-26.641 36.719-40.32 48.719-23.043 20.641 75.117 8.8828 120.96-26.879 7.9219-6.9609 13.922-15.84 17.762-24.961 24-14.879 43.68-33.84 61.441-52.559 49.441-17.762 99.121-45.602 138-76.32 44.398-35.52 91.918-96.961 112.08-151.68 8.8789 1.9219 19.68 6.2422 30.48 12.719 56.641 32.883 96.48 84.723 136.8 133.2 44.879 52.32 96.48 91.918 152.88 131.04 9.8398 6.7188 21.84-9.1211 12.961-17.039z"/>
  <path d="m880.32 575.28c9.8398-16.559-11.281-38.641-29.039-26.641-60.48 42.719-107.76 76.32-145.68 142.8-33.602 60.719-104.16 95.277-145.68 152.88-7.9219 10.559 8.8789 20.641 18 12.719 42.238-37.68 91.918-67.438 140.64-96.961 1.9219 1.9219 5.0391 4.8008 8.8789 5.7617 1.9219 0-10.801 23.762-12 25.441-0.96094 2.3984-1.9219 5.0391-3.1211 6.9609-6.7148 8.1562-13.676 17.039-19.438 27.117-7.1992 9.8398 5.7617 19.68 14.641 14.879 9.1211-4.0781 131.04-73.441 135.6-88.078 7.1992-1.1992 6.2383-123.12 37.199-176.88z"/>
 </g>
</svg>
