<?xml version="1.0" encoding="UTF-8"?>
<svg width="1200pt" height="1200pt" version="1.1" viewBox="0 0 1200 1200" xmlns="http://www.w3.org/2000/svg">
 <g>
  <rect width="1200" height="1200"/>
  <path d="m552.39 279.39c17.023 1.0039 33.531 6.2422 50.684 6.5938 3.0664 0.35547 5.4258 2.8789 5.5742 5.9609 1.8164 8.6055 7.1523 10.984 15.758 12.004 15.641 1.8516 30.418-2.9648 45.645-3.457 14.492-0.46875 29.086 0.60938 43.48-0.69922 7.3359-0.72656 14.602 1.9375 19.727 7.2344 2.3164 2.4883 4.8516 4.7695 7.5703 6.8086 6.8047 4.1523 13.137 7.5742 11.441 17.902h0.003906c-1.0742 6.332 2.3516 12.57 8.2734 15.066 1.4062 0.83984 2.3477 2.2734 2.5625 3.8984 0.26172 6.1875 4.1484 6.25 8.8438 6.2031 3.6445-0.24609 7.1992 1.2031 9.6328 3.9297 2.4336 2.7266 3.4688 6.4258 2.8086 10.02-0.59766 5.2734-1.5664 10.5-2.9023 15.641-1.4336 5.5664 0.62109 6.8633 5.6172 5.5039 0.24219-0.12109 0.49609-0.21094 0.75781-0.26562 10.195 0.19141 21.125 3.0938 27.883-8.5625 0.95312-0.76172 2.207-1.0312 3.3906-0.72266 1.1797 0.30469 2.1484 1.1484 2.6133 2.2773 0.53125 1.2266 1.5742 2.1562 2.8516 2.5508 10.016 0.53906 12.555 9.1523 16.16 15.758h0.003906c4.0156 6.625 5.3008 14.551 3.582 22.102-3.7305 15.105-5.125 30.734-9.7539 45.68-0.16406 1.5781-0.69531 3.0938-1.5547 4.4258-2.582 2.4414-3.8711 5.9531-3.4805 9.4844 0.38672 3.5312 2.4062 6.6797 5.4531 8.5039 6.5273 5.3242 2.8555 13.656 7.3398 19.539h0.003907c1.7969 3.3086 4.2891 6.1875 7.3008 8.4414 10.969 4.5898 12.906 14.23 15.613 23.855 0.39062 4.2227 2.0508 8.2266 4.7656 11.484 2.4766 3.6016 3 8.1992 1.3945 12.266-1.5977 13.785-1.9961 27.688-1.1836 41.543 0.73438 5.9648-3.1367 11.527-8.9883 12.914-11.613 3.8516-22.316 10.047-31.441 18.199-2.6406 2.7617-4.0898 6.4453-4.0391 10.266 0.054687 3.8203 1.6055 7.4648 4.3164 10.152 4.3359 2.9922 6.1055 8.5312 4.3086 13.48-1.3516 3.8164 0.085937 8.0586 3.4766 10.27 3.1836 2.1797 5.4492 5.4609 6.3633 9.2148 0.91016 3.75 0.40625 7.7031-1.4219 11.105-6.6953 13.516-11.363 27.941-13.855 42.816-0.31641 2.9297-0.80859 5.8516-0.89453 8.7891 0.42188 3.7461-1.9961 7.2305-5.6523 8.1445-4.2227 0.75391-7.7969 3.5547-9.543 7.4727-1.7422 3.9219-1.4258 8.4492 0.83984 12.09 6.5391 15.629 1.2617 29.777-4.6562 43.664v0.003906c-6.0586 12.297-13.758 23.719-22.883 33.949-1.2891 2.4375-3.7852 3.9961-6.5391 4.0859-2.1914-0.21875-4.3555 0.625-5.8203 2.2695-8.6328 11.254-23.52 13.047-33.387 22.48-5.9961 5.7305-14.48 7.5938-21.34 12.316v-0.003906c-2.668 1.9297-6.0508 2.5898-9.2461 1.8008-3.1992-0.78906-5.8867-2.9414-7.3555-5.8906-2.0781-4.3633-7.1367-6.4258-11.676-4.7656-10.066 1.418-20.211 2.1875-30.375 2.3086-2.4258 0.10156-4.8164-0.64453-6.7539-2.1094-7.6523-5.2188-17.473-6.0664-25.906-2.2383-0.67969 0.42969-1.418 0.75391-2.1953 0.96094-15.098 0.42188-25.418 10.383-36.504 18.578v0.003906c-1.7578 2.293-4.6484 3.4219-7.4961 2.9219-9.8516-7.0508-21.914 1.3711-31.633-5.0547-0.23438-0.14062-0.52344-0.16797-0.78125-0.074219-11.32 6.0977-24.039 5.5234-36.164 7.8359v0.003907c-3.7148 1.3984-7.7617 1.6367-11.617 0.6875-1.9883-0.87891-4.2344-1-6.3047-0.33594-12.152 6.0117-19.797-2.1523-25.449-9.8438-6.8477-9.3164-16.172-8.1523-24.879-8.8555-5.4453-0.44141-8.9023-4.8945-14.91-4.2695-6.9492 0.72266-8.1367-6.1562-9.4414-11.645-0.375-3.5664-3.4805-6.2148-7.0625-6.0195-4.4141-0.61328-8.4531-2.8281-11.348-6.2227-2.8906-3.3906-4.4375-7.7305-4.3438-12.188-0.24609-5.8594 0.70703-11.707 2.8047-17.188 1.5273-2.9609 0.78906-6.5859-1.7734-8.7148-7.4336-9.1914-18.027-15.281-29.711-17.07-8.9883-1.3203-16.578-8.3516-26.434-6.9883l-0.003906-0.003906c-1.3359-0.16797-2.4883-1.0156-3.0547-2.2383-3.0664-12.395-13.535-21.977-11.453-36.766-0.16406-7.7773 1.6016-15.473 5.1445-22.395 1.1133-2.2109 1.0039-4.8359-0.28906-6.9492-0.76953-5.1367-1.1719-10.324-1.207-15.52-1.4531-7.0117 1.5-13.59-0.91797-20.781-2.5859-7.6875 2.1328-15.863 4.8516-23.547 0.40625-2.1133 1.4219-4.0664 2.9219-5.6094 11.215-6.9219 7.582-18.922 10.168-28.742l-0.003906-0.003906c1.5039-7.3359 5.1484-14.066 10.469-19.34 8.1328-7.6172 15.336-16.234 22.75-24.59 2.3008-1.6523 3.1133-4.7031 1.9375-7.2812-7.8945-10.027-2.6719-22.324-6.2031-32.957-2.1758-6.5469 0.62891-14.086-4.3555-19.961-0.50391-0.62109-0.71094-1.4297-0.57812-2.2148 6.0586-5.5625 0.26953-12.637 2.4531-18.648 0.43359-0.66797 0.67578-1.4414 0.70313-2.2344-5.9648-14.406 6.3047-21.758 13.066-29.996 10.949-13.336 11.078-25.488 4.957-41-4.4922-11.383-7.3906-23.699-11.039-35.594-0.78516-3.3242-0.46094-6.8164 0.91797-9.9414 1.3789-3.125 3.7383-5.7188 6.7188-7.3828 7.6055-6.6406 14.207-14.344 19.609-22.871 13.316-16.277 25.391-33.941 41.973-47.055 7.5117-5.0508 16.031-8.4023 24.969-9.8203 7.4766-2.4219 14.277-6.5703 19.855-12.105 16.375-12.52 32.539-26.48 55.492-24.73zm261.12 206.59c-0.81641 3.2422-5.8008 4.875-3.6992 9.7969 3.4414-3.7812 6.5625-7.207 10.129-11.125l-4.8477-0.30078c6.7383-2.3828 3.043-9.1094 6.6484-13.438v-0.003906c-4.3672 1.3477-8.3594 3.6992-11.656 6.8633-1.9688 1.9258-2.4883 4.8984-1.2852 7.375 0.44141 2.6953 3.1914-0.125 4.7109 0.83203zm-126.65 162.17c10.684 3.457 18.18-2.7852 27.539-8.543-12.16-2.7539-19.102 5.1836-27.539 8.5742h-0.003906c0.36719-3.3828 2.2695-6.4102 5.1602-8.207-6.1914-2.543-12.512 3.7383-18.152-1.4453-0.57031-0.52344-3.1523 1.7461-3.6953-0.76953v-0.003906c-0.003906-1.6719 1.2305-3.0938 2.8906-3.3242 4.4922-2.2852 8.5664-5.3125 12.051-8.9531-4.5312 1.0977-7.8477-3.793-12.836-1.332-7.8828 3.8867-8.0977 3.4531-12.191 2.0195h-0.003907c9.2773-4.3906 17.891-10.066 25.59-16.855-12.273 3.4141-20.129 13.824-32.145 12.281v0.003907c5.8008-2.0508 11.234-5.0117 16.102-8.7734-2.5859-1.2148-5.5352-1.3984-8.25-0.51562-10.918 2.3359-11.027 2.3438-18.574-2.3867-0.55859 0.23437-1.0703 0.56641-1.5078 0.98437 7.3828 10.941 7.9258 24.727 14.68 36.102-11.379-5.6367-9.8438-19.871-18.758-29.207v-0.003906c1.1328 3.2422 1.8125 6.625 2.0234 10.055-1.2812 10.219 7.3359 17.047 8.5391 26.355 0.23047 1.793 2.0781 1.3398 3.625 1.6758 9.7773 2.1133 17.867 9.2969 28.848 8.0703l-0.39453 2.3555-15.125 0.83984c9.1133 5.7852 17.961 5.0977 25.824 7.707l0.007812 0.003907c5.3047 1.7734 11.047 1.7188 16.316-0.15625 6.082-1.9805 6.8086-8.5078 11.34-11.895 7.2891-5.4492 13.941-11.758 20.777-17.801l-0.003906-0.003906c1.832-0.64453 2.9766-2.4648 2.7695-4.3945-3.4375-9.8867-3.1641-20.457-5.7422-30.496-0.44141-1.7227-1.3164-3.6133-3.0078-2.9805-3.9609 0.58594-8.0078 0.17578-11.773-1.1953-15.117-0.84766-29.973 4.1758-41.473 14.027 2.6641 1.4102 5.6562 2.0781 8.668 1.9453 3.0078-0.13672 5.9297-1.0781 8.4531-2.7227 7.625-4.3242 15.727-7.75 24.145-10.207-3.1211 1.8008 2.543 7.8828-2.6602 6.9023v-0.003906c-6.4648-0.47266-12.832 1.7891-17.547 6.2383 10.453 0.10938 20.895 0.80469 31.273 2.0898-5.043 7.8477-15.234 4.5703-19.957 11.477 3.7891 0.57422 7.6484 0.48828 11.406-0.25391 1.4609-0.95312 3.2812-1.1836 4.9375-0.625 1.6562 0.55469 2.9648 1.8398 3.5547 3.4844 1.3711 3.9258-2.918 4.4883-5.625 5.9648-5.1445 2.8008-11.574 1.7969-16.832 5.5039 2.8828 1.457 6.6367-0.26562 8.0586 5.0234l-0.003906-0.003906c-4.3438-2.2773-9.3438-2.9922-14.156-2.0195-4.8086 0.97266-9.1367 3.5742-12.258 7.3633 5.293-9.8242-0.24219-7.8164-3.6992-7.9453-1.9297-0.074219-4.0312-0.03125-4.125-2.5508v0.003907c1.0547-0.70312 2.2266-1.2031 3.4609-1.4766zm42.535-212.39h-0.003907c3.7812 2.0664 6.6641 5.4531 8.0977 9.5156 0.70312 2.1484 2.3867 3.832 4.5352 4.5312 2.1445 0.70313 4.4961 0.33984 6.332-0.97656 9.1758-4.1914 18.555-7.9102 28.105-11.148 5.0859-0.61719 8.9492-4.875 9.0664-9.9961-0.42969 6.5078 2.8164 5.7461 6.5742 4.6055 7.8789-2.3945 10.117-8.9414 13.121-15.652 1.9805-4.4258 4.8242-8.0352 0.28516-11.734-4.4414-3.6211-7.0273 1.125-10.105 3.2461h-0.003906c-0.59766-0.035156-1.1797-0.19922-1.707-0.48828 0.84375-1.3242 1.6094-2.7031 2.293-4.1172 0.64453-1.5312 4.0469-1.8906 2.2188-4.3281h0.003907c-1.4805-1.6562-3.7422-2.3828-5.9102-1.8867-2.3828 0.23828-4.707 0.87891-6.875 1.8906-4.0898 2.1641-9.1133 1.3516-12.316-1.9844 1.6719-8.4062 3.4531-16.797 4.9766-25.23 0.99219-2.7188 0.35156-5.7656-1.6562-7.8477-2.0078-2.0859-5.0273-2.8438-7.7812-1.957-2.2266 1.043-4.8008 1.0586-7.043 0.046875-2.2422-1.0117-3.9297-2.9531-4.6211-5.3125-0.52734-1.5156-1.6797-2.7305-3.1641-3.3398-8.6367-2.6328-15.418-9.3594-18.113-17.98 6.3086 2.4805 6.918 11.148 14.098 13.176-5.8398-12.156-8.0547-26.219-21.234-34.371-0.17187 8.8984 7.1211 13.891 7.4062 21.465v0.003906c-5.582-5.2734-9.4062-12.137-10.949-19.66-0.33984-3.5859-2.2852-6.8281-5.2891-8.8203-3-1.9883-6.7422-2.5195-10.184-1.4375-4.7305 0.86328-9.5547 1.1094-14.352 0.73438-14.496-1.2109-29.09-0.27734-43.316 2.7695-3.8398 1.9531-8.2422 2.5234-12.453 1.6055-5.0312-1.7656-10.434-2.207-15.684-1.2812-12.469 1.8594-17.195-1.5-21.098-14.301l-0.003906-0.003907c-0.42188-2.0781-2.3086-3.5352-4.4297-3.4102-13.52-2.0469-27.102-5.1055-39.602 3.7539-1.6719 1.1836-4.2422 1.5664-2.8477 4.6289 1.3164 2.8906 3.7109 4.6484 6.3086 2.7734 4.0781-2.9414 9.7461-1.8945 13.312-6.125v-0.003906c1.6797-1.9531 4.6016-2.2305 6.6172-0.625 2.3945 1.9648-2.1914 3.418-0.67578 5.4922-1.043 0.046874-2.0938 0.007812-3.1328-0.12109-2.8867-0.76562-5.9531 0.23438-7.8359 2.5547-1.2031 1.6133 1.4375 3.0117 2.4844 4.4414v-0.003907c1.6328 2.3945 4.7969 3.1836 7.3594 1.832 9.668-2.5664-2.207-6.3516 0.85938-8.9805 4.7148 5.8594 11.344 4.2031 18.168 3.3711-5.3516 8.5078-14.684 6.1406-20.777 10.605 7.3789 8.5703 9.6133 9.0117 19.543 3.9961h0.003906c4.3438-2.9258 9.793-3.6914 14.777-2.0781-5.4336 2.3008-11.086 3.8633-16.68 5.6289v-0.003906c-2.4414-0.10547-4.7461 1.1445-5.9844 3.25 0.35547 2.3867 1.8086 4.4688 3.9258 5.6211 2.6602 1.3984 4.6445 3.8047 5.5078 6.6836-4.3203-2.9258-8.4375-6.1406-12.328-9.6172-0.97266-0.81641-2.2031-1.8359-3.4844-0.46875-1.4414 1.5391 0.14844 2.3906 1.0117 3.2109 2.8438 2.707 5.7773 5.3203 9 8.2695-0.73828 0.23047-1.5078 0.36328-2.2852 0.39453-3.1406-1.4375-5.8867-3.6172-8-6.3516-5.5586-4.207-9.0352-3.418-10.594 2.6836-0.66406 2.6016-1.7031 1.8477-3.3125 1.0938h0.003906c-2.8672-1.1836-5.4102-3.0312-7.4258-5.3867-1.6445-4.1094-5.7578-6.6797-10.168-6.3672 1.6328-5.6055-2.793-8.2539-5.8633-11.32-2.0781-1.4609-4.9297-1.0469-6.5078 0.94531-2.2422 1.918-0.19531 4.3359 1.2695 5.3984 2.668 3.457 6.9375 5.2773 11.277 4.8047-1.0664 1.1758-1.5938 2.7383-1.4609 4.3164 0.42188 1.1133 4.0508 0.4375 1.9141 2.9727-1.7305 2.0547-3.3516 0.55469-4.6992-0.85938-2.4023-2.5195-4.875-4.9844-7.125-7.6406-3.1172-3.6797-4.4922-9.9414-11.941-4.1797-1.5938 1.2305-8.957-4.1133-14.18-0.74609-0.25391 0.085938-0.48828 0.21484-0.69922 0.38281-5.8398 8.75-13.703 16.336-15.473 27.43-0.29297 1.8359 2.2891 5.7188-2.0391 5.1914-2.8906-0.35156-2.3828-3.5195-1.6562-6.0352 3.6172-11.184 10.113-21.223 18.836-29.105 5.4883-5.3867 12.219-2.1211 18.633-1.9883-0.83984-5.6133-9.1641-6.9023-6.0742-14.016h-0.003907c2.8633 1.4062 5.1172 3.8125 6.3359 6.7617 0.37109 1.5898 1.3867 2.957 2.8008 3.7734 1.4141 0.81641 3.1055 1.0117 4.668 0.53906 5-1.1367 2.1797-4.7539 3.1523-8.1797v0.003907c0.75391 1.8945 2.3828 3.3047 4.3711 3.7734 1.9844 0.46875 4.0742-0.066406 5.5938-1.4258 0.86719-0.43359 1.7695-0.44531 1.2617-2.1055-1.4531-4.7734-5.6602-4.4531-9.7344-5.043 6.8594-5.7227 15.754-6.1133 23.508-12.559-13.387-3.1602-27.449-1.6992-39.898 4.1523-12.312 6.875-25.777 12.703-34.801 24.605-2.832 3.2188-6.793 5.2266-11.066 5.5977-9.7852 1.457-19.102 5.168-27.211 10.84-10 8.8633-19.152 18.641-27.332 29.203-11.457 12.926-18.652 29.363-33.277 39.684-3.8867 2.5586-5.5352 7.4336-3.9961 11.824 3.8398 12.531 7.8789 25.016 11.199 37.688 3.1328 11.949 8.3672 23.309-2.2305 35.688-9.4766 11.07-20.012 22.66-17.238 40.289 1.875 11.918 0.4375 12.285 12.793 12.297 2.7773-0.50781 5.6367-0.26172 8.2891 0.70312 2.6484 0.96875 4.9961 2.625 6.793 4.8008 3.2383 3.4258 7.2266 6.0508 11.656 7.6641 4.0039 2.1445 8.9102 1.6484 12.402-1.2578 1.2383-0.71094 2.7891-0.58984 3.8984 0.3125-2.75 1.1211-5.332 2.6172-7.6719 4.4531-1.957 2.0273-6.043 3.7969-4.1172 7.6641h0.003906c1.6523 4.4297 1.1016 9.3828-1.4844 13.34-3.8164 9.793-3.5117 9.9023 6.7461 8.7461 0.28125 0.46094 0.49609 0.95703 0.64062 1.4727-5.4062 2.0586-12.258 3.9805-12 10.719 0.23047 5.9883 6.8359 2.9727 11.094 3.5703-5.9883 6.3789-6.2031 15.98-15.66 18.934 3.7305 2.3867 5.8594-2.0391 10.18 1.4961-8.7617 2.5273-15.59 7.8555-22.742 10.09-14.16 4.418-26.68 12.727-41.301 15.867-2.9102 0.6875-5.3672 2.625-6.7148 5.293-1.3516 2.668-1.457 5.7969-0.28906 8.5469 3.4961 5.0742 1.0195 6.8828-2.6289 9.4844v0.003906c-8.9883 7.2383-14.57 17.879-15.414 29.391-0.30859 1.8516 0.73438 5.5898 2.3125 4.0195 5.3672-5.3438 11.488-1.9141 17.383-2.5898h-0.003907c-3.043 2.0547-5.8203 4.4727-8.2773 7.1992-9.9727 5.7578-9.7617 15.816-10.539 25.203-0.34766 4.1797 0.91406 8.2227 7.0625 4.3828 2.375-2.0195 5.4609-3.0039 8.5703-2.7305 0.074219 0.41016 0.070312 0.83203-0.019531 1.2422-4.9922 3.8945-9.6875 8.1523-14.047 12.742-3.5117 4.9766 4.7773 12.844-4.7695 14.941 0.35547 0.98438 0.62109 1.9961 0.79297 3.0234 0.50781 2.0625 0.55078 4.207 0.12891 6.2852-2.6367 6.1484 1.3125 6.8164 5.6016 7.4648-1.6562 1.1719-2.6562 3.0547-2.7031 5.0781-0.042969 2.0273 0.875 3.9531 2.4805 5.1914 1.3398 1.3711 3.3828 1.7852 5.1523 1.043 1.9062-1.0117 4.2305-0.82031 5.9453 0.48828-0.88672 4.1953-8.1836 0.082031-7.3594 4.9258 0.75391 4.4297 6.3086 2.2734 9.3242 4.0352v0.003907c0.73438 0.32422 1.4297 0.73047 2.082 1.2031 9.4922 8.7852 18.496 4.9922 27.465-0.96094h-0.003907c0.48438 0.070313 0.94531 0.25781 1.3359 0.55078 0.027343 1.3516-0.69922 2.6094-1.8828 3.2656-1.3438 1.1445-4.168 1.918-2.8945 4.0195v-0.003906c1.4102 1.5234 3.3477 2.4453 5.418 2.5781 1.832-0.14453 3.6367-0.51172 5.3828-1.0898 1.6094-0.21484 3.6211-0.10547 3.3242 2.2031-1.0664 8.3164 3.207 10 10.121 8.293 2.082-0.51562 3.8828 0.32422 2.6875 1.8984-6.4531 8.5234 2.043 9.6094 6.2188 13.215-5.0742 5.418-7.8789 12.578-7.832 20.004 0.15625 4.7148 1.1367 7.4219 6.5312 5.418 1.582-0.58594 3.6992-2.332 4.5703 0.51953 0.76172 2.4961-1.7656 2.8125-3.3984 3.6055-1.3203 0.63672-2.5703 1.4141-4.0391 2.2305 4.3398 1.9805 9.0156 3.1172 13.777 3.3516 1.5352-2.1758 3.0078-3.4727 4.6484-0.57812 1.5273 1.4844 2.1172 3.6875 1.5391 5.7383-3.2188 8.3047 0.0625 13.246 8.3516 11.078 5.0234-1.3164 15.016 1.1875 13.645-10.168 0.03125-0.98828 0.66797-1.8516 1.6016-2.1797 0.92969-0.32812 1.9648-0.050781 2.6133 0.69531 3.2656 3.832 5.418 0.41406 7.1484-1.0938h-0.003907c2.8203-2.8398 5.4688-5.8398 7.9336-8.9922 1.1992-1.332 2.4492-3.2812 4.6523-2.1523 1.8945 1.2461 2.4414 3.7812 1.2305 5.6992-0.77344 2.3711-3.1719 5.0469-1.125 7.0508 4.5664 4.4688 1.4102 7.8008-1.1445 10.953-1.7617 2.1719-4.5273 4.1875-1.0586 6.2695 5.2344 3.1406 6.3711 9.0469 10.105 13.121 1.1914 1.3008 2.4883 4.4961 2.7148 4.4023 8.6328-3.6406 17.75 3.5781 26.477-1.5273l-0.003907-0.003906c4.0391-3.6836 9.8242-4.7461 14.906-2.7383 3.9219 0.88672 8.0195 0.57031 11.758-0.90625 3.7383-1.4727 6.9453-4.0391 9.2031-7.3633 2.1641-4.1133 4.8984-8.6602 10.293-6.832 5.5195 1.8672 3.6641 6.8359 2.7383 11.023 0.26953 0.42969 0.63672 0.79297 1.0703 1.0547 3.3828-1.3945 6.7344-2.9258 10.195-4.1328 1.5898-0.55469 4.6445-1.2734 3.9062 1.6797-1.7109 6.8359 1.9766 4.0312 4.8398 3.1641 4.3477-1.2422 8.3477-3.4648 11.699-6.4961 4.1016-5.0117 9.832-8.4219 16.191-9.6328 9.2812-0.60156 18.453-2.3398 27.309-5.1797 3.7852-1.3008 7.8906-1.3203 11.688-0.058594 6.8867 2.75 10.137-0.23828 12.566-6.4531l0.003906 0.003906c0.44922-3.1641 2.7148-5.7656 5.7852-6.6484 3.0703-0.88672 6.3711 0.11328 8.4375 2.5508 1.332 1.6758 3.75 2.0078 5.4844 0.75 6.0078-3.9453 8.4648 0.25781 10.816 4.7539 1.1641 2.2266 0.71484 6.2891 3.9141 6.2695l-0.003906 0.003906c2.7969 0.25781 5.4609 1.2852 7.707 2.9688 2.2422 1.6875 3.9727 3.9609 4.9961 6.5742 1.0508 1.9258 2.9141 3.2734 5.0703 3.6758 2.1562 0.39844 4.3789-0.19141 6.0547-1.6094 6.7266-4.2461 13.496-8.4453 20.004-13.016h-0.003906c3.8281-1.7539 6.9844-4.6953 9.0039-8.3906 1.2148-12.133 13.188-10.051 17.582-17.402l1.625 1.8438c-4.7578 4.3984-9.5117 8.7969-15.32 14.164v0.003906c4.7578-0.30469 9.2188-2.4023 12.488-5.8672 6.6172-7.8047 17.473-10.387 23.402-19.309 1.7539-2.6406 7.0664-4.5312 4.3789-7.8555-3.1641-3.918-4.6406-11.152-11.953-10.062-5.9219 0.88281-11.738 2.4844-17.488 3.7422-0.007813 3.7891 4.4023 4.6836 3.5312 8.9531-2.1055-2.1328-3.7227-4.0781-5.6406-5.6523-3.832-3.1367-21.695 0.0625-28.164 4.2852-3.9453 2.5742 0.91406 4.4609-0.28906 6.9258-5.0938-5.5-7.6445 0.65234-11.117 3.0195-1.5352-4.4141 2.6406-5.3555 3.4609-8.0312v-0.011719c-1.418-1.9102-3.0586-3.6406-4.8945-5.1562-7.4062-4.8008-12.75-14.34-24.199-10.109-3.6289 1.3398-4.7773 1.9062-1.625 4.9492v-0.003906c6.4727 5.6406 12.305 11.984 17.383 18.906 4.1758 6.332 12.262 8.4922 15.883 15.551v-0.003907c0.84375 0.90234 2.0352 1.3984 3.2656 1.3555 1.2344-0.042969 2.3906-0.62109 3.1641-1.5781 1.7891-1.4922 3.6094-2.9492 5.375-4.3906-2.1602-2.457-4.8008 2.3633-8.4219-2.1641 12.898 1.5117 22.211-5.418 32.84-8.0117-1.6953 2.3242-3.8047 4.3086-6.2305 5.8555-12.539 3.2266-21.828 12.051-32.836 17.801-3.4023 1.7773-7.2969 7.7188-10.445 3.7617-1.8594-2.3359 5.1836-4.4219 8.1875-6.6133 2.4727-1.8047 4.4375-2.9141 1.3594-6.0117h0.003906c-6.8203-7.6953-14.027-15.043-21.59-22.012-6.4844-5.3086-8.4531-17.312-20.859-15.164 6.0508-2.9023 12.559-4.7422 19.234-5.4336 12.191-1.332 23.906-5.4766 34.219-12.113 1.2266-0.80078 4.0898-1.0859 2.0977-3.8633-3.0352-4.2305-6.2148-8.4219-12.285-6.1016v0.003906c-2.7969 0.92578-5.7344 1.3594-8.6797 1.2852-24.809 0.625-49.555 2.8086-74.086 6.5391-4.0273-0.57422-8 1.3594-10.031 4.8828-1.2148 2.8242-4.6562 1.5469-7.1328 0.54688v-0.003906c-0.67578-0.089844-1.2812-0.46484-1.668-1.0273-0.38672-0.5625-0.51953-1.2617-0.35937-1.9258 1.2188-1.7734 3.2578-2.7969 5.4062-2.7148 20.055-4.5 40.562-5.5195 60.812-8.3828 10.445-1.4766 22.57 2.3984 31.352-8.2617 2.1992-4.3828 5.1641-8.3398 8.75-11.684-8.1719-1.8906-14.941 2.6016-21.969 0.15234 16.355-1.7852 32.637-3.707 46.543-13.945h0.003906c-4.2031 4.7578-8.9531 8.9961-14.156 12.629 7.4844-3.8867 15.371-6.9492 23.516-9.1289-0.64844 1.6641-1.6719 3.1523-2.9922 4.3555-9.5625 3.0898-18.633 7.5273-26.941 13.18-2.1172 1.0938-6.0781 1.3867-4.7539 4.7773v0.003907c0.53906 1.5273 1.668 2.7812 3.1367 3.4727 1.4688 0.6875 3.1523 0.76172 4.6758 0.19922 5.8203-1.5547 11.867-2.2734 18.594-3.4922-4.4648 7.6797-13.363 4.7148-18.824 9.0859 8.0508 11.109 15.336-1.7656 22.742 0.3125v0.003907c-0.30078 0.62891-0.71484 1.1953-1.2188 1.6758-4.3359 3.2578-7.3945 7.9297-8.6445 13.203-0.058594 0.53906-0.1875 1.0664-0.375 1.5703-10.438-0.92578-20.926 1.0156-30.34 5.6172-1.6758 0.6875-4.7734 2.1406-2.7188 5.4727h0.003906c2.207 3.9961 6.0977 6.7891 10.59 7.6016 4.4922 0.81641 9.1172-0.43359 12.586-3.3984 1.8711-1.8828 4.0078-3.4766 6.3438-4.7305 7.0742-2.1055 6.3867-5.9883 3.25-10.863 3.4844 2.6992 9.1992 2.6211 9.8594 8.9219 0.23438 2.2305 3 2.043 5.3359 1.3047 4.5234-1.4258 9.1758-2.4688 13.824-3.4492 1.8672-0.39453 4.3281-0.51172 4.457-2.4727v-0.003906c-0.18359-1.8594-1.1992-3.5391-2.7578-4.5703-3.5703-1.957-6.2461-5.2188-7.4648-9.1055-1.2148-3.8867-0.87891-8.0938 0.94531-11.734 1.2539-3.7109 1.0508-7.8867 1.9727-11.742 2.2539-9.4062 4.5391-18.688 17.312-18.91 3.3789-0.75391 6.6016-2.1016 9.5117-3.9805 2.0312-1.2578 4.3906-1.8789 6.7734-1.7891 6.2227 1.1602 12.219-2.8984 13.453-9.1055 3.3672-17.445 8.6523-34.457 15.766-50.738 1.9258-4.4492 0.5-9.6406-3.4297-12.488-3.8633-4.0117-10.684-8.0078-4.9141-15.734h0.003907c1.4414-2.4688 0.64844-5.6406-1.793-7.1367-2.6016-1.4453-4.5898-3.7891-5.5938-6.5938-0.57031-4.3867-3.4688-3.6172-5.875-3.1016-5.9531 1.2734-11.793 3.0781-17.723 4.4766l0.003906-0.003906c-4.6562 1.0938-7.9609 5.2266-8 10.004 5.793-2.2852 10.691-4.2852 15.641-6.1406 1.0078-0.43359 2.1523-0.42188 3.1484 0.035156 0.99609 0.46094 1.75 1.3203 2.0742 2.3711 0.375 2.457-1.0273 4.8398-3.3555 5.7109-3.9023 1.4023-1.5312-1.5273-1.6875-2.8086-0.20312-1.6445-1.6328-0.90625-2.4688-0.90625-7.6641 1.2383-14.391 5.7852-18.398 12.434 3.1523 0.9375 6.5664 0.24609 9.1016-1.8477 5.293-2.4453 10.848-4.2734 16.559-5.4453 1.2656-0.58984 2.75-0.46484 3.8984 0.33203 1.1484 0.79688 1.7891 2.1406 1.6797 3.5312 0.0625 1.1523-1.0742 2.6914-1.6719 2.082-6.8164-6.9453-12.508-0.042969-17.676 2.1641-9.1523 3.9062-19.449 7.1406-22.648 19.039-1.375 2.582-1.5703 5.6289-0.54297 8.3633 2.1445 2.6914 5.2109-0.19531 7.3164-1.457 8.8008-5.5977 17.945-10.629 27.387-15.062 3.6055-1.5781 8.2344-7.2266 10.508-3.457 1.8828 3.1211-5.6289 3.4922-8.7266 5.3789-11.816 7.1953-24.062 13.691-36.203 20.352-2.043 1.1211-6.7695-0.55469-5.6406 3.5508 0.91016 3.3086 4.8711 1.4766 7.5195 1.0078h-0.003906c10.738-3.0586 20.789-8.1406 29.613-14.977 4.8203-4.3359 11.066-6.7461 17.547-6.7734l-27.324 16.281c7.4141-0.054688 14.809-0.69141 22.125-1.9062 0.875-0.38672 1.8672-0.40234 2.7539-0.042969 0.88672 0.36328 1.5859 1.0703 1.9414 1.957 0.23438 1.0195 0.039062 2.0898-0.53516 2.9609-0.42188 0.84766-1.2656 1.4023-2.2109 1.457-0.94531 0.058594-1.8516-0.39453-2.375-1.1836-2.1172-1.1055-4.6992-0.76172-6.4531 0.85938-4.7383 2.3711-9.3555 4.9805-13.828 7.8242-6.5508 4.6211-14.793 6.6992-20.945 13.535 14.316 0.42969 24.363-7.332 35.195-13.359 2.4961-1.3906 5.9609-6.9453 8.2969-2.7969 2.6875 4.7695-4.2617 3.3594-6.5039 5.0859-5.8281 4.1562-12.031 7.7617-18.531 10.766-5.3008 2.6797-9.7266 6.9531-17.258 4.5586-4.9688-0.18359-9.9102 0.78516-14.438 2.8359-11.141 3.043-22.582 4.9727-34.98 7.582 1.4922-1.7383 3.5078-2.9453 5.7461-3.4453 8.2656-1.6562 16.238-4.4141 24.637-5.7891 11.871-1.9453 18.789-12.98 29.52-17.547 5.5742-2.2734 10.562-5.7773 14.59-10.254-8.582 0.91797-16.863 3.7031-24.254 8.1641-1.2539 1.3672-3.3438 1.5469-4.8125 0.41406-1.3633-1.2578-3.2617-1.7695-5.0742-1.3672-1.8086 0.40234-3.3125 1.668-4.0117 3.3867-1.1953 3.3203-3.0703 6.3594-5.5 8.918-1.6289-3.8086 2.6055-6.3594 1.4766-10.324-5.3828 1.4609-10.848 2.5938-16.367 3.3867-5.0039 0.039063-9.8789 1.5898-13.984 4.4453-4.1094 2.8555-7.2578 6.8906-9.0352 11.566-3.7109 8.7969-9.1562 16.754-16.008 23.402 0.34375-5.0508 4.6836-7.9375 1.6172-11.719 9.4336-4.4062 11.551-13.969 17.457-22.746-8.082 1.3398-14.273 2.3633-20.469 3.3867 7.2695-0.125 14.324-2.4727 20.215-6.7266 5.8945-4.2539 10.348-10.207 12.758-17.062 0.019531 3.6797-1.1445 7.2734-3.3125 10.246-0.69141 1.5703-3.3594 2.9375-1.5 4.6484 1.6602 0.87891 3.6094 1.0391 5.3945 0.44141 7.4258-1.9609 14.746-4.3125 22.152-6.3516 2.3242-0.80469 4.125-2.668 4.8477-5.0195 3.4141-7.6641 6.543-15.457 10.035-23.816-4.8828 0.57422-8.582 5.0625-14.961 2.3359 6.8398-3.5078 12.531-6.4258 18.223-9.3438h0.003906c-11.613 0.26562-22.766 4.5898-31.52 12.227 0.71875-4.4727 3.793-8.2109 8.043-9.7734 10.031-4.7617 19.469-10.762 29.203-16.152 2.4336-1.375 3.5508-4.2891 2.6562-6.9414-0.75-4.2578-4.2422-1.5234-5.7422-1.2773h-0.003906c-7.0664 1.3633-13.488 5.0195-18.266 10.402-0.69531 0.72266-0.90234 1.9062-1.5625 2.6836-1.1016 1.2969-1.375-0.40625-1.9688-0.57812v-0.003907c-3.2109-1.2812-5.5781-4.0703-6.3203-7.4453 6.2188-7.2812-1.3438-15.309 3.5312-23.703-12.023 11.152-25.449 20.691-39.938 28.371-16.559 8.1172-31.945 2.5625-47.332-1.5703h0.003906c-7.6562-3.1016-14.891-7.1562-21.531-12.062-2.2461-0.98047-3.8867-2.9727-4.418-5.3633-2.0117-11.758-10.562-21.586-9.3672-34.551l0.003906-0.003906c-0.79688-4.2734-0.20703-8.6914 1.6914-12.605 2.5742-3.1875 3.543-7.3828 2.6289-11.383-1.832-7.5469 2.2188-12.914 4.9219-19.359 5.3164-12.68 19.289-15.316 26.465-25.441v0.003906c1.5703-1.1836 3.7266-1.207 5.3203-0.058593 2.1992 1.0117 4.6328 1.3945 7.0352 1.1172 2.9219-0.30078 5.8672 0.22656 8.5 1.5234 2.6367 1.293 4.8516 3.3086 6.3945 5.8047 0.87109 2.0586 2.7461 3.5195 4.9531 3.8672 2.2109 0.34375 4.4414-0.47266 5.9023-2.1641 2.543-1.957 5.4414-3.3984 8.5352-4.2383 6.8516-1.9141 14.691-8.6328 19.527 3.0312l0.003906-0.003906c0.23047 0.5 0.63672 0.89453 1.1445 1.1016 3.9609 1.9336 7.3086 4.9258 9.668 8.6484 2.3555 3.7266 3.6328 8.0312 3.6875 12.438 1.5703 12.418 9.9961 22.992 8.1602 36.117 0.73828-1.7617 1.8711-3.3242 3.3125-4.5781 1.293-1.2578 0.82812-4.2031 4.2969-3.8516h-0.003906c-6.5039 17.992-9.25 37.129-8.0742 56.227 5.7305-1.0938 11.375-2.5938 16.887-4.4922 7.2188-3.0312 14.391-6.4531 15.117-16.176 0.76953-10.312 2.3516-20.566 3.4688-30.855 0.36328-3.3516 2.8789-8.6133 4.0508-7.6875 5.1406 4.0703 8.3633-0.47266 12.055-1.6172 6.8125-2.1133 13.23-5.5703 20.105-7.3555 3.1172-2.2383 7.3398-2.1719 10.383 0.17188-12.711 4.1016-24.895 8.1641-37.172 11.914-3.4805 0.37891-6.293 3.0078-6.9062 6.4531-1.4961 10.258-3.0547 20.508-4.5859 30.758 3.7148-6.5078 4.6133-14.035 11.203-18.727l-0.003907 0.003906c-1.4023 5.2188-3.1992 10.324-5.3789 15.273-1.0508 1.6055-1.0156 3.6875 0.082031 5.2578 1.4609 0.33594 2.9883 0.15234 4.3242-0.52734 4.3438-1.4023 8.6328-2.9805 14.133-4.9102-3.7734 4.7617-9.1953 4.2539-12.09 8.0898 1.6562 0.39844 3.3906 0.28906 4.9805-0.3125 7.5234-0.92578 13.707-2.6992 12.371-12.516 0.078125-2.2148 1.3359-4.2188 3.2969-5.2539 9.8008-7.6875 20.379-14.332 31.559-19.824 11.504-4.4375 11.344-4.8594 9.0469-17.445v0.003906c-5.3359 1.5977-10.297 4.25-14.594 7.7969-4.375 3.0391-9.082 5.5703-14.031 7.5391-0.83984-7.375 4.2188-9.1523 9.3516-10.867 0.75-0.25 1.4922-0.53906 2.2188-0.85156 18.812-8.1055 18.816-8.1055 17.941-28.652v-0.003906c-0.26172-0.77344-0.625-1.5117-1.0859-2.1914-11.195 5.7422-22.395 11.488-33.605 17.238h0.003907c5.6211-5.7227 12.148-10.477 19.324-14.07-12.434 2.5352-24.465 5.7422-36.484 8.9883-10.926 2.9492-10.914 2.9648-5.9141 12.59 0.039062 0.85547-0.0625 1.7148-0.29297 2.5391-14.422-18.414-28.328-36.176-42.234-53.938-0.625 9.8672 8.25 15.172 9.8828 24.211-9.6875-6.1133-9.0859-22.477-25.301-21.785 9.7266-0.25391 6.8359-4.2695 3.8398-8.5v0.003907c-2.582-3.3906-4.9141-6.9609-6.9727-10.695-3.9219-7.7773-8.0508-14.355-18.805-7.7734 6.2148-1.3828 9.4961-6.25 14.973-8.0508 12.727-4.1914 24.793-10.332 37.898-13.566l-0.20312-0.17969c-0.28125 6.0273 2.7656 12.328-1.2734 18.059h0.003906c-0.55469-2.3672-0.76562-4.7969-0.625-7.2227 0.12109-4.6172 0.13281-7.3242-6.4688-5.1094-8.3008 2.7852-16.051 6.8516-24.406 9.3594-4.5 1.3516-3.3203 4.1523-1.7148 6.8555 4.0547 6.8438 8.3359 13.559 12.336 20.434h-0.003907c0.34766 1.0469 1.1797 1.8633 2.2383 2.1875 1.0547 0.32422 2.2031 0.11719 3.082-0.55469-0.082031-3.8555-5.25-5.7344-4.3945-10.445 8.5781 9.2734 8.5742 9.2617 21.445 4.8828h-0.003906c2.3281-0.55469 4.6094-1.2734 6.832-2.1602 0.69922-0.62109 1.668-0.82422 2.5586-0.54297 0.88672 0.28516 1.5625 1.0156 1.7695 1.9219-5.5312 2.6055-11.312 4.6484-17.254 6.0898-4.9727 0.61719-5.0625 3.6484-2.0391 7.2578l-0.003907 0.003907c8.082 9.7305 15.66 19.871 22.699 30.383 1.4336 1.9414 3.1602 3.6445 5.125 5.043 0.50391 0.38672 3.4727 0.76953 2.582-1.1367-2.3906-5.1211 1.8477-4.1445 4.0625-4.9922v0.003907c4.5273-1.4609 8.9766-3.1562 13.324-5.0859 1.5977-0.81641 6.7031-0.53906 3.918-4.7734-1.5938-2.4219-3-6.9297-7.9336-3.3945h-0.003906c-2.9062 1.6484-5.9922 2.9648-9.1992 3.9258 2.8125-4.5195 8.5039-4.4648 12.102-8.9688-6.9141-2.5-12.398 3.2227-19.527 1.3203 5.8438-1.8398 10.539-3.3203 15.719-4.9531l0.003906 0.003907c-3.3008-4.5039-6.0039-9.418-8.0352-14.617l6.457-0.47266c-1.3438 1.1641-1.8711 3.0078-1.3516 4.707 0.51953 1.6953 1.9883 2.9297 3.7539 3.1445 2.0273 0.65234 5.3945 0.27734 5.2812-1.957-0.16797-3.3086 0.27344-8.4023-5.8555-7.7383 4.4375-3.3984 1.3984-8.4844 2.1562-12.434 4.3359-0.65234 0.69141 7.6523 6.4023 4.6289 4.6602-2.4648 9.2969-4.9727 14.125-7.5586l-0.003907-0.003906c-3.1797-2.6602-7.0742-4.3164-11.195-4.7656s-8.2812 0.32812-11.961 2.2383c-1.3594 0.84766-3.9492 3.2148-4.1055-0.011718-0.24219-5.0742-3.0859-4.7031-6.3789-4.6523-4.2539 0.070312-4.8828-1.207-3.9102-5.7617 2.3438-11.012 6.9219-22.035 1.1914-33.773l0.003906 0.003906c-1.5508-3.1797-1.5469-6.8984 0.011718-10.074 7.3633-9.6562 16.086-18.199 25.895-25.359 6.1719-3.7109 10.324-10.027 11.273-17.164 1.5039-6.9492 0.63281-14.195-2.4727-20.59-3.1055-6.3906-8.2656-11.559-14.656-14.668-2.0156-0.71094-4.4922-2.1562-5.6094 0.34375-1.5117 3.3789 2.5469 2.1836 3.7148 3.4883 1.2188 1.3633 5.043 0.89844 3.6953 3.7695-0.29688 1.3477-1.2344 2.4648-2.5117 2.9922-1.2734 0.52344-2.7266 0.39453-3.8867-0.35156-2.1406-1.2383-4.8203-1.0469-6.7617 0.48047 3.875 4.8164 7.5742 9.4062 11.27 14-10.363-5.0508-13.539-3.2227-15.117 9.0977 7.2734-0.87891 13.25-6.8633 21.035-5.3711v-0.003906c-3.1211 2.4219-6.6953 4.1953-10.512 5.2188-9.793 1.957-17.301 5.7422-16.891 17.785-1.5156-10.371-2.5039-10.996-9.5977-8.1016-2.957 1.5234-5.9922 2.8945-9.0898 4.1055-17.152 5.1641-33.59 12.703-50.25 19.484-2.6016 2.1172-6.1406 2.6758-9.2695 1.4648 5.0977-2.1484 9.7148-4.1055 14.336-6.043 3.375-1.4141 5.5703-2.5781 2.0117-6.6797-2.8008-3.8672-5.2188-7.9961-7.2188-12.332zm-324.61 138.64v-0.003906c-3.082 3.1758-7.3125 4.9766-11.738 5-1.9141 0.27734-3.6133 1.375-4.6602 3-1.0469 1.6289-1.3398 3.6289-0.79688 5.4883-0.20312 2.0781 0.75781 4.0938 2.4961 5.2461 1.7422 1.1484 3.9766 1.2422 5.8047 0.24219 2.5352-0.79687 5.125-1.4023 7.75-1.8047 2.0039-0.5 4.6562-1.7852 5.4336 0.84375 0.84375 2.8594-2 2.7578-4.0977 3.4375h0.003906c-5.9414 1.3984-11.418 4.3164-15.891 8.4727 5.7734 2.7031 10.5-1.4727 15.484-0.55859 1.4375 0.26172 3.6797-0.40234 3.4375 2.0664-0.17969 1.8086-1.6055 1.6797-3.4531 1.7734l-0.003906-0.003906c-8.6172 0.78516-16.91 3.668-24.156 8.3945 12.098-2.543 23.918-6.0039 36.793-8-7.5039-9.2227-5.8359-18.148-0.97656-27.68 6.5977-12.941 4.0781-15.047-5.3086-25.684-8.2734-9.375-18.352-6.1094-27.309-9.4844l0.003907 0.003906c-0.54688 4.3516-0.32812 8.7695 0.64453 13.051 1.6602 17.324 1.6016 17.328 20.539 16.195zm434.65-5.5625c-2.6016 1.5742-4.5469 2.9609-6.668 3.9688-1.5625 0.74219-4.3594 0.56641-3.7852 2.9219 0.61328 2.5156 2.9219 1.0586 4.7305 0.79688 8.625-1.2656 16.785-4.5977 25.613-5.1445l-0.003906-0.003906c2.1797-0.21484 4.0781-1.5703 4.9922-3.5625 0.91406-1.9883 0.70703-4.3125-0.55078-6.1094-2.1094-5.0781-3.7109-10.355-4.7812-15.75-3.0234-15.211-10.773-20.895-22.488-16.234h0.003906c-4.5703 2.0625-8.8672 4.6758-12.797 7.7852-3.7344 2.707-1.1328 17.055 2.2617 16.035 6.2227-1.8672 12.68 2.2383 18.527-1.9922 2.9727-2.6367 6.9062-3.9141 10.855-3.5234 0.69531 0.125 2.0352 1.4844 0.92188 2.4766-2.8594 3.582-7.0781 5.8125-11.645 6.1641-9.0156-1.5938-12.992 8.4062-21.129 7.8516v-0.003906c-0.4375 0.57422-0.63672 1.293-0.56641 2.0078 1.7656 2.75 2.875 6.8008 7.6523 4.5859h0.003907c2.5234-1.918 5.7148-2.7383 8.8516-2.2695zm-33.957 203.64c-5.7773 1.1641-11.492 2.625-17.121 4.3672-4.8945 2.4414-7.6367 7.7773-6.7656 13.176-0.058594 4.5859 5.793 2.0273 8.2734 4.0977 1.8203 1.5195 5.2422-4.1602 5.9297 1.3672v0.003906c0.16406 1.6211-0.33594 3.2422-1.3867 4.4883-1.0508 1.2461-2.5625 2.0117-4.1875 2.1211-2.3516 0.41406-4.6445 1.1172-6.8242 2.0898-2.7266 1.6719-5.5117 5.5625-2.7109 7.5664 8.5039 6.082 8.8477 17.102 16.109 23.602 9.6367-8.6914 9.7539-21.309 11.82-33.109 1.7734-10.145-5.9375-19.246-3.1367-29.77zm-91.488-169.94c3.9961 0.79688 8.1133 0.73047 12.082-0.19922 8.9297 1.5859 9.5469-6.3164 12.594-10.789 3.0312-4.4492-2.5938-5.9688-4.7422-8.6484h-0.003906c-0.95703-1.2656-1.5625-2.7617-1.7656-4.3398-0.49609-3.8359-2.7461-3.6602-5.9648-4.0586-7.3047-0.89453-11.809 4.5859-17.664 6.7852-4.7344 1.7734-10.684 0.20312-14.191 4.0703-6.0273 5.1836-12.559 9.75-19.496 13.629-4.8594 2.8828-9.3984 6.2656-13.555 10.098 12.324 1.2578 24.637-2.5039 34.152-10.434 4.4453-3.1641 12.953-2.1523 12.965-10.738 5.2461 1.043 9.5625-2.9805 14.574-2.7031v-0.003906c1.7969 0.39844 3.4531 1.2852 4.7773 2.5586 0.39062 0.375 0.56641 0.91797 0.46484 1.4492-0.097656 0.53125-0.46094 0.97656-0.95703 1.1836-7.2344 0.92969-5.3477 10.113-13.27 12.141zm-13.84-23.375c-2.9336-3.2461-8.5977-1.7305-10.438-7.1797-1.5859-3.2695-4.2578-5.8906-7.5547-7.4141-3.3008-1.5273-7.0273-1.8633-10.547-0.95312-3.668 0.98438-5.9258 4.6641-5.1367 8.3789 1.4844 4.0156 5.1133 2.2695 7.9023 0.35156l-0.003906-0.003906c0.41016-0.34375 0.88672-0.60156 1.4023-0.75391 2.2656-0.39062 4.9961-3.9492 6.6953-0.023438 1.5625 3.6133-2.5859 3.2852-4.3477 4.2422-9.4492 6.332-18.379 13.406-26.703 21.156 6.8828 0.83594 13.793-1.3125 18.988-5.9023 9-6.25 21.426-3.7578 29.742-11.898zm-288.46 34.297c-21.047 2.7148-40.918 8.0039-54.199 26.93 13.238-1 48.383-17.605 54.199-26.93zm313.2 11.227c-17.816 0.40234-34.465-2.4961-46.605 12.109 11.793 1.5781 24.625-1.6641 46.605-12.109zm-36.055 263.96c-0.73047-2.4492-1.3047-5.0352-2.2812-7.457-0.78906-1.9531-1.707-4.1719-4.4805-1.5195-1.3203 2.1367-3.7852 3.2891-6.2695 2.9258-2.4883-0.36328-4.5195-2.168-5.1758-4.5938-0.24219-0.80859-0.97266-1.375-1.8164-1.4141-0.84375-0.035156-1.6211 0.46094-1.9336 1.2461-0.79297 1.4062-2.3125 2.9102 0.52734 4.3281 6.7266 3.3516 12.445 9.6992 21.43 6.4844zm128.62-385.29c2.5273-0.14062 5.0156 0.71094 6.9219 2.3828 2.9766 3.9102 6.4531 0.46875 8.2227-1.0664 2.3711-2.0625-0.16797-5.2773-2.1602-6.418h-0.003906c-3.6055-2.9414-6.2578-6.8906-7.6172-11.344l-3.5156 3.1875c7.9961 5.4219-0.63281 8.6172-1.8477 13.258zm-75.262 96.324c-1.7383 11.668-0.14062 23.586 4.6094 34.383 0.84375-7.5312 1.5508-13.316 2.082-19.117 0.57812-1.1602 0.17969-2.5703-0.92188-3.2539-3.5859-1.6055-3.4922-1.6367-3.8555-3.4688-0.57031-2.8633-1.2695-5.6992-1.9141-8.543zm90.273-148.81c-8.8242 6.7578-20.336 10.148-24.824 21.371 7.8398-7.7539 20.035-10.52 24.824-21.371zm-273.25-126.79c2.1445 2.2656 3.875 4.168 5.6875 5.9883h-0.003906c2.6289 1.7891 6.0508 1.9219 8.8125 0.34766 1.3945-0.27344 2.043-1.3398 1.582-3.5234-0.89062-2.7188-3.2617-4.6875-6.0977-5.0703-3.4961-0.75781-7.1523 0.070312-9.9844 2.2617zm6.668-7.7539c-2.3633-1.4648-4.5742-3.1562-6.6094-5.0508-1.0586-1.2227-2.5703-1.9609-4.1836-2.0508-1.6172-0.085937-3.1992 0.48438-4.3828 1.5859-3.3008 2.5352 0.82812 4.1836 2.043 6.1172 3.75 5.9805 7.7578 3.1094 13.133-0.60156zm264.56 200.35c1.6836-1.0273 5.5391 1.8359 5.1875-2.3867-0.18359-2.2109-1.4727-6.043-4.1719-5.6367v0.003906c-3.2656 0.03125-6.1484 2.1523-7.1445 5.2656-0.28125 4.0742 3.8281 2.1133 6.1289 2.7539zm-141.27 89.703c3.582 0.074219 7.1094-0.87891 10.164-2.7539 3.0508-1.875 5.5-4.5859 7.0508-7.8164-6.3789 2.3555-12.227 5.9492-17.215 10.57zm-17.383 284.62 0.14453-1.6133c-1.8867-1.3281-3.7422-2.707-5.6719-3.9688v-0.003907c-1.5664-1.1289-3.75-0.80859-4.9297 0.71875-1.0508 0.83984-1.4844 2.2305-1.0898 3.5156 0.71484 2.0117 2.6172 1.2422 4.0469 1.3164 2.4922 0.125 5 0.035157 7.5 0.035157zm-29.648-294.72c5.125-2.7969 7.5586-8.8281 5.8047-14.398-4.2266 3.5195-6.4062 8.9258-5.8047 14.398zm12.746-12.715c0.90625-2.7109 2-5.3555 3.2695-7.9102 0.75781-1.1562 0.60156-2.6836-0.37109-3.6602-1.3438-1.0039-2.2969 0.39844-3.3984 1-6.8047 3.7109 0.60547 7.0547 0.5 10.57zm155-70.68c3.0039 0.83203 6.1875 0.77344 9.1602-0.17188 0.92578-0.19531 1.7188-0.78516 2.1641-1.6211 0.44922-0.83203 0.50781-1.8164 0.16016-2.6953-0.32031-0.89844-1.1172-1.5391-2.0625-1.6602-0.94531-0.12109-1.875 0.29688-2.4141 1.082-2.75 1.0312-5.1719 2.7812-7.0078 5.0664zm-237.13-198.79c-1.0156-3.0547-3.0352-5.6758-5.7305-7.4336-0.46875-0.47266-1.1094-0.73438-1.7773-0.72266-0.66406 0.011719-1.2969 0.29688-1.7461 0.78906-0.64844 0.44141-1.3672 1.0664-0.46875 1.8477 2.8281 2.4648 3.7578 8.3281 9.7227 5.5195z" fill="#fff"/>
  <path d="m750.52 368.04c0.42187 5.2227-4.9805 3.4766-6.9062 5.8008 1.5312 4.6992 5.0234 8.5039 9.5742 10.434-2.1758 3.5391-3.6484 4.7148-6.5078 0.42188h0.003906c-2.4492-3.1914-5.418-5.9414-8.7852-8.1367-2.0234-1.4922-4.7969-2.9766-6.6328 0.70703-0.22266 0.63281-0.58203 1.207-1.0547 1.6836-12.465-2.668-22.566 6.6914-36.625 6.625 9.4922-4.5312 19.352-8.2383 29.477-11.086-8.668-10.863-11.176-11.656-22.867-7.293-15.695 5.8555-31.371 11.75-47.035 17.688h0.003907c-1.2812 0.95312-3.0625 0.83594-4.207-0.27344 10.242-5.3867 21.73-7.4492 31.711-13.602-11.523-5.7695-22.664-11.309-33.758-16.938-2.3789-1.1523-4.9297-1.9102-7.5547-2.2461-3.5117-0.54688-10.309 5.6562-9.957-4.1758-5.7969 0.43359-11.207-3.7109-17.18-1.4375-1.2383 0.47656-2.5742 0.64453-3.8945 0.49219 10.629-6.1484 21.758-11.383 33.273-15.652-2.1328-2.1367-5.2031-3.043-8.1562-2.4062-8.625 3.6484-4.8203-3.4102-5.3281-6.3984-0.36328-2.1367 1.3906-2.9492 3.1328-2.0625 11.27 5.7461 21.223-3.3633 32.09-2.0273-5.5938-2.082-11.105-6.0938-16.727-0.28906 0.75781-4.625 2.75-6.6445 6.8711-5.4219 8.0508 2.3945 16.926 0.44141 24.559 5.2148 2.8281 1.0078 5.9336 0.875 8.668-0.36328 6.6094-1.7539-2.8633-3.4961 0.9375-5.207 8.7461 4.0469 16.586 9.8164 23.043 16.969 1.2109 1.8047 3.0742 3.0664 5.1992 3.5156 1.9102 0.19922 3.8047-0.50781 5.1133-1.9102 1.5859-1.668-0.57031-2.8359-1.1914-4.0352-3.707-4.7812-6.4531-10.23-8.0859-16.059 8.9492 9.7031 14.297 21.906 23.727 32.508-3.6484 0.011719-6.8906-2.3281-8.0312-5.793-1.7344-1.8203-3.0078-4.0234-5.8906-2.5156-4.4414 2.3203 0.28906 4.3477 0.37109 7.9141v-0.003906c-1.5195-2.1953-3.8672-3.6758-6.5-4.1016-2.6367-0.42969-5.332 0.23438-7.4648 1.8398-11.512 4.7227-23.125 9.1992-36.473 14.477l21.488 8.5078c-10.129 1.1836-18.602-5.6562-29.559-5.6602 15.141 12.324 27.723 13.141 43.055 4.0312 3.0156-1.793-1.2227-3.8086 1.2188-5.3125 2.5273 4.1328 5.918 2.6914 9.2812 1.0742 4.2852-2.7734 9.3359-4.1289 14.434-3.8789l-0.23047-0.16797c-1.707 3.6992-8.7188 2.1367-8.0898 8.1562v-0.003907c-3.1133-1.6562-6.9531-0.96094-9.293 1.6758 4.2578 2.3359 8.1094 5.3516 11.398 8.9258 3.5078 2.7266 6.0938 3.1094 5.6953-2.6758 6.832 2.6992 13.09-3.1211 19.859-1.3359zm-76.305-29.367c12.672 4.1602 26.512 2.7773 38.113-3.8008-7.7773-10.23-9.1602-10.77-19.988-6.7578-4.7266 1.75-9.2578 4.0156-13.957 5.8555v-0.003906c-2.4023 0.39062-4.0938 2.5742-3.8633 4.9961-5.7695-0.46094-11.496 1.3008-16.008 4.9219 5.2539 0.26172 10.52-0.16406 15.664-1.2617 6.582-1.7539-1.6836-2.7227 0.039062-3.9492zm-49.68 2.9805h0.003907c6.1719 3.3711 13.258 4.6797 20.227 3.7344s13.449-4.0938 18.5-8.9844c-18.16-4.4648-18.16-4.4648-38.727 5.25zm63.035-14.762c-15.398-8.7422-18.504-6.3359-34.426 3.1953 11.918 6.4219 16.758 6.0078 34.43-3.1992zm-33.09 22.234c11.633 8.4727 20.41 2.0352 29.242-3.9414zm29.941-27.895c4.3672 1.6289 8.5664 7.8125 13.5 0.28906v-0.003907c-4.1094-2.5625-9.2891-2.6719-13.5-0.28516z" fill="#fff"/>
  <path d="m458.59 364.32c4.0234 3.082 7.0078 7.3164 8.5586 12.141 2.4766 3.6719 4.5117 9.6875 10.824 3.8906 1.5508-1.0742 3.5117-1.3594 5.3008-0.76953 12.566 5.5078 26.066 2.668 39.008 4.6289 4.1562 0.49219 7.832 2.9258 9.9102 6.5625 2.0742 3.6367 2.3008 8.0391 0.60938 11.867-2.6133 4.9648-3.7617 10.566-3.3125 16.156-0.22266 5.0898-2.6328 9.832-6.6055 13.016-3.9766 3.1797-9.1328 4.4883-14.148 3.5938-2.8516-1.1289-5.9766-1.3672-8.9688-0.69141-2.9922 0.67578-5.7109 2.2383-7.8008 4.4805-3.4453 2.9766-7.918 4.4883-12.461 4.2148-3.6875 0.039063-9.7148-1.0859-7.0586-8.2695h-0.003906c1.5742-4.125 0.40625-8.7969-2.9297-11.695-7.9883-8.3438-8.9688-11.652-1.6289-20.527 6.5898-7.9648 8.9062-13.234-0.75781-20.375h0.003906c-4.8477-4.918-7.8594-11.352-8.5391-18.223zm21.711 36.348c12.359-7.4258 24.879-5.0703 35.859-9.4023-5.3477-0.95312-10.812-1.0469-16.191-0.28125-5.7383 0.35156-11.453-0.96875-16.457-3.7969-0.41406 2.5742 3.4844 4.2188-0.082031 6.5547-4.1602 3.9805-7.6055 8.6445-10.18 13.797-1.3789 1.4805-2.1094 3.4531-2.0312 5.4727 0.082031 2.0234 0.96094 3.9297 2.4492 5.3047 3.6016 3.2891 5.6406 7.957 5.6016 12.84-0.84766 7.0977 3.4766 5.7773 6.668 3.6719v-0.003906c7.207-6.207 16.789-8.9102 26.18-7.3867 8.4727 1.7578 11.992-4.7578 10.973-15.586-1.0938-11.586-7.1367 2.0078-9.7305-1.9258l-0.003907 0.003907c-0.21875-0.16016-0.47266-0.26953-0.73828-0.3125 2.5039-4.168 8.6367-4.0273 12.355-10.051-15.82 4.4414-29.359 10.078-44.066 10.195h-0.003906c10.414-3.2852 20.312-8.0195 29.402-14.07z" fill="#fff"/>
  <path d="m505.86 733.32c5.25 0.99219 9.4883-2.3242 14.859-1.3242-10.41 3.6367-17.691 9.418-16.062 21.832 11.062-1.0938 18.359-14.578 33.258-9.3633-12.391 1.4219-20.199 8.8828-29.809 12.691-3.3789 1.5977-6.2422 4.1094-8.2695 7.25-2.9102 3.8711-6.375 8.5234-12.418 3.2539-3.5508-3.0977-7.0469 0.61328-10.418 1.5391-4.0977 1.125-9.793 4.6484-12.016 1.7812-4.8711-6.2734-13.699-8.7539-16.02-17.094-0.375-0.99609-0.33203-2.1016 0.125-3.0625 0.45703-0.96484 1.2891-1.6953 2.3008-2.0312 4.3242-2.1016 7.9219-5.4492 10.328-9.6172 2.4023-4.168 3.5-8.957 3.1484-13.754-0.26172-7.6562 3.5703-9.9961 9.6133-8.4492 9.3008 2.3828 19.574 1.9297 27.316 9.5312 4.4883 4.4062 7.4961-3.9102 12.055-2.6406-1.1797 4.1992-6.4023 5.1328-7.9922 9.457zm-16.734 9.4688c-8.9414 4.082-18.285 7.2148-27.883 9.3438-2.8711 0.35156-3.3125 3.1328-0.58984 5.3281 2.1914 2.3203 5.0352 3.9219 8.1523 4.5898 3.1211 0.66797 6.3711 0.375 9.3203-0.84375 3.7188-2.1953 8.125-2.9336 12.355-2.0625 7.457 2.1562 6.0664-4.9219 6.4727-7.7617 0.41406-2.9023 2.6328-9.4062-7.8281-8.5938zm8.9648-9.0039c-5.9414-6.6094-14.801-9.7969-23.59-8.4922-5.6211-0.035156-1.6445 7.7148-4.4062 11.055h-0.003906c0.15234 0.29688 0.33984 0.57031 0.55859 0.82422z" fill="#fff"/>
  <path d="m611.97 866.82c9.4102-9.5312 22.184-13.848 31.891-22.652 2.0625 2.2461-1.1758 2.7891-1.1133 4.1367 0.16797 3.6484 3.1953-0.97656 4.1289 1.793l-7.7266 4.9141c8.2461 1.1992 13.152-3.3359 20.363-5.8477v-0.003906c-2.3945 5.1289-7.2969 8.6328-12.922 9.2305-13.273-0.64062-26.141 4.6641-35.098 14.477-4.6719 4.1719-10.395 3.207-15.48 5.0469h-0.003906c-0.62109 0.30469-1.3516 0.31641-1.9805 0.027344-0.63281-0.28906-1.1016-0.84375-1.2773-1.5156-1.5469-7.7422-8.9375-10.379-13.586-15.34v0.003907c-3.4023-2.875-4.1523-7.8242-1.7461-11.574 2.8984-4.0977 2.7969-12.414 11.699-10.25 6.1406 0.39453 12.309-0.15625 18.285-1.6289 3.7344-0.23437 7.3789-1.7461 9.2539 3.1992 2.6055 4.1055 2.4492 9.3828-0.39844 13.324-3.1367 3.4336-4.6914 8.0234-4.2891 12.66zm-2.8477-12.141c-7.1758-0.28906-14.316 1.1289-20.836 4.1367 4.5898 3.082 6.3672 9.918 11.371 8.6641 2.4844-1.0234 4.6406-2.7031 6.2422-4.8633 1.5977-2.1562 2.5781-4.7109 2.832-7.3828 0.074219-0.27344 0.13672-0.54688 0.18359-0.82422 0.74609-0.76562 1.4258-1.5938 2.0391-2.4727 1.8281-2.0898 1.6836-5.2461-0.32422-7.1641-2.2852-1.543-5.3047-1.4688-7.5117 0.1875-2.1836 3.332 2.543 3.6289 3.9414 5.5312h0.003906c0.8125 1.3281 1.5 2.7305 2.0586 4.1875z" fill="#fff"/>
  <path d="m773.26 397.13c4.3438 12.773 6.4688 14.645 17.41 14.594-2.6055 2.3672-3.1875 4.4688-0.65234 6.9766 0.67969 0.6875 1.0469 1.6172 1.0234 2.582-0.027344 0.96094-0.44141 1.875-1.1523 2.5273-1.2109 1.1133-3.7305 1.8359-4.3398 0.57031-5.1797-10.754-12.891-4.7617-19.516-2.832-11.609 3.3828-22.996 7.5469-34.492 11.328h0.003906c-1.2109 0.58594-1.9414 1.8594-1.832 3.2031-1.3633-1.9023-9.1445-0.51562-3.168-6.1797 4.8398 2.4258 8.3281-2.2188 12.695-2.4883 0.67969-0.10938 1.2617-0.54688 1.5508-1.1719 0.29297-0.62109 0.25391-1.3516-0.097657-1.9414-2.8438-4.7344-6.5703-8.8789-10.977-12.211-1.9883-1.6641-4.7461-2.0625-7.1289-1.0352-2.3789 1.0273-3.9766 3.3125-4.1289 5.8984-3.9492-4.0547-8.3789-0.52344-13.719-0.41016 3.6836-3.2539 9.7773-2.6523 9.1641-8.5938 3.8672 4.3398 7.8008 0.92578 12.16 0.011719h0.003906c-3.6055-5.3477-7.5508-10.457-11.809-15.297 1.6172-0.37109 3.3125-0.082031 4.7109 0.80859 1.3984 0.88672 2.3867 2.3008 2.7344 3.918 4.9805 8.625 11.641 9.125 20.234 5.957v0.003906c6.7227-3.0703 13.793-5.3164 21.055-6.6836-3.4219-8.1719-3.2695-17.422-8.6406-24.793-0.92969-1.4023-0.82422-3.25 0.25781-4.5352l0.007813 0.023437c3.9688 0.89453 6.8867 4.2734 7.1953 8.332 1.3164 8.2227 5.3438 15.77 11.445 21.438zm-39.887 12.594c2.8516 3.9258 5.8047 8.0156 8.7852 12.082 1.1445 2.2305 3.7305 3.3125 6.125 2.5703 8.0312-2.6875 16.062-5.3633 24.043-8.1914 1.4727-0.38281 2.7539-1.2773 3.6172-2.5312-1.5859-4.1719-3.918-8.0195-6.8906-11.352-0.69922-1.1641-1.8359-2.0039-3.1562-2.332-1.3203-0.32812-2.7188-0.11328-3.8828 0.58984-9.8633 1.957-19.473 5.0312-28.641 9.1641z" fill="#fff"/>
  <path d="m444.68 497.94c-2.8828 3.6094-9.1875 4.2461-5.5625 8.625 5.6172 6.7852 7.2734-4.6211 12.312-3.3047-3.043 4.5508-7.5898 7.8867-12.844 9.4258-4.625 2.1133-4.707-2.0742-4.4961-4.9258-0.37891-9.1094 0.074218-18.238 1.3516-27.27 0.53125-3.1836 0.66797-6.418 0.41406-9.6328 0.003906-2.4922 0.19922-5.1719-3.9023-3.4414-5.7227 2.4141-6.7852-1.3008-7.5352-5.8516-1.3906-9.5469-1.8555-19.207-1.3867-28.848 0.0625-2.1172-1.4609-5.0703 1.7148-6.2383h0.003906c1.2383-0.36719 2.5703-0.26172 3.7344 0.29688 1.6016 2.3984 2.1172 5.3594 1.4219 8.1602-6.4102 8.0469-0.66406 16.18-0.83984 24.215-0.03125 1.4375 0.82812 1.8203 2.6758 1.2148 6.1484-2.0117 8.1133 1.8906 7.2695 6.8281-1.4961 8.7695 1.2266 17.641-1.2695 26.355-1.5078 5.2578 3.8125 3.2578 6.9375 4.3906z" fill="#fff"/>
  <path d="m605.46 643.67c-3.832 0.36719-7.6914-0.30859-11.172-1.9531-3.4844-1.6445-6.457-4.1953-8.6055-7.3906-2.582-4.8906-1.7305-10.887 2.1133-14.867 4.7109-7.4766 10.316-14.352 16.691-20.469 8.043-7.2617 12.047-17.988 10.734-28.742-1.1953-12.895-0.44141-13.637 11.637-18.051 5.6797-2.0781 10.613-6.7734 17.887-4.3438-6.7031 3.4023-13.293 7.0625-20.156 10.113-2.1055 0.44922-3.9414 1.7227-5.1016 3.5391-1.1562 1.8164-1.5352 4.0195-1.0547 6.1211 3.0078 14.738-3.6836 25.824-13.48 35.711-5.7344 5.9258-10.641 12.598-14.582 19.84-4.2617 7.5898-3.0859 10.535 4.5195 14.535h-0.003907c3.9414 1.1406 7.5586 3.1797 10.574 5.957z" fill="#fff"/>
  <path d="m533.72 500.32c-2.2773 0.67188-4.7266 0.40625-6.8047-0.73438-2.082-1.1367-3.625-3.0586-4.2852-5.3398-0.47266-2.7969 0.19141-5.668 1.8398-7.9727 1.6523-2.3086 4.1562-3.8594 6.957-4.3164 10.434-2.3828 21.16-3.2188 31.836-2.4766 2.0039 0.73438 4.2461 0.375 5.9219-0.94531 0.52734-2.3789-0.3125-4.8555-2.1797-6.418-7.2617-9.7266-12.586-20.758-15.676-32.496 7.1641 12.855 15.059 25.293 23.641 37.254 3.0781 4.4492 1.1445 7.5156-4.7422 7.4922-10.469-0.039062-20.969-0.28906-31.391 0.46875-4.707-0.28125-9.0586 2.4961-10.785 6.8789-1.4492 4.7461 4.7227 4.5156 5.668 8.6055z" fill="#fff"/>
  <path d="m468.86 669.83c1.7227 10.656 8.8945 9.3789 15.066 9.625h-0.003906c7.8867-0.60547 15.816 0.027344 23.504 1.8633 4.9453 0.69531 8.9336 4.3906 10.008 9.2656 0.56641 12.32 8.2773 20.289 15.449 28.879h-0.003906c4.8711 5.7305 8.7812 12.215 11.578 19.199 1.582 2.6211 1.2109 5.9766-0.90625 8.1875-4.0234-18.227-18.078-28.66-27.309-42.363h0.003907c-1.8438-2.2734-2.7383-5.1719-2.4922-8.0898 0.47266-2.8086-0.24609-5.6875-1.9844-7.9453-1.7383-2.2539-4.3438-3.6836-7.1797-3.9375-6.4219-1.957-13.25-2.1367-19.766-0.51953-4.7109 1.2422-9.7148 0.67969-14.031-1.5742-4.5586-2.1211-7.6562-5.8008-1.9336-12.59z" fill="#fff"/>
  <path d="m587.54 523.06c0.82813 6.2891-3.5742 11.027-5.1055 16.641l0.003906 0.003906c-2.2617 5.0938-3.1875 10.684-2.6836 16.238 0.96484 4.3359-5.2031 5.1641-4.7852 9.2656 1.1445 11.23-3.6719 9.7734-10.586 5.2734-3.4023-2.2109-5.5195 1.1289-7.1719 3.3203h-0.003907c-7.4922 10.953-13.547 22.828-18.012 35.328-1.3125 4.4609-3.3789 8.668-6.1094 12.434 0.015624-5.8477 1.5508-11.59 4.4531-16.664 3.2422-11.539 8.6172-22.367 15.848-31.926 3.8359-4.5664 7.0781-10.527 15.043-6.3555 2.9062 1.5234 3.1172-2.2188 3.6406-3.957 3.1914-11.82 7.3359-23.367 12.391-34.52 0.15234-2.0977 1.3789-3.9688 3.2461-4.9414z" fill="#fff"/>
  <path d="m626.91 743.45c1.8594-9.9648 0.71484-20.125 1.8359-30.117 0.67187-3.543 0.24219-7.207-1.2266-10.504-1.4688-3.293-3.9062-6.0586-6.9922-7.9258-2.6719-1.7266-5.457-3.2695-8.168-4.9375-11.066-6.8125-11.336-11.32-1.1641-19.32l0.003906-0.003906c0.35156 0.32422 0.66797 0.6875 0.94922 1.0742-5.8359 7.4844-1.3516 11.559 4.8555 15.266 15.957 9.5273 17.988 14.984 16.121 33.148h0.003906c0.035156 8.1875-2.1133 16.238-6.2188 23.32z" fill="#fff"/>
  <path d="m497.92 531.28c5.8828-0.36719 11.668 1.6289 16.07 5.5469 3.5117 3.2344 7.3555 6.0898 11.469 8.5195 2 0.83203 3.6641 2.3398 2.457 4.1367-1.4766 2.1953-3.7695 1.2383-5.4727-0.46484v-0.003906c-4.7969-5.4219-10.637-9.8242-17.176-12.934-4.207-2.0234-9.1172-1.9805-13.289 0.12109-4.1719 2.0977-7.1328 6.0156-8.0117 10.602-0.25391 0.96484-7.9062 15.574-8.4297 16.293-0.71484 1.5352-2.4922 2.2617-4.0781 1.668-2.2812-1.0508-0.85547-2.9922-0.15234-3.9961 5.2891-7.5508 7.082-17.133 14.188-23.668 3.8359-3.5312 7.1797-7.4609 12.426-5.8203z" fill="#fff"/>
  <path d="m778.68 501.1c-0.25781-1.0117-0.53906-2.0195-0.76562-3.0352-0.88672-4 1.8867-8.8281-2.7188-11.984-2.832 5.0664-6.543 0.11328-9.9531 0.64844-14.559 2.5703-28.801 6.6875-42.48 12.285-1.8516 1.2383-4.1953 1.4766-6.2578 0.64062 9.3867-5.4727 19.543-9.5 30.133-11.953 9.7617-2.4258 19.227-6.8594 29.77-5.3008 1.6484 0.24219 1.3398-1.918 1.9062-3.0195h-0.003906c1.1602-4.6094 1.8945-9.3164 2.1992-14.062 0.63281 11.898-0.058594 23.828-2.0547 35.574z" fill="#fff"/>
  <path d="m668.1 707.18c2.1328 1.2695 4.3711 2.3594 6.6875 3.2578 5.5234 1.7305 11.293 4.1484 15.293-2.9375 1.9648-3.4805 4.0547-1.8516 5.2734 0.60156 2.9219 5.8867 5.6211 11.891 8.2344 17.922l-0.003906 0.003906c0.35547 0.58203 0.43359 1.293 0.21484 1.9414s-0.71094 1.1641-1.3477 1.4141c-0.62891 0.25391-1.3359 0.23438-1.9492-0.054687-0.61719-0.28906-1.082-0.82031-1.293-1.4648-1.6758-4.1562-3.4141-8.2891-5.0273-12.469-0.94922-2.4609-1.7148-3.2578-4.4766-1.4062h0.003907c-3.7617 1.7773-7.9336 2.4883-12.07 2.0586-4.1367-0.43359-8.0742-1.9883-11.387-4.5039-0.63281-0.80859-0.97656-1.8047-0.98047-2.8281-0.023438-1.3672 1.1719-1.5195 2.8281-1.5352z" fill="#fff"/>
  <path d="m782.42 458.77c-2.043-7.8203-3.375-8.4453-10.527-4.4453-9.6758 6.0547-20.098 10.832-31.004 14.211 11.836-11.227 45.809-24.355 53.602-20.059-7.5234 0.13672-13.738 1.0352-12.07 10.293z" fill="#fff"/>
  <path d="m511.44 474.41c-5.6719-0.38281-10.91-2.6016-16.746-2.5078-5.7227-0.68359-11.512 0.44531-16.559 3.2266-1.1836 0.82031-2.4258 1.6289-3.4531 0.41016-0.9375-1.3594-0.80078-3.1875 0.32422-4.3945 1.75-1.5977 3.918-2.6602 6.2539-3.0703 8.5547-3.2148 16.766 0.31641 25.082 1.0078 1.4258-0.11719 2.832 0.41406 3.8203 1.4492 0.98828 1.0312 1.4609 2.457 1.2773 3.8789z" fill="#fff"/>
  <path d="m558.1 710.3c1.4297 0.54297 2.8516 1.1094 4.2891 1.625 7.6055 2.7383 10.051 1 10.812-7.1094 1.2109-12.961 2.6523-25.902 4.0508-38.848v0.003906c0.59766-0.73047 1.3125-1.3516 2.1211-1.832 0.375 3.7695 0.32812 7.5664-0.12891 11.324-2.0586 9.1094-3.1484 18.414-3.25 27.75-0.14453 4.7227-0.058594 10.711-6.1328 12.605v0.003907c-4.7031 0.89844-9.4492-1.332-11.762-5.5234z" fill="#fff"/>
  <path d="m532.36 791.77c-1.9492 6.4297-1.7734 13.316 0.50781 19.633 0.83203 3.9609 3.668 7.1992 7.4805 8.5508 0.94531 0.054687 1.8203 0.51172 2.4102 1.25 0.58594 0.74219 0.83203 1.6953 0.67578 2.6289-0.73047 2.0352-3.2383 1.2695-4.8789 0.73047-11.488-3.7812-15.559-23.617-6.1953-32.793z" fill="#fff"/>
  <path d="m633.55 483.95c8.8906-2.6484 17.438-6.3516 25.449-11.027 1.6562-0.81641 3.6172-0.70312 5.1641 0.29688 1.5508 1.0039 2.457 2.7461 2.3867 4.5898-0.12891 1.5312-1.6562 3.0039-2.5156 1.9766-4.0703-4.8906-6.457-0.09375-9.6016 1.1641l0.003906-0.003906c-6.2617 3.8047-13.805 4.8867-20.887 3.0039z" fill="#fff"/>
  <path d="m542.41 410.52c-3.2617-3.1758-4.9883-7.6133-4.7305-12.16 0.25781-4.5469 2.4727-8.7617 6.0703-11.551 1.0938-0.72656 2.3984-1.1328 3.5586-1.7734 2.4453-1.3477 5.4219-4.4805 7.3828-0.50781 2.1406 4.3438-3.1367 3.3125-4.8242 4.1992h0.003906c-4.418 2.6523-7.1914 7.3555-7.3789 12.5-0.26562 3.0938-0.29297 6.1992-0.082032 9.293z" fill="#fff"/>
  <path d="m633.45 447.97c-6.6484-8.7969-11.398-18.875-13.941-29.605-0.28125-2.0586-1.8555-3.8984 0.61328-5.4141 0.80859-0.60938 1.832-0.87109 2.8359-0.72266 1.5898 1.1133 2.2148 3.1602 1.5195 4.9688-1.4258 8.3594 4.4922 14.344 6.6953 21.516h0.003906c2.0273 2.6289 2.8516 5.9883 2.2734 9.2578z" fill="#fff"/>
  <path d="m432.86 667.64c-10.281 10.445-12.469 26.078-23.461 35.91 5.4883-13.344 13.449-25.527 23.461-35.91z" fill="#fff"/>
  <path d="m754.61 367.34-4.0898 0.70703 0.19922 0.19141c-5.2812-6.375-11.984-11.426-19.57-14.742l0.23047 0.16797c-1.7773-2.918-5.2461-3.4297-7.2148-6.168 12.727 2.4531 20.59 12.777 30.457 19.867z" fill="#fff"/>
  <path d="m443.97 797.6c-8.2188-0.097656-15.879-4.1953-20.52-10.98-0.4375-0.94141-0.42188-2.0273 0.046875-2.9531 0.30078-0.45703 0.80859-0.73438 1.3555-0.73438 0.54688 0 1.0547 0.27344 1.3555 0.73047 5.4258 5.2461 11.379 9.918 17.762 13.938z" fill="#fff"/>
  <path d="m587.71 523.2c1.3828-7.8633 5.1289-15.121 10.742-20.801 0.18359 2.5156-0.80859 4.9688-2.6836 6.6484-1.3438 3.2188 3.8359 3.7344 2.5117 7.332-6.2422-2.4297-7.0781 4.2695-10.734 6.6797z" fill="#fff"/>
  <path d="m429.95 679.85c5.3086-8.6445 14.34-14.332 24.434-15.383-8.6562 4.2656-16.848 9.4219-24.434 15.383z" fill="#fff"/>
  <path d="m493.67 799.02c1.9102 2.1875 5.6367 0.94922 5.1445 4.7969 0.027344 3.3281-2.4922 6.1289-5.8047 6.4531-2.4922 0.33984-4.0938-0.30859-3.8867-3.3789 0.94922-2.9141 2.4961-5.5938 4.5469-7.8711z" fill="#fff"/>
  <path d="m642.03 837.23c-4.5469 6.9492-11.207 7.5195-15.66 11.242h0.003906c-0.41797 0.34766-0.96875 0.48047-1.5 0.35938-0.52734-0.12109-0.96875-0.48047-1.1914-0.97266-0.44531-0.68359-0.56641-1.5273-0.32422-2.3086 0.24219-0.77734 0.82031-1.4062 1.5781-1.7188 5.0703-2.168 10.281-4.0078 17.094-6.6016z" fill="#fff"/>
  <path d="m674.31 842.93c6.8125 7.25 13.621 14.5 20.434 21.75-7.9414-6.0234-15.309-12.77-22.008-20.152z" fill="#fff"/>
  <path d="m495.38 855.46c4-4.8711 9.6328-8.125 15.852-9.1484 0.79688-0.20312 1.6406-0.039062 2.3008 0.44531 0.66406 0.48828 1.0742 1.2422 1.1211 2.0625 0.050781 0.53906-0.16797 1.0703-0.58203 1.418-0.41016 0.34766-0.96875 0.47266-1.4922 0.33594-5.9336-0.35156-10.605 4.0117-17.199 4.8867z" fill="#fff"/>
  <path d="m407.88 727.86c-1.2578 9.5938-5.0117 18.684-10.887 26.371 2.6797-9.1523 6.332-17.992 10.887-26.371z" fill="#fff"/>
  <path d="m566.41 349.87c-3.75-3.3516-7.7305-6.4375-11.91-9.2344-3.9844-2.2969-0.03125-4.3203 0.33594-5.0625 1.4531-2.9297 2.9492 0.21875 3.2812 1.0469 1.8984 4.75 8.1836 6.8125 8.293 13.25z" fill="#fff"/>
  <path d="m484.77 562.63 16.414-5.5117c-4.8516 3.6445-8.8828 9.6523-16.414 5.5117z" fill="#fff"/>
  <path d="m559.68 597.35c-2.9805 2.9844-6.5 5.3711-10.379 7.0352 1.5352-9.3438 2.2227-9.8281 10.379-7.0352z" fill="#fff"/>
  <path d="m517.52 874.72c0.74219-2.7695 2.2969-5.2539 4.4648-7.1328 2.168-1.875 4.8477-3.0586 7.6953-3.3984-3.6992 3.8984-7.7734 7.4258-12.16 10.531z" fill="#fff"/>
  <path d="m826.21 596.67c6.4727-2.4219 12.047-7.6328 21.336-7.3516-6.5234 3.9141-13.789 6.418-21.336 7.3516z" fill="#fff"/>
  <path d="m485.27 419.09h27.875c-9.0391 2.2422-18.398 2.9023-27.664 1.9492z" fill="#fff"/>
 </g>
</svg>
