<?xml version="1.0" encoding="UTF-8"?>
<svg width="1200pt" height="1200pt" version="1.1" viewBox="0 0 1200 1200" xmlns="http://www.w3.org/2000/svg">
 <path d="m909.84 502.56-34.801 91.199c-48.719-53.277-260.4-318.48-283.44-313.2-1.9219 0.96094-175.44 372.96-175.44 372.96l94.078-84.48s81.359 153.84 75.121 148.56c-21.602-20.641-67.199-58.32-67.199-58.32l-28.559 80.402-18-63.602s-147.84 77.281-152.88 80.398c-4.8008 4.082 97.438-181.44 97.438-181.44l-85.441-119.28s-92.16 193.68-108 232.32c-1.1992 1.918-4.0781 0.95703-2.8789-0.96094 3.8398-24 5.7617-46.559 8.8789-70.559-58.559 86.398-133.92 188.4-132 190.32 0 61.68 226.08 112.32 504.72 112.32 221.28 0 408.72-31.922 477.12-76.32 12.719-7.9219 21.602-16.801 24.961-25.68 1.6797-4.082-193.68-314.64-193.68-314.64zm-172.56 196.32c5.0391 22.078 8.8789 43.68 9.8398 63.602-4.8008-5.0391-9.8398-9.8398-14.879-14.879-15.602-15.84-30.48-33.602-44.641-50.641-12.723-15.84-24.723-31.922-35.523-48.48-42.719-62.641-63.359-191.76-27.598-263.04 46.32 63.359 292.32 342.24 292.32 342.24s-165.36-27.84-179.52-28.801z"/>
</svg>
