<?xml version="1.0" encoding="UTF-8"?>
<svg width="1200pt" height="1200pt" version="1.1" viewBox="0 0 1200 1200" xmlns="http://www.w3.org/2000/svg">
 <path d="m600 13.441c323.88 0 586.56 262.68 586.56 586.56s-262.68 586.56-586.56 586.56-586.56-262.68-586.56-586.56 262.68-586.56 586.56-586.56zm-207.6 468.84v-122.76l207.6-153 207.6 153v245.64l-161.16 118.8v102.84h-92.879v-149.52l161.16-118.8v-152.28l-114.72-84.602-114.72 84.602v76.078h-92.879zm207.6 395.28c32.039 0 57.961 25.922 57.961 57.961 0 32.039-25.922 57.961-57.961 57.961s-57.961-25.922-57.961-57.961c0-32.039 25.922-57.961 57.961-57.961zm0-744.36c257.76 0 466.8 209.04 466.8 466.8 0 257.76-209.04 466.8-466.8 466.8s-466.8-209.04-466.8-466.8c0-257.76 209.04-466.8 466.8-466.8z" fill-rule="evenodd"/>
</svg>
