<?xml version="1.0" encoding="UTF-8"?>
<svg width="1200pt" height="1200pt" version="1.1" viewBox="0 0 1200 1200" xmlns="http://www.w3.org/2000/svg">
 <g>
  <path d="m964.56 750.72c-21.602-11.039-40.801-35.762-57.602-53.762-16.078-15.836-32.879-31.918-48.477-47.516-34.801-34.801-81.602-64.801-106.32-106.08-18.719-31.922-33.84-67.684-74.641-73.441-32.398-6-63.121 4.0781-92.641 16.797-25.68 12-49.68 25.441-74.641 41.52-15.84-13.438-30.957-28.559-47.277-46.316-24-26.879-65.52-21.84-96.48-12-86.402 30.719-138 118.08-219.12 155.52-6.9609 3.1211-2.3984 14.879 4.8008 12.961 76.32-22.801 135.84-75.121 209.04-103.2 38.879-14.879 60.961-9.8398 91.922 14.879 3.5977 4.3203 7.4375 6.9609 11.758 10.082-23.039 16.801-44.641 35.039-66.48 51.602-71.281 58.559-143.04 103.2-234 127.92-26.879 7.6758-28.32 42.477-6.2383 56.395 88.078 58.32 213.36 52.801 312.72 32.641 26.16-4.8008 52.078-13.922 77.762-22.801 39.84-15.84 70.801-7.9219 106.32 14.16 44.641 28.801 77.281 51.359 133.2 50.398 8.8789 0 8.8789-14.879-0.96094-14.879-60.961 1.2031-94.559-31.438-142.8-60.477-48-27.602-96.719-12.961-148.32-7.9219-71.039 7.1992-159.36 5.0391-234.72-15.84 51.602-19.68 102.24-42.719 148.56-71.52 61.922-36.48 119.04-78 182.88-110.88 20.641-11.039 43.68-22.078 67.441-22.078-14.879 0 2.8789 15.84 8.8789 26.641 9.8398 16.801 24.48 30.961 40.32 42.961 36.961 28.559 79.68 49.68 119.04 74.398 19.68 12 38.879 24 59.52 33.84 24 10.801 46.801 9.8398 71.762 17.762 6.957 2.6367 11.758-8.8828 4.7969-11.766z"/>
  <path d="m1053.6 634.56c-53.523-38.637-101.76-80.16-147.84-128.88-44.402-48.719-76.32-112.08-128.88-152.64-31.918-24.961-70.32-30.961-105.84-12.238-44.641 24-86.16 53.758-130.32 79.438-9.8398 6-5.5195 24 6 23.039 41.762-4.3164 79.68-25.918 116.4-43.676 51.598-24.723 89.039 5.7578 128.88 37.438 83.762 68.641 153.6 165.6 254.4 209.28 8.8828 4.0781 15.121-6.9609 7.2031-11.762z"/>
 </g>
</svg>
