<?xml version="1.0" encoding="UTF-8"?>
<svg width="1200pt" height="1200pt" version="1.1" viewBox="0 0 1200 1200" xmlns="http://www.w3.org/2000/svg">
 <g>
  <path d="m1020 160h-240v-20c0-11-9-20-20-20h-320c-11 0-20 9-20 20v20h-240c-33 0-60 27-60 60s27 60 60 60h240v20c0 11 9 20 20 20h80v100c0 11 9 20 20 20v183.8l120-75v-108.8c11 0 20-9 20-20v-100h80c11 0 20-9 20-20v-20h240c33 0 60-27 60-60s-27-60-60-60z"/>
  <path d="m660 596.2-120 75v52.602l120-75z"/>
  <path d="m540 823.8 120-75v-52.602l-120 75z"/>
  <path d="m540 923.8 120-75v-52.602l-120 75z"/>
  <path d="m600 1080c8.1992 0 15.602-5 18.602-12.602l40-100c1-2.3984 1.3984-4.7969 1.3984-7.3984v-63.801l-117.6 73.398 39 97.801c3 7.6016 10.402 12.602 18.602 12.602z"/>
 </g>
</svg>
