<?xml version="1.0" encoding="UTF-8"?>
<svg width="1200pt" height="1200pt" version="1.1" viewBox="0 0 1200 1200" xmlns="http://www.w3.org/2000/svg">
 <g>
  <rect width="1200" height="1200" fill="#fff"/>
  <path d="m816.44 312h6.5c7.4805 0 13.602-6.0469 13.602-13.527v-25.016c0-7.4805-6.1211-13.527-13.602-13.527h-445.87c-7.4805 0-13.602 6.0469-13.602 13.527v25.016c0 7.4805 6.1211 13.527 13.602 13.527h6.5742l171.55 245.61c8.918 12.773 13.68 27.887 13.68 43.527 0 1.9648-0.074219 3.9297-0.22656 5.8203-1.0586 13.527-5.668 26.449-13.453 37.711l-169.96 243.34h-8.1602c-7.4805 0-13.602 6.0469-13.602 13.527v25.016c0 7.4805 6.1211 13.527 13.602 13.527h445.87c7.4805 0 13.602-6.0469 13.602-13.527v-25.016c0-7.4805-6.1211-13.527-13.602-13.527h-8.0859l-170.04-243.34c-7.8594-11.262-12.469-24.184-13.453-37.711-0.15234-1.8906-0.22656-3.8555-0.22656-5.8203 0-15.645 4.6836-30.758 13.68-43.527zm-190.21 232.61c-11.637 16.625-17.758 36.199-17.758 56.527 0 2.2656 0.074219 4.5352 0.30078 6.7266 1.1328 17.91 7.1055 34.988 17.457 49.801l154.62 221.27h-361.61l154.54-221.27c10.352-14.812 16.324-31.891 17.457-49.801 0.22656-2.1914 0.30078-4.457 0.30078-6.7266 0-20.328-6.1211-39.902-17.758-56.527l-154.54-221.27h361.61z"/>
  <path d="m538.71 429.96c-7.3086 0-11.594 8.2227-7.4141 14.215l61.062 87.43c0.03125 0.046875 0.058593 0.089844 0.089843 0.13672 3.7266 5.3359 11.387 5.3359 15.105 0 0.03125-0.039063 0.054688-0.082032 0.082031-0.12109l61.098-87.438c4.1875-5.9922-0.097657-14.215-7.4141-14.215h-122.61z"/>
  <path d="m513.84 783.07-40.301 57.707c-4.5664 6.5312 0.11328 15.5 8.0781 15.5h236.81c7.9648 0 12.645-8.9688 8.0781-15.5l-40.316-57.707c-1.8438-2.6367-4.8594-4.2109-8.0781-4.2109 0 0-58.582-16.375-78.109-16.375-19.52 0-78.074 16.375-78.074 16.375-3.2227 0-6.2461 1.5742-8.0898 4.2109z"/>
  <path d="m617.66 762.48c0 9.7383-7.8945 17.629-17.633 17.629s-17.629-7.8906-17.629-17.629 7.8906-17.633 17.629-17.633 17.633 7.8945 17.633 17.633"/>
  <path d="m614.34 716.07c0 8.0117-6.4922 14.504-14.5 14.504-8.0117 0-14.504-6.4922-14.504-14.504 0-8.0078 6.4922-14.5 14.504-14.5 8.0078 0 14.5 6.4922 14.5 14.5"/>
  <path d="m610.39 673.35c0 5.7344-4.6484 10.383-10.387 10.383-5.7344 0-10.383-4.6484-10.383-10.383 0-5.7344 4.6484-10.383 10.383-10.383 5.7383 0 10.387 4.6484 10.387 10.383"/>
 </g>
</svg>
